<svg id="adf05b34-105a-4aa0-994d-82e064fbef68" data-name="Слой 1" xmlns="http://www.w3.org/2000/svg" viewBox="0 0 3662.46 2951.35"><g id="b13612ae-1bb8-4e1c-8878-8028080f4444" data-name="WALL"><path d="M613.94,347.24H3219.07A202.44,202.44,0,0,1,3421.5,549.68v828.86a0,0,0,0,1,0,0H411.5a0,0,0,0,1,0,0V549.68A202.44,202.44,0,0,1,613.94,347.24Z" fill="#f4e6e9"/><polyline points="534.77 347.24 534.77 862.89 409 862.89" fill="none" stroke="#fff" stroke-miterlimit="10" stroke-width="5"/><rect x="409" y="862.89" width="125.77" height="515.65" fill="none" stroke="#fff" stroke-miterlimit="10" stroke-width="5"/><rect x="534.77" y="347.24" width="125.77" height="515.65" fill="none" stroke="#fff" stroke-miterlimit="10" stroke-width="5"/><rect x="534.77" y="862.89" width="125.77" height="515.65" fill="none" stroke="#fff" stroke-miterlimit="10" stroke-width="5"/><rect x="660.54" y="347.24" width="125.77" height="515.65" fill="none" stroke="#fff" stroke-miterlimit="10" stroke-width="5"/><rect x="660.54" y="862.89" width="125.77" height="515.65" fill="none" stroke="#fff" stroke-miterlimit="10" stroke-width="5"/><rect x="786.31" y="347.24" width="125.77" height="515.65" fill="none" stroke="#fff" stroke-miterlimit="10" stroke-width="5"/><rect x="786.31" y="862.89" width="125.77" height="515.65" fill="none" stroke="#fff" stroke-miterlimit="10" stroke-width="5"/><rect x="912.09" y="347.24" width="125.77" height="515.65" fill="none" stroke="#fff" stroke-miterlimit="10" stroke-width="5"/><rect x="912.09" y="862.89" width="125.77" height="515.65" fill="none" stroke="#fff" stroke-miterlimit="10" stroke-width="5"/><rect x="1037.86" y="347.24" width="125.77" height="515.65" fill="none" stroke="#fff" stroke-miterlimit="10" stroke-width="5"/><rect x="1037.86" y="862.89" width="125.77" height="515.65" fill="none" stroke="#fff" stroke-miterlimit="10" stroke-width="5"/><rect x="1163.63" y="347.24" width="125.77" height="515.65" fill="none" stroke="#fff" stroke-miterlimit="10" stroke-width="5"/><rect x="1163.63" y="862.89" width="125.77" height="515.65" fill="none" stroke="#fff" stroke-miterlimit="10" stroke-width="5"/><rect x="1289.4" y="347.24" width="125.77" height="515.65" fill="none" stroke="#fff" stroke-miterlimit="10" stroke-width="5"/><rect x="1289.4" y="862.89" width="125.77" height="515.65" fill="none" stroke="#fff" stroke-miterlimit="10" stroke-width="5"/><rect x="1415.18" y="347.24" width="125.77" height="515.65" fill="none" stroke="#fff" stroke-miterlimit="10" stroke-width="5"/><rect x="1415.18" y="862.89" width="125.77" height="515.65" fill="none" stroke="#fff" stroke-miterlimit="10" stroke-width="5"/><rect x="1540.95" y="347.24" width="125.77" height="515.65" fill="none" stroke="#fff" stroke-miterlimit="10" stroke-width="5"/><rect x="1540.95" y="862.89" width="125.77" height="515.65" fill="none" stroke="#fff" stroke-miterlimit="10" stroke-width="5"/><rect x="1666.72" y="347.24" width="125.77" height="515.65" fill="none" stroke="#fff" stroke-miterlimit="10" stroke-width="5"/><rect x="1666.72" y="862.89" width="125.77" height="515.65" fill="none" stroke="#fff" stroke-miterlimit="10" stroke-width="5"/><rect x="1792.49" y="347.24" width="125.77" height="515.65" fill="none" stroke="#fff" stroke-miterlimit="10" stroke-width="5"/><rect x="1792.49" y="862.89" width="125.77" height="515.65" fill="none" stroke="#fff" stroke-miterlimit="10" stroke-width="5"/><rect x="1918.26" y="347.24" width="125.77" height="515.65" fill="none" stroke="#fff" stroke-miterlimit="10" stroke-width="5"/><rect x="1918.26" y="862.89" width="125.77" height="515.65" fill="none" stroke="#fff" stroke-miterlimit="10" stroke-width="5"/><rect x="2044.04" y="347.24" width="125.77" height="515.65" fill="none" stroke="#fff" stroke-miterlimit="10" stroke-width="5"/><rect x="2044.04" y="862.89" width="125.77" height="515.65" fill="none" stroke="#fff" stroke-miterlimit="10" stroke-width="5"/><rect x="2169.81" y="347.24" width="125.77" height="515.65" fill="none" stroke="#fff" stroke-miterlimit="10" stroke-width="5"/><rect x="2169.81" y="862.89" width="125.77" height="515.65" fill="none" stroke="#fff" stroke-miterlimit="10" stroke-width="5"/><rect x="2295.58" y="347.24" width="125.77" height="515.65" fill="none" stroke="#fff" stroke-miterlimit="10" stroke-width="5"/><rect x="2295.58" y="862.89" width="125.77" height="515.65" fill="none" stroke="#fff" stroke-miterlimit="10" stroke-width="5"/><rect x="2421.35" y="347.24" width="125.77" height="515.65" fill="none" stroke="#fff" stroke-miterlimit="10" stroke-width="5"/><rect x="2421.35" y="862.89" width="125.77" height="515.65" fill="none" stroke="#fff" stroke-miterlimit="10" stroke-width="5"/><rect x="2547.12" y="347.24" width="125.77" height="515.65" fill="none" stroke="#fff" stroke-miterlimit="10" stroke-width="5"/><rect x="2547.12" y="862.89" width="125.77" height="515.65" fill="none" stroke="#fff" stroke-miterlimit="10" stroke-width="5"/><rect x="2672.9" y="347.24" width="125.77" height="515.65" fill="none" stroke="#fff" stroke-miterlimit="10" stroke-width="5"/><rect x="2672.9" y="862.89" width="125.77" height="515.65" fill="none" stroke="#fff" stroke-miterlimit="10" stroke-width="5"/><rect x="2798.67" y="347.24" width="125.77" height="515.65" fill="none" stroke="#fff" stroke-miterlimit="10" stroke-width="5"/><rect x="2798.67" y="862.89" width="125.77" height="515.65" fill="none" stroke="#fff" stroke-miterlimit="10" stroke-width="5"/><rect x="2924.44" y="347.24" width="125.77" height="515.65" fill="none" stroke="#fff" stroke-miterlimit="10" stroke-width="5"/><rect x="2924.44" y="862.89" width="125.77" height="515.65" fill="none" stroke="#fff" stroke-miterlimit="10" stroke-width="5"/><rect x="3050.21" y="347.24" width="125.77" height="515.65" fill="none" stroke="#fff" stroke-miterlimit="10" stroke-width="5"/><rect x="3050.21" y="862.89" width="125.77" height="515.65" fill="none" stroke="#fff" stroke-miterlimit="10" stroke-width="5"/><rect x="3175.99" y="347.24" width="125.77" height="515.65" fill="none" stroke="#fff" stroke-miterlimit="10" stroke-width="5"/><rect x="3175.99" y="862.89" width="125.77" height="515.65" fill="none" stroke="#fff" stroke-miterlimit="10" stroke-width="5"/><polyline points="3427.53 862.89 3301.76 862.89 3301.76 347.24" fill="none" stroke="#fff" stroke-miterlimit="10" stroke-width="5"/><rect x="3301.76" y="862.89" width="125.77" height="515.65" fill="none" stroke="#fff" stroke-miterlimit="10" stroke-width="5"/></g><g id="f7d5dd6a-cc9c-4933-979a-da6b556949d6" data-name="WOMAN"><g id="b50ce0f3-ccb3-4c64-9232-88d54d863a1d" data-name="CLOTHES"><path d="M2210.77,1129.13h289.48a144.62,144.62,0,0,1,129.46,80.16l145.09,291.43c34.83,70-16.06,152.14-94.21,152.14H2032.14c-84.24,0-140.37-87-105.69-163.72L2039,1240A188.46,188.46,0,0,1,2210.77,1129.13Z" transform="translate(-617.52 -274.32)" fill="#a71333"/><path d="M2244,1128l-163.6,524.83h513.08L2492.29,1128h-32.87l9.68,106.3a83.2,83.2,0,0,1-82.86,90.83h-42.11a83.2,83.2,0,0,1-81.45-100.2l20-96.93Z" transform="translate(-617.52 -274.32)" fill="#fff"/></g><g id="a41eeca9-50fd-4fc8-98eb-8112387c43ce" data-name="BAG"><polygon points="1887.61 1325.83 1920.6 997.28 1953.65 997.28 1975.64 1325.83 1887.61 1325.83" fill="#560014"/><polygon points="1688.39 1325.83 1743.4 997.28 1920.6 997.28 1887.61 1325.83 1688.39 1325.83" fill="#ce3f50"/><path d="M2550.87,1271.6a40.86,40.86,0,0,0-40.66,36.77l-1.68,16.79H2320.32l1.68-16.79a40.86,40.86,0,0,1,40.66-36.77Z" transform="translate(-617.52 -274.32)" fill="#ce3f50" stroke="#560014" stroke-linecap="round" stroke-miterlimit="10" stroke-width="5"/><path d="M2384.48,1421.82h-4a21,21,0,0,0-21,21h0a4.46,4.46,0,0,0,4.46,4.46h93.61" transform="translate(-617.52 -274.32)" fill="none" stroke="#fff" stroke-linecap="round" stroke-miterlimit="10" stroke-width="4"/><path d="M2413.81,1409.65h-5.88a27.88,27.88,0,0,0-27.88,27.88v.2a9.57,9.57,0,0,0,9.57,9.57" transform="translate(-617.52 -274.32)" fill="none" stroke="#fff" stroke-linecap="round" stroke-miterlimit="10" stroke-width="4"/><path d="M2463.5,1417.32a25.13,25.13,0,0,0-23.84-17.17h-5.83a25.13,25.13,0,0,0-25.12,25.13v11.85a10.16,10.16,0,0,0,10.16,10.17" transform="translate(-617.52 -274.32)" fill="none" stroke="#fff" stroke-linecap="round" stroke-miterlimit="10" stroke-width="4"/><path d="M2442.27,1441.21v-5.87a18,18,0,0,1,18-18H2462a27.1,27.1,0,0,1,22.14,11.49l5.15,7.31a7.09,7.09,0,0,1-5.8,11.18h-35.14A6.08,6.08,0,0,1,2442.27,1441.21Z" transform="translate(-617.52 -274.32)" fill="none" stroke="#fff" stroke-linecap="round" stroke-miterlimit="10" stroke-width="4"/><line x1="1759.67" y1="1193.76" x2="1852.13" y2="1193.76" fill="none" stroke="#fff" stroke-linecap="round" stroke-miterlimit="10" stroke-width="4"/></g><g id="a5871f72-7191-4400-adcb-7642598f44cb" data-name="HANDS"><path d="M2015.8,1652.86h525.38a33.92,33.92,0,0,0,24.93-10.92l19.76-21.44a28.59,28.59,0,0,0,7.45-22l-3.23-34.73h-7.78a16.11,16.11,0,0,0-15.41,11.44l-4.44,14.7a14.45,14.45,0,0,1-13.83,10.26h-61.17l8.74-2.67a28.7,28.7,0,0,0,20.29-26.43h0l-476.43-117.66c-63.8-15.75-125.47,32.54-125.47,98.26h0A101.21,101.21,0,0,0,2015.8,1652.86Z" transform="translate(-617.52 -274.32)" fill="#ffacb2"/><path d="M2779.36,1508.58l-146.62-294.5a72.69,72.69,0,0,0-65.06-40.29h-52.56a69.28,69.28,0,0,0-65,45.25l-18.55,50.12A23.44,23.44,0,0,0,2447,1299.8l45.12,13.09a29.14,29.14,0,0,0,32.94-12.71l12.16-19.76a18.54,18.54,0,0,1,15.79-8.82h18.12l19.28,288.13a99.8,99.8,0,0,0,99.58,93.13h0C2764.14,1652.86,2812.4,1574.93,2779.36,1508.58Z" transform="translate(-617.52 -274.32)" fill="#ffacb2"/><path d="M2475.45,1226.74l-18.54,50.13a23.43,23.43,0,0,0,15.44,30.63" transform="translate(-617.52 -274.32)" fill="none" stroke="#560014" stroke-linecap="round" stroke-miterlimit="10" stroke-width="5"/><path d="M2497.47,1232.24l-18.55,50.13a23.44,23.44,0,0,0,15.45,30.64" transform="translate(-617.52 -274.32)" fill="none" stroke="#560014" stroke-linecap="round" stroke-miterlimit="10" stroke-width="5"/><path d="M2522.78,1237.75l-18.54,50.12a23.41,23.41,0,0,0,4.54,23.8" transform="translate(-617.52 -274.32)" fill="none" stroke="#560014" stroke-linecap="round" stroke-miterlimit="10" stroke-width="5"/><path d="M2584.69,1254.66a20.24,20.24,0,0,1-20.24,20.24h-12.74" transform="translate(-617.52 -274.32)" fill="none" stroke="#560014" stroke-linecap="round" stroke-miterlimit="10" stroke-width="5"/></g><g id="ad56fb00-55a7-4c71-ad9d-8027744cf13e" data-name="HEAD"><path id="fe77c976-6468-4c0c-91ae-a5ad945f7a48" data-name="HAIR" d="M2499.47,1110.93c-20.2-26.3-16-119.37-18.88-123.81-5.14-8-67.92-40.26-89.83-40.11-12.55.08-80.7,37.19-80.7,80.64,0,29.22,22.28,67.56,77.79,81.08S2499.47,1110.93,2499.47,1110.93Z" transform="translate(-617.52 -274.32)" fill="#560014"/><path id="b8eea1df-1198-42b5-8355-b3b9c23090ef" data-name="NEACK" d="M2446.87,1129.13v-71.29l-79.9-6.53-52.16,77.82s.49,49.47,67.68,49.47S2446.87,1129.13,2446.87,1129.13Z" transform="translate(-617.52 -274.32)" fill="#ffacb2"/><path id="bc89c2ca-f163-4a4c-882b-2d43cca5bf80" data-name="HEAD" d="M2465.45,1035c-1.6,17-6.9,34.43-11,46a16,16,0,0,1-19,10.07l-31.25-8a35.83,35.83,0,0,1-26.63-29.67l-17.61-2.57a22.84,22.84,0,0,1-19.31-25.89l.66-4.55a22.84,22.84,0,0,1,25.9-19.31l7.77,1.13a17,17,0,0,1,9.74,4.94c6.06-16.84,16.69-33.54,34.92-32.44,2.74.17,5.32.43,7.76.78,1,8,4.41,20.79,15.8,29,9.58,6.89,17.6,7.67,22.36,7.25A107.68,107.68,0,0,1,2465.45,1035Z" transform="translate(-617.52 -274.32)" fill="#ffacb2"/><g id="bf74049c-34a9-4d18-8ddd-002d6f3c00f8" data-name="FACE"><path d="M2362.77,1012.66a14.52,14.52,0,0,1,12.27,16.46" transform="translate(-617.52 -274.32)" fill="none" stroke="#560014" stroke-linecap="round" stroke-miterlimit="10" stroke-width="5"/><path d="M2398.44,1010.06c5.36-8.66,17.43-10.89,27-5" transform="translate(-617.52 -274.32)" fill="none" stroke="#560014" stroke-linecap="round" stroke-miterlimit="10" stroke-width="5"/><path d="M2465.65,1011.05c-15.46-1.8-28.87,5.32-31.34,33.63" transform="translate(-617.52 -274.32)" fill="none" stroke="#560014" stroke-linecap="round" stroke-miterlimit="10" stroke-width="4"/><ellipse cx="2454.03" cy="1030.76" rx="6.09" ry="3.77" transform="matrix(0.14, -0.99, 0.99, 0.14, 462.65, 3036.18)" fill="#560014"/><ellipse cx="2414.81" cy="1023.01" rx="6.09" ry="3.78" transform="translate(436.76 2990.74) rotate(-81.71)" fill="#560014"/><path d="M2378.29,1050.54a35.83,35.83,0,0,0,27,34.72l32.35,8a16,16,0,0,0,19-10.07" transform="translate(-617.52 -274.32)" fill="none" stroke="#560014" stroke-linecap="round" stroke-miterlimit="10" stroke-width="5"/><path d="M2418.24,1048.13c.85,7.26,7.42,11.51,14.67,10.66" transform="translate(-617.52 -274.32)" fill="none" stroke="#560014" stroke-linecap="round" stroke-miterlimit="10" stroke-width="4"/></g></g></g><g id="bfa90a1c-0f8c-4ee8-85a7-03e55f0d7dd6" data-name="PLANT"><path d="M4164.18,1652.86H4048.66a40,40,0,0,1-37-55.14l46.68-113.58h96.08l46.68,113.58A40,40,0,0,1,4164.18,1652.86Z" transform="translate(-617.52 -274.32)" fill="#a71333"/><ellipse cx="3488.9" cy="1219.26" rx="49.53" ry="39.2" fill="#560014"/><line x1="3503.68" y1="1237.63" x2="3503.68" y2="861.43" fill="none" stroke="#ce3f50" stroke-linecap="round" stroke-miterlimit="10" stroke-width="4"/><path d="M4165.21,1039.9c0,34.17-44,107-44,107s-44-72.83-44-107,19.7-61.86,44-61.86S4165.21,1005.74,4165.21,1039.9Z" transform="translate(-617.52 -274.32)" fill="#ce3f50"/><path d="M4059.16,1180.55c11.75,19.24,12,75.4,12,75.4s-49.84-25.87-61.6-45.11-10.19-41.63,3.49-50S4047.4,1161.31,4059.16,1180.55Z" transform="translate(-617.52 -274.32)" fill="#ce3f50"/><path d="M4070.89,1277.62c16.36,8.67,37.66,52.8,37.66,52.8s-48.48,7.2-64.84-1.46-23.56-27.19-16.05-41.36S4054.52,1269,4070.89,1277.62Z" transform="translate(-617.52 -274.32)" fill="#ce3f50"/><path d="M4192.66,1330c-8.2,19.34-45.94,52-45.94,52s-2.77-49.81,5.43-69.15,23.92-31.17,35.11-26.42S4200.86,1310.65,4192.66,1330Z" transform="translate(-617.52 -274.32)" fill="#ce3f50"/><path d="M4082.8,1395.2c9.48,19.45,4.16,73.33,4.16,73.33s-45.7-29-55.17-48.48-5.74-40.79,8.35-47.65S4073.33,1375.75,4082.8,1395.2Z" transform="translate(-617.52 -274.32)" fill="#ce3f50"/><path d="M4267.61,1374.77c-12.61,11.6-54.38,20.14-54.38,20.14s12-40.92,24.59-52.52,29.5-13.76,37.72-4.81S4280.22,1363.17,4267.61,1374.77Z" transform="translate(-617.52 -274.32)" fill="#ce3f50"/><path d="M4181.23,1478.14c-7.37,8.4-33.86,16.82-33.86,16.82s4.93-27.36,12.3-35.75,18.17-11,24.13-5.73S4188.6,1469.75,4181.23,1478.14Z" transform="translate(-617.52 -274.32)" fill="#ce3f50"/><path d="M4212.71,1202.83c-20.1,21.67-90.84,42-90.84,42s14.93-72.06,35-93.72,48.88-27.64,64.29-13.35S4232.8,1181.17,4212.71,1202.83Z" transform="translate(-617.52 -274.32)" fill="#ce3f50"/><line x1="3531.37" y1="1218.92" x2="3531.37" y2="1101.72" fill="none" stroke="#ce3f50" stroke-linecap="round" stroke-miterlimit="10" stroke-width="4"/><path d="M4148.89,1477.62a70.54,70.54,0,0,1,28.94-57l53.6-39.17" transform="translate(-617.52 -274.32)" fill="none" stroke="#ce3f50" stroke-linecap="round" stroke-miterlimit="10" stroke-width="4"/><path d="M4121.21,1385.37a129.83,129.83,0,0,0-14.26-59.14l-38-74.3" transform="translate(-617.52 -274.32)" fill="none" stroke="#ce3f50" stroke-linecap="round" stroke-miterlimit="10" stroke-width="4"/><path d="M4067.06,1449.67l12.92,9.19a32.37,32.37,0,0,1,13.59,26.35v27.42" transform="translate(-617.52 -274.32)" fill="none" stroke="#ce3f50" stroke-linecap="round" stroke-miterlimit="10" stroke-width="4"/><circle cx="3569.37" cy="830.42" r="10.63" fill="none" stroke="#560014" stroke-linecap="round" stroke-miterlimit="10" stroke-width="4"/><circle cx="3582.17" cy="1033.7" r="11.56" fill="none" stroke="#560014" stroke-linecap="round" stroke-miterlimit="10" stroke-width="4"/><circle cx="3424.01" cy="1194.21" r="10.63" fill="none" stroke="#560014" stroke-linecap="round" stroke-miterlimit="10" stroke-width="4"/><circle cx="3449.05" cy="921.87" r="12.11" fill="none" stroke="#560014" stroke-linecap="round" stroke-miterlimit="10" stroke-width="4"/><circle cx="3549.97" cy="1116.67" r="8.25" fill="none" stroke="#560014" stroke-linecap="round" stroke-miterlimit="10" stroke-width="4"/><circle cx="3486.7" cy="708.08" r="10.63" fill="none" stroke="#560014" stroke-linecap="round" stroke-miterlimit="10" stroke-width="4"/></g><g id="e901dfad-9c74-4e93-8113-7cca7a2cd2bb" data-name="BAR"><path d="M409,1468.67H3424a0,0,0,0,1,0,0V2692a118.09,118.09,0,0,1-118.09,118.09H527.09A118.09,118.09,0,0,1,409,2692V1468.67A0,0,0,0,1,409,1468.67Z" fill="#ce3f50"/><polygon points="409 1548.88 409 1468.67 3424.01 1468.67 3424.01 1469.4 409 1548.88" fill="#560014"/><rect x="187.05" y="1378.54" width="3435.62" height="90.13" fill="#fff" stroke="#560014" stroke-linecap="round" stroke-miterlimit="10" stroke-width="5"/></g><g id="bfac6178-bf3e-4c26-bf58-c8d46e02b534" data-name="POSTERS"><g id="ade1013a-201e-49bb-a572-16736750b4cd" data-name="2"><rect x="2747.51" y="2.5" width="514.19" height="759.6" fill="#fff" stroke="#560014" stroke-linecap="round" stroke-miterlimit="10" stroke-width="5"/><path d="M3563,406.92h-6.86a36.34,36.34,0,0,0-36.35,36.35h0a7.71,7.71,0,0,0,7.71,7.71h161.91" transform="translate(-617.52 -274.32)" fill="none" stroke="#ce3f50" stroke-linecap="round" stroke-miterlimit="10" stroke-width="5"/><path d="M3613.69,385.85h-10.16a48.23,48.23,0,0,0-48.23,48.23v.36A16.54,16.54,0,0,0,3571.85,451" transform="translate(-617.52 -274.32)" fill="none" stroke="#ce3f50" stroke-linecap="round" stroke-miterlimit="10" stroke-width="5"/><path d="M3699.64,399.13a43.48,43.48,0,0,0-41.24-29.7h-10.07a43.46,43.46,0,0,0-43.47,43.46V433.4A17.58,17.58,0,0,0,3622.45,451" transform="translate(-617.52 -274.32)" fill="none" stroke="#ce3f50" stroke-linecap="round" stroke-miterlimit="10" stroke-width="5"/><path d="M3662.91,440.46V430.3a31.18,31.18,0,0,1,31.18-31.17H3697a46.85,46.85,0,0,1,38.3,19.87l8.9,12.65a12.26,12.26,0,0,1-10,19.33h-60.77A10.52,10.52,0,0,1,3662.91,440.46Z" transform="translate(-617.52 -274.32)" fill="none" stroke="#ce3f50" stroke-linecap="round" stroke-miterlimit="10" stroke-width="5"/><line x1="2826.82" y1="265.59" x2="3040.09" y2="265.59" fill="none" stroke="#560014" stroke-linecap="round" stroke-miterlimit="10" stroke-width="5"/><line x1="2826.82" y1="321.5" x2="3040.09" y2="321.5" fill="none" stroke="#560014" stroke-linecap="round" stroke-miterlimit="10" stroke-width="5"/><line x1="2826.82" y1="377.41" x2="2974.05" y2="377.41" fill="none" stroke="#560014" stroke-linecap="round" stroke-miterlimit="10" stroke-width="5"/><line x1="2826.82" y1="489.24" x2="2930.03" y2="489.24" fill="none" stroke="#560014" stroke-linecap="round" stroke-miterlimit="10" stroke-width="5"/><line x1="2826.82" y1="545.15" x2="2930.03" y2="545.15" fill="none" stroke="#560014" stroke-linecap="round" stroke-miterlimit="10" stroke-width="5"/><line x1="2826.82" y1="433.33" x2="3095.12" y2="433.33" fill="none" stroke="#560014" stroke-linecap="round" stroke-miterlimit="10" stroke-width="5"/><line x1="3167.54" y1="265.59" x2="3205.89" y2="265.59" fill="none" stroke="#ce3f50" stroke-linecap="round" stroke-miterlimit="10" stroke-width="5"/><line x1="3167.54" y1="321.5" x2="3205.89" y2="321.5" fill="none" stroke="#ce3f50" stroke-linecap="round" stroke-miterlimit="10" stroke-width="5"/><line x1="3167.54" y1="377.41" x2="3205.89" y2="377.41" fill="none" stroke="#ce3f50" stroke-linecap="round" stroke-miterlimit="10" stroke-width="5"/><line x1="3167.54" y1="433.33" x2="3205.89" y2="433.33" fill="none" stroke="#ce3f50" stroke-linecap="round" stroke-miterlimit="10" stroke-width="5"/><line x1="3167.54" y1="489.24" x2="3205.89" y2="489.24" fill="none" stroke="#ce3f50" stroke-linecap="round" stroke-miterlimit="10" stroke-width="5"/><line x1="3167.54" y1="545.15" x2="3205.89" y2="545.15" fill="none" stroke="#ce3f50" stroke-linecap="round" stroke-miterlimit="10" stroke-width="5"/></g><g id="fb30d714-b3ad-4306-bb7b-aaf8537c3f35" data-name="1"><rect x="2174.07" y="2.5" width="514.19" height="759.6" fill="#fff" stroke="#560014" stroke-linecap="round" stroke-miterlimit="10" stroke-width="5"/><line x1="2584.2" y1="265.59" x2="2622.55" y2="265.59" fill="none" stroke="#ce3f50" stroke-linecap="round" stroke-miterlimit="10" stroke-width="5"/><line x1="2584.2" y1="321.5" x2="2622.55" y2="321.5" fill="none" stroke="#ce3f50" stroke-linecap="round" stroke-miterlimit="10" stroke-width="5"/><line x1="2584.2" y1="377.41" x2="2622.55" y2="377.41" fill="none" stroke="#ce3f50" stroke-linecap="round" stroke-miterlimit="10" stroke-width="5"/><line x1="2584.2" y1="433.33" x2="2622.55" y2="433.33" fill="none" stroke="#ce3f50" stroke-linecap="round" stroke-miterlimit="10" stroke-width="5"/><line x1="2584.2" y1="489.24" x2="2622.55" y2="489.24" fill="none" stroke="#ce3f50" stroke-linecap="round" stroke-miterlimit="10" stroke-width="5"/><line x1="2584.2" y1="545.15" x2="2622.55" y2="545.15" fill="none" stroke="#ce3f50" stroke-linecap="round" stroke-miterlimit="10" stroke-width="5"/><line x1="2584.2" y1="601.29" x2="2622.55" y2="601.29" fill="none" stroke="#ce3f50" stroke-linecap="round" stroke-miterlimit="10" stroke-width="5"/><path d="M3113,370.48v34A60.06,60.06,0,0,1,3053,464.58h-12.09a60.06,60.06,0,0,1-60.06-60.05V373.35c8.32,7.32,34.21,12.66,64.88,12.66,34.54,0,63-6.78,67.17-15.53Z" transform="translate(-617.52 -274.32)" fill="none" stroke="#ce3f50" stroke-linecap="round" stroke-miterlimit="10" stroke-width="5"/><path d="M3113.37,368.28a5.24,5.24,0,0,1-.51,2.2c-4.14,8.75-32.63,15.53-67.17,15.53-30.67,0-56.56-5.34-64.88-12.66-1.83-1.61-2.81-3.31-2.81-5.07,0-9.8,30.3-17.74,67.69-17.74S3113.37,358.48,3113.37,368.28Z" transform="translate(-617.52 -274.32)" fill="#ce3f50"/><path d="M3113.34,370.48h16.6a23.73,23.73,0,0,1,23.73,23.73h0a23.73,23.73,0,0,1-23.73,23.73H3112" transform="translate(-617.52 -274.32)" fill="none" stroke="#ce3f50" stroke-linecap="round" stroke-miterlimit="10" stroke-width="5"/><line x1="2243.48" y1="265.59" x2="2456.75" y2="265.59" fill="none" stroke="#560014" stroke-linecap="round" stroke-miterlimit="10" stroke-width="5"/><line x1="2243.48" y1="321.5" x2="2456.75" y2="321.5" fill="none" stroke="#560014" stroke-linecap="round" stroke-miterlimit="10" stroke-width="5"/><line x1="2243.48" y1="433.33" x2="2423.73" y2="433.33" fill="none" stroke="#560014" stroke-linecap="round" stroke-miterlimit="10" stroke-width="5"/><line x1="2243.48" y1="489.24" x2="2425.84" y2="489.24" fill="none" stroke="#560014" stroke-linecap="round" stroke-miterlimit="10" stroke-width="5"/><line x1="2243.48" y1="545.15" x2="2346.68" y2="545.15" fill="none" stroke="#560014" stroke-linecap="round" stroke-miterlimit="10" stroke-width="5"/><line x1="2243.48" y1="601.29" x2="2346.68" y2="601.29" fill="none" stroke="#560014" stroke-linecap="round" stroke-miterlimit="10" stroke-width="5"/><line x1="2243.48" y1="377.41" x2="2511.78" y2="377.41" fill="none" stroke="#560014" stroke-linecap="round" stroke-miterlimit="10" stroke-width="5"/></g></g><g id="bd64f77c-22b9-470c-98d0-3d239398334d" data-name="CHAIR"><path d="M1227.2,1778.37h445.18a38.87,38.87,0,0,1,38.87,38.87v3.91a0,0,0,0,1,0,0H1188.33a0,0,0,0,1,0,0v-3.91A38.87,38.87,0,0,1,1227.2,1778.37Z" fill="#fff"/><polyline points="1188.33 2934.25 1188.33 1821.15 1526.87 1821.15 1526.87 2934.25" fill="none" stroke="#560014" stroke-linecap="round" stroke-miterlimit="10" stroke-width="5"/><polyline points="1526.87 2934.25 1526.87 1821.15 1711.24 1821.15 1711.24 2934.25" fill="none" stroke="#560014" stroke-linecap="round" stroke-miterlimit="10" stroke-width="5"/><path d="M1900.36,1828.1h0c-93.49,0-149.28,71.45-124.62,159.59l30.16,107.78h338.54l-30.16-107.78C2089.62,1899.55,1993.84,1828.1,1900.36,1828.1Z" transform="translate(-617.52 -274.32)" fill="none" stroke="#560014" stroke-linecap="round" stroke-miterlimit="10" stroke-width="5"/><line x1="1327.99" y1="1821.15" x2="1282.35" y2="1554.88" fill="none" stroke="#560014" stroke-linecap="round" stroke-miterlimit="10" stroke-width="5"/><path d="M2068.23,1909.2c-68.34,29.57-109.08,104.92-94.08,184.13" transform="translate(-617.52 -274.32)" fill="none" stroke="#560014" stroke-linecap="round" stroke-miterlimit="10" stroke-width="5"/><path d="M1774.54,1912.83c80.11,17.33,140.38,92.52,140.38,182.64" transform="translate(-617.52 -274.32)" fill="none" stroke="#560014" stroke-linecap="round" stroke-miterlimit="10" stroke-width="5"/><path d="M1805.85,2939.52c0-22,19-39.9,42.32-39.9h253.9c23.37,0,42.32,17.86,42.32,39.9" transform="translate(-617.52 -274.32)" fill="none" stroke="#560014" stroke-linecap="round" stroke-miterlimit="10" stroke-width="5"/><path d="M2144.4,2939.52c0-22,18.95-39.9,42.32-39.9h99.8c23.37,0,42.32,17.86,42.32,39.9" transform="translate(-617.52 -274.32)" fill="none" stroke="#560014" stroke-linecap="round" stroke-miterlimit="10" stroke-width="5"/></g><g id="a2ab9eda-0dd0-4abf-bbfe-e93e5670583d" data-name="STAND"><polygon points="939.22 2810.08 541.89 2810.08 740.01 1875.93 741.11 1875.93 939.22 2810.08" fill="#560014"/><polyline points="2.5 2934.25 28.84 2810.06 541.82 2810.06 515.48 2934.25" fill="none" stroke="#560014" stroke-linecap="round" stroke-miterlimit="10" stroke-width="5"/><line x1="935.99" y1="2810.06" x2="962.33" y2="2934.25" fill="none" stroke="#560014" stroke-linecap="round" stroke-miterlimit="10" stroke-width="5"/><polygon points="541.9 2810.08 28.91 2810.08 227.03 1875.92 740.01 1875.92 541.9 2810.08" fill="#fff" stroke="#560014" stroke-linecap="round" stroke-miterlimit="10" stroke-width="5"/><polygon points="603.54 1939.41 557.91 2144.34 435.74 2144.34 481.37 1939.41 603.54 1939.41" fill="#f4e6e9"/><line x1="227.02" y1="2162.96" x2="358.49" y2="2097.23" fill="none" stroke="#560014" stroke-linecap="round" stroke-miterlimit="10" stroke-width="5"/><line x1="213.12" y1="2220.36" x2="537.08" y2="2058.39" fill="none" stroke="#560014" stroke-linecap="round" stroke-miterlimit="10" stroke-width="5"/><polygon points="567.49 2376.12 206.93 2376.12 222.9 2304.03 583.45 2304.03 567.49 2376.12" fill="#f4e6e9"/><line x1="190.42" y1="2344.2" x2="517.96" y2="2344.2" fill="none" stroke="#560014" stroke-linecap="round" stroke-miterlimit="10" stroke-width="5"/><line x1="178.31" y1="2399.23" x2="505.85" y2="2399.23" fill="none" stroke="#560014" stroke-linecap="round" stroke-miterlimit="10" stroke-width="5"/><circle cx="376.63" cy="2609.38" r="114.69" fill="#ce3f50"/><circle cx="355.71" cy="1986.47" r="53.28" fill="#ffacb2"/><line x1="137.15" y1="2583.34" x2="348.53" y2="2583.34" fill="none" stroke="#560014" stroke-linecap="round" stroke-miterlimit="10" stroke-width="5"/><line x1="127.34" y1="2629.57" x2="380.62" y2="2629.57" fill="none" stroke="#560014" stroke-linecap="round" stroke-miterlimit="10" stroke-width="5"/><path d="M889.47,2305.62c31.77-41.21,97.09-69.47,172.52-69.47,76.53,0,142.67,29.1,173.9,71.3" transform="translate(-617.52 -274.32)" fill="none" stroke="#560014" stroke-linecap="round" stroke-miterlimit="10" stroke-width="5"/></g><g id="e4576487-7b11-4a6a-ad6e-376f7e9cb335" data-name="TABLET"><polygon points="2358.53 1282.13 2029.86 1282.13 2139.93 1050.84 2468.6 1050.84 2358.53 1282.13" fill="#a71333"/><polygon points="2339.82 1282.13 2011.15 1282.13 2121.22 1050.84 2449.89 1050.84 2339.82 1282.13" fill="none" stroke="#560014" stroke-linecap="round" stroke-miterlimit="10" stroke-width="5"/><polygon points="2304.33 1378.54 2212.31 1378.54 2179.29 1222.96 2271.32 1222.96 2304.33 1378.54" fill="none" stroke="#560014" stroke-linecap="round" stroke-miterlimit="10" stroke-width="5"/></g><g id="ae0db46e-ece7-4a44-9187-76f69fd29f6a" data-name="MAN"><line x1="2390.71" y1="2948.85" x2="3622.67" y2="2948.85" fill="none" stroke="#560014" stroke-linecap="round" stroke-miterlimit="10" stroke-width="5"/><path id="fe2a42ee-d2be-4983-892c-12d12d9fd8cd" data-name="SHIRT" d="M3960.75,1328.08l-112.2,400,18.26,112.47s-235.91,103.58-420.7-97.57l-1.77-337.74-157.08-1.83,30.67-157a132.5,132.5,0,0,1,103.7-104.1l140-28.33a40.72,40.72,0,0,0,31.75-31.39l1.66-7.74h141.18l3.33,6.77a64.41,64.41,0,0,0,37.35,32.7l85.94,28.81A151.79,151.79,0,0,1,3960.75,1328.08Z" transform="translate(-617.52 -274.32)" fill="#560014"/><g id="b6a743d4-edb5-4cbc-8475-d100154396ef" data-name="LEGS"><g id="e2fed636-1ec0-4090-81c2-e324d670faa8" data-name="LEGS"><path d="M3858.05,3040.58s-127.34,32.14-222.3,0L3596,2200.32,3492.86,2413.7c138.78,218.9,132.93,503.48,132.93,503.48-35.05,29.21-197.2,85.42-197.2,85.42l-189-452.41a335.84,335.84,0,0,1-4.35-248L3446.11,1743c53.76,58.52,111.85,91.26,167.19,108.23a365.72,365.72,0,0,0,91.37,15.62c86,3.84,151.83-22,161-25.81l1.1,598.5S3985.14,2751.35,3858.05,3040.58Z" transform="translate(-617.52 -274.32)" fill="#a71333"/><path d="M3625.79,2917.18s5.84-284.58-132.93-503.48l211.81-438h43.59" transform="translate(-617.52 -274.32)" fill="none" stroke="#560014" stroke-linecap="round" stroke-miterlimit="10" stroke-width="5"/></g><g id="ef46b653-a624-4709-9e7e-8a5fdea6cf93" data-name="SHOES"><path d="M3678.63,3030.16l-211,193H3378v-8.67a51.78,51.78,0,0,1,10.59-31.32c19-25,56.6-83,53.68-146.5,0,0,73.7-19,178.06-87.14l58.61,55.91A16.9,16.9,0,0,1,3678.63,3030.16Z" transform="translate(-617.52 -274.32)" fill="#560014"/><polyline points="3061.37 2733.34 2844.57 2931.24 2754.92 2931.24" fill="none" stroke="#fff" stroke-linecap="round" stroke-miterlimit="10" stroke-width="5"/><path d="M3428.59,3002.6l13.63,34.09s87.82-25.28,178.06-87.14l-1-27.56S3531.81,2967.54,3428.59,3002.6Z" transform="translate(-617.52 -274.32)" fill="#fff"/><path d="M3847.83,3084.4l28.61,116.22a18.2,18.2,0,0,1-17.67,22.56h-304.3a11.94,11.94,0,0,1-8.06-20.75l129.05-118Z" transform="translate(-617.52 -274.32)" fill="#560014"/><line x1="3263.26" y1="2929.04" x2="2925.94" y2="2929.04" fill="none" stroke="#fff" stroke-linecap="round" stroke-miterlimit="10" stroke-width="5"/><path d="M3858.05,3040.58l-10.22,43.82s-118.33,21.43-172.37,0v-33.58S3758.23,3062.49,3858.05,3040.58Z" transform="translate(-617.52 -274.32)" fill="#fff"/></g></g><g id="acb65e11-0c13-4af5-8248-9bd93e359f21" data-name="HAND"><path d="M3287.26,1403.42l215.47,2.51-58.62,185.52a83.18,83.18,0,0,1-79.3,58.11h-545.3a4.46,4.46,0,0,1-2.55-8.12c36.19-25.1,166.24-104.44,459-181.78Z" transform="translate(-617.52 -274.32)" fill="#ce3f50"/><line x1="2879.05" y1="1142.76" x2="2896.99" y2="1086.01" fill="none" stroke="#ce3f50" stroke-linecap="round" stroke-miterlimit="10" stroke-width="5"/></g><g id="f7af5801-3d0c-4855-8b1a-0157a3f5c5e6" data-name="HEAD"><polygon id="a563d2b9-8dba-4a19-9064-1129c1fdca9a" data-name="NECK" points="3118.72 800.57 2977.54 800.57 2987.82 750.4 3095.19 750.4 3118.72 800.57" fill="#ce3f50"/><g id="bfb83e28-b458-4f69-bfca-8ae3c52e4a79" data-name="HEAD"><path d="M3713.31,977.64c8.57,2.61,14.8,11.58,14.8,21V1006a20.9,20.9,0,0,1-20.9,20.9h-29.67a31.29,31.29,0,0,1-30.42,24h-51.57a9.21,9.21,0,0,1-9.21-9.21v-34.86l-10.45-1.86a4.68,4.68,0,0,1-3.41-6.57l28.05-60.18a39.08,39.08,0,0,0,8.79,1,38.22,38.22,0,0,0,26.55-10.53h6.9a12.6,12.6,0,0,1,12.6,12.6v26a22,22,0,0,0,22,22h0a11.33,11.33,0,0,1,11.25-11.51Z" transform="translate(-617.52 -274.32)" fill="#ce3f50"/><path d="M3688.27,1004.83a16.09,16.09,0,0,1,16.09-16.09" transform="translate(-617.52 -274.32)" fill="none" stroke="#560014" stroke-linecap="round" stroke-miterlimit="10" stroke-width="5"/><path d="M3601.06,1053.11h46.06a31.28,31.28,0,0,0,30.83-26h23.2" transform="translate(-617.52 -274.32)" fill="none" stroke="#560014" stroke-linecap="round" stroke-miterlimit="10" stroke-width="5"/><line x1="2984.64" y1="679.68" x2="3005.61" y2="682.16" fill="none" stroke="#560014" stroke-linecap="round" stroke-miterlimit="10" stroke-width="5"/><ellipse cx="2993.48" cy="701.88" rx="4.25" ry="6.2" fill="#560014"/><path d="M3588.54,1017.75s12.46,1.1,17.11-6.7" transform="translate(-617.52 -274.32)" fill="none" stroke="#560014" stroke-linecap="round" stroke-linejoin="round" stroke-width="5"/></g><path id="e3c24655-2aaa-4fc5-89db-81883b61c5ad" data-name="HAIR" d="M3713.31,977.64c-1.93-.59-4,.09-6.1.09h-12.44a18.56,18.56,0,0,0-17.21,11.59h-.17a22,22,0,0,1-22-22v-26a12.6,12.6,0,0,0-12.6-12.6h-6.9a38.22,38.22,0,0,1-26.55,10.53c-20.59,0-37.28-15.83-37.28-35.37s16.69-35.36,37.28-35.36c18.73,0,34.23,13.09,36.89,30.15,43.63-5.93,50.43,30.05,50.43,30.05s24.1-6.58,29.58,13.87C3729.86,956.17,3721.24,968.67,3713.31,977.64Z" transform="translate(-617.52 -274.32)" fill="#ffacb2"/></g></g><g id="ff213ad9-2630-451d-8bea-2213e7477719" data-name="DESSERTS"><g id="fc36ecf5-ad07-4650-b62c-de395a46f818" data-name="CROISSANTS"><path d="M1625.73,1439.34a15,15,0,0,1-13.33,8.12H1395.19V1437a39.16,39.16,0,0,1,39.11-39.11h6.16a51,51,0,0,1,41.25-21.06h9.5a46.14,46.14,0,0,1,35.31-16.44h10.07a46.19,46.19,0,0,1,43.26,29.93,49.62,49.62,0,0,1,35.92,20.83l8.92,12.64A15,15,0,0,1,1625.73,1439.34Z" transform="translate(-617.52 -274.32)" fill="#ce3f50"/><path d="M1441.16,1400.63h-6.86A36.35,36.35,0,0,0,1398,1437v7.71h153.68" transform="translate(-617.52 -274.32)" fill="none" stroke="#560014" stroke-linecap="round" stroke-miterlimit="10" stroke-width="5"/><path d="M1433.49,1444.7v-16.9a48.23,48.23,0,0,1,48.23-48.23h10.16" transform="translate(-617.52 -274.32)" fill="none" stroke="#560014" stroke-linecap="round" stroke-miterlimit="10" stroke-width="5"/><path d="M1483.05,1444.7v-38.09a43.47,43.47,0,0,1,43.47-43.47h10.07a43.48,43.48,0,0,1,41.24,29.7" transform="translate(-617.52 -274.32)" fill="none" stroke="#560014" stroke-linecap="round" stroke-miterlimit="10" stroke-width="5"/><path d="M1541.1,1434.18V1424a31.18,31.18,0,0,1,31.18-31.18h3a46.87,46.87,0,0,1,38.3,19.87l8.9,12.65a12.27,12.27,0,0,1-10,19.34h-60.77A10.53,10.53,0,0,1,1541.1,1434.18Z" transform="translate(-617.52 -274.32)" fill="none" stroke="#560014" stroke-linecap="round" stroke-miterlimit="10" stroke-width="5"/><path d="M1347.27,1439.34a15,15,0,0,1-13.33,8.12H1116.73V1437a39.15,39.15,0,0,1,39.11-39.11H1162a51,51,0,0,1,41.25-21.06h9.5a46.1,46.1,0,0,1,35.31-16.44h10.07a46.17,46.17,0,0,1,43.25,29.93,49.64,49.64,0,0,1,35.93,20.83l8.92,12.64A15,15,0,0,1,1347.27,1439.34Z" transform="translate(-617.52 -274.32)" fill="#ce3f50"/><path d="M1162.69,1400.63h-6.85a36.36,36.36,0,0,0-36.36,36.36v7.71h153.69" transform="translate(-617.52 -274.32)" fill="none" stroke="#560014" stroke-linecap="round" stroke-miterlimit="10" stroke-width="5"/><path d="M1155,1444.7v-16.9a48.22,48.22,0,0,1,48.22-48.23h10.17" transform="translate(-617.52 -274.32)" fill="none" stroke="#560014" stroke-linecap="round" stroke-miterlimit="10" stroke-width="5"/><path d="M1204.59,1444.7v-38.09a43.47,43.47,0,0,1,43.46-43.47h10.08a43.49,43.49,0,0,1,41.24,29.7" transform="translate(-617.52 -274.32)" fill="none" stroke="#560014" stroke-linecap="round" stroke-miterlimit="10" stroke-width="5"/><path d="M1262.64,1434.18V1424a31.18,31.18,0,0,1,31.18-31.18h3a46.86,46.86,0,0,1,38.29,19.87l8.91,12.65a12.27,12.27,0,0,1-10,19.34h-60.77A10.52,10.52,0,0,1,1262.64,1434.18Z" transform="translate(-617.52 -274.32)" fill="none" stroke="#560014" stroke-linecap="round" stroke-miterlimit="10" stroke-width="5"/></g><g id="b58c21ea-4907-401d-a179-d813704ed3cc" data-name="ICE CREAM"><circle cx="982.88" cy="1258.4" r="27.02" fill="#a71333"/><circle cx="1022.25" cy="1219.1" r="27.02" fill="#ffacb2"/><path d="M1650.89,1606.52q.9-.19,1.8-.42a47.9,47.9,0,0,0,9.43-3.68A59.5,59.5,0,0,0,1678,1590.8a61.56,61.56,0,0,0,17-36,63.75,63.75,0,0,0,.39-7H1577.29c-.31,0,.71,9.45.85,10.31a61.34,61.34,0,0,0,11.94,27.44,59.93,59.93,0,0,0,14.15,13.23,61.08,61.08,0,0,0,10.51,5.79c3.54,1.47,7.17,1.64,10.77,2.72a14.75,14.75,0,0,1,10.37,14v7.53c0,13.3-10.43,24.09-23.3,24.09h47.52c-12.87,0-23.3-10.79-23.3-24.09v-7.54a14.69,14.69,0,0,1,5.39-11.33C1644.71,1607.85,1647.82,1607.22,1650.89,1606.52Z" transform="translate(-617.52 -274.32)" fill="none" stroke="#560014" stroke-linecap="round" stroke-miterlimit="10" stroke-width="5"/><line x1="1006.39" y1="1272.34" x2="1081.25" y2="1192.07" fill="none" stroke="#560014" stroke-linecap="round" stroke-miterlimit="10" stroke-width="5"/><circle cx="1050.78" cy="1263.63" r="30.54" fill="#a71333"/><circle cx="807.88" cy="1260.04" r="28.66" fill="#ce3f50"/><circle cx="845.04" cy="1219.1" r="27.02" fill="#a71333"/><line x1="829.18" y1="1272.34" x2="904.05" y2="1192.07" fill="none" stroke="#a71333" stroke-linecap="round" stroke-miterlimit="10" stroke-width="5"/><circle cx="873.58" cy="1263.63" r="30.54" fill="#560014"/><path d="M1472.58,1606.52q.9-.19,1.8-.42a47.66,47.66,0,0,0,9.43-3.68,59.34,59.34,0,0,0,15.88-11.62,61.56,61.56,0,0,0,17-36,63.75,63.75,0,0,0,.39-7H1399c-.32,0,.7,9.45.84,10.31a61.34,61.34,0,0,0,11.94,27.44,59.93,59.93,0,0,0,14.15,13.23,61.08,61.08,0,0,0,10.51,5.79c3.54,1.47,7.17,1.64,10.77,2.72a14.75,14.75,0,0,1,10.37,14v7.53c0,13.3-10.43,24.09-23.3,24.09h47.52c-12.87,0-23.3-10.79-23.3-24.09v-7.54a14.69,14.69,0,0,1,5.39-11.33C1466.4,1607.85,1469.51,1607.22,1472.58,1606.52Z" transform="translate(-617.52 -274.32)" fill="none" stroke="#560014" stroke-linecap="round" stroke-miterlimit="10" stroke-width="5"/><circle cx="630.68" cy="1258.39" r="30.31" fill="#a71333"/><circle cx="667.84" cy="1219.1" r="27.02" fill="#560014"/><line x1="651.98" y1="1272.34" x2="726.84" y2="1192.07" fill="none" stroke="#ce3f50" stroke-linecap="round" stroke-miterlimit="10" stroke-width="5"/><path d="M1296.55,1606.52q.9-.19,1.8-.42a47.9,47.9,0,0,0,9.43-3.68,59.5,59.5,0,0,0,15.88-11.62,61.56,61.56,0,0,0,17-36,63.75,63.75,0,0,0,.39-7H1223c-.32,0,.71,9.45.85,10.31a61.34,61.34,0,0,0,11.94,27.44,60.08,60.08,0,0,0,14.14,13.23,61.54,61.54,0,0,0,10.52,5.79c3.54,1.47,7.17,1.64,10.77,2.72a14.75,14.75,0,0,1,10.37,14v7.53c0,13.3-10.43,24.09-23.3,24.09h47.51c-12.86,0-23.3-10.79-23.3-24.09v-7.54a14.7,14.7,0,0,1,5.4-11.33C1290.37,1607.85,1293.48,1607.22,1296.55,1606.52Z" transform="translate(-617.52 -274.32)" fill="none" stroke="#560014" stroke-linecap="round" stroke-miterlimit="10" stroke-width="5"/><circle cx="696.34" cy="1263.59" r="30.51" fill="#ffacb2"/></g><g id="bcab8cf5-7920-4073-915b-d5abe82a59c2" data-name="CUPCAKES"><path d="M993.72,1584.62l-15.24,68.24H918.62L904,1587.4a29.13,29.13,0,0,0,12.64,2.49c7,0,15.28-1.42,18.91-6.93-.43,10.36,5.63,23.48,20.19,23.44,10.54,0,16.63-10.15,18.18-17.28C973.92,1589.12,985.17,1590,993.72,1584.62Z" transform="translate(-617.52 -274.32)" fill="#ce3f50"/><path d="M916.64,1589.89c7,0,15.28-1.42,18.91-6.93-.43,10.36,5.63,23.48,20.19,23.44,10.54,0,16.63-10.15,18.18-17.28,0,0,27.44,2.08,29.2-20.64C1004.75,1547.54,976,1531,948,1531S893,1547.78,893,1568.48C893,1577.19,897.38,1589.89,916.64,1589.89Z" transform="translate(-617.52 -274.32)" fill="#a71333"/><circle cx="297.8" cy="1292.73" r="4.7" fill="#560014"/><circle cx="309.37" cy="1273.88" r="4.7" fill="#560014"/><circle cx="323.66" cy="1281.86" r="4.7" fill="#560014"/><circle cx="341.83" cy="1307.04" r="4.7" fill="#560014"/><circle cx="355.04" cy="1291.63" r="4.7" fill="#560014"/><circle cx="368.24" cy="1268.52" r="4.7" fill="#560014"/><circle cx="344.03" cy="1270.72" r="4.7" fill="#560014"/><path d="M1011.39,1372.46,995,1443.6H935.18l-13.9-60.48a24,24,0,0,0,14.12,4.12,20,20,0,0,0,16.71-9.14,20.79,20.79,0,0,0,20.18,15.74c7.83,0,20.5-7.51,18.19-21.68C990.48,1372.16,1003.32,1377.81,1011.39,1372.46Z" transform="translate(-617.52 -274.32)" fill="#560014"/><path d="M935.4,1387.24a20,20,0,0,0,16.71-9.14,20.79,20.79,0,0,0,20.18,15.74c7.83,0,20.5-7.51,18.19-21.68,0,0,23.89,10.51,27-10.73,2.59-17.8-17.66-37.48-52.88-37.48-28,0-54,16.77-54,37.48C910.62,1370.14,916.14,1387.24,935.4,1387.24Z" transform="translate(-617.52 -274.32)" fill="#a71333"/><circle cx="388.53" cy="1115.21" r="7.7" fill="#a71333"/><circle cx="314.54" cy="1074" r="4.7" fill="#ce3f50"/><circle cx="327.47" cy="1088.1" r="4.7" fill="#ce3f50"/><circle cx="340.39" cy="1062.24" r="4.7" fill="#ce3f50"/><circle cx="352.15" cy="1098.68" r="4.7" fill="#ce3f50"/><circle cx="363.9" cy="1074" r="4.7" fill="#ce3f50"/><circle cx="376.12" cy="1055.95" r="4.7" fill="#ce3f50"/><circle cx="388.58" cy="1085.75" r="4.7" fill="#ce3f50"/><path d="M1152.45,1585.94l-15,66.92h-59.86l-14-62.43c3.45,2.51,8.07,4.16,14.17,4.16a20.24,20.24,0,0,0,16.71-8.73,20.67,20.67,0,0,0,20.19,15,21,21,0,0,0,18.18-10.21S1144.79,1592.42,1152.45,1585.94Z" transform="translate(-617.52 -274.32)" fill="#560014"/><path d="M1077.86,1594.59a20.24,20.24,0,0,0,16.71-8.73,20.67,20.67,0,0,0,20.19,15,21,21,0,0,0,18.18-10.21s25.9,3.78,25.9-20.77c0-21-23.79-35.82-51.78-35.82s-52.87,16-52.87,35.82C1054.19,1578.24,1058.61,1594.59,1077.86,1594.59Z" transform="translate(-617.52 -274.32)" fill="#ffacb2"/><circle cx="456.51" cy="1299.71" r="4.8" fill="#fff"/><circle cx="471.88" cy="1276.96" r="4.8" fill="#fff"/><circle cx="483.18" cy="1291.63" r="4.8" fill="#fff"/><circle cx="506.97" cy="1281.86" r="4.8" fill="#fff"/><circle cx="487.98" cy="1259.78" r="4.8" fill="#fff"/><circle cx="529.97" cy="1275.52" r="4.8" fill="#fff"/><circle cx="516.58" cy="1305.67" r="4.8" fill="#fff"/></g><g id="afda6dae-d3c5-48af-bc8b-f4dc9c52cd89" data-name="SHELF"><path d="M1820.78,1652.86H848.93V1173h488.56a426.26,426.26,0,0,1,394,263.59Z" transform="translate(-617.52 -274.32)" fill="none" stroke="#560014" stroke-linecap="round" stroke-miterlimit="10" stroke-width="5"/><line x1="232.08" y1="1170.38" x2="1114.97" y2="1170.38" fill="none" stroke="#560014" stroke-linecap="round" stroke-miterlimit="10" stroke-width="5"/><path d="M1236.34,1652.86H848.93V1173.74c126.43,21.12,235.15,110.35,285.17,231.5Z" transform="translate(-617.52 -274.32)" fill="none" stroke="#560014" stroke-linecap="round" stroke-miterlimit="10" stroke-width="5"/></g></g><g id="f1c1e6be-01c3-4b41-a19b-410e3aa4ef1b" data-name="LAMPS"><g id="b77d34ea-be81-4563-ade8-909caad5a235" data-name="2"><path d="M2054.4,742.69a24.47,24.47,0,0,1-48.93,0" transform="translate(-617.52 -274.32)" fill="none" stroke="#560014" stroke-miterlimit="10" stroke-width="5"/><line x1="1414.01" y1="2.5" x2="1414.01" y2="393.3" fill="none" stroke="#560014" stroke-linecap="round" stroke-miterlimit="10" stroke-width="5"/><path d="M2225,742.45H1838.11a46,46,0,0,1,44.74-35.39H1928a19,19,0,0,0,14.59-6.81L1960.37,679a31.67,31.67,0,0,1,24.28-11.33h93.76A31.65,31.65,0,0,1,2102.68,679l17.83,21.3a19,19,0,0,0,14.57,6.8h45.13A46,46,0,0,1,2225,742.45Z" transform="translate(-617.52 -274.32)" fill="#ffacb2"/></g><g id="fdd40302-454d-4f92-9664-c44eee2d78c6" data-name="1"><line x1="818.56" y1="2.5" x2="818.56" y2="393.3" fill="none" stroke="#560014" stroke-linecap="round" stroke-miterlimit="10" stroke-width="5"/><path d="M1629.5,742.45H1242.66a46,46,0,0,1,44.74-35.39h45.11a19,19,0,0,0,14.59-6.81L1364.92,679a31.67,31.67,0,0,1,24.28-11.33H1483A31.65,31.65,0,0,1,1507.23,679l17.83,21.3a19,19,0,0,0,14.57,6.8h45.13A46,46,0,0,1,1629.5,742.45Z" transform="translate(-617.52 -274.32)" fill="#a71333"/><path d="M1461.15,742.69a24.47,24.47,0,0,1-48.93,0" transform="translate(-617.52 -274.32)" fill="none" stroke="#560014" stroke-miterlimit="10" stroke-width="5"/></g></g></svg>