<svg id="b7eed3c0-9327-4f38-a3fa-52a401d1ae0d" data-name="a7f98cf6-b3d1-4eb4-959e-4e0baa18423e" xmlns="http://www.w3.org/2000/svg" viewBox="0 0 705.25 650.52"><g id="b3d6fa5c-7b27-4b0b-8aad-94e40c79623e" data-name="b3d5e1b4-8091-4e8e-8d5f-345cd9335cb7"><g id="a66eb94b-467e-483a-8e20-e2eac64d5a83" data-name="bd70ca71-ed19-486d-aad1-fc710b93fcbb"><path d="M702,137.08C683.2,71.78,579.83,27.45,497.44,15.78,414.88,4.11,353.3,25.08,303.39,39c-14.45,4-27.92,7.33-41.16,10.51,8.36,9,13.47,19.6,13.47,23.19,0,6.6-14.86,63.56-28.9,63.56S217.91,78.43,217.91,64.4a39.89,39.89,0,0,1,.31-4.52C199.65,64.3,180,69.18,157.39,75.5c-57.52,16.07-134,41.62-152.6,86.28-18.61,44.83,20.64,108.78,55,182.54,34.21,73.6,63.6,157.17,121.29,189.82a123,123,0,0,0,25.58,10.8c.35-1.71.67-3.28.94-4.67-7.43-35.49-5.75-99.31-3.28-105.92,0,0,137.94,27.94,147,29.72,2.36-7.87,15.41-42.95,22.23-47.94s74-28.07,74-28.07-.05-36.44.78-44.69c-96.58-66.86-38.52-125-35.22-120.9S536.66,328.14,537,334.74c.31,7.23-14.24,67.71-25.93,103.73,27.41-23.62,54.06-50.48,81.33-80.61C654.94,288.83,720.75,202.55,702,137.08ZM214.61,375.59c-16.51,0-62.73-65.21-62.73-91.62,0-14.86,9.08-49.53,34.67-49.53,7.43,0,23.94,13.21,26.41,16.51a93.21,93.21,0,0,0,8.08,7.43c-.52,2.63-2,9.91-3.52,17.51C230,290,253.41,319.7,253.41,341.75,253.41,360.74,249.28,375.59,214.61,375.59Zm14-117.21c-11.56,0-38-38-38-84.19,0-14,11.56-27.24,28.9-27.24,39.62,0,42.92,82.54,42.92,89.14.06,9.08-9,22.29-33.78,22.29Z" fill="#a71333"/><path d="M494.68,39.44,296.11.47a25.42,25.42,0,0,0-29.76,20L239.73,156.1c20.67,21.67,22.76,74.75,22.76,80,0,9.08-9.08,22.29-33.84,22.29-2.26,0-5.09-1.47-8.18-4.14l-.62,3.16c.79.68,1.19,1,1.19,1-.5,2.53-2,10.16-3.52,17.51C230,290,253.41,319.7,253.41,341.75c0,19-4.13,33.84-38.8,33.84-4,0-9.66-3.77-16-9.87l-8,41a25.48,25.48,0,0,0,13.78,27.68c.61.12,137.72,27.89,147,29.71h0c2.36-7.87,15.41-42.95,22.23-47.94s74-28.07,74-28.07-.05-36.44.78-44.69c-96.58-66.86-38.52-125-35.22-120.9,1.62,2,31.16,27.31,61,53.41L514.67,69.2A25.43,25.43,0,0,0,494.68,39.44Z"/><path d="M235.25,35.51c-13.21,0-17.34,20.64-17.34,28.89,0,14,14.86,71.82,28.89,71.82s28.9-57,28.9-63.56S258.36,35.51,235.25,35.51Z" fill="none" stroke="#560014" stroke-linecap="round" stroke-linejoin="round" stroke-width="2.5"/><path d="M449.19,30.59l-2.51,12.79a12.07,12.07,0,0,1-14.13,9.49l-85.62-16.8a12.08,12.08,0,0,1-9.49-14.13L340,9.15" stroke="#000" stroke-miterlimit="10" stroke-width="3"/><line x1="193.65" y1="388.38" x2="368" y2="422.59" fill="none" stroke="#ffacb2" stroke-miterlimit="10" stroke-width="3"/><circle cx="310.67" cy="434.45" r="10.03" fill="none" stroke="#ffacb2" stroke-miterlimit="10" stroke-width="3"/><path d="M219.57,147c-17.34,0-28.9,13.2-28.9,27.24,0,46.22,26.42,84.19,38,84.19,24.76,0,33.84-13.21,33.84-22.29C262.49,229.49,259.19,147,219.57,147Z" fill="none" stroke="#560014" stroke-linecap="round" stroke-linejoin="round" stroke-width="2.5"/><path d="M217.52,275.89C230,290,253.41,319.7,253.41,341.75c0,19-4.13,33.84-38.8,33.84-16.51,0-62.73-65.21-62.73-91.62,0-14.86,9.08-49.53,34.67-49.53,7.43,0,23.94,13.21,26.41,16.51a93.21,93.21,0,0,0,8.08,7.43c-.52,2.63-2,9.91-3.52,17.51" fill="none" stroke="#560014" stroke-linecap="round" stroke-linejoin="round" stroke-width="2.5"/><path d="M210.49,268.29c1.06,1.06,3.64,3.75,7,7.6" fill="none" stroke="#000" stroke-linecap="round" stroke-linejoin="round" stroke-width="2.5"/><path d="M222.92,282.22S210.43,267.38,203,260.78" fill="none" stroke="#000" stroke-linecap="round" stroke-linejoin="round" stroke-width="2.5"/><path d="M362,649.23l18.16-72.64S490.72,480,501.45,462.68,537.36,344.23,537,334.74c-.29-6.6-120.52-108.14-123.82-112.27s-61.36,54,35.22,120.9c-.83,8.25-.78,44.69-.78,44.69s-67.18,23.09-74,28.07-19.87,40.07-22.23,47.94c-9.08-1.78-147-29.72-147-29.72-2.47,6.61-4.15,70.43,3.28,105.92-5,25.59-24.77,109-24.77,109" fill="none" stroke="#560014" stroke-linecap="round" stroke-linejoin="round" stroke-width="2.5"/><path d="M337.31,505.43c2.25-8.6,13.16-39.49,15.87-46.86" fill="none" stroke="#560014" stroke-linecap="round" stroke-linejoin="round" stroke-width="2.5"/></g></g></svg>