<svg xmlns="http://www.w3.org/2000/svg" viewBox="0 0 1042.39 1300"><g id="b495564f-42a7-4f90-aaff-901cb117bb49" data-name="Expanded"><g id="abe4ea10-62cc-405d-aa0f-9efef2efba13" data-name="Expanded(Color) #2"><g id="bf55a34a-0111-4af3-87da-712a04823fb4" data-name="Hero graphic"><g id="b4db4261-3bdc-4429-a9c1-f5677a2d6d69" data-name="outer lines"><path d="M651.59,1169.06c-.28.5-.57,1-.85,1.47L617,1136.78,542.23,1062c-1.8-2.63-3.68-5.27-5.59-7.91Z"/><path d="M658.62,1156.27c-.28.51-.53,1-.81,1.53l-33.95-34L204.93,704.93l1.82-.53,417.92,417.92Z"/><path d="M529.81,1096.78c1.21,1.93,2.36,3.86,3.5,5.82L385.23,954.52c1.52.73,3,1.49,4.55,2.23Z"/><path d="M632.86,1199.83l-.9,1.44-92.52-92.52h0c-.29-1.11-.62-2.2-1-3.3l60.94,60.94Z"/><path d="M680.73,1109.08c-.22.56-.46,1.11-.68,1.65l-34.59-34.59L265.84,696.52l2.51.18Z"/><path d="M644.26,1181.53l-.89,1.43-33.57-33.57-42.66-42.65c-.61-1.4-1.23-2.82-1.88-4.22l45.39,45.41Z"/><path d="M636.69,1193.75l-.91,1.43-33.45-33.47L578,1137.37c-.3-1.07-.59-2.14-.91-3.21l26.14,26.12Z"/><path d="M655.14,1162.68c-.28.52-.56,1-.84,1.5l-33.84-33.83L197.28,707.17c.6-.18,1.16-.4,1.77-.58l422.22,422.23Z"/><path d="M364.14,931.09c-1.19-.43-2.39-.85-3.61-1.25L155,724.25l1.55-.77Z"/><path d="M384.57,951.52c-1.19-.39-2.37-.81-3.58-1.22L371.73,941c2,1.17,4,2.35,5.95,3.59Z"/><path d="M674.81,1123c-.23.55-.46,1.09-.71,1.62l-34.39-34.39L246.1,696.58l2.18-.14L640.4,1088.55Z"/><path d="M662,1149.77c-.26.52-.52,1-.79,1.54l-34-34L212.72,702.82c.62-.17,1.25-.32,1.86-.48L628,1115.73Z"/><path d="M677.83,1116.07l-.7,1.65-34.51-34.51-387-387H258L643.3,1081.55Z"/><path d="M665.33,1143.2c-.27.51-.51,1-.78,1.55L220.65,700.84l1.93-.41L631.2,1109.07Z"/><path d="M668.58,1136.53c-.25.53-.48,1.08-.75,1.6l-34.22-34.23L228.81,699.09l1.91-.41Z"/><path d="M648,1175.31c-.28.5-.56,1-.86,1.49l-33.67-33.67-55.68-55.7c-.94-1.73-1.89-3.48-2.9-5.22Z"/><path d="M301.24,907.8c-1.4-.61-2.8-1.24-4.2-1.87L161.31,770.22c-1.32-2.09-2.67-4.2-4-6.36Z"/><path d="M317.22,923.77c-1.65-.84-3.28-1.7-4.92-2.57l-10.75-10.75,3.63,1.29Z"/><path d="M282.62,899.11c-1.59-.79-3.19-1.62-4.78-2.46l-95.12-95.12c-2-2.7-4-5.49-6-8.31Z"/><path d="M294.05,910.53c-2.34-1.5-4.65-3-7-4.63L286,904.81c1.22.46,2.45.91,3.67,1.35Z"/><path d="M318.06,914.74l-3.86-1.54L145.54,744.55l-3.39-5.74Z"/><path d="M336.19,932.87,332,931l-15.12-15.12,2.5.88c.37.13.73.24,1.09.39Z"/><path d="M349.14,926l-3.53-1.2L148.43,727.63l1.53-.81Z"/><path d="M369.25,946.11c-1.22-.44-2.45-.89-3.67-1.35l-15.11-15.1q2.32,1.11,4.62,2.29Z"/><path d="M333.89,920.66c-1.22-.43-2.44-.88-3.66-1.34L142,731.08l1.52-.81Z"/><path d="M353.28,940.05c-1.31-.51-2.61-1-3.9-1.57l-16.75-16.75c1.34.53,2.66,1.09,4,1.65Z"/><path d="M371.79,948.65c-1.32-.54-2.63-1.09-4-1.61l260.3,260.3.9-1.43Z"/><path d="M325,931.6c-1.24-.45-2.48-.92-3.71-1.38l278.93,278.93c-.12-.9-.25-1.81-.38-2.71Z"/><path d="M355.83,942.6l-3.59-1.26,272.08,272.08.9-1.43Z"/><path d="M309.16,925.63l-3.82-1.49,296,296c0-.84-.11-1.68-.18-2.52Z"/><path d="M252.85,899c-2.11-1.28-4.19-2.58-6.25-3.92L594,1242.52l1.24-1.09Z"/><path d="M274.73,911c-1.59-.78-3.15-1.57-4.71-2.38l329.23,329.24,1.22-1.11Z"/><polygon points="119.36 757.97 114.32 752.92 115.21 752.13 115.32 752.33 115.4 752.26 115.65 752.66 115.73 752.6 115.98 752.99 116.05 752.92 116.31 753.32 116.38 753.24 119.36 757.97"/><path d="M671.74,1129.81c-.25.52-.49,1-.74,1.58L237.15,697.54c.69-.1,1.39-.16,2.08-.26l398.18,398.2Z"/><path d="M418.63,698.46c0,.76,0,1.54-.05,2.3l-20-20-17.51-17.51L330,612.13c.1-.69.18-1.37.28-2.06L381.17,661l19.44,19.44Z"/><path d="M430.87,601.8c-.13.64-.28,1.26-.41,1.91l-83.58-83.58c.13-.64.28-1.25.43-1.9Z"/><path d="M426,626.63c-.11.66-.23,1.32-.34,2l-83.89-83.89.39-2,47.72,47.72Z"/><path d="M424.57,635.1c-.12.68-.2,1.35-.31,2L340.14,553c.13-.66.26-1.31.37-2l47.8,47.79Z"/><path d="M436.39,577.62c-.15.63-.29,1.26-.44,1.88l-35.68-35.68L352.5,496.06c.17-.63.31-1.26.46-1.87Z"/><path d="M432.65,593.67c-.15.64-.28,1.28-.43,1.91l-35.81-35.81-47.7-47.7c.15-.63.28-1.27.43-1.9l47.71,47.7Z"/><path d="M434.48,585.6c-.15.63-.31,1.26-.46,1.88L398.3,551.77,350.56,504c.14-.63.31-1.24.46-1.87Z"/><path d="M438.35,569.68c-.16.61-.33,1.22-.49,1.84L402.31,536l-47.83-47.85c.15-.63.31-1.22.48-1.85l47.85,47.85Z"/><path d="M420.3,670.43c-.07.71-.13,1.44-.18,2.15l-37-37h0L334,586.45c.11-.66.23-1.34.34-2l49,49Z"/><path d="M419.59,679.62q-.07,1.11-.15,2.19L416,678.33l-33.68-33.68-49.71-49.71c.1-.68.21-1.34.33-2Z"/><path d="M423.27,643.71c-.08.67-.17,1.37-.27,2.06L338.54,561.3c.11-.66.24-1.3.37-2l47.95,48Z"/><path d="M419,689c0,.74-.07,1.5-.1,2.24l-87.71-87.72c.11-.67.21-1.35.31-2l50.22,50.22,27.55,27.55Z"/><path d="M422.15,652.48l-.27,2.06L337,569.63c.11-.65.25-1.31.36-2Z"/><path d="M421.16,661.38c-.09.71-.17,1.4-.23,2.11l-36.79-36.78L335.45,578c.12-.66.23-1.32.35-2l48.59,48.57v0Z"/><path d="M427.55,618.28c-.13.65-.26,1.29-.37,2l-36.06-36-47.7-47.7a.06.06,0,0,0,0,0c.13-.64.27-1.25.4-1.89l47.68,47.68Z"/><path d="M693.93,1072.79c-.18.58-.36,1.19-.56,1.77l-35.16-35.17L323.83,705v-2.34l334.92,334.94Z"/><path d="M691.48,1080.23l-.6,1.73-35-35L313.33,704.4c.61.15,1.23.28,1.84.41l1.16.27Z"/><path d="M696.29,1065.24c-.18.59-.36,1.19-.56,1.78l-35.25-35.25L323.83,695.1v-2.32L661,1029.94Z"/><path d="M698.53,1057.57c-.16.61-.34,1.22-.52,1.82L662.64,1024,323.89,685.27c0-.75.05-1.51.05-2.27l339.19,339.17Z"/><path d="M686.3,1094.85c-.21.56-.41,1.14-.63,1.7L288.41,699.29c.94.16,1.9.33,2.84.51Z"/><path d="M688.94,1087.58c-.22.58-.43,1.14-.63,1.72l-34.92-34.93L300.66,701.65l3,.62L654,1052.63Z"/><path d="M683.55,1102c-.22.56-.43,1.12-.66,1.68L276.77,697.56c.89.1,1.78.21,2.67.34l369.38,369.37Z"/><path d="M709.76,1009.4c-.11.65-.23,1.31-.34,2L327.69,629.66c.08-.69.16-1.38.24-2.09Z"/><path d="M711.13,1000.87c-.1.68-.2,1.35-.31,2L380.68,672.76l-51.91-51.9c.1-.7.17-1.39.27-2.08l89.38,89.38c0,.51,0,1,0,1.5.44-.07.89-.12,1.35-.18Z"/><path d="M700.69,1049.84c-.16.61-.32,1.24-.49,1.85l-35.52-35.52L324.13,675.61c0-.76.06-1.5.09-2.24l340.93,340.92Z"/><path d="M706.48,1025.93c-.13.65-.26,1.27-.41,1.92L325.86,647.63c.06-.71.13-1.43.19-2.14L670.55,990Z"/><path d="M704.67,1034l-.45,1.88L325.13,656.8c.05-.73.12-1.44.17-2.16L668.87,998.22Z"/><path d="M702.76,1042c-.15.63-.33,1.24-.5,1.85l-35.63-35.63L324.55,666.12c0-.73.09-1.46.14-2.2l342.39,342.39Z"/><path d="M429.17,610c-.13.64-.25,1.3-.38,1.94l-83.64-83.64c.13-.64.26-1.29.41-1.93l47.67,47.67Z"/><path d="M49.19,1012.2c.25,1,.49,2,.75,3.08l283.4,283.4,2.55.22Z"/><path d="M38.82,902.82c-.06.72-.11,1.45-.16,2.17l390.78,390.78,2.08-.25Z"/><path d="M46.26,999.36l.63,3L344,1299.43l2.46.12Z"/><path d="M57,1039.77c.37,1.14.72,2.28,1.09,3.42L310.84,1296c.92.15,1.84.3,2.76.43Z"/><path d="M67.9,1070.51c.51,1.28,1,2.56,1.51,3.84L286.05,1291c1,.26,2,.5,3.07.74Z"/><path d="M380.09,937.16c-1.29-.53-2.59-1-3.9-1.57L161.57,721c.53-.25,1.07-.48,1.62-.72Z"/><path d="M43.82,987c.18,1,.37,1.92.55,2.87l309.94,309.95,2.39.06Z"/><path d="M52.71,1025.62c.31,1.09.64,2.19,1,3.29l268.65,268.65,2.65.32Z"/><path d="M40.31,963.71c.1.89.22,1.78.34,2.67l333.51,333.51,2.27-.05Z"/><path d="M38,931.71c0,.79,0,1.59.06,2.39l364.38,364.38,2.18-.15Z"/><path d="M38.23,912.13c0,.74-.07,1.48-.1,2.23L420.57,1296.8l2.1-.23Z"/><path d="M38,921.75c0,.77,0,1.54,0,2.31l373.65,373.65,2.13-.2Z"/><path d="M39.17,952.67c.07.85.16,1.72.24,2.57L383.76,1299.6l2.24-.1Z"/><path d="M38.4,942c.05.82.1,1.65.16,2.48l354.63,354.63,2.2-.12Z"/><path d="M74.86,1087.37c.6,1.39,1.22,2.78,1.83,4.17l195.63,195.63,3.35,1Z"/><path d="M83.05,1105.46c.7,1.5,1.44,3,2.17,4.5l172,172c1.23.47,2.47.93,3.71,1.38Z"/><path d="M708.21,1017.75c-.11.6-.23,1.18-.34,1.77a.53.53,0,0,0,0,.18l-36.09-36.09-345-345c.07-.69.15-1.4.22-2.11Z"/><path d="M555.38,708.83,693,846.45c-.32-.78-.64-1.56-1-2.34-.24-.58-.5-1.14-.75-1.71L559,710.09C557.78,709.66,556.58,709.24,555.38,708.83Z"/><path d="M461.19,703.75,714.52,957.09c0-.78,0-1.56,0-2.33L463.25,703.48Z"/><path d="M1016.79,771.89c-.24.44-.47.9-.71,1.35l-.1.16-34-34L861.21,618.61q-2.9-4.15-5.83-8.14l127.39,127.4Z"/><path d="M964.29,838.18c-.6.22-1.09.4-1.57.6l-.11.05-30.06-30.06L910.78,787c0-.11,0-.25.05-.34.1-.58.19-1.14.27-1.69l22.73,22.74Z"/><path d="M640.5,1187.66c-.25.4-.5.81-.74,1.22l-.15.22-33.52-33.51L573.51,1123c-.42-1.22-.84-2.42-1.29-3.62L607,1154.14Z"/><path d="M104.27,1146.48c1.18,2,2.4,4,3.62,6L218.5,1263.05q2.82,1.73,5.7,3.37Z"/><path d="M92.71,1125l2.5,4.83L240,1274.68q2.16,1,4.33,2Z"/><path d="M126.83,1179a235.89,235.89,0,0,0,17,18.66l.33.33.32.32.33.33.32.32.33.33.33.33.32.32.33.33.33.33.32.32.33.33.33.33c.1.11.21.21.32.32l.33.33.33.33.32.32.33.33.32.33.33.32.33.33.32.32.33.33.33.33.32.32.33.33.33.33.32.32.33.33.33.33.32.32.33.33.32.33.33.32.33.33.32.33.33.32.33.33.32.32.33.33.33.33.32.32.33.33.33.33.32.32.33.33.33.33.32.32.33.33.33.33.32.32.33.33.32.32.33.33.33.33.32.32.33.33.33.33.32.32.33.33.33.33.32.32.33.33.33.33.32.32.33.33.32.33.33.32.33.33.32.32.33.33.33.33.32.32.33.33.33.33.32.32.33.33.33.33.32.33.33.32.32.33.33.32.33.33.32.33.33.32.33.33.32.33.33.32.33.33.32.32.33.33.33.33.32.33.33.32.33.33.32.33.33.32.32.33.33.32.33.33.32.33q7.68,7.58,16,14.36Z"/><path d="M41.85,975.16l.06.39c.12.8.26,1.59.39,2.38L364.36,1300h.45l1.86,0Z"/><path d="M292.45,919c-1.28-.52-2.52-1.09-3.79-1.63l312.89,312.89v-.19c0-.71,0-1.44,0-2.16L292.75,919.12Z"/><path d="M340.54,937.21l-3.63-1.3,261.42,261.42c-.05-.24-.08-.48-.13-.72l.18-.3.13.65.2-.32.12.65.21-.32.12.65.2-.33.13.65.2-.32.12.65.21-.33.12.66.2-.33.13.65.2-.32.12.65.21-.33.12.66.2-.33.13.65.2-.32.12.65.21-.33.12.66.2-.33.12.65.21-.32.12.65.21-.33.12.65.2-.32.12.65.21-.32.12.65.21-.33.12.65.2-.32.12.65.21-.32.12.65.2-.33.13.65.2-.32.12.65.21-.32.12.65.2-.33.13.65.2-.32.12.65.21-.33.12.66.2-.33.13.65.2-.32.12.65.21-.33.12.66.2-.33.13.65.2-.32.12.65.21-.33.12.66.2-.33.12.65.21-.32.12.65.21-.33.12.65.2-.32.12.65.21-.32.12.65.2-.33.13.65.2-.32.12.65.21-.32.12.65.2-.33.13.65.2-.32.12.65.21-.33.12.66.2-.33.13.65.2-.32.12.65.21-.33.12.66.2-.33.13.65.2-.32.12.65.21-.33.12.66.2-.33.13.65.2-.32.12.65.21-.33.12.65.2-.32.12.65.21-.32.12.65.21-.33.12.65.2-.32.12.65.21-.32.12.65.2-.33.13.65.2-.32.12.65.21-.32.12.65.2-.33.13.65.2-.32.12.65.21-.32.12.65.2-.33.13.65.2-.32.12.65.21-.33.12.66.2-.33.13.65.2-.32.12.65.21-.33.12.66.69-1.1Z"/><path d="M61.93,1054.64c.44,1.22.91,2.46,1.35,3.68L298.8,1293.84c1,.2,1.93.4,2.91.58Z"/><path d="M149.83,805.9q2.43,3.69,4.88,7.22L104,762.4c.4-.39.81-.75,1.21-1.13Z"/><path d="M589.9,1246l-1.29,1.06L557,1215.4,213.16,871.57c2,1.22,3.89,2.41,5.89,3.55Z"/><path d="M90.71,776.49c-.36.42-.7.86-1,1.28L571.1,1259.21l1.44-.89Z"/><path d="M584.34,1250.32c-.45.33-.91.64-1.35,1L99.06,767.37c.38-.4.76-.79,1.16-1.19l77.26,77.26s.05,0,.07.09l10,10.05.07,0L552.9,1218.88Z"/><path d="M95.38,771.26l-1.1,1.23,482.87,482.87,1.4-.93Z"/><path d="M86.24,781.92c-.35.43-.71.85-1,1.28l479.64,479.65,1.49-.85Z"/><path d="M81.93,787.51c-.33.45-.67.88-1,1.33l477.38,477.38,1.57-.76Z"/><path d="M420.25,957.51c-1.43-.89-2.87-1.75-4.3-2.61-.51-.29-1-.61-1.55-.9l-239-239,1.67-.68Z"/><path d="M136.26,784.76l-27.15-27.15c.19-.18.39-.38.61-.56l.61-.55,22,22Z"/><path d="M556.56,1106.05l-28.64-28.64c-.65-1.45-1.31-2.89-2-4.32l24.63,24.63C552.6,1100.47,554.59,1103.24,556.56,1106.05Z"/><path d="M398.07,945.24q-2.22-1.1-4.5-2.16L168.38,717.89c.54-.25,1.07-.5,1.62-.73Z"/><path d="M77.78,793.26l-1,1.38,474.74,474.73,1.61-.72Z"/><path d="M451.38,978.74q-4.41-3.33-8.89-6.54l-260-260c.58-.22,1.14-.43,1.71-.63Z"/><path d="M483,1000.48q-3.9-2.85-7.91-5.59L189.8,709.59l1.76-.57Z"/><path d="M56.39,831.28c-.24.54-.46,1.09-.69,1.64l449.93,449.93,1.94-.39Z"/><path d="M44.12,868.51c-.15.63-.28,1.27-.43,1.91L464,1290.71l2-.34Z"/><path d="M46.12,860.61c-.17.61-.34,1.22-.5,1.84l426.81,426.8,2-.36Z"/><path d="M48.34,852.94c-.18.59-.37,1.18-.54,1.78l433,433,2-.37Z"/><path d="M42.39,876.68c-.13.65-.26,1.31-.38,2L455.48,1292.1l2-.32Z"/><path d="M50.81,845.5c-.21.57-.4,1.16-.6,1.73l438.91,438.91,1.95-.38Z"/><path d="M40.92,885.12c-.1.67-.21,1.34-.31,2l406.28,406.28,2-.31Z"/><path d="M73.78,799.16c-.31.47-.6,1-.91,1.43l471.69,471.69,1.67-.67Z"/><path d="M66.31,811.49c-.28.5-.58,1-.86,1.48l464.3,464.3,1.8-.53Z"/><path d="M69.94,805.23l-.87,1.46,468.22,468.22,1.75-.59Z"/><path d="M53.5,838.29c-.22.56-.45,1.11-.66,1.67l444.55,444.55,1.95-.38Z"/><path d="M62.79,817.88,62,819.43,522,1279.37c.62-.16,1.23-.33,1.85-.48Z"/><path d="M39.72,893.82c-.08.7-.15,1.4-.23,2.1l398.72,398.72,2.05-.28Z"/><path d="M59.5,824.49l-.75,1.58,455.09,455.09,1.93-.4Z"/><path d="M507.37,1064.43c2.48,3.17,4.88,6.35,7.22,9.57L405.84,965.24q2.67,1.51,5.29,3.07l.3.18Z"/><path d="M573.46,1132.86l-38.75-38.75c-.45-1.24-.91-2.49-1.38-3.73l36.91,36.92C571.33,1129.15,572.4,1131,573.46,1132.86Z"/><path d="M1026.22,751.61c-.22.56-.45,1.1-.68,1.64l-397-397c-.6-1.37-1.22-2.75-1.82-4.14L991.41,716.8Z"/><path d="M1020.15,765.34c-.25.51-.51,1-.76,1.57l-34.21-34.22L650.57,398.09c-1.24-2-2.46-4-3.64-6l339,339Z"/><path d="M1023.3,758.58c-.23.54-.48,1.07-.73,1.62l-34.46-34.46L637.6,375.22c-.81-1.57-1.62-3.15-2.4-4.73Z"/><path d="M1013.22,778.2c-.29.5-.59,1-.87,1.47L878.6,645.92c-1.15-2-2.31-3.89-3.46-5.79L979.46,744.45Z"/><path d="M1001.35,796.06c-.31.44-.66.89-1,1.33l-33.09-33.11-66.71-66.71c-.43-1.2-.87-2.4-1.3-3.62l69,69Z"/><path d="M1005.48,790.25l-1,1.37-33.25-33.25-76.19-76.2c-.47-1.23-.91-2.47-1.37-3.71Z"/><path d="M1009.43,784.32c-.29.48-.61.94-.92,1.4l-33.46-33.46L888.72,666q-.88-2.1-1.83-4.17l89,89Z"/><path d="M1035.52,721.3c-.15.63-.28,1.27-.43,1.9l-35.88-35.88L608.1,296.21c-.28-1.06-.58-2.13-.86-3.19Z"/><path d="M1037.23,713.11c-.13.66-.25,1.3-.38,2l-36.16-36.16L604.62,282.84c-.25-1-.5-2.07-.76-3.09L1001,676.88Z"/><path d="M997.15,801.73c-.35.44-.68.89-1,1.33l-33-33-57.43-57.43c-.34-1.13-.71-2.27-1.09-3.41l59.51,59.49Z"/><path d="M1038.7,704.68c-.1.68-.22,1.34-.33,2l-36.44-36.44L601.52,269.83c-.23-1-.45-2-.68-3Z"/><path d="M519.05,373.16c-.28.47-.56,1-.86,1.46L435,291.41c.3-.5.58-1,.86-1.47Z"/><path d="M1031.35,736.91c-.19.6-.37,1.21-.57,1.79L616.36,324.27c-.38-1.14-.74-2.29-1.11-3.45Z"/><path d="M1033.55,729.23c-.16.63-.33,1.22-.51,1.83L612,310c-.33-1.11-.66-2.21-1-3.32L997.91,693.58Z"/><path d="M511.76,385.65c-.3.5-.56,1-.84,1.5L477.2,353.44l-49.51-49.52c.28-.49.56-1,.85-1.48L478.06,352Z"/><polygon points="950.52 844.22 948.9 844.94 918.96 815 908.25 804.28 908.54 802.24 920.58 814.28 950.52 844.22"/><path d="M504.7,398.4c-.28.49-.56,1-.82,1.5L470,366.05l-49.42-49.41c.27-.5.55-1,.83-1.5Z"/><polygon points="943.66 847.27 942.06 847.99 912.12 818.05 906.99 812.92 907.29 810.9 943.66 847.27"/><path d="M501.27,404.86c-.26.51-.54,1-.81,1.54l-33.94-33.95-49.4-49.4c.28-.5.54-1,.82-1.52Z"/><path d="M1039.92,696c-.08.69-.18,1.39-.26,2.06L1002.9,661.3,511.05,169.46c.3-.49.58-1,.87-1.46Z"/><path d="M515.4,379.39c-.29.49-.57,1-.85,1.48l-33.69-33.68-49.55-49.55c.28-.49.58-1,.86-1.47l49.56,49.57Z"/><path d="M984.16,818.45c-.35.43-.7.87-1,1.3L912.37,749c-.07-.84-.12-1.68-.2-2.52l39.14,39.14Z"/><polygon points="957.36 841.17 955.75 841.89 925.86 811.98 909.51 795.64 909.81 793.6 927.57 811.37 957.36 841.17"/><path d="M979.82,824l-1,1.32-32.86-32.86-33.16-33.15c0-.8,0-1.59,0-2.38L947,791.14Z"/><path d="M988.51,812.91c-.35.43-.68.87-1,1.3l-32.86-32.86-43.42-43.41c-.11-.91-.24-1.82-.39-2.72Z"/><path d="M992.85,807.33c-.33.45-.68.9-1,1.32L909.12,726q-.32-1.51-.66-3Z"/><path d="M970.85,834.85a16.28,16.28,0,0,1-1.37,1l-32.17-32.17-25.39-25.39c.08-.71.15-1.42.22-2.11Z"/><path d="M975.53,829.63l-1,1.32L912.6,769l.1-2.23,29.92,29.93Z"/><path d="M428.41,708.25l-2,.29L712,994.2c.09-.69.17-1.38.26-2.07Z"/><path d="M853.5,341.26l-13.18-10.85L994.38,484.47c-1.42-2.25-2.88-4.48-4.36-6.69Z"/><path d="M798.07,295.73q-6.63-5.44-13.28-11l223,223c-.86-1.67-1.75-3.32-2.65-5Z"/><path d="M918.25,396.11c-2.47-2.41-5-4.76-7.59-7q-5.74-4.92-11.55-9.82l71.24,71.24a229.59,229.59,0,0,0-15.75-18.08Z"/><path d="M690.74,161,563,33.29c.43-.35.88-.68,1.34-1l84.5,84.5v0l41.1,41.11C690.21,158.94,690.47,160,690.74,161Z"/><path d="M661.91,161.91h0L553.57,53.57c0-.73.15-1.42.23-2.11L660.37,158l48.27,48.28q1.64,2.89,3.41,5.74Z"/><path d="M1016.67,526.56l-345-345L553.21,63.1c0-.74.07-1.48.1-2.24l115.4,115.4a0,0,0,0,0,0,0,0,0,0,0,0,0,0,0,0,0,0,0,0,0h0l0,0,0,0,0,0,0,0,0,0,.05.05,65.6,65.62c.63.74,1.21,1.48,1.83,2.23.83.69,1.69,1.4,2.51,2.11l30.44,30.43,195.94,196,49.58,49.58C1015.47,523.79,1016.08,525.18,1016.67,526.56Z"/><path d="M701.07,191.16l-146-146c.18-.59.39-1.15.61-1.71l99.42,99.4v0l44.24,44.22C699.92,188.47,700.5,189.83,701.07,191.16Z"/><path d="M694.91,175.1l-42.64-42.64-94-94q.48-.69,1-1.35l92.27,92.26,42.29,42.3C694.17,172.81,694.53,174,694.91,175.1Z"/><path d="M687.72,148.11,569.25,29.65c.55-.24,1.09-.47,1.67-.66l75.88,75.86h0l40.34,40.33C687.32,146.17,687.52,147.14,687.72,148.11Z"/><path d="M686.89,105.34c-.14.61-.31,1.21-.51,1.82l-37-37h0L607.78,28.57c1.08.27,2.15.56,3.2.86Z"/><path d="M628.21,36.76c-1.63-.92-3.28-1.8-4.94-2.61l64.2,64.2a20.89,20.89,0,0,0-.4-2.73Z"/><path d="M684.09,112.45c-.26.49-.58,1-.87,1.45L596,26.66c.86.07,1.71.15,2.59.25l50.7,50.72Z"/><path d="M645.56,96.06v0l-68.62-68.6c.66-.14,1.31-.25,2-.33l66.28,66.28L685,133.17l.45,2.77Z"/><path d="M683.73,124.3,645.92,86.51l-60-60,2.25-.09,95.22,95.22C683.48,122.52,683.6,123.41,683.73,124.3Z"/><path d="M1042.05,668.41c0,.74-.07,1.5-.1,2.24L522,150.73l.86-1.48Z"/><path d="M1042.39,651.29l-38.12-38.12L529.32,138.22c.28-.5.56-1,.86-1.49l474,474,38.19,38.18C1042.36,649.73,1042.39,650.5,1042.39,651.29Z"/><path d="M1042.31,658.78c0,.77,0,1.53,0,2.31l-37.81-37.81L525.67,144.47c.28-.5.57-1,.86-1.47l477.92,477.92Z"/><path d="M1042.24,641.23l-38.5-38.49L533,132c.3-.49.58-1,.86-1.48L1003.6,600.26l38.54,38.55Z"/><path d="M1023.32,543.11l-45.81-45.8-425-425c.08-.71.13-1.44.19-2.15L689.85,207.3l21.76,21.77L975.55,493l46.33,46.33C1022.36,540.59,1022.85,541.84,1023.32,543.11Z"/><path d="M1040.87,687.05c-.06.71-.11,1.44-.19,2.13l-37-37L514.73,163.23l.85-1.47Z"/><path d="M1041.58,677.85c0,.75-.09,1.47-.14,2.2l-37.32-37.31L518.39,157l.85-1.47,485,485Z"/><path d="M1041.77,630.86,1002.89,592,536.56,125.67c.28-.51.54-1,.8-1.53l465.25,465.24,39,39Z"/><path d="M1040.94,620.15,539.87,119.08l.76-1.59L1001.16,578l39.55,39.55C1040.79,618.43,1040.86,619.29,1040.94,620.15Z"/><path d="M1035.52,585,547.88,97.38c.17-.61.35-1.21.51-1.82L993,540.15,1034.84,582C1035.07,583,1035.29,584,1035.52,585Z"/><path d="M1028.39,558.09l-44-44-433-433c.09-.68.19-1.37.29-2L983,510.32l44.32,44.32C1027.65,555.79,1028,556.93,1028.39,558.09Z"/><path d="M1032.38,572l-42.65-42.66L549.83,89.43c.15-.64.28-1.29.41-1.93l481.27,481.27C1031.79,569.84,1032.1,570.91,1032.38,572Z"/><path d="M1038,597.36l-40.79-40.79L545.58,105c.19-.59.37-1.17.57-1.77L996.46,553.54l40.94,40.93C1037.58,595.43,1037.79,596.39,1038,597.36Z"/><path d="M1039.7,609,542.89,112.18c.23-.54.44-1.1.66-1.66L999.14,566.1v0l40.2,40.18C1039.46,607.2,1039.59,608.09,1039.7,609Z"/><path d="M1028.89,744.38c-.2.58-.38,1.16-.6,1.73l-35-35L621.75,339.55c-.48-1.25-1-2.49-1.43-3.76L993.8,709.3Z"/><path d="M451.59,523.51c-.19.59-.36,1.19-.56,1.78l-35.1-35.12-48.24-48.24c.18-.6.38-1.17.56-1.77l48.26,48.26Z"/><path d="M454.05,516.07c-.2.58-.4,1.16-.59,1.75l-35-35.05-48.31-48.31c.18-.59.38-1.19.56-1.77Z"/><path d="M449.25,531.06c-.2.6-.38,1.19-.56,1.78L365.35,449.5c.18-.6.36-1.21.54-1.8Z"/><path d="M456.52,508.64l-.57,1.75-35-35L372.57,427c.19-.57.41-1.15.61-1.73Z"/><path d="M442.49,554q-.24.91-.51,1.83l-35.4-35.41-47.95-47.95c.17-.61.35-1.2.52-1.81l48,48Z"/><path d="M444.7,546.31c-.18.61-.34,1.22-.53,1.82l-83.34-83.35q.24-.91.51-1.83l48,48Z"/><path d="M446.91,538.63c-.18.59-.35,1.2-.53,1.8L363,457.08l.54-1.78,48.1,48.1Z"/><path d="M461.72,494c-.22.58-.41,1.15-.61,1.71l-34.84-34.82-48.56-48.56c.22-.57.43-1.13.63-1.71Z"/><path d="M459.1,501.32c-.2.57-.42,1.14-.61,1.71L423.6,468.14l-48.48-48.47c.2-.58.4-1.17.6-1.73Z"/><path d="M475.73,458.53l-.69,1.65-34.46-34.46-48.94-48.94c.23-.54.45-1.1.68-1.65l49,49Z"/><path d="M467.16,479.67c-.22.56-.43,1.12-.66,1.68l-34.69-34.69L383.1,397.94c.22-.56.43-1.11.66-1.67Z"/><path d="M470,472.56c-.22.55-.47,1.09-.68,1.65l-34.59-34.59-48.79-48.79.64-1.68Z"/><path d="M440.41,561.83c-.16.62-.32,1.24-.49,1.85L356.54,480.3c.17-.61.33-1.24.5-1.85Z"/><path d="M464.41,486.82c-.22.57-.45,1.11-.65,1.69l-83.38-83.38c.22-.58.41-1.14.63-1.72l48.65,48.67Z"/><path d="M472.83,465.54c-.23.54-.44,1.1-.68,1.65L437.6,432.63l-48.86-48.86.68-1.64Z"/><path d="M472,702.37l-2.07.26L714.41,947.08c0-.81,0-1.61-.07-2.41Z"/><path d="M454.51,704.65l-2.06.27L714.3,966.77c0-.76.05-1.51.07-2.26Z"/><path d="M490.09,700.62l-2.2.13L713.06,925.92c-.09-.86-.17-1.73-.26-2.59Z"/><path d="M480.9,701.33l-2.1.23L713.94,936.71c-.05-.83-.09-1.66-.15-2.49Z"/><path d="M437.1,707l-2.05.29,278,278c.07-.71.13-1.42.19-2.13Z"/><path d="M445.79,705.83l-2.05.28,270,270c.05-.73.11-1.46.15-2.18Z"/><path d="M509.78,700.51c-.82,0-1.63-.09-2.45-.11L709.77,902.83c-.18-1-.37-1.93-.56-2.89Z"/><path d="M532,702.94c-.94-.17-1.87-.34-2.82-.49L703.67,876.92c-.32-1.1-.64-2.2-1-3.29Z"/><path d="M544.63,705.66c-1-.27-2.06-.53-3.1-.77L699.08,862.44q-.62-1.8-1.26-3.6Z"/><path d="M576.38,717.6q-2.26-1.14-4.54-2.21L684.43,828c-.88-1.68-1.76-3.35-2.66-5Z"/><path d="M520.49,701.32c-.87-.09-1.73-.19-2.6-.27L707.15,890.31c-.24-1-.49-2-.74-3.07Z"/><path d="M604.9,736.22c-3.13-2.55-6.33-5-9.63-7.29L669,802.69q-3.72-5.21-7.7-10Z"/><path d="M499.68,700.31l-2.29,0L711.7,914.66c-.13-.91-.26-1.82-.4-2.73Z"/><path d="M591.82,267.72l-1,1.35-27.78-27.78-59.42-59.43c.29-.49.59-1,.89-1.45l54.18,54.18,3.67,3.69Z"/><path d="M558.6,313.68c-.31.47-.64.91-1,1.37l-33.09-33.11L473.09,230.5l.91-1.42Z"/><path d="M799.49,554.59c-1.83-1.38-3.68-2.74-5.56-4.06l-3-2.24L675.29,432.71c-2.91-3.56-5.76-7.17-8.49-10.83Z"/><path d="M554.48,319.47c-.31.45-.64.91-1,1.37L520.4,287.72l-51.18-51.18c.3-.48.61-1,.91-1.42Z"/><path d="M550.39,325.28c-.31.46-.64.92-1,1.36l-33.15-33.15-50.93-50.92.9-1.42,51,51Z"/><path d="M562.74,307.93c-.33.44-.64.89-1,1.35L477,224.47c.32-.46.61-.94.93-1.42l51.77,51.79Z"/><path d="M566.89,302.18c-.33.44-.66.9-1,1.35l-33.07-33.08-52-52,.92-1.41,52.09,52.08Z"/><path d="M538.29,342.88c-.32.47-.63.93-.93,1.41L504.08,311,453.8,260.72l.91-1.43L505,309.61Z"/><path d="M530.44,354.82c-.31.48-.61,1-.92,1.42l-33.39-33.39-49.94-49.94c.29-.48.59-1,.89-1.44l50,50Z"/><path d="M526.56,360.86c-.31.47-.59.95-.89,1.43L442.43,279c.28-.48.57-1,.87-1.45Z"/><path d="M534.33,348.82c-.31.48-.63.94-.92,1.4L450,266.81l.9-1.44L501,315.51Z"/><path d="M571.05,296.44c-.33.44-.64.89-1,1.35l-85.41-85.41c.31-.46.61-.94.91-1.42L538,263.38Z"/><path d="M546.32,331.11c-.32.45-.63.93-1,1.37l-83.87-83.87c.31-.48.61-.94.9-1.42Z"/><path d="M542.29,337l-.95,1.39L508.1,305.13l-50.46-50.47c.3-.48.6-1,.91-1.42Z"/><path d="M484.88,438c-.24.54-.49,1.07-.74,1.6l-83.39-83.4c.24-.53.49-1.07.74-1.6l49.13,49.14Z"/><path d="M497.88,411.38c-.27.51-.55,1-.81,1.51l-34-34-49.35-49.33c.26-.51.54-1,.81-1.53Z"/><path d="M488,431.24l-.74,1.59-83.4-83.4.75-1.6,49.23,49.23Z"/><path d="M494.55,417.94c-.27.53-.52,1-.78,1.56l-34.06-34.06-49.32-49.32c.26-.52.51-1,.78-1.56Z"/><path d="M575.22,290.7c0,.05-.07.08-.1.13-.29.41-.59.81-.89,1.22L541.17,259l-52.66-52.66.91-1.43,52.74,52.74Z"/><path d="M481.75,444.76c-.23.55-.46,1.09-.71,1.62L397.65,363c.23-.54.46-1.08.7-1.61l49.11,49.1Z"/><path d="M478.75,451.66c-.25.52-.48,1.07-.71,1.61l-34.41-34.41-49-49,.73-1.62,49,49Z"/><path d="M491.26,424.57c-.24.52-.51,1-.77,1.56L456.38,392l-49.25-49.25c.24-.51.51-1,.77-1.55Z"/><path d="M583.55,279.22l-1,1.36L549.48,247.5l-53.35-53.35c.29-.48.61-1,.9-1.44l53.43,53.42Z"/><path d="M587.7,273.47l-1,1.35L566.1,254.21l-12.48-12.48L499.9,188c.3-.48.6-.95.89-1.45Z"/><path d="M579.38,285c-.32.46-.65.91-1,1.35l-86.06-86.06c.29-.48.59-1,.89-1.44l53.07,53.08L572.42,278Z"/><path d="M522.79,367c-.3.48-.59,1-.89,1.43l-83.22-83.21c.3-.48.58-1,.88-1.45l49.71,49.71Z"/><path d="M596,261.93c-.33.44-.65.91-1,1.35l-87.61-87.62c.29-.48.57-1,.87-1.45Z"/><path d="M508.23,392l-.84,1.5-83.28-83.28a4.45,4.45,0,0,1,.26-.48c.18-.35.38-.68.58-1l49.48,49.48Z"/></g><path d="M1004.44,630.8q.07-3.78,0-7.52L525.67,144.47c.28-.5.57-1,.86-1.47l477.92,477.92c0-2.6-.1-5.19-.18-7.75L529.32,138.22c.28-.5.56-1,.86-1.49l474,474q-.15-4.07-.43-8L533,132c.3-.49.58-1,.86-1.48L1003.6,600.26c-.22-2.78-.45-5.54-.71-8.27L536.56,125.67c.28-.51.54-1,.8-1.53l465.25,465.24c-.32-2.9-.66-5.77-1.06-8.62L539.87,119.08l.76-1.59L1001.16,578c-.43-3-.93-6-1.47-9l-456.8-456.8c.23-.54.44-1.1.66-1.66L999.14,566.1c-.31-1.73-.66-3.43-1-5.13-.31-1.47-.62-2.93-1-4.4L545.58,105c.19-.59.37-1.17.57-1.77L996.46,553.54q-1.22-5.13-2.58-10.16l-446-446c.17-.61.35-1.21.51-1.82L993,540.15c-1-3.65-2.11-7.24-3.26-10.82L549.83,89.43c.15-.64.28-1.29.41-1.93L988.59,525.85q-2-5.91-4.15-11.72l-433-433c.09-.68.19-1.37.29-2L983,510.32q-2.58-6.58-5.46-13l-425-425c.08-.71.13-1.44.19-2.15L689.85,207.3c-3.34-4.25-6.43-8.37-9.3-12.23a144.75,144.75,0,0,1-8.91-13.54L553.21,63.1c0-.74.07-1.48.1-2.24l115.4,115.4q-3.78-7.08-6.8-14.35h0L553.57,53.57c0-.73.15-1.42.23-2.11L660.37,158c-1.54-3.89-2.92-7.81-4.18-11.74L555.11,45.19c.18-.59.39-1.15.61-1.71l99.42,99.4c-1.06-3.49-2-6.95-2.87-10.42l-94-94q.48-.69,1-1.35l92.27,92.26c-.77-3.24-1.48-6.48-2.11-9.67L563,33.29c.43-.35.88-.68,1.34-1l84.5,84.5c-.59-3.08-1.14-6.15-1.62-9.16l-78-78c.55-.24,1.09-.47,1.67-.66l75.88,75.86c-.47-3-.86-5.92-1.24-8.79v0l-68.62-68.6c.66-.14,1.31-.25,2-.33l66.28,66.28c-.2-1.55-.38-3.09-.56-4.59a3.75,3.75,0,0,1,.18-.54c.38-.58.74-1.17,1.07-1.75l-60-60,2.25-.09L646.75,85a28.2,28.2,0,0,0,2.09-5.48L596,26.66c.86.07,1.71.15,2.59.25l50.7,50.72a21.55,21.55,0,0,0,.06-7.51h0L607.78,28.57c1.08.27,2.15.56,3.2.86L648.54,67A23.46,23.46,0,0,0,642,57.13l-.33-.33c-.11-.1-.21-.21-.33-.31v0l-.32-.31c-.12-.12-.2-.23-.32-.33h0a3.31,3.31,0,0,0-.32-.33l-.33-.33c-.11-.1-.21-.22-.33-.31v0c-.11-.1-.21-.22-.33-.31a3.33,3.33,0,0,0-.31-.33h0a3.19,3.19,0,0,0-.31-.33l-.33-.33c-.12-.1-.21-.22-.33-.32h0c-.12-.1-.21-.22-.33-.32h0c-.11-.1-.2-.22-.31-.32h0l-.31-.33h0l-.31-.33c-.12-.09-.22-.21-.33-.31v0c-.12-.09-.22-.21-.33-.31v0c-.12-.09-.2-.21-.32-.31h0l-.31-.33-.33-.33c-.12-.1-.22-.21-.33-.31v0c-.12-.1-.22-.21-.33-.31v0c-.12-.1-.2-.21-.32-.31h0a3.31,3.31,0,0,0-.32-.33c-.11-.12-.21-.22-.33-.33s-.21-.21-.33-.31v0c-.11-.1-.21-.21-.33-.31a3.26,3.26,0,0,0-.31-.33h0a2.42,2.42,0,0,0-.31-.33c-.12-.12-.21-.22-.33-.33s-.21-.22-.33-.32h0c-.11-.1-.21-.22-.33-.32h0c-.11-.1-.2-.22-.31-.32h0l-.31-.33h0l-.31-.33c-.12-.09-.22-.21-.33-.31h0c-.12-.1-.22-.22-.33-.32h0a3.07,3.07,0,0,1-.31-.32h0c-.1-.11-.2-.23-.31-.33h0l-.31-.33c-.12-.1-.22-.21-.33-.31v0c-.12-.1-.22-.21-.33-.31v0c-.12-.1-.22-.21-.32-.31h0a2.5,2.5,0,0,0-.32-.33l-.33-.33c-.11-.1-.21-.21-.33-.31v0c-.11-.1-.21-.21-.33-.31v0c-.11-.1-.21-.21-.31-.31h0a1.93,1.93,0,0,0-.31-.33h0a2.38,2.38,0,0,0-.31-.33c-.11-.1-.21-.22-.33-.33s-.21-.22-.33-.32h0c-.11-.1-.21-.22-.31-.31h0a2.46,2.46,0,0,0-.31-.33h0c-.1-.12-.2-.22-.31-.33s-.22-.22-.33-.33-.21-.22-.33-.32h0c-.12-.1-.21-.22-.31-.32h0c-.1-.11-.2-.23-.31-.33h0l-.31-.33a3.43,3.43,0,0,1-.33-.33c-.12-.1-.22-.21-.33-.31v0c-.12-.1-.22-.21-.32-.31h0a3.31,3.31,0,0,0-.32-.33h0l-.32-.33c-.11-.1-.21-.21-.33-.33s-.21-.21-.33-.31v0c-.11-.1-.21-.21-.31-.31h0a2.5,2.5,0,0,0-.32-.33h0a3.31,3.31,0,0,0-.32-.33c-.11-.1-.21-.22-.33-.33s-.21-.22-.33-.31v0l-.31-.31h0a3.26,3.26,0,0,0-.31-.33h0a3.19,3.19,0,0,0-.31-.33c-.12-.1-.21-.22-.33-.33s-.21-.22-.33-.32h0c-.12-.1-.21-.22-.31-.32h0c-.11-.11-.2-.23-.31-.33h0l-.31-.33a2.57,2.57,0,0,1-.33-.33c-.12-.09-.22-.21-.33-.31v0a3.14,3.14,0,0,1-.32-.31h0c-.1-.11-.2-.23-.31-.33h0l-.31-.33a3.43,3.43,0,0,1-.33-.33c-.12-.1-.22-.21-.33-.31v0c-.12-.1-.22-.21-.32-.31h0c-.12-.12-.2-.23-.32-.33h0a3.31,3.31,0,0,0-.32-.33c-.11-.12-.21-.21-.33-.33s-.21-.21-.33-.31v0l-.31-.31h0a3.26,3.26,0,0,0-.31-.33h0a2.38,2.38,0,0,0-.31-.33c-.11-.1-.21-.22-.33-.33s-.21-.22-.33-.32h0c-.11-.1-.21-.22-.31-.32h0c-.11-.1-.2-.22-.31-.32h0l-.31-.33C591.64,8.13,572.35,0,551.66,0a77.2,77.2,0,0,0-10.35.68c-17.09,2.24-25.53,12-25.81,29.69-.44,27.88-6.69,51.71-19.08,72.86-3.16,5.38-6.29,10.78-9.49,16.27-8.77,15.08-17.84,30.67-27.11,45.69-8.52,13.8-17.44,27.72-26.1,41.17-16,24.9-32.5,50.64-47.27,77C349.5,349.31,323,423.48,305.51,510.07c-9.5,47-18.81,97.17-19.54,148.82-.1,7.09-.08,14.13-.06,21.45-.84-.18-1.69-.34-2.51-.54l-6.15-1.37c-18.94-4.24-38.52-8.61-59.11-8.61a124.62,124.62,0,0,0-24.72,2.35c-29.89,5.93-56.73,15.17-79.76,27.42l-13,6.89,7.48,12.63c9.43,15.88,18.2,29.73,26.86,42.31,1.83,2.65,3.64,5.24,5.46,7.78,3.18,4.45,6.35,8.74,9.53,12.92A331,331,0,0,0,179,815.41l.33.33.33.33.33.33.33.33c.1.1.21.22.33.32l.31.33a3.43,3.43,0,0,1,.33.33l.33.33.33.33,1,1,.33.33.33.33.32.33,1,1,.33.33c.1.1.21.21.33.31s.21.23.31.33l.33.33.66.66c.1.1.21.22.33.32l.31.33c.12.11.23.21.33.32l1,1,.33.33a3.31,3.31,0,0,1,.32.33l.33.33.33.33.33.31c.1.12.22.23.32.33l.33.33.33.33.33.33.64.64.33.33.33.33.33.33.33.33,1,1,.33.33.33.33.33.32c.1.11.22.21.31.33l.66.66.32.31.33.33.33.33.33.33.33.33.33.33.31.31.33.33.33.33,1,1,.33.33.33.33.33.33.33.33c.1.1.21.22.33.32l.31.33.33.33.33.33.33.31.32.33.66.66.33.33c.09.1.21.21.32.31s.22.23.32.33l1,1,.33.33.31.31.33.33.33.33.33.33c.1.1.21.22.33.33l.31.32.33.32.33.33.66.66.33.33.64.65.33.33c.12.1.22.21.33.31a259.13,259.13,0,0,0,53.29,41.5c4.26,2.47,8.56,4.85,12.91,7.09l-95.12-95.12c-2-2.7-4-5.49-6-8.31L282.62,899.11q7.15,3.58,14.42,6.82L161.31,770.22c-1.32-2.09-2.67-4.2-4-6.36l144,143.94q6.45,2.82,13,5.4L145.54,744.55l-3.39-5.74L318.06,914.74q6.07,2.37,12.17,4.58L142,731.08l1.52-.81L333.89,920.66c3.92,1.43,7.83,2.8,11.72,4.14L148.43,727.63l1.53-.81L349.14,926c2.77.94,5.54,1.88,8.29,2.79,1,.34,2.08.69,3.1,1.05L155,724.25l1.55-.77L364.14,931.09c4.12,1.44,8.15,2.94,12.05,4.5L161.57,721c.53-.25,1.07-.48,1.62-.72l216.9,216.91q6.95,2.85,13.48,5.92L168.38,717.89c.54-.25,1.07-.5,1.62-.73L398.07,945.24c5.64,2.79,11.08,5.69,16.33,8.76l-239-239,1.67-.68L420.25,957.51q11.4,7,22.24,14.69l-260-260c.58-.22,1.14-.43,1.71-.63L451.38,978.74q11.94,9,23.18,19,10.13,11.4,19.44,23.63a290.38,290.38,0,0,1,31.92,51.72l24.63,24.63c2.05,2.75,4,5.52,6,8.33l-28.64-28.64q2.91,6.45,5.41,13l36.91,36.92c1.09,1.85,2.16,3.69,3.22,5.56l-38.75-38.75c.58,1.57,1.12,3.13,1.65,4.7.76,2.24,1.47,4.43,2.11,6.63l60.94,60.94,2.42-3.88.5-.79L578,1137.37c-.3-1.07-.59-2.14-.91-3.21l26.14,26.12c1-1.55,1.93-3.12,2.87-4.69L573.51,1123c-.42-1.22-.84-2.42-1.29-3.62L607,1154.14c.94-1.56,1.89-3.16,2.82-4.75l-42.66-42.65c-.61-1.4-1.23-2.82-1.88-4.22l45.39,45.41c.94-1.6,1.87-3.2,2.77-4.8l-55.68-55.7c-.94-1.73-1.89-3.48-2.9-5.22l59.44,59.44c.91-1.62,1.81-3.25,2.71-4.87L542.23,1062c-1.8-2.63-3.68-5.27-5.59-7.91l81.15,81.15c.91-1.63,1.8-3.26,2.67-4.91L197.28,707.17c.6-.18,1.16-.4,1.77-.58l422.22,422.23c.88-1.65,1.75-3.3,2.59-5L204.93,704.93l1.82-.53,417.92,417.92q1.29-2.52,2.52-5L212.72,702.82c.62-.17,1.25-.32,1.86-.48L628,1115.73q1.26-2.55,2.47-5.1L220.65,700.84l1.93-.41L631.2,1109.07c.81-1.72,1.61-3.45,2.41-5.17L228.81,699.09l1.91-.41,403.63,403.63c.79-1.74,1.58-3.47,2.35-5.22L237.15,697.54c.69-.1,1.39-.16,2.08-.26l398.18,398.2c.78-1.75,1.54-3.53,2.3-5.29L246.1,696.58l2.18-.14L640.4,1088.55q1.14-2.67,2.22-5.34l-387-387H258L643.3,1081.55c.73-1.8,1.45-3.61,2.16-5.41L265.84,696.52l2.51.18,377.77,377.77q1-2.74,2.06-5.5L276.77,697.56c.89.1,1.78.21,2.67.34l369.38,369.37q1-2.77,2-5.56L288.41,699.29c.94.16,1.9.33,2.84.51L651.44,1060c.68-1.87,1.32-3.75,1.95-5.63L300.66,701.65l3,.62L654,1052.63q1-2.85,1.87-5.71L313.33,704.4c.61.15,1.23.28,1.84.41l1.16.27,340.08,340.08c.62-1.91,1.22-3.84,1.8-5.77L323.83,705v-2.34l334.92,334.94q.88-2.92,1.73-5.84L323.83,695.1v-2.32L661,1029.94c.56-2,1.11-3.94,1.65-5.92L323.89,685.27c0-.75.05-1.51.05-2.27l339.19,339.17c.53-2,1.06-4,1.55-6L324.13,675.61c0-.76.06-1.5.09-2.24l340.93,340.92c.51-2,1-4,1.48-6.08L324.55,666.12c0-.73.09-1.46.14-2.2l342.39,342.39c.47-2.06.94-4.12,1.38-6.18L325.13,656.8c.05-.73.12-1.44.17-2.16L668.87,998.22c.38-1.69.73-3.38,1.07-5.08.09-.4.17-.79.24-1.19L325.86,647.63c.06-.71.13-1.43.19-2.14L670.55,990q.65-3.22,1.19-6.4l-345-345c.07-.69.15-1.4.22-2.11L672.09,981.63c.36-2.19.71-4.37,1-6.55l-291.9-291.9-.75.1c0-.28,0-.55,0-.83l-52.79-52.79c.08-.69.16-1.38.24-2.09l52.58,52.58c0-2.46.1-4.93.17-7.39l-51.91-51.9c.1-.7.17-1.39.27-2.08l51.72,51.72c.08-2.42.18-4.85.3-7.27L330,612.13c.1-.69.18-1.37.28-2.06L381.17,661c.12-2.39.27-4.76.42-7.14l-50.37-50.37c.11-.67.21-1.35.31-2l50.22,50.22c.17-2.34.35-4.7.53-7l-49.71-49.71c.1-.68.21-1.34.33-2l49.58,49.58c.19-2.3.43-4.61.66-6.89h0L334,586.45c.11-.66.23-1.34.34-2l49,49c.25-2.28.51-4.52.79-6.78L335.45,578c.12-.66.23-1.32.35-2l48.59,48.57c.28-2.24.56-4.46.87-6.69L337,569.63c.11-.65.25-1.31.36-2l48.23,48.22c.31-2.19.63-4.38,1-6.58l-48-48c.11-.66.24-1.3.37-2l47.95,48c.35-2.16.71-4.32,1.11-6.46L340.14,553c.13-.66.26-1.31.37-2l47.8,47.79c.13-.8.28-1.6.43-2.4.25-1.34.5-2.66.76-4l-47.73-47.73.39-2,47.72,47.72c.4-2.11.81-4.22,1.24-6.31l-47.7-47.7a.06.06,0,0,0,0,0c.13-.64.27-1.25.4-1.89l47.68,47.68c.41-2.09.86-4.19,1.3-6.26l-47.66-47.67c.13-.64.26-1.29.41-1.93l47.67,47.67c.43-2.08.87-4.16,1.35-6.22l-47.7-47.7c.13-.64.28-1.25.43-1.9l47.7,47.7c.44-2.06.9-4.12,1.4-6.16l-47.7-47.7c.15-.63.28-1.27.43-1.9l47.71,47.7c.47-2,1-4.07,1.45-6.1L350.56,504c.14-.63.31-1.24.46-1.87l47.75,47.75q.74-3,1.5-6.07L352.5,496.06c.17-.63.31-1.26.46-1.87L400.75,542q.76-3,1.56-6l-47.83-47.85c.15-.63.31-1.22.48-1.85l47.85,47.85c.52-2,1.05-4,1.61-6L356.54,480.3c.17-.61.33-1.24.5-1.85l47.89,47.9c.55-2,1.09-4,1.65-5.92l-47.95-47.95c.17-.61.35-1.2.52-1.81l48,48c.56-2,1.14-3.91,1.71-5.85l-48-48q.24-.91.51-1.83l48,48c.58-2,1.15-3.88,1.76-5.8L363,457.08l.54-1.78,48.1,48.1c.59-1.93,1.2-3.85,1.81-5.76L365.35,449.5c.18-.6.36-1.21.54-1.8l48.18,48.18c.61-1.92,1.22-3.81,1.86-5.71l-48.24-48.24c.18-.6.38-1.17.56-1.77l48.26,48.26c.62-1.89,1.25-3.77,1.91-5.65l-48.31-48.31c.18-.59.38-1.19.56-1.77L419,481l2-5.61L372.57,427c.19-.57.41-1.15.61-1.73l48.41,48.41c.66-1.86,1.31-3.71,2-5.56l-48.48-48.47c.2-.58.4-1.17.6-1.73l48.5,48.51c.66-1.87,1.36-3.7,2-5.53l-48.56-48.56c.22-.57.43-1.13.63-1.71l48.57,48.57c.69-1.83,1.39-3.66,2.1-5.47l-48.63-48.62c.22-.58.41-1.14.63-1.72l48.65,48.67c.71-1.81,1.42-3.62,2.15-5.42L383.1,397.94c.22-.56.43-1.11.66-1.67L432.48,445c.71-1.79,1.46-3.59,2.2-5.37l-48.79-48.79.64-1.68L435.37,438c.71-1.78,1.47-3.58,2.23-5.36l-48.86-48.86.68-1.64L438.3,431c.73-1.76,1.51-3.53,2.28-5.29l-48.94-48.94c.23-.54.45-1.1.68-1.65l49,49c.76-1.74,1.53-3.49,2.34-5.24l-49-49,.73-1.62,49,49c.75-1.75,1.56-3.48,2.35-5.21L397.65,363c.23-.54.46-1.08.7-1.61l49.11,49.1c.79-1.72,1.59-3.43,2.42-5.15l-49.13-49.13c.24-.53.49-1.07.74-1.6l49.13,49.14c.83-1.7,1.63-3.4,2.47-5.1l-49.2-49.2.75-1.6,49.23,49.23q1.22-2.54,2.51-5.06l-49.25-49.25c.24-.51.51-1,.77-1.55l49.25,49.25c.82-1.68,1.68-3.34,2.56-5l-49.32-49.32c.26-.52.51-1,.78-1.56l49.33,49.33c.84-1.67,1.71-3.33,2.59-5l-49.35-49.33c.26-.51.54-1,.81-1.53l49.34,49.34c.86-1.65,1.75-3.29,2.63-4.94l-49.4-49.4c.28-.5.54-1,.82-1.52L467.36,371q1.31-2.46,2.67-4.9l-49.42-49.41c.27-.5.55-1,.83-1.5l49.41,49.41q1.36-2.43,2.74-4.83l-49.48-49.48a4.45,4.45,0,0,1,.26-.48c.18-.35.38-.68.58-1l49.48,49.48c.91-1.6,1.83-3.2,2.77-4.78l-49.51-49.52c.28-.49.56-1,.85-1.48L478.06,352c.92-1.6,1.86-3.18,2.8-4.76l-49.55-49.55c.28-.49.58-1,.86-1.47l49.56,49.57.6-1c.74-1.24,1.5-2.47,2.26-3.71L435,291.41c.3-.5.58-1,.86-1.47l49.63,49.63c1-1.55,1.93-3.12,2.92-4.67l-49.7-49.69c.3-.48.58-1,.88-1.45l49.71,49.71c1-1.55,2-3.08,3-4.62L442.43,279c.28-.48.57-1,.87-1.45l49.84,49.85c1-1.54,2-3.06,3-4.59l-49.94-49.94c.29-.48.59-1,.89-1.44l50,50c1-1.52,2-3,3-4.55L450,266.81l.9-1.44L501,315.51c1-1.5,2-3,3.06-4.51L453.8,260.72l.91-1.43L505,309.61c1-1.5,2.05-3,3.09-4.48l-50.46-50.47c.3-.48.6-1,.91-1.42l50.5,50.5c1-1.48,2.07-2.95,3.14-4.43l-50.7-50.7c.31-.48.61-.94.9-1.42l50.75,50.75q1.54-2.24,3.14-4.45l-50.93-50.92.9-1.42,51,51c1-1.48,2.08-2.95,3.15-4.41l-51.18-51.18c.3-.48.61-1,.91-1.42l51.24,51.24q1.56-2.22,3.17-4.42L473.09,230.5l.91-1.42,51.51,51.51c1-1.48,2.11-2.93,3.17-4.4L477,224.47c.32-.46.61-.94.93-1.42l51.77,51.79c1.07-1.47,2.13-2.94,3.2-4.39l-52-52,.92-1.41,52.09,52.08q1.6-2.21,3.18-4.39l-52.33-52.33c.31-.46.61-.94.91-1.42L538,263.38c1-1.45,2.11-2.92,3.18-4.39l-52.66-52.66.91-1.43,52.74,52.74c1-1.47,2.11-2.92,3.17-4.4l-53-53c.29-.48.59-1,.89-1.44l53.07,53.08c1.07-1.45,2.13-2.92,3.18-4.39l-53.35-53.35c.29-.48.61-1,.9-1.44l53.43,53.42c1-1.46,2.11-2.92,3.16-4.4L499.9,188c.3-.48.6-.95.89-1.45l53.8,53.8c1.06-1.47,2.1-2.93,3.15-4.4l-54.09-54.1c.29-.49.59-1,.89-1.45l54.18,54.18c.72-1.05,1.46-2.09,2.21-3.15.47,2.28,1,4.57,1.46,6.84l29.43,29.44-1,1.35-27.78-27.78c.74,3.28,1.5,6.57,2.31,9.86l22.32,22.32-1,1.35L566.1,254.21q1.26,5.1,2.59,10.16l14.86,14.85-1,1.36-13-13c.93,3.5,1.88,7,2.89,10.45l7,7c-.32.46-.65.91-1,1.35l-5-5q1.56,5.49,3.25,10.93a334.83,334.83,0,0,0,69.46,124.4l1.32,1.5c11.44,12.91,23.07,26,35.53,38.55l.33.33a3.13,3.13,0,0,0,.33.31,2052526417669.46,2052526417669.46,0,0,0,.66.66c.1.12.21.22.31.33l.33.33c.12.1.22.22.33.33s.22.22.33.32.22.23.33.33.22.21.32.33a3.31,3.31,0,0,1,.32.33,2.57,2.57,0,0,1,.33.33c.12.09.22.21.33.31l.33.33.33.33c.1.11.22.21.32.33l.33.33c.11.1.21.21.33.31a2.57,2.57,0,0,0,.33.33c.1.12.21.22.31.33l.33.33.33.33.33.33.31.31.33.33.33.33.33.32.33.33.33.34a3.14,3.14,0,0,1,.31.32,2.57,2.57,0,0,1,.33.33l.33.32c.12.1.22.22.33.33l.33.32c.1.11.22.21.32.33s.23.21.33.33.23.21.33.33.21.21.33.31a2.57,2.57,0,0,0,.33.33,2.06,2.06,0,0,0,.33.33c.09.12.21.21.31.33s.21.21.33.33l.33.33.31.31.33.33.33.33.33.33c.12.1.22.22.33.33a3.26,3.26,0,0,0,.33.31,3.33,3.33,0,0,0,.31.33l.33.33.33.33c.12.1.22.22.33.33s.22.22.33.33.22.2.32.32.23.21.33.33.23.21.33.33.21.21.33.31a2.5,2.5,0,0,0,.32.33c.1.11.22.23.33.33s.22.21.32.33l.33.33.33.33c.1.1.21.21.33.31a2.57,2.57,0,0,0,.33.33c.1.12.21.22.31.33s.21.22.33.33.21.22.33.33.21.22.33.31a3.43,3.43,0,0,0,.33.33,2.57,2.57,0,0,0,.33.33c.1.12.2.22.31.33s.22.22.33.33.22.22.33.33l.32.32c.11.11.23.21.33.33a3.31,3.31,0,0,1,.32.33,2.57,2.57,0,0,1,.33.33,2.57,2.57,0,0,1,.33.33l.32.31c.11.11.23.21.33.33s.23.21.33.33.21.21.33.31a2.57,2.57,0,0,0,.33.33,2.57,2.57,0,0,0,.33.33c.1.12.21.22.31.33s.21.21.33.33l.33.33c.11.1.21.21.33.31a2.57,2.57,0,0,0,.33.33c.1.12.21.22.31.33l.33.33c.12.12.23.22.33.33s.22.22.33.32l.33.33c.1.11.22.23.33.33l.31.32c.12.1.22.22.33.33s.22.22.33.33l.32.32A312.46,312.46,0,0,0,756,524.15a361.21,361.21,0,0,1,37.89,31.4C811.16,574,827.11,596,842.57,622.78c7.49,13,12.88,28.17,18.09,42.87l.13.38q1.94,5.47,3.89,10.88a168.73,168.73,0,0,1,9.11,77.2c-.2,1.83-.52,3.84-.88,6.18-.2,1.32-.41,2.72-.64,4.31l-3.68,25.18.41-.19-.08.5.4-.17-.07.5.4-.18-.07.51.4-.18-.07.51.4-.18-.09.51.42-.18-.09.49.4-.16-.07.49.4-.18-.07.51.4-.18-.07.51.4-.18-.08.51.41-.18-.08.49.39-.16-.06.49.39-.18-.06.51.39-.18-.06.51.39-.18-.08.51.41-.18-.08.5.39-.17-.06.5.39-.19-.06.51.39-.18-.06.51.39-.18-.08.51.41-.18-.08.5.41-.17-.08.5.4-.18-.07.51.4-.18-.07.51.4-.18-.09.51.42-.18-.09.49.42-.17-.09.5.4-.18-.07.51.4-.18-.07.51.4-.18-.08.51.41-.18-.08.49.41-.16-.08.49.39-.18-.07.51.4-.18-.07.51.4-.18-.08.51.41-.18-.08.51.41-.18-.08.49.39-.18-.06.51.39-.18-.06.51.39-.18-.08.51.41-.18-.08.51.41-.18-.08.5.4-.17-.07.5.4-.19-.07.52.4-.19-.09.52.41-.19-.08.52.41-.19-.08.5.4-.17-.07.5.4-.18-.07.51.4-.18-.07.51.4-.18-.09.51.42-.18-.09.49.4-.16-.07.49.4-.18-.07.51.4-.18-.07.51.4-.18-.08.51.41-.18-.08.49.39-.16-.06.49.39-.18-.06.51.39-.18-.06.51.39-.18-.08.51.41-.18-.08.5.4-.17-.07.5.39-.19-.06.52.39-.19-.06.52.39-.19-.08.51.41-.18-.08.5.4-.17-.07.5.4-.18-.07.51.4-.18-.07.51.4-.18-.09.51.42-.18-.09.49.4-.16-.07.49.4-.18-.07.51.4-.18-.07.51.4-.18-.08.51.41-.18-.08.49.39-.16-.06.49.39-.18-.06.51.39-.18-.06.51.39-.18-.08.51.41-.18-.08.5.39-.17-.06.49.39-.18-.06.51.39-.18-.06.51.39-.18-.08.51.41-.18-.08.5.4-.17-.07.5.4-.18-.07.51.4-.18-.07.51.4-.18-.09.51.42-.18-.09.49.4-.17-.07.5.4-.18-.07.51.4-.18-.07.51.4-.18-.08.51.41-.18-.08.49.39-.16-.06.49.39-.18-.07.51.4-.18-.07.51.4-.18-.08.51,10.55-4.7L907,812.92l.3-2,6.43,6.43L919,815l-10.71-10.72.29-2,12,12,4.22-1.88,1.05-.42-16.33-16.34.29-2,17.76,17.77a20.33,20.33,0,0,0,5-2.6L910.78,787c0-.11,0-.25.05-.34.1-.58.19-1.14.27-1.69l22.73,22.74a14,14,0,0,0,2.21-2.41l1.27-1.68-25.39-25.39c.08-.71.15-1.42.22-2.11l26.16,26.17c1.09-1.44,2.18-2.87,3.3-4.29l-29-29,.1-2.23,29.92,29.93q1.64-2.16,3.32-4.26l-33.16-33.15c0-.8,0-1.59,0-2.38L947,791.14c.49-.64,1-1.28,1.5-1.91l1.83-2.32L912.37,749c-.07-.84-.12-1.68-.2-2.52l39.14,39.14c1.11-1.41,2.21-2.83,3.32-4.25l-43.42-43.41c-.11-.91-.24-1.82-.39-2.72l44.83,44.83c1.09-1.42,2.19-2.86,3.26-4.31L909.12,726q-.32-1.51-.66-3l51.48,51.47c1.07-1.43,2.16-2.88,3.21-4.35l-57.43-57.43c-.34-1.13-.71-2.27-1.09-3.41l59.51,59.49c1.06-1.47,2.11-3,3.13-4.44l-66.71-66.71c-.43-1.2-.87-2.4-1.3-3.62l69,69c1-1.5,2-3,3-4.55l-76.19-76.2c-.47-1.23-.91-2.47-1.37-3.71l78.46,78.47c1-1.53,2-3.1,2.9-4.67L888.72,666q-.88-2.1-1.83-4.17l89,89c.78-1.31,1.52-2.62,2.24-3.94.17-.3.33-.6.5-.89l-100-100.05c-1.15-2-2.31-3.89-3.46-5.79L979.46,744.45c.87-1.65,1.73-3.31,2.55-5L861.21,618.61q-2.9-4.15-5.83-8.14l127.39,127.4q1.25-2.55,2.41-5.18L650.57,398.09c-1.24-2-2.46-4-3.64-6l339,339q1.14-2.66,2.22-5.34L637.6,375.22c-.81-1.57-1.62-3.15-2.4-4.73L988.76,724c.71-1.83,1.4-3.66,2-5.53L628.58,356.29c-.6-1.37-1.22-2.75-1.82-4.14L991.41,716.8c.64-1.9,1.27-3.79,1.85-5.72L621.75,339.55c-.48-1.25-1-2.49-1.43-3.76L993.8,709.3c.6-1.95,1.16-3.91,1.68-5.91L616.36,324.27c-.38-1.14-.74-2.29-1.11-3.45L996,701.55c.53-2,1-4,1.5-6L612,310c-.33-1.11-.66-2.21-1-3.32L997.91,693.58q.69-3.09,1.3-6.26L608.1,296.21c-.28-1.06-.58-2.13-.86-3.19L999.57,685.36c.41-2.13.78-4.27,1.12-6.45L604.62,282.84c-.25-1-.5-2.07-.76-3.09L1001,676.88q.5-3.28.92-6.64L601.52,269.83c-.23-1-.45-2-.68-3l401.34,401.33c.28-2.26.51-4.55.72-6.86L511.05,169.46c.3-.49.58-1,.87-1.46L1003.1,659.17c.22-2.32.38-4.66.55-7L514.73,163.23l.85-1.47L1003.78,650c0-.2,0-.4,0-.6.12-2.22.23-4.43.31-6.62L518.39,157l.85-1.47,485,485c.09-2.49.16-5,.19-7.37L522,150.73l.86-1.48ZM483,1000.48q-3.9-2.85-7.91-5.59L189.8,709.59l1.76-.57ZM799.49,554.59c-1.83-1.38-3.68-2.74-5.56-4.06l-3-2.24L675.29,432.71c-2.91-3.56-5.76-7.17-8.49-10.83ZM596,261.93c-.33.44-.65.91-1,1.35l-87.61-87.62c.29-.48.57-1,.87-1.45Z"/><g id="b6b7bab5-0019-4fc2-8269-30434e2b6a4c" data-name="outer lines(split)"><path d="M182.72,801.53c-2-2.7-4-5.49-6-8.31L282.62,899.11c-1.59-.79-3.19-1.62-4.78-2.46Z"/><path d="M297,905.93,161.31,770.22c-1.32-2.09-2.67-4.2-4-6.36l144,143.94C299.84,907.19,298.44,906.56,297,905.93Z"/><path d="M314.2,913.2,145.54,744.55l-3.39-5.74L318.06,914.74Z"/><path d="M330.23,919.32,142,731.08l1.52-.81L333.89,920.66C332.67,920.23,331.45,919.78,330.23,919.32Z"/><path d="M345.61,924.8,148.43,727.63l1.53-.81L349.14,926Z"/><path d="M360.53,929.84,155,724.25l1.55-.77L364.14,931.09C363,930.66,361.75,930.24,360.53,929.84Z"/><path d="M376.19,935.59,161.57,721c.53-.25,1.07-.48,1.62-.72l216.9,216.91C378.8,936.63,377.5,936.11,376.19,935.59Z"/><path d="M380.48,682.45l-52.79-52.79c.08-.69.16-1.38.24-2.09l52.58,52.58C380.5,680.92,380.48,681.68,380.48,682.45Z"/><path d="M380.68,672.76l-51.91-51.9c.1-.7.17-1.39.27-2.08l51.72,51.72C380.73,671.26,380.71,672,380.68,672.76Z"/><path d="M381.06,663.23,330,612.13c.1-.69.18-1.37.28-2.06L381.17,661C381.12,661.75,381.09,662.49,381.06,663.23Z"/><path d="M381.59,653.86l-50.37-50.37c.11-.67.21-1.35.31-2l50.22,50.22C381.68,652.41,381.64,653.14,381.59,653.86Z"/><path d="M382.28,644.65l-49.71-49.71c.1-.68.21-1.34.33-2l49.58,49.58C382.41,643.21,382.34,643.94,382.28,644.65Z"/><path d="M383.14,635.6,334,586.45c.11-.66.23-1.34.34-2l49,49C383.28,634.19,383.2,634.89,383.14,635.6Z"/><path d="M384.14,626.71,335.45,578c.12-.66.23-1.32.35-2l48.59,48.57v0C384.29,625.32,384.21,626,384.14,626.71Z"/><path d="M385.26,617.92,337,569.63c.11-.65.25-1.31.36-2l48.23,48.22Z"/><path d="M386.55,609.31l-48-48c.11-.66.24-1.3.37-2l47.95,48C386.75,608,386.65,608.64,386.55,609.31Z"/><path d="M388,600.84,340.14,553c.13-.66.26-1.31.37-2l47.8,47.79C388.18,599.5,388.07,600.16,388,600.84Z"/><path d="M389.5,592.46l-47.73-47.73.39-2,47.72,47.72C389.75,591.14,389.62,591.8,389.5,592.46Z"/><path d="M391.12,584.19l-47.7-47.7a.06.06,0,0,0,0,0c.13-.64.27-1.25.4-1.89l47.68,47.68Q391.32,583.2,391.12,584.19Z"/><path d="M392.81,576l-47.66-47.67c.13-.64.26-1.29.41-1.93l47.67,47.67C393.08,574.69,393,575.33,392.81,576Z"/><path d="M394.58,567.83l-47.7-47.7c.13-.64.28-1.25.43-1.9l47.7,47.7C394.84,566.56,394.71,567.19,394.58,567.83Z"/><path d="M396.41,559.77l-47.7-47.7c.15-.63.28-1.27.43-1.9l47.71,47.7C396.69,558.5,396.54,559.14,396.41,559.77Z"/><path d="M393.57,943.08,168.38,717.89c.54-.25,1.07-.5,1.62-.73L398.07,945.24Q395.85,944.15,393.57,943.08Z"/><path d="M398.3,551.77,350.56,504c.14-.63.31-1.24.46-1.87l47.75,47.75C398.6,550.52,398.45,551.14,398.3,551.77Z"/><path d="M400.27,543.82,352.5,496.06c.17-.63.31-1.26.46-1.87L400.75,542C400.58,542.59,400.43,543.21,400.27,543.82Z"/><path d="M402.31,536l-47.83-47.85c.15-.63.31-1.22.48-1.85l47.85,47.85C402.64,534.74,402.48,535.37,402.31,536Z"/><path d="M404.42,528.18,356.54,480.3c.17-.61.33-1.24.5-1.85l47.89,47.9C404.75,527,404.59,527.57,404.42,528.18Z"/><path d="M406.58,520.43l-47.95-47.95c.17-.61.35-1.2.52-1.81l48,48C406.93,519.22,406.76,519.83,406.58,520.43Z"/><path d="M408.82,512.78l-48-48q.24-.91.51-1.83l48,48C409.17,511.59,409,512.18,408.82,512.78Z"/><path d="M411.13,505.18,363,457.08l.54-1.78,48.1,48.1C411.5,504,411.31,504.58,411.13,505.18Z"/><path d="M413.49,497.64,365.35,449.5c.18-.6.36-1.21.54-1.8l48.18,48.18C413.87,496.47,413.67,497.05,413.49,497.64Z"/><path d="M415.93,490.17l-48.24-48.24c.18-.6.38-1.17.56-1.77l48.26,48.26C416.31,489,416.11,489.59,415.93,490.17Z"/><path d="M418.42,482.77l-48.31-48.31c.18-.59.38-1.19.56-1.77L419,481C418.82,481.6,418.6,482.19,418.42,482.77Z"/><path d="M414.4,954l-239-239,1.67-.68L420.25,957.51c-1.43-.89-2.87-1.75-4.3-2.61C415.44,954.61,414.92,954.29,414.4,954Z"/><path d="M421,475.41,372.57,427c.19-.57.41-1.15.61-1.73l48.41,48.41C421.37,474.26,421.17,474.84,421,475.41Z"/><path d="M423.6,468.14l-48.48-48.47c.2-.58.4-1.17.6-1.73l48.5,48.51C424,467,423.8,467.58,423.6,468.14Z"/><path d="M426.27,460.92l-48.56-48.56c.22-.57.43-1.13.63-1.71l48.57,48.57C426.68,459.78,426.48,460.34,426.27,460.92Z"/><path d="M429,453.75l-48.63-48.62c.22-.58.41-1.14.63-1.72l48.65,48.67C429.43,452.63,429.22,453.19,429,453.75Z"/><path d="M431.81,446.66,383.1,397.94c.22-.56.43-1.11.66-1.67L432.48,445C432.25,445.56,432,446.1,431.81,446.66Z"/><path d="M434.68,439.62l-48.79-48.79.64-1.68L435.37,438C435.12,438.53,434.89,439.08,434.68,439.62Z"/><path d="M437.6,432.63l-48.86-48.86.68-1.64L438.3,431Z"/><path d="M440.58,425.72l-48.94-48.94c.23-.54.45-1.1.68-1.65l49,49C441,424.65,440.81,425.18,440.58,425.72Z"/><path d="M443.63,418.86l-49-49,.73-1.62,49,49C444.09,417.79,443.84,418.33,443.63,418.86Z"/><path d="M446.71,412.05,397.65,363c.23-.54.46-1.08.7-1.61l49.11,49.1Z"/><path d="M449.88,405.32l-49.13-49.13c.24-.53.49-1.07.74-1.6l49.13,49.14C450.37,404.25,450.11,404.8,449.88,405.32Z"/><path d="M442.49,972.2l-260-260c.58-.22,1.14-.43,1.71-.63L451.38,978.74Q447,975.41,442.49,972.2Z"/><path d="M453.09,398.63l-49.2-49.2.75-1.6,49.23,49.23C453.59,397.59,453.34,398.1,453.09,398.63Z"/><path d="M456.38,392l-49.25-49.25c.24-.51.51-1,.77-1.55l49.25,49.25C456.87,391,456.62,391.49,456.38,392Z"/><path d="M459.71,385.44l-49.32-49.32c.26-.52.51-1,.78-1.56l49.33,49.33C460.22,384.4,460,384.93,459.71,385.44Z"/><path d="M463.09,378.91l-49.35-49.33c.26-.51.54-1,.81-1.53l49.34,49.34C463.61,377.9,463.35,378.4,463.09,378.91Z"/><path d="M466.52,372.45l-49.4-49.4c.28-.5.54-1,.82-1.52L467.36,371C467.06,371.44,466.8,372,466.52,372.45Z"/><path d="M470,366.05l-49.42-49.41c.27-.5.55-1,.83-1.5l49.41,49.41C470.59,365,470.31,365.56,470,366.05Z"/><path d="M473.59,359.72l-49.48-49.48a4.45,4.45,0,0,1,.26-.48c.18-.35.38-.68.58-1l49.48,49.48C474.15,358.71,473.85,359.21,473.59,359.72Z"/><path d="M477.2,353.44l-49.51-49.52c.28-.49.56-1,.85-1.48L478.06,352C477.76,352.45,477.46,352.94,477.2,353.44Z"/><path d="M480.86,347.19l-49.55-49.55c.28-.49.58-1,.86-1.47l49.56,49.57C481.44,346.21,481.16,346.69,480.86,347.19Z"/><path d="M475.09,994.89,189.8,709.59l1.76-.57L483,1000.48Q479.1,997.63,475.09,994.89Z"/><path d="M484.59,341,435,291.41c.3-.5.58-1,.86-1.47l49.63,49.63C485.16,340.06,484.87,340.54,484.59,341Z"/><path d="M488.38,334.9l-49.7-49.69c.3-.48.58-1,.88-1.45l49.71,49.71C489,334,488.68,334.43,488.38,334.9Z"/><path d="M492.24,328.85,442.43,279c.28-.48.57-1,.87-1.45l49.84,49.85Q492.67,328.13,492.24,328.85Z"/><path d="M496.13,322.85l-49.94-49.94c.29-.48.59-1,.89-1.44l50,50C496.74,321.91,496.42,322.39,496.13,322.85Z"/><path d="M500.09,316.9,450,266.81l.9-1.44L501,315.51C500.7,316,500.38,316.44,500.09,316.9Z"/><path d="M504.08,311,453.8,260.72l.91-1.43L505,309.61Z"/><path d="M508.1,305.13l-50.46-50.47c.3-.48.6-1,.91-1.42l50.5,50.5C508.74,304.2,508.43,304.67,508.1,305.13Z"/><path d="M512.19,299.31l-50.7-50.7c.31-.48.61-.94.9-1.42l50.75,50.75C512.8,298.4,512.48,298.84,512.19,299.31Z"/><path d="M516.28,293.49l-50.93-50.92.9-1.42,51,51C516.9,292.58,516.59,293,516.28,293.49Z"/><path d="M520.4,287.72l-51.18-51.18c.3-.48.61-1,.91-1.42l51.24,51.24C521,286.81,520.7,287.27,520.4,287.72Z"/><path d="M524.54,281.94,473.09,230.5l.91-1.42,51.51,51.51C525.18,281,524.85,281.48,524.54,281.94Z"/><path d="M528.68,276.19,477,224.47c.32-.46.61-.94.93-1.42l51.77,51.79Z"/><path d="M532.85,270.45l-52-52,.92-1.41,52.09,52.08Z"/><path d="M537,264.71l-52.33-52.33c.31-.46.61-.94.91-1.42L538,263.38c-.28.36-.53.71-.79,1.07C537.13,264.53,537.07,264.63,537,264.71Z"/><path d="M541.17,259l-52.66-52.66.91-1.43,52.74,52.74Z"/><path d="M545.33,253.24l-53-53c.29-.48.59-1,.89-1.44l53.07,53.08C546,252.35,545.66,252.79,545.33,253.24Z"/><path d="M549.48,247.5l-53.35-53.35c.29-.48.61-1,.9-1.44l53.43,53.42C550.14,246.59,549.81,247,549.48,247.5Z"/><path d="M553.62,241.73,499.9,188c.3-.48.6-.95.89-1.45l53.8,53.8C554.26,240.82,554,241.29,553.62,241.73Z"/><path d="M550.55,1097.72c2.05,2.75,4,5.52,6,8.33l-28.64-28.64c-.65-1.45-1.31-2.89-2-4.32Z"/><path d="M557.74,236l-54.09-54.1c.29-.49.59-1,.89-1.45l54.18,54.18C558.39,235,558.06,235.5,557.74,236Z"/><path d="M534.71,1094.11c-.45-1.24-.91-2.49-1.38-3.73l36.91,36.92c1.09,1.85,2.16,3.69,3.22,5.56Z"/><path d="M573.36,281.27c-.33-1.09-.65-2.18-.94-3.27l7,7c-.32.46-.65.91-1,1.35Z"/><path d="M582.56,280.58l-13-13q-.43-1.57-.84-3.18l14.86,14.85Z"/><path d="M586.71,274.82,566.1,254.21c-.24-1-.49-2-.72-3.06l22.32,22.32Z"/><path d="M590.85,269.07l-27.78-27.78c-.23-1-.45-2-.68-3l29.43,29.44Z"/><path d="M595,263.28l-87.61-87.62c.29-.48.57-1,.87-1.45L596,261.93C595.62,262.37,595.3,262.84,595,263.28Z"/><path d="M538.47,1105.44l60.94,60.94-.91,1.43-2.92,4.63v0l-.9,1.42-2.92,4.65-.91,1.42h0l-2.92,4.64L587,1186l-2.92,4.65-.89,1.44-.43.67-.13-.66-.2.33-.12-.66-.21.33-.12-.66-.21.33-.12-.64-.19.31-.14-.64-.19.33-.14-.66-.19.33-.12-.66-.21.33-.12-.66-.21.33-.12-.64-.2.31-.13-.64-.2.33-.13-.66-.2.33-.11-.66-.22.33-.11-.66-.22.33-.11-.65-.2.32-.13-.65-.2.33-.13-.66-.2.33-.11-.66-.22.33-.11-.65-.22.32-.11-.64-.2.32-.13-.65-.2.33-.13-.66-.2.33-.12-.66-.21.33-.12-.66-.21.33-.12-.64-.19.31-.13-.64-.2.33-.13-.66-.2.33-.12-.66-.21.33-.12-.66-.21.33-.12-.64-.2.31-.13-.64-.19.33-.14-.66-.19.33-.12-.66-.21.33-.12-.66-.21.33-.12-.64-.2.31-.13-.64-.2.33-.13-.66-.2.33-.11-.66-.22.33-.11-.66-.22.33-.11-.65-.2.32-.13-.65-.2.33-.13-.66-.2.33-.11-.66-.22.33-.11-.66-.22.33-.11-.64-.2.31-.13-.64-.2.33-.13-.66-.2.33-.12-.66-.21.33-.12-.66-.21.33-.12-.64-.19.31-.14-.64-.19.31-.14-.64-.19.33-.12-.66-.21.33-.12-.66-.21.33-.12-.64-.2.31-.13-.64-.2.31-.13-.64-.2.33-.11-.66-.22.33-.11-.66-.22.33-.11-.65-.2.32-.13-.65-.2.32-.13-.65-.2.33-.13-.66-.2.33-.11-.66-.22.33-.11-.64-.2.31-.13-.64-.2.31-.13-.64-.2.33-.13-.66-.2.33-.12-.66-.21.33-.12-.64-.18.3c.53,2.63,1,5.27,1.4,7.91.15.92.3,1.85.43,2.77l.45,3.46c.2,1.7.36,3.38.51,5.06.07.84.13,1.69.2,2.53.18,2.67.29,5.32.34,7.93,0,.79,0,1.56,0,2.34v1.45l-.07,5.75-.14.15-1.22,1.11-2.89,2.6-1.09,1L557,1215.4c-1.36,1.17-2.73,2.32-4.09,3.48-.43.32-.86.67-1.29,1-1.4,1.13-2.82,2.23-4.25,3.32l-1.34,1c-1.47,1.09-2.93,2.13-4.42,3.15-.46.33-.92.65-1.38.94-1.5,1-3,2-4.59,3-.47.32-1,.61-1.43.89-1.57,1-3.13,1.92-4.73,2.84l-1.5.84c-1.62.91-3.27,1.78-4.92,2.64-.51.26-1,.51-1.53.79-1.7.84-3.4,1.67-5.13,2.46l-1.6.72c-1.75.79-3.53,1.55-5.31,2.28l-1.65.66c-1.81.72-3.64,1.42-5.5,2.07-.58.22-1.16.42-1.73.61-1.88.66-3.78,1.27-5.71,1.87-.59.2-1.19.36-1.78.54-1.94.6-3.92,1.14-5.9,1.67l-1.87.46c-2,.51-4.07,1-6.13,1.43l-1.17.25-.76.17-6.28,1.28c-.64.15-1.29.28-1.93.4l-6.3,1.28-1.93.4-6.31,1.25-2,.38-6.35,1.21c-.64.13-1.3.26-2,.37l-6.38,1.19-2,.35-6.45,1.14-2,.34c-2.16.36-4.32.73-6.5,1.07l-2,.33c-2.18.35-4.35.7-6.55,1l-2,.31c-2.18.33-4.37.64-6.6,1l-2,.29h0c-2.23.3-4.45.6-6.69.86-.7.11-1.39.2-2.08.26-2.24.3-4.49.56-6.74.81-.71.1-1.41.17-2.1.25-2.27.25-4.57.49-6.86.72l-2.12.2c-2.31.23-4.62.43-7,.63l-2.14.18c-2.34.18-4.7.36-7.06.51l-2.19.15q-3.58.22-7.17.38c-.74,0-1.49.08-2.23.11-2.42.12-4.86.2-7.3.27l-2.28.06c-2.49.07-5,.1-7.45.12-.77,0-1.53,0-2.31,0h-4.37c-1.09,0-2.17,0-3.25,0-.79,0-1.58,0-2.37,0-2.64-.06-5.24-.15-7.83-.26-.83,0-1.63-.07-2.44-.12q-4.08-.2-8.08-.49c-.84-.05-1.67-.12-2.51-.2-2.8-.21-5.59-.46-8.34-.76-.87-.08-1.75-.18-2.62-.28-2.92-.33-5.82-.69-8.69-1.12-.91-.11-1.81-.25-2.7-.38-3.05-.46-6.09-1-9.07-1.5-1-.18-1.93-.34-2.87-.54-3.23-.61-6.42-1.29-9.58-2-1-.23-2.05-.47-3.07-.73-3.44-.81-6.86-1.7-10.22-2.67l-3.27-.92c-3.79-1.14-7.51-2.35-11.21-3.63-1.2-.41-2.4-.84-3.59-1.29-4.29-1.56-8.49-3.25-12.63-5.06-1.42-.59-2.82-1.2-4.21-1.86q-7.74-3.49-15.13-7.57c-.45-.25-.92-.48-1.37-.74,0,0,0,0,0,0a231.54,231.54,0,0,1-31.79-21.28,228.46,228.46,0,0,1-18.27-16.23c-.12-.1-.22-.21-.33-.31s-.21-.23-.33-.33-.21-.23-.33-.33-.21-.22-.31-.33a3.43,3.43,0,0,1-.33-.33,3.43,3.43,0,0,1-.33-.33c-.12-.1-.22-.22-.33-.31l-.33-.33c-.1-.12-.22-.22-.33-.33l-.32-.33c-.11-.1-.23-.22-.33-.33l-.32-.32-.33-.33-.33-.33c-.1-.1-.22-.21-.32-.33s-.21-.21-.33-.31-.21-.23-.33-.33l-.33-.33-.33-.33c-.1-.1-.21-.21-.31-.33s-.21-.21-.33-.31-.21-.23-.33-.33a1368350945243.46,1368350945243.46,0,0,0-.66-.66l-.31-.33c-.12-.1-.23-.21-.33-.31l-.33-.33-.33-.33c-.1-.12-.22-.22-.31-.33a1368350945267,1368350945267,0,0,0-.66-.66c-.12-.1-.22-.22-.33-.32l-.33-.33c-.1-.11-.22-.21-.33-.33a3.37,3.37,0,0,1-.32-.33,3.31,3.31,0,0,1-.33-.32c-.11-.1-.21-.22-.33-.32s-.21-.23-.33-.33-.21-.21-.33-.33-.21-.21-.31-.33a3.43,3.43,0,0,1-.33-.33c-.11-.1-.21-.21-.33-.31a3.43,3.43,0,0,0-.33-.33c-.1-.12-.21-.21-.33-.33l-.33-.33-.31-.31-.33-.33-.33-.33-.33-.33-.31-.33a3.43,3.43,0,0,1-.33-.33c-.12-.1-.22-.22-.33-.32s-.22-.23-.33-.32-.22-.22-.33-.33l-.32-.33-.33-.33c-.11-.1-.21-.22-.33-.32s-.21-.23-.33-.33l-.33-.33c-.09-.11-.21-.21-.31-.33a3.43,3.43,0,0,1-.33-.33c-.11-.1-.21-.21-.33-.31a3.43,3.43,0,0,0-.33-.33l-.33-.33c-.1-.1-.21-.21-.31-.33a2.57,2.57,0,0,1-.33-.33c-.12-.1-.21-.21-.33-.31s-.21-.23-.33-.33l-.33-.33a3.43,3.43,0,0,0-.33-.33l-.31-.31c-.12-.12-.22-.24-.33-.33s-.22-.24-.33-.33l-.33-.33-.32-.33-.33-.33-.32-.32-.33-.33-.33-.33c-.1-.11-.22-.21-.32-.33a2.57,2.57,0,0,1-.33-.33c-.11-.09-.21-.21-.33-.31s-.21-.23-.33-.33-.21-.23-.33-.33-.21-.21-.31-.33a2.57,2.57,0,0,1-.33-.33,2.57,2.57,0,0,1-.33-.33c-.11-.1-.21-.21-.33-.31a1368350945268.21,1368350945268.21,0,0,0-.66-.66l-.31-.31-.33-.33-.33-.33-.33-.33c-.1-.12-.22-.22-.33-.33s-.22-.22-.31-.33-.22-.22-.33-.32l-.33-.33-.66-.66a245.75,245.75,0,0,1-44.08-59.15C30.29,1053.52,11.91,1001.76,4,949.16-5.55,885.92,2,833,27.09,787.35a214.12,214.12,0,0,1,44.7-56.68L83.4,720.26l.25.4.08-.07.25.4.08-.07.25.4.08-.07.25.4.06-.07.27.4.06-.09.25.4.08-.07.25.4.08-.07.25.4.08-.07.25.4.07-.07.26.4.07-.08.24.39.08-.06.25.39.08-.06.25.39.08-.06.25.39.08-.06.25.39.07-.08.24.39.09-.06.24.39.09-.06.24.39.09-.06.24.39.09-.06.24.39.07-.08.25.4.08-.07.25.4.08-.07.25.4.08-.07.25.4.08-.07.25.4.06-.09.25.4.08-.07.25.4.08-.07.25.4.08-.07.25.4.08-.07.25.4.06-.08.25.39.08-.06.25.39.08-.06.25.39.08-.07.25.4.08-.07.25.4.07-.08.24.39.09-.06.24.39.09-.06.24.39.09-.06.24.39.09-.06.24.39.07-.08.26.4.07-.07.25.4.08-.07.25.4.08-.07.25.4.08-.07L98,735l.06-.08.27.4.06-.07.25.4.08-.07.25.4.08-.07.25.4.08-.07.25.4.06-.09.27.4.06-.07.25.4.08-.07.25.4.08-.07.25.4.08-.07.25.4.07-.08.26.39.07-.06.24.39.09-.06.24.39.09-.06.24.39.09-.06.24.39.07-.06.26.38.07-.07.25.39.08-.06.25.39.08-.06.24.39.09-.06.24.39.07-.06.26.38.07-.07.25.4.08-.07.25.4.08-.07.25.4.08-.07.25.4.06-.07.27.38.06-.07.25.4.08-.07.25.4.08-.07.25.4.08-.07.25.4.07-.07.26.4.06-.08.25.39.08-.06.25.39.08-.06.25.39.08-.06.25.39.07-.06.26.39.07-.08.24.39.09-.06.24.39.09-.06.24.39.09-.06.24.39.07-.06.26.39.07-.08.25.4.08-.07.25.4.08-.07.25.4.08-.07.25.4.06-.07.27.4.06-.09.25.4.08-.07.25.4.08-.07.25.4.08-.07.25.4.06-.07.27.4.06-.08.25.39.08-.06.14.19.11.2.08-.07.25.4.08-.07.25.4.07-.07.26.4.07-.08,3,4.73,5.34,8.46q3.24,5.12,6.45,10.22l1.14,1.81,4,6.3c4.3,6.85,8.69,13.74,13.11,20.45l.46.69q2.43,3.69,4.88,7.22c7.49,10.9,15,21,22.77,30.32,0,0,.05,0,.07.09,1.66,2,3.33,4,5,5.92,1.66,1.4,3.35,2.77,5,4.13l.07,0a254.21,254.21,0,0,0,25.49,17.94c2,1.22,3.89,2.41,5.89,3.55a279.81,279.81,0,0,0,35.48,17.51c10.39,4.25,21,8.31,31.48,12.18,1.22.46,2.45.91,3.67,1.35,4,1.47,7.95,2.89,11.87,4.29l3.63,1.29c3.92,1.4,7.82,2.75,11.66,4.1l2.5.88c.37.13.73.24,1.09.39,4.11,1.44,8.16,3,12.2,4.62,1.34.53,2.66,1.09,4,1.65,4.66,2,9.3,4,13.86,6.28q2.32,1.11,4.62,2.29,8.43,4.26,16.64,9.09c2,1.17,4,2.35,5.95,3.59q7.49,4.62,14.72,9.73,9.64,6.79,18.73,13.95l.58.46a390.11,390.11,0,0,1,30.9,27.2c.11.12.21.22.33.33l.33.33.31.33c.12.1.23.22.33.32s.21.23.33.33l.33.33a3.42,3.42,0,0,1,.33.33,3.33,3.33,0,0,1,.31.33c.12.09.22.21.33.31l.33.33.33.33a3.43,3.43,0,0,1,.33.33l.33.33.32.31c.11.12.21.23.32.33l.66.66c.1.1.22.21.32.33l.33.31a3.43,3.43,0,0,0,.33.33l.33.33.33.33.64.65c.12.11.21.23.33.33l.33.33c.11.09.21.21.33.33s.21.21.31.32.23.22.33.32.22.23.33.33l.33.33.33.33a3.26,3.26,0,0,1,.31.33,3.33,3.33,0,0,1,.33.31l.33.33.33.33a3.43,3.43,0,0,1,.33.33l.33.33.32.31a3.43,3.43,0,0,0,.33.33l.33.33.33.33.31.32.33.32a2.57,2.57,0,0,0,.33.33l.66.66.33.33.31.32c.12.11.22.23.33.33l.66.66c.12.1.21.21.33.33l.31.31.33.33.33.33,1,1a2052526418061.14,2052526418061.14,0,0,1,.66.66l.33.33.64.64a2.57,2.57,0,0,0,.33.33,3.43,3.43,0,0,0,.33.33l.33.33.31.33a3.43,3.43,0,0,1,.33.33c.12.1.23.22.33.32l.33.33.33.33a3.42,3.42,0,0,1,.33.33c.1.09.21.21.31.31l.33.33c.12.11.22.23.33.33l.33.33.33.33.32.31.33.33c.11.12.21.23.32.33l.66.66.32.31a4105052835646.46,4105052835646.46,0,0,0,.66.66l.33.33.31.33c.12.1.23.22.35.33l.31.32c.11.11.21.23.33.33l.33.33,1,1,.33.33.33.33,1,1a359.6,359.6,0,0,1,32.12,35.81c2.48,3.17,4.88,6.35,7.22,9.57q8.11,11.12,15.22,22.78c1.21,1.93,2.36,3.86,3.5,5.82a0,0,0,0,0,0,0,0,0,0,0,0,0,0,0,0,0,0,0,0,0s0,0,0,0h0a0,0,0,0,0,0,0s0,0,0,0h0a0,0,0,0,0,0,0s0,0,0,0h0a0,0,0,0,0,0,0s0,0,0,0c1.31,2.57,2.77,4.94,4.21,7.56s2.83,5.3,4.17,7.93c-.73-3.16-1.53-6.34-2.46-9.56h0C539.15,1107.63,538.82,1106.54,538.47,1105.44Z"/><path d="M577.08,1134.16l26.14,26.12c-.3.48-.6,1-.89,1.43L578,1137.37C577.69,1136.3,577.4,1135.23,577.08,1134.16Z"/><path d="M572.22,1119.39,607,1154.14c-.3.5-.6,1-.89,1.45L573.51,1123C573.09,1121.79,572.67,1120.59,572.22,1119.39Z"/><path d="M565.26,1102.52l45.39,45.41-.85,1.46-42.66-42.65C566.53,1105.34,565.91,1103.92,565.26,1102.52Z"/><path d="M554.84,1082.21l59.44,59.44c-.3.49-.58,1-.86,1.48l-55.68-55.7C556.8,1085.7,555.85,1084,554.84,1082.21Z"/><path d="M536.64,1054.11l81.15,81.15c-.24.52-.52,1-.8,1.52L542.23,1062C540.43,1059.39,538.55,1056.75,536.64,1054.11Z"/><path d="M199.05,706.59l422.22,422.23q-.39.79-.81,1.53L197.28,707.17C197.88,707,198.44,706.77,199.05,706.59Z"/><path d="M206.75,704.4l417.92,417.92c-.27.51-.53,1-.81,1.53L204.93,704.93Z"/><path d="M214.58,702.34,628,1115.73c-.25.52-.51,1-.78,1.55L212.72,702.82C213.34,702.65,214,702.5,214.58,702.34Z"/><path d="M222.58,700.43,631.2,1109.07l-.76,1.56L220.65,700.84Z"/><path d="M230.72,698.68l403.63,403.63c-.23.52-.48,1-.74,1.59L228.81,699.09Z"/><path d="M239.23,697.28l398.18,398.2c-.24.54-.47,1.09-.71,1.61L237.15,697.54C237.84,697.44,238.54,697.38,239.23,697.28Z"/><path d="M248.28,696.44,640.4,1088.55l-.69,1.64L246.1,696.58Z"/><path d="M258,696.22,643.3,1081.55c-.23.56-.45,1.12-.68,1.66l-387-387H258Z"/><path d="M645.56,96l-68.62-68.6c.66-.14,1.31-.25,2-.33l66.28,66.28C645.33,94.26,645.44,95.14,645.56,96Z"/><path d="M268.35,696.7l377.77,377.77c-.23.55-.45,1.11-.66,1.67L265.84,696.52Z"/><path d="M645.92,86.51l-60-60,2.25-.09L646.75,85C646.48,85.51,646.22,86,645.92,86.51Z"/><path d="M647.22,107.62l-78-78c.55-.24,1.09-.47,1.67-.66l75.88,75.86h0C646.93,105.77,647.08,106.69,647.22,107.62Z"/><path d="M279.44,697.9l369.38,369.37c-.19.58-.41,1.14-.64,1.7L276.77,697.56C277.66,697.66,278.55,697.77,279.44,697.9Z"/><path d="M648.84,79.52,596,26.66c.86.07,1.71.15,2.59.25l50.7,50.72C649.15,78.25,649,78.88,648.84,79.52Z"/><path d="M649.33,70.11,607.78,28.57c1.08.27,2.15.56,3.2.86L648.54,67A17.83,17.83,0,0,1,649.33,70.11Z"/><path d="M649.4,119.69,563,33.29c.43-.35.88-.68,1.34-1l84.5,84.5v0C649,117.77,649.2,118.71,649.4,119.69Z"/><path d="M291.25,699.8,651.44,1060c-.19.57-.39,1.15-.61,1.71L288.41,699.29C289.35,699.45,290.31,699.62,291.25,699.8Z"/><path d="M652.27,132.46l-94-94q.48-.69,1-1.35l92.27,92.26C651.74,130.4,652,131.43,652.27,132.46Z"/><path d="M303.63,702.27,654,1052.63c-.19.57-.38,1.17-.59,1.74L300.66,701.65Z"/><path d="M656.19,146.28,555.11,45.19c.18-.59.39-1.15.61-1.71l99.42,99.4v0C655.48,144,655.83,145.16,656.19,146.28Z"/><path d="M316.33,705.08l340.08,340.08c-.17.59-.36,1.18-.56,1.76L313.33,704.4c.61.15,1.23.28,1.84.41Z"/><path d="M323.83,702.67l334.92,334.94c-.17.59-.35,1.18-.54,1.78L323.83,705Z"/><path d="M323.83,692.78,661,1029.94c-.16.61-.34,1.22-.51,1.83L323.83,695.1Z"/><path d="M661.91,161.9,553.57,53.57c0-.73.15-1.42.23-2.11L660.37,158C660.86,159.32,661.37,160.61,661.91,161.9Z"/><path d="M323.94,683l339.19,339.17c-.16.63-.32,1.24-.49,1.85L323.89,685.27C323.91,684.52,323.94,683.76,323.94,683Z"/><path d="M324.22,673.37l340.93,340.92c-.15.63-.3,1.26-.47,1.88L324.13,675.61C324.16,674.85,324.19,674.11,324.22,673.37Z"/><path d="M324.69,663.92l342.39,342.39c-.15.63-.3,1.25-.45,1.9L324.55,666.12C324.59,665.39,324.64,664.66,324.69,663.92Z"/><path d="M325.3,654.64,668.87,998.22c-.13.64-.26,1.28-.41,1.91L325.13,656.8C325.18,656.07,325.25,655.36,325.3,654.64Z"/><path d="M326.05,645.49,670.55,990c-.11.64-.24,1.28-.37,1.94L325.86,647.63C325.92,646.92,326,646.2,326.05,645.49Z"/><path d="M671.64,181.53,553.21,63.1c0-.74.07-1.48.1-2.24l115.4,115.4a0,0,0,0,0,0,0,0,0,0,0,0,0,0,0,0,0,0,0,0,0h0l0,0,0,0,0,0,0,0,0,0,.05.05A35.23,35.23,0,0,0,671.64,181.53Z"/><path d="M326.93,636.47,672.09,981.63c-.12.66-.23,1.32-.35,2l-345-345C326.78,637.89,326.86,637.18,326.93,636.47Z"/><path d="M676.59,926.72c0,.78,0,1.57,0,2.36,0,2.49,0,5-.1,7.47,0,.76,0,1.5-.07,2.26-.08,2.41-.2,4.81-.33,7.24,0,.72-.08,1.47-.13,2.19-.15,2.34-.33,4.7-.53,7.06-.06.69-.11,1.4-.2,2.11-.19,2.27-.44,4.57-.71,6.87-.08.7-.16,1.39-.26,2.08-.25,2.21-.54,4.45-.87,6.68-.09.68-.18,1.37-.3,2l-291.9-291.9,2-.3,1.17-.16,5.46-.76,2-.3,6.65-.92,2-.3c2.2-.29,4.42-.61,6.63-.92.68-.08,1.37-.18,2.06-.28,2.21-.3,4.44-.59,6.66-.91.68-.08,1.37-.18,2.06-.28,6.63-.87,13.28-1.75,19.94-2.55a206.58,206.58,0,0,1,25.27-1.59c31.28,0,59.86,7.62,84.92,22.66a159.19,159.19,0,0,1,27,20.43h0c1.88,1.75,3.71,3.56,5.52,5.41.12.12.23.22.33.33a3.43,3.43,0,0,1,.33.33c.12.1.22.22.33.31s.22.22.33.33.21.22.31.33.23.22.33.33.22.22.33.33.22.22.33.32.22.21.33.33l.33.33c.1.11.22.21.32.33s.21.21.33.31.21.23.33.33.21.21.33.33.21.21.31.33.23.21.33.33a3.43,3.43,0,0,1,.33.33c.11.1.21.21.33.31a3.43,3.43,0,0,0,.33.33c.1.12.21.22.31.33l.33.33a2.57,2.57,0,0,1,.33.33c.12.1.21.21.33.31a3.43,3.43,0,0,0,.33.33c.1.12.21.22.31.33l.33.33a3.43,3.43,0,0,1,.33.33c.12.1.22.22.33.32l.33.33c.1.11.22.21.33.33s.22.21.31.33a2,2,0,0,1,.33.32c.12.1.22.22.33.32l.33.33c.1.11.22.21.32.33s.23.21.33.33a3.43,3.43,0,0,1,.33.33c.11.1.21.21.33.31a2.57,2.57,0,0,0,.33.33c.1.12.21.21.31.33s.23.21.33.33.23.21.33.33.21.21.33.31a2.57,2.57,0,0,0,.33.33c.1.12.21.22.31.33l.33.33a3.43,3.43,0,0,1,.33.33c.12.1.22.22.33.32a3.31,3.31,0,0,0,.33.32c.1.12.22.22.33.33s.22.22.31.33a2.57,2.57,0,0,1,.33.33c.12.1.22.22.33.32l.33.33c.1.11.22.21.33.33s.22.21.32.33a3.43,3.43,0,0,1,.33.33l.33.33c.11.1.21.21.33.31s.21.21.31.33.23.21.33.33.23.21.33.33.21.21.33.31a2.57,2.57,0,0,0,.33.33c.1.12.21.22.31.33l.33.33.33.33c.12.1.22.22.33.31a2.57,2.57,0,0,0,.33.33c.1.12.22.22.33.33s.21.22.31.33l.33.33c.12.1.22.22.33.32l.33.33.33.33c.1.11.22.21.32.33s.23.21.33.33.21.21.33.31a2.57,2.57,0,0,0,.33.33c.09.11.21.21.33.33s.21.21.31.33.23.21.33.33.21.21.33.33.21.21.33.31a3.43,3.43,0,0,0,.33.33c.1.12.21.22.31.33l.33.33c.12.1.21.21.33.31s.21.23.33.33a3.43,3.43,0,0,0,.33.33c.1.12.21.22.31.33l.33.33c.12.1.22.22.33.32l.33.33.33.33c.1.11.22.21.32.33a14.94,14.94,0,0,0,.65.65c.12.1.22.22.33.32l.33.33a175.47,175.47,0,0,1,12.93,14.79,195.17,195.17,0,0,1,15.45,23q1.49,2.58,2.92,5.25h0c2.6,4.82,5.06,9.78,7.4,15v0c.61,1.36,1.22,2.73,1.82,4.13.08.15.14.32.21.48q2.56,6,4.85,12.15c.46,1.22.9,2.46,1.35,3.7,1.33,3.74,2.59,7.52,3.76,11.31.34,1.12.69,2.24,1,3.36,1,3.46,2,6.93,2.85,10.42.28,1,.53,2.08.78,3.12.79,3.23,1.51,6.46,2.16,9.71.21,1,.41,2,.59,2.93.59,3.05,1.14,6.1,1.62,9.19.15.91.29,1.83.43,2.75q.63,4.35,1.15,8.74l.3,2.62c.29,2.77.56,5.56.77,8.34.07.85.12,1.69.18,2.51q.27,4,.45,8c0,.81.06,1.62.08,2.43Q676.56,922.87,676.59,926.72Z"/><path d="M666.8,421.88,799.49,554.59c-1.83-1.38-3.68-2.74-5.56-4.06l-3-2.24L675.29,432.71C672.38,429.15,669.53,425.54,666.8,421.88Z"/><polygon points="907.29 810.9 913.72 817.33 912.12 818.05 906.99 812.92 907.29 810.9"/><polygon points="908.54 802.24 920.58 814.28 918.96 815 908.25 804.28 908.54 802.24"/><path d="M909.81,793.6l17.76,17.77c-.38.15-.74.27-1.06.38l-.66.23-16.33-16.34Z"/><path d="M911.1,785l22.73,22.74a10.81,10.81,0,0,1-1.28,1L910.78,787c0-.11,0-.25.05-.34C910.93,786.1,911,785.54,911.1,785Z"/><path d="M912.14,776.14l26.16,26.17c-.33.44-.67.89-1,1.33l-25.39-25.39C912,777.54,912.07,776.83,912.14,776.14Z"/><path d="M912.7,766.79l29.92,29.93c-.36.43-.69.85-1,1.3l-29-29Z"/><path d="M912.73,756.93,947,791.14c-.35.43-.69.88-1,1.32l-33.16-33.15C912.76,758.51,912.76,757.72,912.73,756.93Z"/><path d="M912.17,746.46l39.14,39.14c-.34.43-.67.88-1,1.31L912.37,749C912.3,748.14,912.25,747.3,912.17,746.46Z"/><path d="M910.82,735.22l44.83,44.83c-.35.43-.68.87-1,1.3l-43.42-43.41C911.1,737,911,736.12,910.82,735.22Z"/><path d="M908.46,723l51.48,51.47c-.33.45-.68.9-1,1.32L909.12,726Q908.81,724.44,908.46,723Z"/><path d="M904.63,709.23l59.51,59.49-1,1.35-57.43-57.43C905.38,711.51,905,710.37,904.63,709.23Z"/><path d="M899.26,694l69,69-.94,1.36-66.71-66.71C900.13,696.37,899.69,695.17,899.26,694Z"/><path d="M893.69,678.46l78.46,78.47q-.43.72-.9,1.44l-76.19-76.2C894.59,680.94,894.15,679.7,893.69,678.46Z"/><path d="M886.89,661.78l89,89c-.28.49-.58,1-.86,1.46L888.72,666Q887.84,663.85,886.89,661.78Z"/><path d="M977.51,497.31l-425-425c.08-.71.13-1.44.19-2.15L689.85,207.3c2.72,3.5,5.6,7.06,8.6,10.65q6.56,5.56,13.16,11.12c14.82,12.46,29.79,24.86,44.67,37.1q6.53,5.38,13,10.71L782,287.25c9.8,8.05,19.72,16.18,29.67,24.37l13.42,11.08c15.76,13.06,31.57,26.27,47.12,39.56.18.16.38.31.56.48q5,4.32,9.73,9.06c.11.1.21.22.33.32s.21.23.33.33l.33.33c.1.11.21.21.31.33a2.57,2.57,0,0,1,.33.33c.12.1.23.21.33.31s.21.23.33.33.21.21.33.33.21.21.31.33a2.57,2.57,0,0,1,.33.33c.12.1.23.21.33.31s.22.23.33.33.22.22.33.33.22.22.33.33l.32.33a3.31,3.31,0,0,1,.32.33c.12.1.22.22.33.31l.33.33c.1.12.22.22.33.33l.32.33.33.32c.11.11.21.23.33.33l.33.33.33.33c.1.11.21.21.31.33s.21.21.33.31.21.23.33.33.21.23.33.33.21.21.31.33a4105052835502.21,4105052835502.21,0,0,0,.66.66c.12.1.22.21.33.31l.33.33c.1.12.22.22.33.33s.22.22.31.33a2.06,2.06,0,0,1,.33.33c.12.1.22.21.33.31s.22.23.33.33.22.22.33.33l.32.33c.11.1.23.22.33.33s.21.22.33.32l.33.33c.09.11.21.21.33.33s.21.21.31.33a3.31,3.31,0,0,1,.33.32c.11.1.21.22.33.32s.21.23.33.33l.33.33c.1.11.21.21.31.33s.23.21.33.31.22.23.33.33.22.23.33.33.21.21.31.33l.35.33c.1.1.21.21.31.33s.22.21.33.31.22.23.33.33.22.22.33.33.22.22.32.33l.33.33c.11.1.21.22.33.32a3.31,3.31,0,0,0,.33.32,2.57,2.57,0,0,0,.33.33c.09.12.21.22.31.33l.33.33c.11.1.21.22.33.32l.33.33.33.33c.1.11.21.21.31.33s.23.21.33.31l.33.35c.12.1.21.21.33.31s.21.21.31.33l.35.33c.1.1.21.21.31.33s.22.21.33.31l.33.33c.1.12.22.22.33.33s.22.22.33.33.22.22.32.33.21.22.32.31.22.24.33.33l.33.33c.1.12.22.22.32.33s.23.22.33.33l.33.32c.11.11.21.23.33.33s.21.21.33.33.21.21.31.33a2.06,2.06,0,0,1,.33.33c.12.09.21.21.33.31s.21.23.33.33.21.21.33.33.21.21.31.33a4105052835494.43,4105052835494.43,0,0,0,.66.66c.12.1.22.21.33.31s.22.22.33.33.22.22.33.33c3.32,3.33,6.53,6.81,9.61,10.37a.71.71,0,0,1,.12.13,361,361,0,0,1,23.82,31.38c.63.91,1.26,1.81,1.87,2.72,1,1.5,2,3,3,4.5q6.24,9.42,11.71,19.28c.94,1.69,1.88,3.39,2.79,5.11q4,7.41,7.5,15.07C976.23,494.44,976.89,495.88,977.51,497.31Z"/><path d="M875.14,640.13,979.46,744.45c-.28.51-.55,1-.81,1.52l-100-100.05C877.45,644,876.29,642,875.14,640.13Z"/><path d="M855.38,610.47l127.39,127.4c-.25.53-.49,1.06-.76,1.57L861.21,618.61Q858.32,614.46,855.38,610.47Z"/><path d="M984.44,514.13l-433-433c.09-.68.19-1.37.29-2L983,510.32C983.46,511.57,984,512.86,984.44,514.13Z"/><path d="M646.93,392.12l339,339c-.23.53-.48,1.07-.71,1.61L650.57,398.09C649.33,396.11,648.11,394.13,646.93,392.12Z"/><path d="M635.2,370.49,988.76,724c-.22.56-.43,1.14-.65,1.7L637.6,375.22C636.79,373.65,636,372.07,635.2,370.49Z"/><path d="M989.73,529.33,549.83,89.43c.15-.64.28-1.29.41-1.93L988.59,525.85C989,527,989.37,528.16,989.73,529.33Z"/><path d="M626.76,352.15,991.41,716.8c-.2.56-.39,1.14-.61,1.71L628.58,356.29C628,354.92,627.36,353.54,626.76,352.15Z"/><path d="M620.32,335.79,993.8,709.3c-.16.61-.34,1.2-.54,1.78L621.75,339.55C621.27,338.3,620.78,337.06,620.32,335.79Z"/><path d="M993.88,543.38l-446-446c.17-.61.35-1.21.51-1.82L993,540.15C993.31,541.22,993.6,542.29,993.88,543.38Z"/><path d="M615.25,320.82,996,701.55c-.15.62-.32,1.23-.5,1.84L616.36,324.27C616,323.13,615.62,322,615.25,320.82Z"/><path d="M997.17,556.57,545.58,105c.19-.59.37-1.17.57-1.77L996.46,553.54C996.7,554.54,996.93,555.56,997.17,556.57Z"/><path d="M611,306.69,997.91,693.58c-.15.65-.28,1.27-.43,1.92L612,310C611.66,308.9,611.33,307.8,611,306.69Z"/><path d="M607.24,293,999.57,685.36c-.11.66-.23,1.32-.36,2L608.1,296.21C607.82,295.15,607.52,294.08,607.24,293Z"/><path d="M999.69,569l-456.8-456.8c.23-.54.44-1.1.66-1.66L999.14,566.1v0C999.34,567.06,999.52,568,999.69,569Z"/><path d="M603.86,279.75,1001,676.88c-.1.68-.2,1.35-.32,2L604.62,282.84C604.37,281.81,604.12,280.77,603.86,279.75Z"/><path d="M1001.55,580.76,539.87,119.08l.76-1.59L1001.16,578C1001.3,578.93,1001.44,579.83,1001.55,580.76Z"/><path d="M600.84,266.83l401.34,401.33c-.08.69-.17,1.4-.25,2.08L601.52,269.83C601.29,268.82,601.07,267.81,600.84,266.83Z"/><path d="M1002.89,592,536.56,125.67c.28-.51.54-1,.8-1.53l465.25,465.24C1002.71,590.24,1002.79,591.11,1002.89,592Z"/><path d="M511.92,168,1003.1,659.17c-.05.71-.11,1.42-.2,2.13L511.05,169.46C511.35,169,511.63,168.49,511.92,168Z"/><path d="M1003.74,602.74,533,132c.3-.49.58-1,.86-1.48L1003.6,600.26C1003.65,601.09,1003.71,601.91,1003.74,602.74Z"/><path d="M515.58,161.76,1003.78,650c0,.74-.09,1.46-.13,2.19L514.73,163.23Z"/><path d="M519.24,155.51l485,485c0,.74-.05,1.5-.09,2.26L518.39,157Z"/><path d="M1004.27,613.17,529.32,138.22c.28-.5.56-1,.86-1.49l474,474C1004.22,611.56,1004.24,612.36,1004.27,613.17Z"/><path d="M522.89,149.25,1004.44,630.8c0,.76,0,1.53,0,2.31L522,150.73Z"/><path d="M1004.47,623.28,525.67,144.47c.28-.5.57-1,.86-1.47l477.92,477.92C1004.47,621.71,1004.47,622.49,1004.47,623.28Z"/></g><g id="a7247297-3f82-4244-96df-b8a6e87af9ec" data-name="white bottom"><path d="M80.58,740.49a201.05,201.05,0,0,0-41.93,53.22C15,836.72,7.93,886.93,17,947.2c7.69,51,25.61,101.44,56.41,158.61,15.24,28.27,35,52.15,58.64,71,42.18,33.53,94.11,50.1,158.75,50.65,53.6.39,106.34-9.56,151.54-19,28.78-6,54.05-18.75,75.1-37.88a135.81,135.81,0,0,0-1-17.59c-2.78-23.13-10.4-45.77-23.28-69.21C468,1037.9,431.54,998,384.82,965.15a283.87,283.87,0,0,0-69.82-36c-21.09-7.36-43.61-15.4-65.48-24.36-34.76-14.25-65.23-34.11-90.57-59-18.86-18.56-36.38-40.25-53.57-66.3C99.13,770,93,760.18,87,750.69,84.87,747.29,82.74,743.9,80.58,740.49Z" fill="#a71333"/></g><g id="b33f4059-99e9-4df9-bada-ea99281f610d" data-name="white top"><path d="M556.56,1124.29l-.39-2.07a200.28,200.28,0,0,0-7.32-27.64c-9.4-27.77-23.91-54.33-44.34-81.2a401.59,401.59,0,0,0-114.8-102.79c-18-10.71-38-19.63-61.1-27.3-29.76-9.89-61.26-21.34-90-38.1s-54.42-40.08-78.08-71.06c-13.35-17.5-26.38-37.12-41-61.75l-.44-.74.76-.41c21.9-11.65,47.52-20.44,76.15-26.13,26.81-5.33,53,.54,78.37,6.21l6.17,1.38c4.14.91,8.36,1.7,12.83,2.53l5.78,1.08q0-6.18,0-12c0-8.7-.06-16.92.05-25.18.71-50.52,9.91-100,19.28-146.38,17.23-85.24,43.24-158.14,79.51-222.86,14.59-26,31-51.62,46.89-76.35C453.51,200,462.48,186,471,172.12c9.35-15.16,18.47-30.83,27.29-46q4.73-8.13,9.47-16.24c13.57-23.16,20.4-49.11,20.89-79.32.18-11.2,3.79-15.44,14.34-16.83,20.51-2.67,39.69,4.09,57,20.1,4.25,3.92,4.51,8.57.81,14.21A14.54,14.54,0,0,0,598.55,57c3.84,33.67,11.68,77,38.42,113,12.1,16.33,28.45,37.17,47.71,53.6,29.3,25,59.61,49.87,88.92,73.91,29.85,24.48,60.72,49.79,90.57,75.31,16.5,14.11,30.17,32.73,42.5,50.74a298.45,298.45,0,0,1,45.56,107.22h0c5.42,25.59,7.19,53.37,5.43,84.92-2,36.11-9.89,66.16-24,91.88-7.92,14.41-18.38,27.71-28.5,40.56-4.2,5.35-8.55,10.87-12.65,16.4-.68.92-1.84,1.32-3.32,1.84-.78.28-1.68.6-2.68,1l-1.37.61.22-1.48c.22-1.53.43-2.91.63-4.19.38-2.48.71-4.61.95-6.73a181.85,181.85,0,0,0-9.83-83.2c-1.35-3.69-2.66-7.41-4-11.12-5.41-15.29-11-31.1-19.09-45.08-17-29.32-34.56-53.25-53.8-73.14-20.78-21.48-43.27-44-69.53-62.63-28.17-20-51.16-45.94-73.4-71.06l-1.33-1.49a321.8,321.8,0,0,1-66.73-119.55,664.43,664.43,0,0,1-20.37-86c-4.64-27.64-4.05-57.45,1.79-91.12a115.12,115.12,0,0,0,2.22-19L572,93.82a55.09,55.09,0,0,0-4.46,9.58c-9.25,29.29-26.87,54.23-43.91,78.35q-2.6,3.66-5.17,7.34c-8.19,11.66-16.72,23.4-25,34.74C474.5,250,454.87,277,438,305c-45.79,76.18-77.84,162.34-95.25,256.09a528.47,528.47,0,0,0-8.31,112c.13,4.06.53,8.2.92,12.21.22,2.21.44,4.41.61,6.63.45,5.44.72,8.1,2,9.15s4,.81,9.47.08c12.93-1.7,26.07-3.55,38.77-5.34,17.46-2.47,35.51-5,53.3-7.2,38.34-4.71,72.59,1.78,101.8,19.3s51.86,45.06,67.62,82c22.07,51.79,27.14,108.19,15,167.61a494.29,494.29,0,0,1-66.36,165Z" fill="#a71333"/></g><g id="b4772384-54ff-4304-ba2d-662388d4933b" data-name="inner lines"><path d="M629.78,285.12c.37,1.07.75,2.14,1.13,3.21h69.35l-3.87-3.21Z" fill="#ffacb2"/><path d="M670.67,363.28q1.37,1.82,2.75,3.61H795.67l-4.35-3.61Z" fill="#ffacb2"/><path d="M621.89,259.06l.87,3.09H669l-3.63-3.09Z" fill="#ffacb2"/><path d="M618.44,246c.25,1,.52,2,.78,3h34.56q-1.65-1.5-3.27-3Z" fill="#ffacb2"/><path d="M119.73,1105.83q2.56,3.74,5.27,7.33H463.78q-1.72-3.65-3.68-7.33Z" fill="#ffacb2"/><path d="M625.66,272.09c.31,1.05.62,2.1.94,3.15h57.95l-3.77-3.15Z" fill="#ffacb2"/><path d="M640.06,311.17c.51,1.12,1,2.23,1.54,3.35H732l-4.08-3.35Z" fill="#ffacb2"/><path d="M661.55,350.25c.79,1.19,1.58,2.37,2.38,3.55H779.84l-4.3-3.55Z" fill="#ffacb2"/><path d="M653.48,337.22c.68,1.17,1.36,2.33,2.06,3.48H763.92l-4.23-3.48Z" fill="#ffacb2"/><path d="M646.34,324.2c.59,1.14,1.18,2.28,1.78,3.41H748l-4.16-3.41Z" fill="#ffacb2"/><path d="M615.3,233c.22,1,.44,2,.68,3h24.36c-1-1-1.88-2-2.8-3Z" fill="#ffacb2"/><path d="M174,1157.94q6.61,4.07,13.6,7.59H449.55a121,121,0,0,0,17.64-7.59Z" fill="#ffacb2"/><path d="M155.59,1144.91l1.11.9c2.91,2.32,5.92,4.5,9,6.62H476.44c-.41-2.5-.92-5-1.48-7.52Z" fill="#ffacb2"/><path d="M129.47,1118.85q3.1,3.8,6.37,7.4H469.35c-.92-2.46-1.92-4.92-3-7.4Z" fill="#ffacb2"/><path d="M612.43,220c.2,1,.41,1.93.61,2.89h15.41c-.83-1-1.65-1.93-2.47-2.89Z" fill="#ffacb2"/><path d="M199.41,1171a197.26,197.26,0,0,0,22.08,7.66H388.38c13.76-2.39,27.1-5,39.86-7.66Z" fill="#ffacb2"/><path d="M141.2,1131.88q3.83,3.86,7.84,7.46H473.59c-.67-2.48-1.44-5-2.26-7.46Z" fill="#ffacb2"/><path d="M341,741.32c-.77,0-1.52,0-2.27-.05v2.89l-16.16-3.09H185.25q2,2.79,4.05,5.5H528.2c-2.35-1.68-4.73-3.28-7.19-4.75-.43-.26-.87-.5-1.31-.75H346.46C344.69,741.22,342.88,741.32,341,741.32Z" fill="#ffacb2"/><path d="M245.37,1184a288,288,0,0,0,45.75,3.88h2.79a480.49,480.49,0,0,0,58.62-3.89Z" fill="#ffacb2"/><path d="M609.85,207c.17,1,.36,1.89.54,2.83h7.23L615.39,207Z" fill="#ffacb2"/><path d="M199.56,759.66H543.28c-1.87-1.94-3.8-3.79-5.77-5.57H195.07Q197.31,756.93,199.56,759.66Z" fill="#ffacb2"/><path d="M501.83,949.5q3.12,3.24,6.18,6.55h75.88c.46-2.13.94-4.26,1.38-6.4,0,0,0-.1,0-.15Z" fill="#ffacb2"/><path d="M634.55,298.14c.43,1.11.89,2.19,1.34,3.29h80.2l-4-3.29Z" fill="#ffacb2"/><path d="M901.39,623.82c.66,1.65,1.32,3.29,2,4.92h13.49c.19-1.62.37-3.26.53-4.92Z" fill="#ffacb2"/><path d="M889,597.77c.9,1.59,1.79,3.18,2.63,4.78h27c0-1.62,0-3.19.07-4.78Z" fill="#ffacb2"/><path d="M881.33,584.74c1,1.56,1.9,3.13,2.85,4.72h34.51c0-1.58,0-3.16-.06-4.72Z" fill="#ffacb2"/><path d="M864.2,558.69q1.6,2.26,3.2,4.58h49.88c-.16-1.54-.34-3.06-.53-4.58Z" fill="#ffacb2"/><path d="M873.07,571.71q1.51,2.31,3,4.66h42.21c-.09-1.57-.18-3.12-.29-4.66Z" fill="#ffacb2"/><path d="M906.38,636.85c.61,1.67,1.22,3.34,1.8,5h6.7q.45-2.46.84-5Z" fill="#ffacb2"/><path d="M895.73,610.8c.76,1.61,1.5,3.23,2.22,4.84h20c0-.73.11-1.46.15-2.2.05-.9.07-1.76.11-2.64Z" fill="#ffacb2"/><path d="M913.25,649.88H911l1.33,3.74C912.68,652.39,913,651.13,913.25,649.88Z" fill="#ffacb2"/><path d="M707.63,406.16h134.5c-1.22-1.14-2.44-2.26-3.68-3.31l-.57-.49H704.12C705.29,403.63,706.45,404.9,707.63,406.16Z" fill="#ffacb2"/><path d="M854.58,545.66q1.73,2.24,3.43,4.52h57.55c-.24-1.51-.48-3-.75-4.52Z" fill="#ffacb2"/><path d="M793.19,480.52q2.28,2.1,4.51,4.2h98.14c-.64-1.41-1.3-2.8-2-4.2Z" fill="#ffacb2"/><path d="M762.18,454.47c1.77,1.34,3.53,2.7,5.27,4.06H882.11q-1.22-2-2.49-4.06Z" fill="#ffacb2"/><path d="M744.68,441.44q2.58,2.06,5.2,4H873.72q-1.37-2-2.76-4Z" fill="#ffacb2"/><path d="M778.44,467.5c1.62,1.37,3.22,2.74,4.81,4.13H889.46c-.72-1.38-1.45-2.77-2.19-4.13Z" fill="#ffacb2"/><path d="M716.38,415.39q1.89,2,3.81,3.87H854.32c-1.1-1.32-2.2-2.61-3.32-3.87Z" fill="#ffacb2"/><path d="M692.4,389.33l3.33,3.74H827c-1.47-1.25-3-2.49-4.44-3.74Z" fill="#ffacb2"/><path d="M819.93,506.58c1.42,1.44,2.83,2.89,4.23,4.32H906c-.47-1.44-1-2.89-1.45-4.32Z" fill="#ffacb2"/><path d="M681,376.31c1,1.23,2.11,2.45,3.17,3.67H811.39L807,376.31Z" fill="#ffacb2"/><path d="M844.09,532.63q1.86,2.21,3.7,4.46h65.32c-.33-1.49-.65-3-1-4.46Z" fill="#ffacb2"/><path d="M832.52,519.61c1.35,1.44,2.7,2.91,4,4.39H909.9c-.4-1.47-.8-2.94-1.22-4.39Z" fill="#ffacb2"/><path d="M806.9,493.55l4.32,4.26h90.09c-.55-1.43-1.12-2.84-1.69-4.26Z" fill="#ffacb2"/><path d="M729.65,428.42c1.43,1.32,2.86,2.64,4.31,3.93H864.49q-1.46-2-2.92-3.93Z" fill="#ffacb2"/><path d="M561.61,1027.66l.15.26c0-.08.07-.17.1-.26Z" fill="#ffacb2"/><path d="M458.89,910.42q3.93,3.14,7.79,6.35H589.94c.17-2.12.34-4.24.46-6.35Z" fill="#ffacb2"/><path d="M474.49,923.45q3.61,3.16,7.17,6.41H588.57c.28-2.14.52-4.28.75-6.41Z" fill="#ffacb2"/><path d="M422.49,884.37q4.75,3,9.43,6.21H590.75c0-2.07-.09-4.15-.19-6.21Z" fill="#ffacb2"/><path d="M441.68,897.39c2.86,2.06,5.71,4.16,8.52,6.29H590.7c.06-2.11.08-4.2.09-6.29Z" fill="#ffacb2"/><path d="M400.71,871.34c3.11,1.7,6.19,3.44,9.21,5.23.51.3,1,.62,1.51.92H590.1q-.24-3.09-.56-6.15Z" fill="#ffacb2"/><path d="M553.66,1014.64q2.19,3.43,4.29,6.87h6.31c.88-2.29,1.73-4.58,2.58-6.87Z" fill="#ffacb2"/><path d="M513.86,962.53q2.91,3.27,5.75,6.61h61.23c.55-2.2,1.07-4.4,1.58-6.61Z" fill="#ffacb2"/><path d="M544.9,1001.61c1.6,2.27,3.17,4.54,4.69,6.81h19.5c.79-2.26,1.54-4.54,2.3-6.81Z" fill="#ffacb2"/><path d="M535.35,988.58c.21.29.43.56.65.84,1.5,2,3,3.94,4.4,5.91h33c.71-2.25,1.42-4.49,2.09-6.75Z" fill="#ffacb2"/><path d="M525,975.56c1.82,2.21,3.63,4.42,5.41,6.67h46.94c.63-2.22,1.23-4.44,1.82-6.67Z" fill="#ffacb2"/><path d="M488.73,936.48q3.36,3.19,6.65,6.47h91.13q.59-3.24,1.08-6.47Z" fill="#ffacb2"/><path d="M232.93,793.18c2.44,2,4.89,3.91,7.38,5.76H569.66q-1.39-2.94-2.85-5.76Z" fill="#ffacb2"/><path d="M218.39,780.15q3,2.93,6,5.69H562.81c-1.13-1.94-2.28-3.84-3.47-5.69Z" fill="#ffacb2"/><path d="M206,767.12q2.55,2.88,5.14,5.63H554.26q-2.13-2.89-4.35-5.63Z" fill="#ffacb2"/><path d="M272,731.32l-6.27-1.39q-4.31-1-8.52-1.89H185.88c-2.76.73-5.5,1.49-8.18,2.29l2.18,3.15H282.71C279.19,732.81,275.62,732.12,272,731.32Z" fill="#ffacb2"/><path d="M443,728c-13.51,1.67-27.17,3.55-40.6,5.44H503.48A109.87,109.87,0,0,0,482,728Z" fill="#ffacb2"/><path d="M111.51,1092.8c1.43,2.46,2.89,4.89,4.4,7.27H457q-2.07-3.67-4.24-7.27Z" fill="#ffacb2"/><path d="M250.76,806.2c2.56,1.66,5.15,3.27,7.77,4.8.6.35,1.21.69,1.82,1H575.24c-.76-1.95-1.53-3.89-2.35-5.83Z" fill="#ffacb2"/><path d="M339.72,845.28l1.36.46c5.37,1.78,10.57,3.65,15.67,5.57H586.59c-.39-2-.81-4-1.25-6Z" fill="#ffacb2"/><path d="M303.39,832.26q7.91,3.11,15.85,6H583.67c-.51-2-1-4-1.61-6Z" fill="#ffacb2"/><path d="M273.83,819.23q6.18,3.07,12.53,5.89H579.88q-.95-3-2-5.89Z" fill="#ffacb2"/><path d="M374,858.31q6.76,2.94,13.25,6.09H588.74q-.4-3.06-.9-6.09Z" fill="#ffacb2"/><path d="M89,825.12c-1.44-1.93-2.86-3.91-4.29-5.89H70c-1,1.94-1.84,3.91-2.72,5.89Z" fill="#ffacb2"/><path d="M73.75,812h5.91c-1.08-1.55-2.16-3.08-3.24-4.67C75.51,808.9,74.63,810.46,73.75,812Z" fill="#ffacb2"/><path d="M109.94,851.31c-1.7-2-3.39-4-5.08-6H60q-.86,3-1.61,6Z" fill="#ffacb2"/><path d="M234.5,941.44c-3.86-1.59-7.67-3.26-11.44-5H55.5c.22,1.61.41,3.2.66,4.83.08.55.18,1.1.27,1.64H238.27Z" fill="#ffacb2"/><path d="M99.11,838.22c-1.57-2-3.13-4-4.68-6H64.32c-.76,2-1.46,4-2.13,6Z" fill="#ffacb2"/><path d="M97.78,1066.75c1.17,2.36,2.39,4.74,3.61,7.13H440.26q-2.58-3.6-5.28-7.13Z" fill="#ffacb2"/><path d="M121.83,864.4c-1.9-2-3.79-4-5.67-6.09H56.77c-.42,2-.81,4-1.16,6.09Z" fill="#ffacb2"/><path d="M104.44,1079.77c1.25,2.39,2.5,4.78,3.8,7.2H449.11q-2.31-3.63-4.74-7.2Z" fill="#ffacb2"/><path d="M85.65,1040.69c1,2.33,2,4.66,3.09,7H419.12q-3.19-3.53-6.51-7Z" fill="#ffacb2"/><path d="M399.37,1027.66H80.21c.92,2.31,1.88,4.62,2.85,6.94H406.6Q403.06,1031.09,399.37,1027.66Z" fill="#ffacb2"/><path d="M91.53,1053.72c1.09,2.34,2.2,4.7,3.35,7.07H430.29q-2.87-3.57-5.86-7.07Z" fill="#ffacb2"/><path d="M272.48,956.05q-8.72-3.18-17.54-6.55H57.5c.38,2.18.8,4.37,1.23,6.55Z" fill="#ffacb2"/><path d="M337.34,982.23q-6.52-3.54-13.22-6.67h-261c.56,2.22,1.16,4.44,1.77,6.67Z" fill="#ffacb2"/><path d="M392.56,1021.51c-2.63-2.32-5.3-4.62-8-6.87H75.22q1.25,3.42,2.56,6.87Z" fill="#ffacb2"/><path d="M309,969.14c-2.34-.9-4.69-1.78-7-2.6-3.76-1.31-7.58-2.65-11.42-4H60.06c.47,2.2.95,4.4,1.47,6.61Z" fill="#ffacb2"/><path d="M358.83,995.33c-3.43-2.34-6.89-4.6-10.41-6.75H66.65c.65,2.25,1.32,4.49,2,6.75Z" fill="#ffacb2"/><path d="M376.76,1008.42c-2.95-2.31-6-4.57-9-6.81h-297c.74,2.26,1.53,4.53,2.32,6.81Z" fill="#ffacb2"/><path d="M149.52,890.58c-2.44-2-4.86-4.1-7.24-6.21h-89c-.13,2-.24,4.12-.31,6.21Z" fill="#ffacb2"/><path d="M134.84,877.49c-1.22-1.16-2.44-2.31-3.65-3.5-.88-.86-1.74-1.77-2.62-2.65h-74c-.27,2-.49,4.09-.69,6.15Z" fill="#ffacb2"/><path d="M166.32,903.68q-4.23-3.07-8.34-6.29H52.82c0,2.08,0,4.17,0,6.29Z" fill="#ffacb2"/><path d="M185.9,916.77q-5-3.09-9.85-6.35h-123q.15,3.15.37,6.35Z" fill="#ffacb2"/><path d="M209.29,929.86q-6.1-3.09-12-6.41H54q.3,3.18.68,6.41Z" fill="#ffacb2"/></g><g id="be0a451d-33b7-4916-b096-7609fa4f0949" data-name="inner shadow 2"><path d="M293.91,1189.1h-2.8c-55.73-.47-99.94-14.32-135.17-42.32-19.58-15.57-36-35.47-48.73-59.15C78.57,1034.46,62,988,55,941.49c-7.79-51.65-2.13-94,17.31-129.3,1-1.83,2-3.66,3.12-5.45l1-1.65,1.07,1.59c17.43,25.69,35.29,47.43,54.62,66.45,28.91,28.42,63.53,51,102.92,67.18,22.74,9.31,45.83,17.56,67.4,25.08a245.28,245.28,0,0,1,60.39,31.13c41.89,29.46,74.47,65,96.82,105.71,9.48,17.26,15.39,33.63,18.07,50l.13.78-.66.43a122.57,122.57,0,0,1-42.57,17.42C392.36,1179.71,343.22,1189.1,293.91,1189.1Zm-2.78-2.45h2.78c49.08,0,98.07-9.37,140.14-18.14a120.68,120.68,0,0,0,41.06-16.64c-2.69-15.87-8.47-31.74-17.66-48.47-22.18-40.36-54.51-75.66-96.09-104.89a243.23,243.23,0,0,0-59.79-30.83C280,960.16,256.84,951.9,234,942.57c-39.68-16.28-74.57-39.05-103.7-67.71-19-18.73-36.67-40.08-53.84-65.22-.72,1.23-1.42,2.48-2.11,3.72-19.17,34.87-24.74,76.66-17,127.77,7,46.25,23.49,92.43,52,145.33,12.6,23.39,28.79,43,48.11,58.4,34.79,27.65,78.51,41.32,133.67,41.79ZM562,1030.7l-1.26-2.17A366,366,0,0,0,535,990.16,439.63,439.63,0,0,0,409.3,877.62c-20.44-12.13-42.88-22.18-68.6-30.72-27.8-9.24-57.07-19.85-82.79-34.85-24.46-14.26-46.35-34.28-66.91-61.2-4.84-6.34-9.52-12.82-14.31-19.83l-.94-1.38,1.6-.48c8.28-2.48,17.07-4.64,26.12-6.44a74.11,74.11,0,0,1,14.67-1.36c14.89,0,30.89,3.58,47.83,7.37l6.29,1.4c4.75,1,9.45,1.93,14,2.78l.16,0,5.53,1,45.57,8.71V740l1.28,0c.72,0,1.46.05,2.21.05a86.47,86.47,0,0,0,11.52-1c13.08-1.72,26.67-3.63,38.66-5.33l.44-.06c17.2-2.43,35-4.94,52.62-7.11a157.71,157.71,0,0,1,19-1.2c21.8,0,41.45,5.16,58.4,15.33,22,13.21,39.55,34.8,52.07,64.18,19,44.5,23.26,93.27,12.75,144.93l-1.19-.24,1.19.24a452,452,0,0,1-23.57,78.49ZM179.65,731c4.44,6.45,8.8,12.46,13.29,18.35C213.3,776,235,795.85,259.14,810c25.53,14.88,54.66,25.44,82.33,34.63,25.89,8.6,48.48,18.72,69.07,30.94A441.94,441.94,0,0,1,537,988.68a372.13,372.13,0,0,1,24.58,36.47,448.79,448.79,0,0,0,22.52-75.75h0c10.41-51.17,6.16-99.44-12.61-143.48-12.31-28.9-29.5-50.11-51.08-63-16.56-9.94-35.79-15-57.14-15a154.78,154.78,0,0,0-18.69,1.18c-17.63,2.17-35.39,4.68-52.57,7.11l-.45.06c-12,1.69-25.6,3.61-38.68,5.33a88.64,88.64,0,0,1-11.84,1H340v3.1l-48.48-9.26-5.51-1-.13,0c-4.61-.86-9.33-1.74-14.12-2.8l-6.27-1.39c-16.83-3.77-32.7-7.32-47.32-7.32A72.28,72.28,0,0,0,204,725.11C195.55,726.78,187.39,728.76,179.65,731Zm732.92-73.2L911.22,654c-.62-1.73-2-5.58-2-5.58-5.71-16.14-12.18-34.42-22-51.48-18.53-32.05-38-58.42-59.42-80.6-22-22.77-46-46.72-74.91-67.24-24.56-17.42-46.07-41.71-66.87-65.19l-1.33-1.5A283.64,283.64,0,0,1,625.86,277,625.67,625.67,0,0,1,607,197.71l-.85-5,3,4c11.42,15.2,29.09,37.55,50.65,55.95,29.59,25.25,60,50.22,89.47,74.36l.14.11c29.65,24.32,60.32,49.47,89.85,74.72,13.1,11.2,24.94,27.4,35.77,43.25a260.18,260.18,0,0,1,39.71,93.51c4.7,22.23,6.22,46.7,4.65,74.83a217.71,217.71,0,0,1-5.82,40.41ZM610.23,202.26a623.68,623.68,0,0,0,18,74,281.2,281.2,0,0,0,58.3,104.53l1.32,1.49c20.71,23.38,42.13,47.56,66.46,64.82,29.1,20.64,53.13,44.68,75.25,67.54,21.59,22.32,41.15,48.84,59.78,81.07,10,17.25,16.49,35.65,22.24,51.88,0,0,.25.73.6,1.69a221.13,221.13,0,0,0,4.79-36c1.56-27.91.06-52.17-4.6-74.18A257.9,257.9,0,0,0,873,446.54c-10.74-15.7-22.46-31.75-35.34-42.77-29.52-25.23-60.17-50.37-89.82-74.68l-.11-.09c-29.47-24.17-59.93-49.14-89.53-74.42C638.29,237.59,621.7,217.31,610.23,202.26Z"/></g><g id="fc98d7dd-4bef-4fab-a58d-0479d4cc4ea1" data-name="inner shadow"><path d="M161.1,899.79a321.43,321.43,0,0,0,91.54,56.49c22.75,9.31,45.87,17.57,67.46,25.1a244.32,244.32,0,0,1,60.1,31c4.13,2.91,8.15,5.89,12.11,8.92a357.35,357.35,0,0,0-30.25-23.76,244.6,244.6,0,0,0-60.09-31c-21.6-7.53-44.71-15.79-67.47-25.1A326.46,326.46,0,0,1,161.1,899.79Z"/><path d="M126.42,1101.88c-28.57-53-45.13-99.34-52.13-145.73C66.57,905,72.12,863.09,91.23,828.06c-5-6.62-9.92-13.49-14.81-20.7q-1.59,2.67-3.09,5.41C54,847.89,48.41,889.93,56.16,941.31c7,46.39,23.55,92.7,52.12,145.73,12.68,23.53,29,43.3,48.42,58.77,2.41,1.92,4.88,3.76,7.38,5.54A192.31,192.31,0,0,1,126.42,1101.88Z"/><path d="M242,800.16A268.06,268.06,0,0,1,210.1,765c-4.75-6.23-9.47-12.77-14.27-19.78q12.4-3.72,26-6.42a73.2,73.2,0,0,1,14.43-1.33c14.76,0,30.7,3.57,47.58,7.35l6.27,1.39c4.78,1.06,9.51,1.94,14.08,2.79l5.65,1.06,47,9v-2.89c.74,0,1.5,0,2.27,0a86.67,86.67,0,0,0,11.68-1c13.24-1.74,27-3.68,39.11-5.39,17.24-2.44,35.06-4.95,52.59-7.11a155.52,155.52,0,0,1,18.85-1.19c21.57,0,41,5.1,57.77,15.15,1,.63,2.07,1.29,3.09,2A108.23,108.23,0,0,0,521,741.82c-16.76-10.05-36.2-15.15-57.77-15.15a155.23,155.23,0,0,0-18.84,1.19C426.86,730,409,732.53,391.8,735c-12.12,1.71-25.87,3.65-39.11,5.39a86.53,86.53,0,0,1-11.68,1c-.77,0-1.52,0-2.27-.05v2.89l-47-9-5.65-1.06c-4.57-.85-9.29-1.73-14.08-2.79l-6.27-1.39c-16.88-3.78-32.82-7.35-47.58-7.35a74,74,0,0,0-14.43,1.33c-9.06,1.8-17.75,4-26,6.42,4.79,7,9.52,13.55,14.27,19.78C207.68,770.67,224.16,787.18,242,800.16Z"/><path d="M554.14,1004.26a444.66,444.66,0,0,0-82.07-82.93A447.45,447.45,0,0,1,536,989.42a368,368,0,0,1,25.76,38.5c1.14-2.84,2.24-5.69,3.33-8.54Q559.87,1011.82,554.14,1004.26Z"/><path d="M705,398l-1.32-1.49a282.48,282.48,0,0,1-58.55-105,626.29,626.29,0,0,1-17-69c-7.44-8.65-14.12-17.2-20-25A627,627,0,0,0,627,276.66a282.42,282.42,0,0,0,58.56,105l1.31,1.49c20.12,22.72,40.92,46.17,64.44,63.38C735,431.77,719.83,414.67,705,398Z"/><path d="M906.38,611.2c-18.58-32.14-38.08-58.59-59.6-80.83-19.33-20-40.12-40.86-64.47-59.56,16.82,14.57,32,29.89,46.34,44.72,21.51,22.24,41,48.69,59.6,80.83,9.93,17.16,16.42,35.51,22.14,51.69,0,0,1.36,3.84,2,5.57a195.43,195.43,0,0,0,4.12-22.2A198.54,198.54,0,0,0,906.38,611.2Z"/></g></g></g></g></svg>