<svg xmlns="http://www.w3.org/2000/svg" viewBox="0 0 1366 1366"><g id="ba219db9-86b2-4351-8854-88ab6cf20e32" data-name="Expanded"><g id="a23f3af6-8b8b-4347-9014-f0b85cc83322" data-name="Expanded(Color) #2"><g id="a702d76a-ed38-4a11-be02-1f87ec6cdec8" data-name="Hero graphic"><g id="b8479f0c-c5e7-4f83-80a7-209a1ae39fd3" data-name="outer lines"><path d="M806.87,1073.63c-.23.41-.47.8-.7,1.21l-27.67-27.68-61.31-61.3c-1.47-2.16-3-4.33-4.58-6.49Z"/><path d="M812.63,1063.14c-.23.42-.43.84-.66,1.26l-27.84-27.84L440.61,693c.49-.15,1-.3,1.49-.43L784.8,1035.3Z"/><path d="M707,1014.36c1,1.58,1.94,3.16,2.87,4.77L588.46,897.71c1.24.59,2.48,1.22,3.73,1.82Z"/><path d="M791.51,1098.86l-.74,1.18-75.86-75.86v0c-.24-.9-.51-1.8-.8-2.7l50,50Z"/><path d="M830.76,1024.45c-.17.46-.37.9-.55,1.35l-28.37-28.37L490.56,686.15l2.05.14Z"/><path d="M800.86,1083.85l-.73,1.18L772.6,1057.5l-35-35c-.5-1.15-1-2.31-1.54-3.46l37.22,37.23Z"/><path d="M794.65,1093.87l-.74,1.18-27.43-27.45-20-19.95c-.24-.88-.49-1.76-.74-2.64l21.43,21.42Z"/><path d="M809.78,1068.4l-.69,1.23-27.74-27.74-347-347c.49-.15,1-.32,1.45-.47L782,1040.63Z"/><path d="M571.16,878.5c-1-.35-2-.71-3-1L399.63,708.89c.42-.22.86-.42,1.27-.64Z"/><path d="M587.92,895.25l-2.94-1-7.6-7.6c1.64,1,3.27,1.93,4.88,3Z"/><path d="M825.91,1035.83c-.19.45-.38.89-.58,1.33L797.13,1009,474.37,686.2l1.79-.12,321.53,321.53Z"/><path d="M815.42,1057.81l-.65,1.26-27.91-27.9L447,691.31l1.53-.39,339,339Z"/><path d="M828.38,1030.18c-.18.46-.37.91-.56,1.35l-28.3-28.3L482.17,685.89h1.94l316,316Z"/><path d="M818.14,1052.42c-.22.42-.42.85-.64,1.27l-364-364,1.58-.34,335.07,335.08Z"/><path d="M820.8,1047c-.2.43-.39.88-.61,1.31l-28.07-28.07-331.93-332c.53-.1,1-.23,1.57-.33Z"/><path d="M803.89,1078.76c-.23.4-.46.81-.71,1.21l-27.61-27.6-45.65-45.68c-.77-1.41-1.56-2.85-2.38-4.28Z"/><path d="M519.58,859.39l-3.44-1.52L404.84,746.58c-1.08-1.72-2.19-3.45-3.3-5.22Z"/><path d="M532.69,872.49q-2-1-4-2.11l-8.82-8.81,3,1Z"/><path d="M504.32,852.27c-1.31-.65-2.62-1.33-3.92-2l-78-78c-1.63-2.22-3.27-4.51-4.91-6.82Z"/><path d="M513.69,861.64c-1.92-1.23-3.81-2.5-5.71-3.8l-.89-.89,3,1.1Z"/><path d="M533.37,865.08l-3.16-1.25-138.3-138.3-2.78-4.71Z"/><path d="M548.25,880c-1.17-.53-2.33-1-3.48-1.57L532.37,866l2.06.72c.3.11.59.2.89.32Z"/><path d="M558.86,874.32l-2.89-1L394.28,711.66l1.26-.66Z"/><path d="M575.35,890.81l-3-1.1L560,877.32c1.27.61,2.52,1.23,3.78,1.88Z"/><path d="M546.35,869.94c-1-.35-2-.72-3-1.1L389,714.48l1.25-.66Z"/><path d="M562.25,885.84c-1.06-.42-2.13-.85-3.19-1.29l-13.73-13.73c1.09.43,2.17.89,3.25,1.35Z"/><path d="M577.43,892.9c-1.08-.45-2.15-.9-3.23-1.33L787.64,1105l.74-1.17Z"/><path d="M539.09,878.91l-3-1.13L764.77,1106.5c-.1-.74-.2-1.48-.31-2.22Z"/><path d="M564.35,887.93l-2.94-1L784.51,1110l.74-1.18Z"/><path d="M526.08,874l-3.14-1.23,242.7,242.7c0-.69-.1-1.37-.15-2.06Z"/><path d="M479.9,852.2q-2.58-1.58-5.12-3.21l284.88,284.88,1-.9Z"/><path d="M497.84,862c-1.3-.64-2.58-1.29-3.86-1.95l270,270,1-.91Z"/><polygon points="370.44 736.53 366.31 732.4 367.04 731.75 367.13 731.91 367.2 731.86 367.4 732.18 367.47 732.13 367.67 732.45 367.73 732.4 367.94 732.72 368 732.65 370.44 736.53"/><path d="M823.4,1041.44c-.21.43-.41.87-.61,1.3L467,687c.57-.08,1.14-.13,1.7-.21l326.52,326.52Z"/><path d="M615.85,687.74c0,.62,0,1.26,0,1.88l-16.42-16.41L585,658.85,543.14,617c.08-.57.15-1.12.23-1.69L585.13,657,601.07,673Z"/><path d="M625.88,608.47c-.11.53-.23,1-.34,1.57L557,541.51c.11-.53.23-1,.35-1.56Z"/><path d="M621.89,628.83c-.09.54-.19,1.09-.28,1.64l-68.79-68.79c.1-.53.21-1.06.32-1.6l39.13,39.13Z"/><path d="M620.72,635.78c-.1.56-.17,1.11-.26,1.67l-69-69c.11-.54.21-1.07.31-1.61L591,606.05Z"/><path d="M630.41,588.65c-.12.52-.24,1-.37,1.54l-29.25-29.25-39.17-39.17c.13-.52.26-1,.38-1.53Z"/><path d="M627.34,601.81c-.12.52-.23,1.05-.35,1.57L597.62,574,558.51,534.9c.12-.52.23-1,.35-1.56L598,572.45Z"/><path d="M628.84,595.2c-.12.51-.26,1-.38,1.54l-29.28-29.29L560,528.28c.12-.51.26-1,.38-1.52Z"/><path d="M632,582.13l-.41,1.52L602.46,554.5l-39.22-39.24c.12-.51.26-1,.39-1.51L602.87,553Z"/><path d="M617.21,664.76c-.05.58-.11,1.17-.15,1.75L586.74,636.2h0l-40.32-40.31c.1-.54.19-1.09.29-1.63l40.2,40.21Z"/><path d="M616.63,672.29c0,.61-.08,1.2-.12,1.8l-2.85-2.86L586,643.61l-40.77-40.76c.08-.56.18-1.1.27-1.65Z"/><path d="M619.65,642.84c-.07.55-.14,1.12-.22,1.69l-69.26-69.26c.09-.54.2-1.07.31-1.61L589.79,613Z"/><path d="M616.17,680c0,.61,0,1.23-.08,1.84l-71.93-71.93c.1-.55.18-1.1.26-1.66l41.18,41.18L608.2,672Z"/><path d="M618.73,650c-.07.57-.15,1.13-.22,1.69l-69.63-69.63c.1-.52.21-1.06.3-1.6Z"/><path d="M617.92,657.33c-.07.59-.14,1.15-.19,1.73L587.56,628.9,547.64,589c.09-.54.19-1.09.28-1.63l39.85,39.83v0Z"/><path d="M623.16,622c-.11.53-.21,1.06-.31,1.6L593.28,594l-39.11-39.11s0,0,0,0c.11-.53.22-1,.33-1.55l39.1,39.1Z"/><path d="M841.59,994.69c-.14.47-.29,1-.46,1.45L812.3,967.3,538.11,693.11v-1.92L812.74,965.84Z"/><path d="M839.58,1000.79c-.16.47-.33.94-.49,1.42l-28.73-28.73L529.49,692.61,531,693l1,.21Z"/><path d="M843.53,988.5c-.15.48-.3,1-.46,1.46l-28.91-28.91L538.11,685v-1.9L814.58,959.55Z"/><path d="M845.37,982.21c-.14.5-.29,1-.44,1.49l-29-29L538.16,676.92c0-.62,0-1.24,0-1.86L816.34,953.18Z"/><path d="M835.33,1012.78c-.17.46-.33.93-.51,1.39L509.07,688.42c.77.13,1.55.27,2.32.42Z"/><path d="M837.5,1006.82c-.18.47-.35.93-.52,1.4l-28.63-28.63L519.11,690.35l2.43.51L808.83,978.15Z"/><path d="M833.08,1018.63l-.54,1.38-333-333c.73.08,1.46.17,2.19.28L804.6,990.16Z"/><path d="M854.57,942.7c-.09.54-.19,1.09-.28,1.64l-313-313c.07-.57.14-1.13.2-1.72Z"/><path d="M855.7,935.71c-.09.56-.17,1.11-.26,1.67L584.72,666.66,542.16,624.1c.08-.57.14-1.13.22-1.7l73.29,73.29q0,.63,0,1.23l1.11-.15Z"/><path d="M847.14,975.87c-.14.5-.27,1-.41,1.51l-29.12-29.12L538.35,669c0-.62,0-1.23.08-1.84L818,946.72Z"/><path d="M851.88,956.26c-.11.53-.21,1-.34,1.57L539.77,646.06c.05-.58.11-1.18.16-1.76L822.42,926.8Z"/><path d="M850.4,962.89c-.13.51-.25,1-.37,1.54L539.17,653.58c.05-.6.1-1.18.14-1.78L821,933.54Z"/><path d="M848.83,969.43c-.12.52-.27,1-.41,1.52L819.2,941.73,538.7,661.21c0-.59.07-1.19.11-1.79L819.57,940.18Z"/><path d="M624.49,615.21c-.11.52-.21,1.06-.31,1.59l-68.59-68.59c.11-.52.21-1.05.34-1.58L595,585.72Z"/><path d="M312.9,945c.21.85.4,1.69.62,2.53l232.39,232.39,2.09.18Z"/><path d="M304.4,855.31c0,.59-.09,1.19-.13,1.78l320.44,320.44,1.7-.2Z"/><path d="M310.5,934.48c.17.81.34,1.62.52,2.43l243.62,243.62,2,.1Z"/><path d="M319.28,967.62c.29.93.58,1.86.89,2.8l207.29,207.29,2.26.35Z"/><path d="M328.25,992.82c.41,1,.81,2.1,1.23,3.15l177.65,177.64,2.52.61Z"/><path d="M584.24,883.47l-3.19-1.28-176-176c.43-.21.87-.4,1.32-.6Z"/><path d="M308.5,924.36c.14.79.3,1.58.45,2.36L563.1,1180.88l2,0Z"/><path d="M315.79,956c.25.89.52,1.79.78,2.69L536.87,1179l2.17.26Z"/><path d="M305.62,905.24c.09.73.18,1.46.28,2.19l273.48,273.48,1.86,0Z"/><path d="M303.73,879c0,.65,0,1.31,0,2l298.8,298.8,1.78-.13Z"/><path d="M303.92,863l-.09,1.83,313.6,313.59,1.73-.18Z"/><path d="M303.69,870.84c0,.63,0,1.26,0,1.89l306.39,306.39,1.75-.16Z"/><path d="M304.68,896.19c.06.7.14,1.41.2,2.11l282.37,282.37,1.84-.08Z"/><path d="M304.06,887.45l.12,2L595,1180.28l1.81-.1Z"/><path d="M334,1006.65c.5,1.13,1,2.27,1.51,3.41l160.41,160.42,2.74.83Z"/><path d="M340.67,1021.48c.58,1.22,1.18,2.46,1.78,3.69l141.06,141.06c1,.39,2,.76,3,1.13Z"/><path d="M853.3,949.56c-.09.49-.19,1-.28,1.45a.35.35,0,0,0,0,.14L823.4,921.56,540.47,638.64l.18-1.73Z"/><path d="M728,696.24,840.82,809.09c-.26-.64-.52-1.28-.8-1.92-.2-.47-.41-.94-.61-1.4L730.92,697.28C729.94,696.92,729,696.57,728,696.24Z"/><path d="M650.74,692.08,858.48,899.81c0-.64,0-1.27,0-1.91l-206-206Z"/><path d="M1106.33,748c-.19.36-.38.74-.58,1.1a.87.87,0,0,1-.08.14l-27.85-27.85-99.06-99.08q-2.38-3.4-4.78-6.68l104.46,104.47Z"/><path d="M1063.28,802.31c-.48.18-.89.33-1.28.49l-.1,0-24.64-24.65-17.85-17.83c0-.1,0-.21,0-.29.08-.47.15-.93.22-1.38l18.64,18.65Z"/><path d="M797.77,1088.88l-.6,1-.13.18-27.48-27.47-26.72-26.72q-.51-1.5-1.05-3l28.5,28.5Z"/><path d="M358.07,1055.12c1,1.65,2,3.26,3,4.88l90.7,90.7q2.31,1.41,4.67,2.76Z"/><path d="M348.59,1037.52q1,2,2.05,4l118.75,118.75c1.18.56,2.36,1.11,3.56,1.65Z"/><path d="M376.57,1081.74a195.23,195.23,0,0,0,13.94,15.3l.27.27.27.26.27.27.26.27.27.27.27.27.27.26.27.27.26.27.27.26.27.27.27.27.26.27.27.27.27.27.27.26.26.27.27.27.27.27.27.26.27.27.26.27.27.27.27.26.27.27.27.27.26.27.27.27.27.26.26.27.27.27.27.27.27.26.27.27.26.27.27.27.27.27.27.26.26.27.27.27.27.26.27.27.27.27.26.27.27.27.27.26.27.27.26.27.27.27.27.27.27.26.26.27.27.27.27.27.27.26.27.27.27.27.26.27.27.26.27.27.26.27.27.27.27.27.27.26.27.27.26.27.27.27.27.27.27.26.26.27.27.27.27.26.27.27.27.27.26.27.27.27.27.26.27.27.27.27.26.27.27.26.27.27.26.27.27.27.27.27.27.26.27.27.27.27.26.27.27.26.27.27.26.27.27.27.27.26.27.27.27.27.26.27.27.27.27.27.26.26q6.3,6.21,13.14,11.78Z"/><path d="M306.89,914.63c0,.11,0,.21,0,.32.1.65.22,1.3.32,1.95L571.35,1181h.36l1.53,0Z"/><path d="M512.37,868.58c-1-.43-2.06-.9-3.1-1.34l256.57,256.57v-.15c0-.59,0-1.18,0-1.77L512.62,868.68Z"/><path d="M551.81,883.51l-3-1.06L763.2,1096.81c0-.2-.07-.39-.11-.59l.15-.24.1.53.17-.27.1.54.17-.27.1.54.17-.27.1.53.16-.26.1.53.17-.27.1.54.17-.27.1.54.17-.27.1.53.16-.26.1.53.17-.26.1.53.17-.27.1.54.17-.27.1.54.17-.27.1.53.16-.26.1.53.17-.27.1.54.17-.27.1.54.17-.27.1.53.16-.26.1.53.17-.26.1.53.17-.27.1.54.17-.27.1.53.17-.26.1.53.16-.26.1.53.17-.27.1.54.17-.27.1.54.17-.27.1.53.16-.26.1.53.17-.27.1.54.17-.27.1.54.17-.27.1.53.16-.26.1.53.17-.26.1.53.17-.27.1.54.17-.27.1.54.17-.27.1.53.16-.26.1.53.17-.27.1.54.17-.27.1.54.17-.27.1.53.16-.26.1.53.17-.26.1.53.17-.27.1.54.17-.27.1.53.17-.26.1.53.16-.26.1.53.17-.27.1.54.17-.27.1.54.17-.27.1.53.16-.26.1.53.17-.27.1.54.17-.27.1.54.17-.27.1.53.16-.26.1.53.17-.26.1.53.17-.27.1.54.17-.27.1.54.17-.27.1.53.16-.26.1.53.17-.27.1.54.17-.27.1.54.17-.27.1.53.16-.26.1.53.17-.26.1.53.17-.27.1.54.17-.27.1.53.17-.26.1.53.16-.26.1.53.17-.27.1.54.17-.27.1.54.56-.9Z"/><path d="M323.35,979.81c.36,1,.74,2,1.11,3L517.58,1176l2.39.47Z"/><path d="M395.43,775.84c1.32,2,2.66,4,4,5.92l-41.59-41.59,1-.93Z"/><path d="M756.28,1136.69l-1,.87-25.93-25.94L447.36,829.69c1.59,1,3.19,2,4.83,2.91Z"/><path d="M347,751.72c-.29.34-.57.7-.86,1l394.78,394.78,1.18-.73Z"/><path d="M751.73,1140.26c-.37.27-.75.53-1.11.8L353.8,744.24c.31-.32.62-.65.95-1l63.35,63.35.06.07,8.24,8.25.06,0,299.48,299.5Z"/><path d="M350.78,747.43l-.9,1,396,396,1.15-.76Z"/><path d="M343.28,756.17c-.28.36-.58.7-.86,1.05l393.31,393.31c.41-.22.81-.46,1.22-.69Z"/><path d="M339.75,760.76c-.27.37-.55.72-.82,1.09L730.38,1153.3l1.29-.62Z"/><path d="M617.17,900.16c-1.17-.73-2.35-1.44-3.53-2.14-.42-.24-.83-.5-1.27-.74l-196-196c.46-.17.91-.36,1.37-.55Z"/><path d="M384.3,758.51,362,736.24l.5-.46.5-.45,18,18C382.12,755.06,383.21,756.77,384.3,758.51Z"/><path d="M728.94,1022l-23.48-23.49c-.53-1.19-1.07-2.36-1.64-3.54l20.2,20.2C725.7,1017.39,727.33,1019.66,728.94,1022Z"/><path d="M599,890.1q-1.83-.9-3.69-1.77L410.64,703.67l1.32-.6Z"/><path d="M336.35,765.47l-.79,1.13,389.28,389.28,1.33-.58Z"/><path d="M642.7,917.57c-2.41-1.83-4.84-3.61-7.29-5.37L422.23,699l1.4-.52Z"/><path d="M668.63,935.39c-2.14-1.56-4.3-3.08-6.49-4.58L428.2,696.87c.47-.17,1-.31,1.45-.48Z"/><path d="M318.81,796.65c-.2.44-.38.9-.57,1.34l368.94,369,1.59-.33Z"/><path d="M308.74,827.18c-.12.52-.23,1-.34,1.56L653,1173.38l1.63-.28Z"/><path d="M310.38,820.7c-.13.5-.27,1-.4,1.51l350,350,1.61-.29Z"/><path d="M312.21,814.41l-.45,1.46,355.06,355.06,1.61-.3Z"/><path d="M307.33,833.88c-.11.53-.21,1.07-.31,1.6l339,339,1.64-.26Z"/><path d="M314.23,808.31c-.17.47-.33,1-.49,1.42l359.91,359.91,1.6-.32Z"/><path d="M306.12,840.8c-.08.55-.17,1.1-.25,1.65L639,1175.6l1.66-.25Z"/><path d="M333.06,770.31l-.74,1.17,386.79,386.79,1.36-.55Z"/><path d="M326.94,780.42l-.7,1.22L707,1162.36l1.48-.43Z"/><path d="M329.92,775.29c-.24.39-.47.8-.71,1.2l383.94,383.94,1.43-.49Z"/><path d="M316.44,802.4c-.18.45-.37.91-.54,1.37L680.43,1168.3,682,1168Z"/><path d="M324.06,785.66l-.65,1.27,377.15,377.15c.52-.12,1-.26,1.52-.39Z"/><path d="M305.14,847.93c-.07.58-.13,1.15-.19,1.72l327,327,1.68-.23Z"/><path d="M321.36,791.08c-.21.43-.41.86-.62,1.3l373.18,373.17,1.58-.33Z"/><path d="M688.61,987.83q3,3.9,5.92,7.85L605.36,906.5c1.46.82,2.9,1.66,4.34,2.51.08.06.16.1.24.15Z"/><path d="M742.8,1043.94,711,1012.17c-.37-1-.74-2-1.14-3l30.28,30.27Q741.5,1041.66,742.8,1043.94Z"/><path d="M1114.07,731.32c-.18.46-.37.9-.56,1.35L788,407.16c-.49-1.13-1-2.26-1.49-3.4l299,299Z"/><path d="M1109.09,742.58c-.2.42-.42.85-.62,1.28l-28.06-28.05L806,441.43c-1-1.62-2-3.24-3-4.89l278,277.94Z"/><path d="M1111.67,737c-.19.44-.39.87-.59,1.32l-28.26-28.26L795.4,422.68c-.67-1.29-1.33-2.58-2-3.88Z"/><path d="M1103.41,753.12c-.24.41-.49.8-.71,1.21L993,644.65c-.95-1.61-1.89-3.19-2.84-4.74l85.54,85.54Z"/><path d="M1093.68,767.77c-.26.36-.54.73-.81,1.09l-27.14-27.15L1011,687c-.35-1-.72-2-1.07-3l56.54,56.55Z"/><path d="M1097.06,763l-.8,1.12L1069,736.86l-62.48-62.48c-.38-1-.74-2-1.12-3Z"/><path d="M1100.3,758.14c-.24.39-.5.77-.76,1.15l-27.43-27.43-70.79-70.78q-.74-1.73-1.5-3.42l73,73Z"/><path d="M1121.69,706.47c-.12.51-.23,1-.35,1.55l-29.42-29.42L771.21,357.89c-.23-.87-.48-1.74-.71-2.61Z"/><path d="M1123.1,699.75c-.11.54-.21,1.06-.31,1.61l-29.65-29.65L768.36,346.92c-.21-.83-.41-1.69-.63-2.52L1093.39,670Z"/><path d="M1090.23,772.42l-.83,1.09-27.05-27-47.09-47.09c-.28-.93-.58-1.87-.89-2.8l48.79,48.78Z"/><path d="M1124.3,692.84c-.08.55-.18,1.09-.27,1.63l-29.88-29.88L765.81,336.26c-.19-.83-.36-1.65-.55-2.46Z"/><path d="M698.19,421c-.23.39-.46.8-.71,1.2L629.25,354l.7-1.21Z"/><path d="M1118.27,719.27c-.15.49-.3,1-.46,1.46L778,380.9c-.31-.93-.61-1.88-.9-2.82Z"/><path d="M1120.08,713c-.13.51-.27,1-.42,1.5L774.4,369.21c-.27-.91-.54-1.82-.8-2.72l317.25,317.25Z"/><path d="M692.21,431.24c-.24.4-.46.82-.69,1.23l-27.65-27.65-40.6-40.6L624,363l40.6,40.6Z"/><polygon points="1051.99 807.26 1050.67 807.85 1026.12 783.3 1017.33 774.51 1017.57 772.84 1027.44 782.71 1051.99 807.26"/><path d="M686.42,441.69c-.23.4-.46.81-.67,1.23L658,415.16l-40.52-40.52.68-1.23Z"/><polygon points="1046.37 809.76 1045.06 810.36 1020.51 785.8 1016.3 781.6 1016.54 779.93 1046.37 809.76"/><path d="M683.61,447c-.22.42-.45.84-.66,1.25l-27.84-27.83L614.6,379.9l.68-1.24Z"/><path d="M1125.3,685.71c-.07.57-.15,1.14-.22,1.69L1095,657.27,691.63,254l.71-1.2Z"/><path d="M695.2,426.1c-.25.4-.48.81-.71,1.22l-27.62-27.63-40.63-40.62c.23-.41.48-.82.71-1.21l40.64,40.64Z"/><path d="M1079.58,786.13c-.29.35-.57.71-.84,1.07l-58-58c-.06-.69-.1-1.38-.16-2.07l32.09,32.09Z"/><polygon points="1057.61 804.76 1056.28 805.35 1031.77 780.83 1018.37 767.43 1018.61 765.75 1033.17 780.33 1057.61 804.76"/><path d="M1076,790.68c-.28.37-.55.73-.84,1.09l-26.94-26.95-27.19-27.19c0-.65,0-1.3,0-2l28.06,28.06Z"/><path d="M1083.15,781.58l-.84,1.07-27-26.94-35.6-35.6c-.09-.75-.2-1.49-.32-2.23Z"/><path d="M1086.7,777c-.27.37-.55.73-.84,1.09l-67.81-67.82c-.18-.83-.36-1.65-.55-2.46Z"/><path d="M1068.67,799.58c-.38.28-.75.55-1.13.78L1041.16,774l-20.82-20.83c.07-.58.13-1.16.18-1.73Z"/><path d="M1072.5,795.29l-.82,1.09-50.78-50.79.08-1.82,24.54,24.54Z"/><path d="M623.87,695.77l-1.68.23L856.43,930.24c.07-.56.15-1.13.21-1.7Z"/><path d="M972.44,394.83l-10.81-8.9L1088,512.26q-1.76-2.76-3.58-5.48Z"/><path d="M927,357.5q-5.44-4.47-10.9-9l182.84,182.83c-.71-1.36-1.44-2.72-2.17-4.07Z"/><path d="M1025.53,439.81c-2-2-4.08-3.9-6.22-5.73q-4.72-4-9.47-8.05l58.41,58.41a189.45,189.45,0,0,0-12.91-14.82Z"/><path d="M839,247,734.23,142.3c.35-.29.72-.56,1.1-.83l69.29,69.29v0l33.7,33.7C838.54,245.33,838.75,246.19,839,247Z"/><path d="M815.34,247.77v0L726.5,158.93c0-.6.12-1.17.19-1.73l87.38,87.38,39.58,39.58c.9,1.59,1.83,3.15,2.8,4.71Z"/><path d="M1106.24,546.78,823.31,263.86,726.2,166.74c0-.61,0-1.22.08-1.84l94.63,94.63a0,0,0,0,0,0,0s0,0,0,0h0l0,0,0,0h0l0,0h0l0,0,53.79,53.81c.52.61,1,1.22,1.5,1.83.68.56,1.38,1.14,2.06,1.73l25,25,160.67,160.68,40.66,40.65C1105.25,544.51,1105.75,545.64,1106.24,546.78Z"/><path d="M847.45,271.75,727.75,152.06c.15-.49.33-.95.5-1.41l81.53,81.52h0l36.28,36.26C846.5,269.55,847,270.66,847.45,271.75Z"/><path d="M842.39,258.58l-35-35-77.09-77.09c.25-.38.52-.74.81-1.11l75.66,75.66,34.68,34.68Q841.93,257.17,842.39,258.58Z"/><path d="M836.5,236.45l-97.15-97.14c.45-.19.9-.38,1.37-.54L802.94,201v0L836,234.06C836.17,234.86,836.33,235.65,836.5,236.45Z"/><path d="M835.82,201.38c-.12.5-.26,1-.42,1.49L805,172.5h0L771,138.43c.88.22,1.76.46,2.62.7Z"/><path d="M787.7,145.14c-1.34-.75-2.69-1.48-4.05-2.13l52.65,52.64a16.82,16.82,0,0,0-.34-2.24Z"/><path d="M833.52,207.21c-.21.4-.47.8-.71,1.19l-71.54-71.54c.7.06,1.41.12,2.12.2L805,178.65Z"/><path d="M801.93,193.77v0L745.65,137.5c.55-.11,1.09-.21,1.65-.27l54.36,54.35,32.62,32.62.36,2.27Z"/><path d="M833.22,216.93l-31-31L753,136.73c.62,0,1.24-.06,1.85-.07l78.08,78.08C833,215.47,833.12,216.2,833.22,216.93Z"/><path d="M1127,663.09c0,.61,0,1.23-.08,1.84L700.63,238.6c.23-.4.48-.81.71-1.22Z"/><path d="M1127.33,649.06l-31.26-31.26L706.61,228.34l.7-1.22L1096,615.81l31.31,31.32C1127.3,647.78,1127.33,648.41,1127.33,649.06Z"/><path d="M1127.26,655.2c0,.63,0,1.26,0,1.89l-31-31L703.62,233.46l.7-1.2,391.9,391.9Z"/><path d="M1127.21,640.81l-31.57-31.57-386-386,.7-1.22,385.22,385.21,31.61,31.62Z"/><path d="M1111.69,560.35l-37.56-37.56L725.63,174.3c.07-.58.11-1.18.16-1.76L838.24,285l17.85,17.85,216.43,216.43,38,38C1110.9,558.29,1111.31,559.31,1111.69,560.35Z"/><path d="M1126.08,678.38c0,.59-.09,1.18-.16,1.75l-30.36-30.37L694.64,248.85c.23-.41.48-.81.71-1.2Z"/><path d="M1126.67,670.84c0,.61-.08,1.2-.13,1.8L1096,642,697.64,243.73c.23-.41.46-.8.71-1.21L1096,640.19Z"/><path d="M1126.81,632.31l-31.88-31.88L712.54,218.05c.23-.42.45-.85.67-1.26l381.49,381.5,32,32Z"/><path d="M1126.14,623.52,715.26,212.64c.2-.43.42-.86.62-1.3L1093.51,589,1126,621.41C1126,622.11,1126.07,622.82,1126.14,623.52Z"/><path d="M1121.69,594.71,721.83,194.85c.14-.5.29-1,.42-1.49l364.57,364.56,34.32,34.31C1121.33,593.06,1121.5,593.88,1121.69,594.71Z"/><path d="M1115.85,572.63l-36-36-355.1-355.1c.08-.55.16-1.12.25-1.67L1078.6,533.46l36.34,36.34C1115.24,570.75,1115.55,571.68,1115.85,572.63Z"/><path d="M1119.12,584l-35-35L723.43,188.33c.12-.52.23-1.05.34-1.58l394.64,394.64C1118.64,582.27,1118.89,583.15,1119.12,584Z"/><path d="M1123.69,604.84l-33.45-33.45L719.94,201.08c.16-.48.31-1,.47-1.44L1089.66,568.9l33.57,33.57C1123.38,603.25,1123.56,604,1123.69,604.84Z"/><path d="M1125.12,614.38,717.74,207l.54-1.36L1091.87,579.2h0l33,32.95C1124.92,612.91,1125,613.64,1125.12,614.38Z"/><path d="M1116.26,725.39c-.17.48-.32,1-.49,1.42L1087,698.08,782.4,393.43c-.39-1-.8-2-1.17-3.08l306.25,306.27Z"/><path d="M642.87,544.28c-.16.49-.29,1-.46,1.46l-28.78-28.8-39.56-39.56c.15-.49.31-1,.46-1.45l39.57,39.58Z"/><path d="M644.89,538.18c-.16.47-.33,1-.49,1.43l-28.73-28.74-39.61-39.61c.15-.49.31-1,.46-1.45Z"/><path d="M641,550.47c-.16.49-.31,1-.46,1.46l-68.34-68.34.45-1.48Z"/><path d="M646.92,532.08c-.17.49-.31,1-.48,1.44l-28.67-28.68-39.7-39.68c.16-.47.34-1,.5-1.42Z"/><path d="M635.41,569.29q-.2.75-.42,1.5l-29-29-39.31-39.32c.13-.5.28-1,.42-1.48l39.33,39.33Z"/><path d="M637.22,563c-.15.5-.28,1-.43,1.48l-68.34-68.34q.19-.75.42-1.5L608.25,534Z"/><path d="M639,556.68c-.14.48-.28,1-.43,1.47l-68.34-68.34c.15-.49.3-1,.44-1.46l39.44,39.43Z"/><path d="M651.18,520.1c-.18.48-.34.95-.5,1.41L622.11,493l-39.82-39.82c.18-.47.35-.93.51-1.41Z"/><path d="M649,526.08c-.17.47-.34.93-.5,1.41l-28.61-28.61-39.75-39.75c.16-.47.32-1,.48-1.42Z"/><path d="M662.67,491l-.57,1.35-28.26-28.26L593.72,424c.18-.44.36-.9.55-1.35l40.15,40.16Z"/><path d="M655.64,508.33c-.18.46-.35.92-.54,1.38l-28.45-28.45-39.94-39.95c.18-.46.35-.91.54-1.37Z"/><path d="M657.92,502.5c-.17.45-.38.89-.55,1.35L629,475.49l-40-40,.52-1.38Z"/><path d="M633.71,575.7c-.14.51-.27,1-.41,1.51l-68.37-68.37c.14-.5.27-1,.41-1.51Z"/><path d="M653.38,514.2c-.18.46-.37.9-.53,1.38L584.48,447.2c.18-.47.34-.93.51-1.4l39.9,39.91Z"/><path d="M660.29,496.74c-.19.45-.37.91-.56,1.35L631.4,469.76,591.34,429.7c.17-.45.36-.9.55-1.36Z"/><path d="M659.63,690.94l-1.69.22L858.38,891.6c0-.65,0-1.31,0-2Z"/><path d="M645.27,692.81l-1.69.23L858.29,907.75c0-.62,0-1.24.06-1.85Z"/><path d="M674.44,689.51l-1.81.1L857.28,874.26c-.07-.71-.14-1.42-.22-2.13Z"/><path d="M666.91,690.09l-1.73.19L858,883.1c0-.68-.08-1.36-.13-2Z"/><path d="M631,694.77l-1.68.23,228,228c0-.58.1-1.17.16-1.75Z"/><path d="M638.12,693.78l-1.68.23L857.88,915.45l.12-1.79Z"/><path d="M690.59,689.42l-2-.1,166,166c-.15-.79-.3-1.58-.46-2.37Z"/><path d="M708.81,691.41c-.76-.14-1.53-.28-2.31-.4L849.57,834.08c-.26-.9-.52-1.81-.79-2.71Z"/><path d="M719.17,693.64l-2.55-.63L845.81,822.2c-.34-1-.68-2-1-3Z"/><path d="M745.2,703.43c-1.24-.62-2.48-1.22-3.73-1.81l92.33,92.32c-.72-1.38-1.44-2.74-2.18-4.09Z"/><path d="M699.37,690.08l-2.13-.22L852.43,845.05c-.2-.84-.4-1.68-.61-2.52Z"/><path d="M768.59,718.7q-3.86-3.13-7.9-6l60.48,60.48q-3-4.26-6.31-8.23Z"/><path d="M682.31,689.26c-.63,0-1.25,0-1.88,0L856.16,865c-.11-.75-.21-1.49-.32-2.23Z"/><path d="M757.86,334.53l-.79,1.11-22.79-22.79-48.72-48.72c.24-.41.48-.8.73-1.19l44.42,44.42,3,3Z"/><path d="M730.62,372.22c-.26.38-.53.74-.8,1.12l-27.13-27.15L660.5,304c.25-.38.49-.77.75-1.16Z"/><path d="M928.15,569.76q-2.25-1.69-4.56-3.32l-2.5-1.84L826.3,469.82c-2.38-2.92-4.72-5.88-7-8.88Z"/><path d="M727.24,377l-.8,1.12-27.15-27.16-42-42c.24-.39.5-.78.74-1.16Z"/><path d="M723.89,381.73l-.79,1.12-27.19-27.19-41.76-41.75c.26-.39.5-.79.74-1.16l41.82,41.8Z"/><path d="M734,367.5l-.79,1.11-69.55-69.55c.26-.38.5-.77.76-1.16l42.45,42.47Z"/><path d="M737.42,362.78l-.8,1.11L709.5,336.77l-42.67-42.65c.26-.4.5-.78.76-1.17l42.71,42.71Z"/><path d="M714,396.17c-.25.37-.51.75-.75,1.14L685.91,370l-41.22-41.23c.24-.39.48-.78.74-1.17l41.25,41.26Z"/><path d="M707.53,406c-.26.4-.5.79-.76,1.17l-27.38-27.38-40.95-40.95c.24-.4.49-.79.73-1.18l41,41Z"/><path d="M704.35,410.9c-.26.39-.49.79-.73,1.18l-68.26-68.26c.23-.4.47-.79.71-1.19Z"/><path d="M710.72,401c-.26.39-.52.77-.76,1.15l-68.4-68.4c.25-.39.49-.78.73-1.17l41.12,41.11Z"/><path d="M740.83,358.08c-.27.36-.53.73-.8,1.11l-70-70c.25-.38.5-.77.74-1.16l43,43Z"/><path d="M720.55,386.51c-.26.37-.52.76-.79,1.12L651,318.86c.25-.4.5-.77.74-1.17Z"/><path d="M717.25,391.32l-.79,1.14L689.21,365.2l-41.37-41.38c.24-.39.48-.79.74-1.16Z"/><path d="M670.17,474.15c-.2.45-.4.88-.61,1.31l-68.38-68.38c.2-.44.4-.88.61-1.32l40.29,40.29Z"/><path d="M680.83,452.33c-.22.42-.45.82-.67,1.24L652.3,425.71l-40.47-40.46c.22-.41.45-.83.66-1.25Z"/><path d="M672.75,468.62l-.6,1.3-68.39-68.39.61-1.31,40.37,40.37Z"/><path d="M678.09,457.71c-.21.43-.41.85-.63,1.28l-27.93-27.93-40.44-40.44.63-1.28Z"/><path d="M744.25,353.37a.76.76,0,0,0-.08.11c-.25.34-.49.66-.73,1l-27.11-27.11-43.18-43.18c.24-.39.5-.78.74-1.18l43.25,43.26Z"/><path d="M667.6,479.71c-.19.44-.38.89-.58,1.32l-68.38-68.38c.19-.45.38-.9.58-1.33l40.26,40.26Z"/><path d="M665.14,485.36c-.2.43-.39.88-.58,1.32l-28.22-28.21-40.19-40.19.59-1.32,40.2,40.19Z"/><path d="M675.4,463.14c-.2.44-.42.86-.63,1.29l-28-28-40.39-40.38c.2-.42.42-.85.64-1.27Z"/><path d="M751.08,344l-.81,1.11L723.14,318,679.39,274.2l.75-1.18,43.8,43.81Z"/><path d="M754.48,339.25l-.81,1.1-16.9-16.9-10.23-10.23-44-44.05c.24-.39.49-.78.73-1.19Z"/><path d="M747.66,348.67c-.26.38-.53.74-.8,1.11L676.28,279.2c.25-.39.49-.78.73-1.17l43.52,43.52L742,343Z"/><path d="M701.25,415.93c-.24.39-.48.79-.73,1.18l-68.23-68.24c.24-.39.47-.8.71-1.19l40.77,40.77Z"/><path d="M761.24,329.78l-.79,1.11L688.6,259c.24-.39.47-.79.72-1.19Z"/><path d="M689.32,436.46l-.69,1.23L620.34,369.4a3.84,3.84,0,0,1,.21-.4c.15-.28.31-.55.48-.84l40.57,40.58Z"/></g><path d="M1096.21,632.25c0-2.06,0-4.12,0-6.16L703.62,233.46l.7-1.2,391.9,391.9q0-3.21-.15-6.36L706.61,228.34l.7-1.22L1096,615.81q-.12-3.31-.35-6.57l-386-386,.7-1.22,385.22,385.21c-.18-2.28-.37-4.54-.59-6.78L712.54,218.05c.23-.42.45-.85.67-1.26l381.49,381.5c-.25-2.38-.54-4.73-.86-7.07L715.26,212.64c.2-.43.42-.86.62-1.3L1093.51,589c-.35-2.51-.75-5-1.2-7.41L717.74,207l.54-1.36L1091.87,579.2c-.26-1.42-.55-2.81-.84-4.2-.26-1.21-.52-2.41-.79-3.61L719.94,201.08c.16-.48.31-1,.47-1.44L1089.66,568.9c-.66-2.8-1.36-5.57-2.11-8.33L721.83,194.85c.14-.5.29-1,.42-1.49l364.57,364.56c-.84-3-1.73-5.94-2.67-8.87L723.43,188.33c.12-.52.23-1.05.34-1.58L1083.21,546.2q-1.61-4.85-3.4-9.61l-355.1-355.1c.08-.55.16-1.12.25-1.67L1078.6,533.46c-1.4-3.59-2.9-7.15-4.47-10.67L725.63,174.3c.07-.58.11-1.18.16-1.76L838.24,285c-2.73-3.49-5.27-6.87-7.62-10a121.24,121.24,0,0,1-7.31-11.1L726.2,166.74c0-.61,0-1.22.08-1.84l94.63,94.63q-3.1-5.8-5.57-11.76v0L726.5,158.93c0-.6.12-1.17.19-1.73l87.38,87.38c-1.26-3.19-2.4-6.41-3.42-9.63l-82.9-82.89c.15-.49.33-.95.5-1.41l81.53,81.52c-.86-2.87-1.65-5.71-2.35-8.55l-77.09-77.09c.25-.38.52-.74.81-1.11l75.66,75.66q-1-4-1.73-7.94L734.23,142.3c.35-.29.72-.56,1.1-.83l69.29,69.29c-.49-2.53-.94-5-1.33-7.51l-63.94-63.94c.45-.19.9-.38,1.37-.54L802.94,201c-.38-2.44-.7-4.85-1-7.2v0L745.65,137.5c.55-.11,1.09-.21,1.65-.27l54.36,54.35c-.17-1.27-.32-2.53-.46-3.76a3.07,3.07,0,0,1,.14-.45c.32-.47.61-1,.88-1.43L753,136.73c.62,0,1.24-.06,1.85-.07l48,48a23.47,23.47,0,0,0,1.72-4.49l-43.35-43.35c.7.06,1.41.12,2.12.2L805,178.65a17.66,17.66,0,0,0,0-6.15h0L771,138.43c.88.22,1.76.46,2.62.7l30.8,30.8a19.25,19.25,0,0,0-5.39-8.08,3.44,3.44,0,0,1-.27-.27c-.1-.08-.18-.18-.27-.26h0c-.1-.08-.18-.18-.27-.26s-.17-.19-.26-.27h0a3.31,3.31,0,0,0-.26-.27l-.27-.27c-.1-.08-.18-.18-.27-.26h0c-.1-.08-.18-.18-.27-.26s-.16-.19-.26-.27h0a3.25,3.25,0,0,0-.26-.27l-.27-.27-.27-.26h0l-.27-.26h0c-.09-.08-.16-.18-.26-.26h0l-.26-.27h0l-.26-.27-.27-.26h0l-.27-.26h0c-.09-.08-.16-.18-.26-.26h0l-.26-.27-.27-.27c-.09-.08-.17-.17-.27-.25v0c-.09-.08-.17-.17-.27-.25v0c-.09-.08-.16-.17-.25-.25h0c-.08-.1-.16-.18-.25-.28l-.27-.27c-.1-.08-.18-.17-.27-.25v0l-.28-.25a3.32,3.32,0,0,0-.25-.27h0a2.16,2.16,0,0,0-.25-.27l-.27-.27-.27-.26h0l-.27-.26h0c-.1-.09-.17-.18-.26-.26h0l-.26-.27h0l-.26-.27c-.1-.08-.18-.18-.27-.26h0c-.1-.08-.18-.18-.27-.26h0a3.19,3.19,0,0,1-.26-.26h0a2.2,2.2,0,0,0-.26-.27h0a3.31,3.31,0,0,0-.26-.27l-.27-.26h0c-.1-.08-.18-.18-.27-.26h0a3.19,3.19,0,0,1-.26-.26h0a2.2,2.2,0,0,0-.26-.27l-.27-.27c-.09-.08-.17-.18-.27-.26h0c-.09-.08-.17-.18-.27-.26h0c-.09-.08-.18-.18-.26-.26h0a2.2,2.2,0,0,0-.26-.27h0l-.26-.27c-.09-.08-.17-.17-.27-.27l-.27-.26h0a3.07,3.07,0,0,1-.25-.26h0a2.2,2.2,0,0,0-.26-.27h0l-.26-.27c-.09-.08-.17-.17-.27-.27s-.17-.17-.27-.25v0c-.09-.08-.17-.17-.25-.25h0a2.16,2.16,0,0,0-.25-.27h0c-.08-.1-.16-.18-.25-.28a2.29,2.29,0,0,1-.27-.27c-.1-.08-.18-.17-.27-.25v0a3.13,3.13,0,0,1-.26-.25h0a2.16,2.16,0,0,0-.25-.27h0a3.2,3.2,0,0,0-.25-.27,3.44,3.44,0,0,1-.27-.27l-.27-.26h0c-.1-.09-.18-.18-.26-.26h0a3.38,3.38,0,0,0-.26-.27h0l-.26-.27a3.44,3.44,0,0,1-.27-.27c-.1-.08-.18-.18-.27-.26h0a3.19,3.19,0,0,1-.26-.26h0c-.1-.09-.16-.19-.26-.27h0l-.26-.27c-.09-.08-.18-.18-.27-.27l-.27-.26h0a3.19,3.19,0,0,1-.26-.26h0c-.1-.09-.16-.19-.26-.27h0l-.26-.27-.27-.27c-.09-.08-.17-.18-.27-.26h0c-.09-.08-.17-.18-.26-.26h0a2.2,2.2,0,0,0-.26-.27h0l-.26-.27c-.09-.08-.17-.17-.27-.27s-.17-.17-.27-.25v0a3.07,3.07,0,0,1-.25-.26h0l-.25-.27h0l-.26-.27-.27-.27c-.09-.08-.17-.17-.27-.25v0c-.09-.08-.17-.17-.25-.25h0a3.32,3.32,0,0,0-.25-.27h0a3.2,3.2,0,0,0-.25-.27c-.1-.09-.18-.18-.27-.27l-.27-.26v0a3.13,3.13,0,0,1-.26-.25s0,0,0,0-.17-.17-.26-.25h0a3.2,3.2,0,0,0-.25-.27c-14.23-13.14-30-19.81-47-19.81a66,66,0,0,0-8.49.55c-14,1.84-20.93,9.81-21.16,24.35-.37,22.87-5.49,42.4-15.64,59.75-2.6,4.41-5.17,8.84-7.79,13.34-7.19,12.36-14.63,25.15-22.23,37.47-7,11.31-14.3,22.73-21.4,33.76-13.1,20.41-26.65,41.52-38.76,63.15-30.3,54.07-52,114.88-66.37,185.89-7.79,38.52-15.43,79.67-16,122-.08,5.82-.06,11.59-.05,17.59-.69-.15-1.38-.28-2.05-.44l-5-1.13c-15.53-3.47-31.58-7-48.47-7a102.35,102.35,0,0,0-20.26,1.92c-24.52,4.86-46.53,12.43-65.41,22.48l-10.63,5.65,6.14,10.36c7.73,13,14.92,24.37,22,34.69,1.5,2.18,3,4.3,4.48,6.38,2.61,3.65,5.2,7.17,7.81,10.6a271.45,271.45,0,0,0,23.74,27.3l.27.27.27.27.27.27.27.27.27.26.26.27a2.29,2.29,0,0,1,.27.27l.27.27.27.27.8.8.27.27.27.27.27.27.8.8.27.27.27.25a3.38,3.38,0,0,0,.26.27l.27.27.54.54a9.93,9.93,0,0,1,.53.53l.27.27.79.8.27.27c.1.1.19.18.27.27l.27.27.27.27c.09.08.18.18.28.26l.25.27.27.27.27.27.27.27.53.53a2.29,2.29,0,0,1,.27.27l.27.27.27.27.27.27.8.8c.09.09.18.17.27.27l.27.27.27.25c.08.1.18.18.26.28l.54.54.26.25.27.27.27.27.27.27.27.27.27.27.25.26c.1.1.19.18.27.27l.28.27.79.8.27.27.27.27.27.27.27.27.27.26.26.27.27.27.27.27.27.26.26.27.54.54.27.27.27.26.26.27.81.81.27.27.26.25.27.27c.09.1.19.18.27.28l.27.27.27.27.26.25.27.27c.09.1.19.18.27.27l.54.54.27.27.52.53.28.27c.09.08.17.18.27.26a212.12,212.12,0,0,0,43.69,34q5.24,3,10.59,5.81l-78-78c-1.63-2.22-3.27-4.51-4.91-6.82l86.83,86.83c3.91,2,7.86,3.82,11.82,5.6L404.84,746.58c-1.08-1.72-2.19-3.45-3.3-5.22l118,118q5.29,2.31,10.63,4.44l-138.3-138.3-2.78-4.71L533.37,865.08q5,1.95,10,3.76L389,714.48l1.25-.66L546.35,869.94q4.83,1.75,9.62,3.39L394.28,711.66l1.26-.66L558.86,874.32c2.27.77,4.54,1.54,6.8,2.28.85.29,1.7.57,2.54.87L399.63,708.89c.42-.22.86-.42,1.27-.64L571.16,878.5q5.07,1.75,9.89,3.69l-176-176c.43-.21.87-.4,1.32-.6L584.24,883.47q5.7,2.34,11.06,4.86L410.64,703.67l1.32-.6,187,187c4.62,2.28,9.08,4.66,13.38,7.18l-196-196c.46-.17.91-.36,1.37-.55L617.17,900.16q9.36,5.72,18.24,12L422.23,699l1.4-.52L642.7,917.57q9.79,7.39,19,15.58,8.29,9.35,15.94,19.37a238.66,238.66,0,0,1,26.17,42.41l20.2,20.2c1.68,2.26,3.31,4.53,4.92,6.83l-23.48-23.49q2.38,5.29,4.43,10.65l30.28,30.27q1.33,2.27,2.63,4.55L711,1012.17c.47,1.29.92,2.57,1.35,3.85.62,1.84,1.2,3.64,1.73,5.44l50,50,2-3.18c.14-.21.27-.43.41-.65l-20-19.95c-.24-.88-.49-1.76-.74-2.64l21.43,21.42c.79-1.27,1.58-2.56,2.35-3.84l-26.72-26.72q-.51-1.5-1.05-3l28.5,28.5c.77-1.29,1.55-2.6,2.31-3.9l-35-35c-.5-1.15-1-2.31-1.54-3.46l37.22,37.23q1.16-2,2.27-3.93l-45.65-45.68c-.77-1.41-1.56-2.85-2.38-4.28l48.74,48.74c.74-1.33,1.49-2.66,2.22-4l-61.31-61.3c-1.47-2.16-3-4.33-4.58-6.49l66.55,66.55q1.11-2,2.19-4l-347-347c.49-.15,1-.32,1.45-.47L782,1040.63c.72-1.35,1.43-2.7,2.12-4.07L440.61,693c.49-.15,1-.3,1.49-.43L784.8,1035.3c.7-1.38,1.39-2.75,2.06-4.13L447,691.31l1.53-.39,339,339q1-2.1,2-4.18l-336-336,1.58-.34,335.07,335.08c.66-1.4,1.32-2.82,2-4.23l-331.93-332c.53-.1,1-.23,1.57-.33l331,331q1-2.13,1.94-4.27L467,687c.57-.08,1.14-.13,1.7-.21l326.52,326.52c.63-1.43,1.25-2.89,1.88-4.34L474.37,686.2l1.79-.12,321.53,321.53c.63-1.46,1.23-2.92,1.83-4.38L482.17,685.89h1.94l316,316q.9-2.22,1.77-4.44L490.56,686.15l2.05.14L802.39,996.07c.56-1.5,1.13-3,1.69-4.52L499.52,687c.73.08,1.46.17,2.19.28L804.6,990.16q.85-2.26,1.65-4.56L509.07,688.42c.77.13,1.55.27,2.32.42L806.75,984.2c.56-1.53,1.08-3.07,1.6-4.61L519.11,690.35l2.43.51L808.83,978.15c.53-1.55,1-3.11,1.53-4.67L529.49,692.61,531,693l1,.21L810.82,972c.52-1.57,1-3.15,1.48-4.73L538.11,693.11v-1.92L812.74,965.84c.49-1.6,1-3.19,1.42-4.79L538.11,685v-1.9L814.58,959.55q.69-2.41,1.35-4.85L538.16,676.92c0-.62,0-1.24,0-1.86L816.34,953.18c.43-1.63.86-3.27,1.27-4.92L538.35,669c0-.62,0-1.23.08-1.84L818,946.72c.42-1.66.82-3.33,1.21-5L538.7,661.21c0-.59.07-1.19.11-1.79L819.57,940.18q.58-2.53,1.14-5.07L539.17,653.58c.05-.6.1-1.18.14-1.78L821,933.54c.31-1.38.6-2.77.88-4.17.07-.32.14-.65.19-1L539.77,646.06c.05-.58.11-1.18.16-1.76L822.42,926.8q.52-2.62,1-5.24L540.47,638.64l.18-1.73,283,283q.45-2.7.84-5.37L585.16,675.21l-.61.08c0-.23,0-.45,0-.68l-43.29-43.29c.07-.57.14-1.13.2-1.72l43.12,43.12c0-2,.08-4,.13-6.06L542.16,624.1c.08-.57.14-1.13.22-1.7l42.41,42.41c.07-2,.15-4,.25-6L543.14,617c.08-.57.15-1.12.23-1.69L585.13,657c.09-2,.22-3.9.34-5.85l-41.31-41.31c.1-.55.18-1.1.26-1.66l41.18,41.18c.14-1.92.29-3.85.44-5.77l-40.77-40.76c.08-.56.18-1.1.27-1.65l40.66,40.65c.16-1.89.35-3.78.54-5.65h0l-40.32-40.31c.1-.54.19-1.09.29-1.63l40.2,40.21c.21-1.87.42-3.71.65-5.56L547.64,589c.09-.54.19-1.09.28-1.63l39.85,39.83c.23-1.83.46-3.66.71-5.49l-39.6-39.6c.1-.52.21-1.06.3-1.6L588.73,620c.25-1.8.51-3.59.81-5.39l-39.37-39.37c.09-.54.2-1.07.31-1.61L589.79,613q.44-2.65.91-5.3l-39.22-39.22c.11-.54.21-1.07.31-1.61L591,606.05c.11-.66.23-1.31.36-2,.2-1.1.4-2.18.62-3.26l-39.14-39.14c.1-.53.21-1.06.32-1.6l39.13,39.13q.48-2.6,1-5.18l-39.11-39.11s0,0,0,0c.11-.53.22-1,.33-1.55l39.1,39.1c.34-1.72.7-3.44,1.07-5.14l-39.09-39.09c.11-.52.21-1.05.34-1.58L595,585.72q.53-2.57,1.11-5.1L557,541.51c.11-.53.23-1,.35-1.56l39.11,39.12q.56-2.54,1.15-5.06L558.51,534.9c.12-.52.23-1,.35-1.56L598,572.45q.57-2.51,1.19-5L560,528.28c.12-.51.26-1,.38-1.52l39.16,39.15c.4-1.66.81-3.33,1.23-5l-39.17-39.17c.13-.52.26-1,.38-1.53l39.18,39.18c.42-1.65.85-3.28,1.28-4.92l-39.22-39.24c.12-.51.26-1,.39-1.51L602.87,553c.43-1.64.86-3.26,1.32-4.89l-39.26-39.26c.14-.5.27-1,.41-1.51l39.27,39.27c.45-1.62.89-3.24,1.35-4.85l-39.31-39.32c.13-.5.28-1,.42-1.48l39.33,39.33c.46-1.6.93-3.21,1.4-4.8l-39.35-39.36q.19-.75.42-1.5L608.25,534c.47-1.59,1-3.17,1.45-4.76l-39.44-39.43c.15-.49.3-1,.44-1.46l39.44,39.43q.74-2.37,1.49-4.71l-39.48-39.48.45-1.48,39.5,39.51c.5-1.57,1-3.12,1.53-4.68l-39.56-39.56c.15-.49.31-1,.46-1.45l39.57,39.58c.52-1.56,1-3.1,1.57-4.64l-39.61-39.61c.15-.49.31-1,.46-1.45l39.63,39.63,1.62-4.6-39.7-39.68c.16-.47.34-1,.5-1.42l39.7,39.69c.54-1.52,1.08-3,1.65-4.55l-39.75-39.75c.16-.47.32-1,.48-1.42l39.78,39.78c.54-1.53,1.11-3,1.68-4.53l-39.82-39.82c.18-.47.35-.93.51-1.41l39.83,39.83q.86-2.25,1.72-4.49L584.48,447.2c.18-.47.34-.93.51-1.4l39.9,39.91c.58-1.49,1.17-3,1.76-4.45l-39.94-39.95c.18-.46.35-.91.54-1.37l40,40q.88-2.22,1.8-4.41l-40-40,.52-1.38,40.05,40c.58-1.46,1.2-2.93,1.83-4.39L591.34,429.7c.17-.45.36-.9.55-1.36L632,468.43c.59-1.45,1.23-2.89,1.86-4.34L593.72,424c.18-.44.36-.9.55-1.35l40.15,40.16c.63-1.44,1.26-2.87,1.92-4.3l-40.19-40.19.59-1.32,40.2,40.19c.62-1.43,1.28-2.85,1.93-4.27l-40.23-40.23c.19-.45.38-.9.58-1.33l40.26,40.26c.65-1.4,1.31-2.81,2-4.21l-40.29-40.29c.2-.44.4-.88.61-1.32l40.29,40.29q1-2.08,2-4.17l-40.34-40.35.61-1.31,40.37,40.37q1-2.08,2.06-4.15l-40.39-40.38c.2-.42.42-.85.64-1.27l40.38,40.38c.68-1.38,1.38-2.74,2.1-4.11l-40.44-40.44.63-1.28,40.46,40.45q1-2.06,2.12-4.08l-40.47-40.46c.22-.41.45-.83.66-1.25L653,424.46c.7-1.35,1.43-2.7,2.15-4L614.6,379.9l.68-1.24,40.52,40.52q1.08-2,2.19-4l-40.52-40.52.68-1.23,40.52,40.52c.74-1.32,1.48-2.65,2.24-4L620.34,369.4a3.84,3.84,0,0,1,.21-.4c.15-.28.31-.55.48-.84l40.57,40.58q1.11-2,2.27-3.92l-40.6-40.6L624,363l40.6,40.6q1.14-2,2.3-3.91l-40.63-40.62c.23-.41.48-.82.71-1.21l40.64,40.64c.16-.27.32-.55.49-.82.6-1,1.23-2,1.85-3L629.25,354l.7-1.21,40.69,40.7c.79-1.27,1.59-2.56,2.4-3.83l-40.75-40.75c.24-.39.47-.8.71-1.19l40.77,40.77c.81-1.28,1.61-2.53,2.43-3.79l-40.84-40.84c.23-.4.47-.79.71-1.19L677,383.5c.81-1.26,1.62-2.5,2.44-3.76l-40.95-40.95c.24-.4.49-.79.73-1.18l41,41c.82-1.24,1.65-2.49,2.49-3.73l-41.08-41.08c.25-.39.49-.78.73-1.17l41.12,41.11c.81-1.23,1.65-2.47,2.5-3.7l-41.22-41.23c.24-.39.48-.78.74-1.17l41.25,41.26q1.26-1.85,2.53-3.68l-41.37-41.38c.24-.39.48-.79.74-1.16L690,364.07c.85-1.22,1.69-2.42,2.57-3.64L651,318.86c.25-.4.5-.77.74-1.17l41.62,41.62c.83-1.22,1.7-2.43,2.56-3.65l-41.76-41.75c.26-.39.5-.79.74-1.16l41.82,41.8c.84-1.22,1.71-2.42,2.58-3.62l-42-42c.24-.39.5-.78.74-1.16l42,42c.85-1.22,1.72-2.42,2.6-3.63L660.5,304c.25-.38.49-.77.75-1.16l42.24,42.24c.86-1.22,1.73-2.41,2.59-3.61l-42.41-42.42c.26-.38.5-.77.76-1.16l42.45,42.47c.88-1.21,1.74-2.41,2.62-3.6l-42.67-42.65c.26-.4.5-.78.76-1.17l42.71,42.71c.88-1.2,1.74-2.4,2.61-3.59L670,289.15c.25-.38.5-.77.74-1.16l43,43c.85-1.19,1.73-2.39,2.61-3.6l-43.18-43.18c.24-.39.5-.78.74-1.18l43.25,43.26c.85-1.21,1.73-2.4,2.6-3.61L676.28,279.2c.25-.39.49-.78.73-1.17l43.52,43.52c.88-1.19,1.75-2.4,2.61-3.6L679.39,274.2l.75-1.18,43.8,43.81c.87-1.2,1.73-2.39,2.6-3.61l-44-44.05c.24-.39.49-.78.73-1.19l44.11,44.12c.87-1.21,1.72-2.41,2.59-3.61l-44.36-44.36c.24-.41.48-.8.73-1.19l44.42,44.42,1.82-2.58c.39,1.87.79,3.75,1.2,5.61l24.13,24.14-.79,1.11-22.79-22.79c.61,2.69,1.23,5.4,1.9,8.09l18.3,18.31-.81,1.1-16.9-16.9c.69,2.79,1.39,5.56,2.12,8.33L751.08,344l-.81,1.11-10.69-10.68c.76,2.87,1.55,5.72,2.37,8.57l5.71,5.71c-.26.38-.53.74-.8,1.11l-4.14-4.14c.85,3,1.75,6,2.66,9a274.59,274.59,0,0,0,57,102l1.09,1.23c9.38,10.59,18.91,21.35,29.13,31.61l.27.27.27.26a2.29,2.29,0,0,0,.27.27,2.29,2.29,0,0,0,.27.27l.26.27c.1.1.19.18.27.27a3.44,3.44,0,0,1,.27.27c.1.08.18.18.27.26a2.29,2.29,0,0,0,.27.27c.08.1.18.18.26.27l.27.27c.09.1.19.18.27.27l.27.26.27.27a3.44,3.44,0,0,0,.27.27l.26.27c.09.08.17.18.27.27s.17.18.27.26a2.29,2.29,0,0,0,.27.27c.08.09.18.17.26.27a3.44,3.44,0,0,1,.27.27l.27.27.27.27.25.26a2.29,2.29,0,0,1,.27.27,3.57,3.57,0,0,1,.28.27,3.2,3.2,0,0,0,.27.25,1.72,1.72,0,0,0,.27.27,3.58,3.58,0,0,0,.27.29,3.13,3.13,0,0,1,.25.26,2.29,2.29,0,0,1,.27.27l.27.27a2.29,2.29,0,0,1,.27.27l.27.25.26.27.27.27.27.27.27.26a3358679593021.05,3358679593021.05,0,0,1,.54.54c.08.1.18.18.26.27a3358679592844.82,3358679592844.82,0,0,0,.54.54,3.19,3.19,0,0,1,.26.26l.27.27.27.27.27.27c.09.08.18.18.27.27l.27.26.26.27a3.44,3.44,0,0,1,.27.27l.27.27c.09.08.17.18.27.27l.27.27c.08.08.17.16.26.26a3358679592844.82,3358679592844.82,0,0,0,.54.54l.27.26a3.44,3.44,0,0,0,.27.27,2.29,2.29,0,0,0,.27.27c.08.09.17.17.25.27a3.5,3.5,0,0,1,.28.27l.27.27a3.32,3.32,0,0,0,.27.25,1.72,1.72,0,0,0,.27.27c.08.1.17.18.25.28a3358679593021.75,3358679593021.75,0,0,1,.54.54c.1.08.18.17.27.25l.27.27a2.37,2.37,0,0,0,.28.27,3.2,3.2,0,0,0,.25.27c.1.09.18.18.27.27s.18.18.27.27l.26.26c.09.1.19.18.27.27s.19.18.27.27a1119559864401,1119559864401,0,0,1,.54.54l.26.26.27.27c.09.1.19.18.27.27s.17.18.27.26l.27.27.27.27c.08.09.18.17.26.27l.27.27.27.27c.09.08.17.18.27.26a2.29,2.29,0,0,0,.27.27l.26.27.27.27a3.44,3.44,0,0,1,.27.27l.27.26.27.27a3.44,3.44,0,0,0,.27.27c.08.09.17.17.25.27a2.29,2.29,0,0,1,.27.27,3.5,3.5,0,0,1,.28.27l.25.25a257,257,0,0,0,33.17,28.59,296.61,296.61,0,0,1,31.07,25.74c14.15,15.13,27.23,33.2,39.91,55.13,6.14,10.62,10.56,23.1,14.83,35.16l.11.31q1.58,4.47,3.19,8.92a138.34,138.34,0,0,1,7.46,63.3c-.16,1.5-.42,3.15-.71,5.07-.17,1.08-.34,2.23-.53,3.53l-3,20.65.34-.15-.07.4.33-.13-.06.4.33-.15-.06.42.33-.15-.06.42.33-.15-.07.42.34-.14-.07.4.33-.13-.06.4.33-.15-.06.42.33-.15-.06.42.33-.15-.07.42.34-.15-.07.41.32-.14-.05.41.33-.15-.06.42.33-.15-.06.42.33-.15-.07.42.34-.15-.07.41.32-.14,0,.41.32-.15-.05.42.32-.15-.05.42.32-.15-.06.42.33-.15-.06.41.34-.14-.07.41.32-.15,0,.42.32-.15,0,.42.32-.15-.06.42.33-.15-.06.4.33-.13-.06.41.32-.15,0,.42.32-.15,0,.42.32-.15-.07.42.34-.15-.07.4.34-.13-.07.4.33-.14-.06.41.33-.14-.05.41.32-.14-.07.42.34-.15-.07.42.34-.15-.07.4.33-.15-.06.42.33-.15-.06.42.33-.15-.07.42.34-.15-.07.42.34-.14-.07.4.33-.13-.06.4.33-.15-.06.42.33-.15-.07.42.34-.15-.07.42.34-.15-.07.41.32-.14-.05.41.33-.15-.06.42.33-.15-.06.42.33-.15-.07.42.34-.15-.07.41.32-.14,0,.41.32-.15-.05.42.32-.15-.05.42.32-.15-.06.42.33-.15-.06.41.32-.14,0,.41.32-.15,0,.42.32-.15-.05.42.32-.15-.06.42.33-.15-.06.4.32-.13,0,.41.32-.15,0,.42.32-.15,0,.42.32-.15-.07.42.34-.15-.07.4.33-.13-.06.4.33-.15-.06.42.33-.14,0,.41.32-.14-.07.41.34-.14-.07.4.33-.13-.06.4.33-.15-.06.42.33-.15-.06.42.33-.15-.07.42.34-.15-.07.41.33-.13-.06.4.33-.15-.06.42.33-.15-.06.42.33-.15-.07.42.34-.15-.07.41.32-.14-.05.41.32-.15-.05.42.32-.15,0,.42.33-.15-.07.42.34-.15-.07.41.32-.14,0,.41.32-.15-.05.42.32-.15-.05.42.32-.15-.06.42.33-.15-.06.41.32-.14,0,.41.32-.15,0,.42.32-.15,0,.42.32-.15-.07.42.34-.15-.06.4.32-.13-.05.4.32-.14,0,.42.32-.15,0,.42.32-.15-.07.42,8.66-3.86-4.21-4.2.24-1.67,5.28,5.28,4.3-1.91-8.79-8.79.24-1.67,9.87,9.87,3.46-1.54.87-.34-13.4-13.4.24-1.68,14.56,14.58a17.07,17.07,0,0,0,4.09-2.14l-17.85-17.83c0-.1,0-.21,0-.29.08-.47.15-.93.22-1.38l18.64,18.65a11.15,11.15,0,0,0,1.81-2l1-1.38-20.82-20.83c.07-.58.13-1.16.18-1.73L1042,772.89c.89-1.18,1.78-2.35,2.7-3.51l-23.78-23.79.08-1.82,24.54,24.54q1.34-1.77,2.72-3.49l-27.19-27.19c0-.65,0-1.3,0-2l28.06,28.06,1.23-1.57,1.51-1.91-31.1-31.09c-.06-.69-.1-1.38-.16-2.07l32.09,32.09,2.72-3.48-35.6-35.6c-.09-.75-.2-1.49-.32-2.23l36.76,36.76c.89-1.16,1.8-2.34,2.68-3.53l-40.83-40.83c-.18-.83-.36-1.65-.55-2.46L1059.71,750c.88-1.18,1.78-2.37,2.64-3.57l-47.09-47.09c-.28-.93-.58-1.87-.89-2.8l48.79,48.78c.87-1.2,1.73-2.42,2.57-3.64L1011,687c-.35-1-.72-2-1.07-3l56.54,56.55c.84-1.23,1.68-2.47,2.49-3.73l-62.48-62.48c-.38-1-.74-2-1.12-3l64.34,64.34c.81-1.25,1.61-2.54,2.38-3.82l-70.79-70.78q-.74-1.73-1.5-3.42l73,73c.63-1.06,1.24-2.15,1.83-3.23l.41-.73-82-82c-.95-1.61-1.89-3.19-2.84-4.74l85.54,85.54q1.08-2,2.1-4.11l-99.06-99.08q-2.38-3.4-4.78-6.68l104.46,104.47c.68-1.39,1.34-2.81,2-4.24L806,441.43c-1-1.62-2-3.24-3-4.89l278,277.94q.93-2.16,1.82-4.38L795.4,422.68c-.67-1.29-1.33-2.58-2-3.88l289.91,289.91c.58-1.5,1.15-3,1.67-4.53l-297-297c-.49-1.13-1-2.26-1.49-3.4l299,299c.53-1.56,1-3.11,1.52-4.7L782.4,393.43c-.39-1-.8-2-1.17-3.08l306.25,306.27q.74-2.39,1.38-4.84L778,380.9c-.31-.93-.61-1.88-.9-2.82l312.19,312.19q.64-2.46,1.23-5L774.4,369.21c-.27-.91-.54-1.82-.8-2.72l317.25,317.25c.38-1.69.73-3.41,1.07-5.14L771.21,357.89c-.23-.87-.48-1.74-.71-2.61L1092.22,677c.34-1.74.63-3.5.92-5.28L768.36,346.92c-.21-.83-.41-1.69-.63-2.52L1093.39,670c.27-1.8.53-3.61.76-5.45L765.81,336.26c-.19-.83-.36-1.65-.55-2.46l329.09,329.09c.23-1.85.42-3.73.6-5.62L691.63,254l.71-1.2,402.77,402.76c.18-1.9.31-3.82.45-5.76L694.64,248.85c.23-.41.48-.81.71-1.2L1095.66,648c0-.16,0-.32,0-.48.1-1.83.19-3.64.26-5.44L697.64,243.73c.23-.41.46-.8.71-1.21L1096,640.19c.08-2,.13-4.06.16-6L700.63,238.6c.23-.4.48-.81.71-1.22ZM668.63,935.39c-2.14-1.56-4.3-3.08-6.49-4.58L428.2,696.87c.47-.17,1-.31,1.45-.48ZM928.15,569.76q-2.25-1.69-4.56-3.32l-2.5-1.84L826.3,469.82c-2.38-2.92-4.72-5.88-7-8.88Zm-166.91-240-.79,1.11L688.6,259c.24-.39.47-.79.72-1.19Z"/><g id="a3875b36-7c35-4a54-be2e-d89b88611b6c" data-name="outer lines(split)"><path d="M422.4,772.26c-1.63-2.22-3.27-4.51-4.91-6.82l86.83,86.83c-1.31-.65-2.62-1.33-3.92-2Z"/><path d="M516.14,857.87,404.84,746.58c-1.08-1.72-2.19-3.45-3.3-5.22l118,118Z"/><path d="M530.21,863.83l-138.3-138.3-2.78-4.71L533.37,865.08Z"/><path d="M543.35,868.84,389,714.48l1.25-.66L546.35,869.94C545.35,869.59,544.35,869.22,543.35,868.84Z"/><path d="M556,873.33,394.28,711.66l1.26-.66L558.86,874.32Z"/><path d="M568.2,877.47,399.63,708.89c.42-.22.86-.42,1.27-.64L571.16,878.5C570.19,878.15,569.2,877.79,568.2,877.47Z"/><path d="M581.05,882.19l-176-176c.43-.21.87-.4,1.32-.6L584.24,883.47Z"/><path d="M584.56,674.61l-43.29-43.29c.07-.57.14-1.13.2-1.72l43.12,43.12C584.58,673.36,584.56,674,584.56,674.61Z"/><path d="M584.72,666.66,542.16,624.1c.08-.57.14-1.13.22-1.7l42.41,42.41C584.76,665.43,584.75,666.05,584.72,666.66Z"/><path d="M585,658.85,543.14,617c.08-.57.15-1.12.23-1.69L585.13,657Q585.07,657.94,585,658.85Z"/><path d="M585.47,651.17l-41.31-41.31c.1-.55.18-1.1.26-1.66l41.18,41.18C585.55,650,585.51,650.57,585.47,651.17Z"/><path d="M586,643.61l-40.77-40.76c.08-.56.18-1.1.27-1.65l40.66,40.65C586.14,642.43,586.09,643,586,643.61Z"/><path d="M586.74,636.19l-40.32-40.31c.1-.54.19-1.09.29-1.63l40.2,40.21C586.86,635,586.79,635.61,586.74,636.19Z"/><path d="M587.56,628.9,547.64,589c.09-.54.19-1.09.28-1.63l39.85,39.83v0C587.69,627.77,587.62,628.33,587.56,628.9Z"/><path d="M588.48,621.69l-39.6-39.6c.1-.52.21-1.06.3-1.6L588.73,620C588.65,620.59,588.56,621.14,588.48,621.69Z"/><path d="M589.54,614.64l-39.37-39.37c.09-.54.2-1.07.31-1.61L589.79,613C589.7,613.54,589.62,614.08,589.54,614.64Z"/><path d="M590.7,607.69l-39.22-39.22c.11-.54.21-1.07.31-1.61L591,606.05C590.88,606.59,590.78,607.13,590.7,607.69Z"/><path d="M592,600.82l-39.14-39.14c.1-.53.21-1.06.32-1.6l39.13,39.13C592.16,599.74,592.05,600.28,592,600.82Z"/><path d="M593.28,594l-39.11-39.11s0,0,0,0c.11-.53.22-1,.33-1.55l39.1,39.1Z"/><path d="M594.68,587.3l-39.09-39.09c.11-.52.21-1.05.34-1.58L595,585.72C594.89,586.25,594.78,586.77,594.68,587.3Z"/><path d="M596.12,580.62,557,541.51c.11-.53.23-1,.35-1.56l39.11,39.12C596.34,579.58,596.23,580.09,596.12,580.62Z"/><path d="M597.62,574,558.51,534.9c.12-.52.23-1,.35-1.56L598,572.45C597.85,573,597.73,573.5,597.62,574Z"/><path d="M595.3,888.33,410.64,703.67l1.32-.6,187,187Q597.16,889.2,595.3,888.33Z"/><path d="M599.18,567.45,560,528.28c.12-.51.26-1,.38-1.52l39.16,39.15C599.42,566.42,599.3,566.94,599.18,567.45Z"/><path d="M600.79,560.94l-39.17-39.17c.13-.52.26-1,.38-1.53l39.18,39.18C601,559.92,600.92,560.44,600.79,560.94Z"/><path d="M602.46,554.5l-39.22-39.24c.12-.51.26-1,.39-1.51L602.87,553C602.73,553.49,602.6,554,602.46,554.5Z"/><path d="M604.19,548.1l-39.26-39.26c.14-.5.27-1,.41-1.51l39.27,39.27C604.46,547.1,604.33,547.6,604.19,548.1Z"/><path d="M606,541.75l-39.31-39.32c.13-.5.28-1,.42-1.48l39.33,39.33C606.25,540.76,606.11,541.26,606,541.75Z"/><path d="M607.8,535.48l-39.35-39.36q.19-.75.42-1.5L608.25,534C608.09,534.5,608,535,607.8,535.48Z"/><path d="M609.7,529.24l-39.44-39.43c.15-.49.3-1,.44-1.46l39.44,39.43C610,528.27,609.84,528.76,609.7,529.24Z"/><path d="M611.63,523.07l-39.48-39.48.45-1.48,39.5,39.51C611.94,522.11,611.78,522.58,611.63,523.07Z"/><path d="M613.63,516.94l-39.56-39.56c.15-.49.31-1,.46-1.45l39.57,39.58C613.94,516,613.78,516.47,613.63,516.94Z"/><path d="M615.67,510.87l-39.61-39.61c.15-.49.31-1,.46-1.45l39.63,39.63C616,509.91,615.82,510.4,615.67,510.87Z"/><path d="M612.37,897.28l-196-196c.46-.17.91-.36,1.37-.55L617.17,900.16c-1.17-.73-2.35-1.44-3.53-2.14C613.22,897.78,612.81,897.52,612.37,897.28Z"/><path d="M617.77,504.84l-39.7-39.68c.16-.47.34-1,.5-1.42l39.7,39.69C618.09,503.89,617.93,504.37,617.77,504.84Z"/><path d="M619.92,498.88l-39.75-39.75c.16-.47.32-1,.48-1.42l39.78,39.78C620.24,497.94,620.08,498.42,619.92,498.88Z"/><path d="M622.11,493l-39.82-39.82c.18-.47.35-.93.51-1.41l39.83,39.83C622.45,492,622.28,492.48,622.11,493Z"/><path d="M624.35,487.07,584.48,447.2c.18-.47.34-.93.51-1.4l39.9,39.91C624.7,486.16,624.53,486.62,624.35,487.07Z"/><path d="M626.65,481.26l-39.94-39.95c.18-.46.35-.91.54-1.37l40,40C627,480.36,626.83,480.8,626.65,481.26Z"/><path d="M629,475.49l-40-40,.52-1.38,40.05,40C629.37,474.6,629.18,475,629,475.49Z"/><path d="M631.4,469.76,591.34,429.7c.17-.45.36-.9.55-1.36L632,468.43C631.77,468.88,631.58,469.32,631.4,469.76Z"/><path d="M633.84,464.09,593.72,424c.18-.44.36-.9.55-1.35l40.15,40.16C634.22,463.21,634,463.64,633.84,464.09Z"/><path d="M636.34,458.47l-40.19-40.19.59-1.32,40.2,40.19Q636.61,457.81,636.34,458.47Z"/><path d="M638.87,452.88l-40.23-40.23c.19-.45.38-.9.58-1.33l40.26,40.26C639.28,452,639.08,452.45,638.87,452.88Z"/><path d="M641.47,447.37l-40.29-40.29c.2-.44.4-.88.61-1.32l40.29,40.29C641.87,446.49,641.66,446.93,641.47,447.37Z"/><path d="M635.41,912.2,422.23,699l1.4-.52L642.7,917.57C640.29,915.74,637.86,914,635.41,912.2Z"/><path d="M644.1,441.88l-40.34-40.35.61-1.31,40.37,40.37C644.51,441,644.31,441.44,644.1,441.88Z"/><path d="M646.8,436.44l-40.39-40.38c.2-.42.42-.85.64-1.27l40.38,40.38C647.2,435.59,647,436,646.8,436.44Z"/><path d="M649.53,431.06l-40.44-40.44.63-1.28,40.46,40.45C650,430.21,649.73,430.64,649.53,431.06Z"/><path d="M652.3,425.71l-40.47-40.46c.22-.41.45-.83.66-1.25L653,424.46C652.73,424.88,652.51,425.29,652.3,425.71Z"/><path d="M655.11,420.41,614.6,379.9l.68-1.24,40.52,40.52C655.56,419.58,655.34,420,655.11,420.41Z"/><path d="M658,415.16l-40.52-40.52.68-1.23,40.52,40.52C658.45,414.34,658.22,414.76,658,415.16Z"/><path d="M660.91,410,620.34,369.4a3.84,3.84,0,0,1,.21-.4c.15-.28.31-.55.48-.84l40.57,40.58C661.37,409.14,661.13,409.55,660.91,410Z"/><path d="M663.87,404.82l-40.6-40.6L624,363l40.6,40.6C664.33,404,664.09,404.41,663.87,404.82Z"/><path d="M666.87,399.69l-40.63-40.62c.23-.41.48-.82.71-1.21l40.64,40.64C667.35,398.9,667.12,399.29,666.87,399.69Z"/><path d="M662.14,930.81,428.2,696.87c.47-.17,1-.31,1.45-.48l239,239C666.49,933.83,664.33,932.31,662.14,930.81Z"/><path d="M669.93,394.64,629.25,354l.7-1.21,40.69,40.7Z"/><path d="M673,389.62l-40.75-40.75c.24-.39.47-.8.71-1.19l40.77,40.77C673.52,388.84,673.28,389.23,673,389.62Z"/><path d="M676.2,384.66l-40.84-40.84c.23-.4.47-.79.71-1.19L677,383.5C676.69,383.88,676.45,384.27,676.2,384.66Z"/><path d="M679.39,379.74l-40.95-40.95c.24-.4.49-.79.73-1.18l41,41C679.89,379,679.64,379.36,679.39,379.74Z"/><path d="M682.64,374.86l-41.08-41.08c.25-.39.49-.78.73-1.17l41.12,41.11C683.14,374.1,682.88,374.48,682.64,374.86Z"/><path d="M685.91,370l-41.22-41.23c.24-.39.48-.78.74-1.17l41.25,41.26Z"/><path d="M689.21,365.2l-41.37-41.38c.24-.39.48-.79.74-1.16L690,364.07C689.74,364.45,689.48,364.83,689.21,365.2Z"/><path d="M692.56,360.43,651,318.86c.25-.4.5-.77.74-1.17l41.62,41.62C693.06,359.69,692.8,360.05,692.56,360.43Z"/><path d="M695.91,355.66l-41.76-41.75c.26-.39.5-.79.74-1.16l41.82,41.8C696.43,354.92,696.17,355.28,695.91,355.66Z"/><path d="M699.29,350.93l-42-42c.24-.39.5-.78.74-1.16l42,42C699.81,350.18,699.54,350.56,699.29,350.93Z"/><path d="M702.69,346.19,660.5,304c.25-.38.49-.77.75-1.16l42.24,42.24C703.22,345.45,702.94,345.82,702.69,346.19Z"/><path d="M706.08,341.48l-42.41-42.42c.26-.38.5-.77.76-1.16l42.45,42.47Z"/><path d="M709.5,336.77l-42.67-42.65c.26-.4.5-.78.76-1.17l42.71,42.71Z"/><path d="M712.91,332.07,670,289.15c.25-.38.5-.77.74-1.16l43,43c-.23.3-.43.58-.65.88Z"/><path d="M716.33,327.37l-43.18-43.18c.24-.39.5-.78.74-1.18l43.25,43.26C716.86,326.64,716.59,327,716.33,327.37Z"/><path d="M719.74,322.66,676.28,279.2c.25-.39.49-.78.73-1.17l43.52,43.52C720.28,321.93,720,322.29,719.74,322.66Z"/><path d="M723.14,318,679.39,274.2l.75-1.18,43.8,43.81C723.68,317.21,723.41,317.57,723.14,318Z"/><path d="M726.54,313.22l-44-44.05c.24-.39.49-.78.73-1.19l44.11,44.12C727.06,312.48,726.81,312.85,726.54,313.22Z"/><path d="M724,1015.13c1.68,2.26,3.31,4.53,4.92,6.83l-23.48-23.49c-.53-1.19-1.07-2.36-1.64-3.54Z"/><path d="M729.92,308.49l-44.36-44.36c.24-.41.48-.8.73-1.19l44.42,44.42C730.44,307.73,730.17,308.11,729.92,308.49Z"/><path d="M711,1012.17c-.37-1-.74-2-1.14-3l30.28,30.27q1.33,2.27,2.63,4.55Z"/><path d="M742.72,345.64c-.27-.89-.53-1.78-.77-2.68l5.71,5.71c-.26.38-.53.74-.8,1.11Z"/><path d="M750.27,345.07l-10.69-10.68q-.36-1.29-.69-2.61L751.08,344Z"/><path d="M753.67,340.35l-16.9-16.9c-.2-.83-.4-1.67-.59-2.51l18.3,18.31Z"/><path d="M757.07,335.64l-22.79-22.79c-.19-.82-.36-1.65-.55-2.46l24.13,24.14Z"/><path d="M760.45,330.89,688.6,259c.24-.39.47-.79.72-1.19l71.92,71.93Z"/><path d="M714.11,1021.46l50,50-.74,1.18L761,1076.4v0l-.75,1.16-2.39,3.81-.74,1.17h0l-2.4,3.8-.74,1.18-2.39,3.81-.73,1.17-.36.56-.1-.54-.17.27-.09-.54-.18.27-.09-.54-.18.27-.09-.53-.16.26-.11-.53-.16.27-.11-.54-.16.27-.1-.54-.17.27-.1-.54-.18.27-.09-.53-.16.26-.11-.53-.16.27-.11-.54-.16.27-.1-.54-.17.27-.1-.54-.17.27-.1-.53-.16.26-.11-.53-.16.27-.11-.54-.16.27-.1-.54-.17.27-.1-.54-.17.27-.1-.53-.16.26-.11-.53-.16.27-.11-.54-.16.27-.09-.54-.18.27-.09-.54-.18.27-.1-.52-.16.25-.11-.52-.16.27-.11-.54-.16.27-.09-.54-.18.27-.09-.55-.18.28-.09-.53-.17.25-.1-.52-.17.27-.1-.54-.17.27-.09-.54-.18.27-.09-.54-.18.27-.09-.53-.16.26-.11-.53-.16.27-.11-.54-.17.27-.09-.54-.18.27-.09-.54-.18.27-.09-.53-.16.26-.11-.53-.16.27-.11-.54-.16.27-.1-.54-.17.27-.1-.54-.17.27-.1-.53-.16.26-.11-.53-.16.27-.11-.54-.16.27-.1-.54-.17.27-.1-.54-.17.27-.1-.53-.16.26-.11-.53-.16.26-.11-.53-.16.27-.1-.54-.17.27-.1-.54-.17.27-.1-.52-.16.25-.11-.53-.16.26-.11-.53-.16.27-.09-.54-.18.27-.09-.54-.18.27-.09-.52-.17.25-.11-.52-.16.25-.11-.52-.16.27-.11-.54-.16.27-.09-.54-.18.27-.09-.53-.17.26-.1-.53-.17.25-.1-.52-.17.27-.1-.54-.17.27-.09-.54-.18.27-.09-.53-.15.24q.64,3.26,1.15,6.49c.12.76.24,1.52.35,2.27.12,1,.24,1.9.37,2.84.16,1.4.29,2.78.41,4.15.06.69.11,1.38.17,2.07.15,2.19.24,4.37.28,6.51,0,.64,0,1.28,0,1.92V1102l0,4.71-.12.13-1,.9-2.37,2.14-.89.81c-.34.3-.68.59-1,.9-1.11,1-2.24,1.91-3.36,2.86-.35.27-.7.55-1.05.85-1.15.92-2.31,1.82-3.49,2.72l-1.1.82c-1.2.89-2.4,1.75-3.62,2.58-.38.27-.76.53-1.13.77-1.23.86-2.49,1.68-3.76,2.47-.4.25-.79.5-1.18.73q-1.92,1.18-3.88,2.32l-1.23.69c-1.33.74-2.68,1.46-4,2.16-.42.22-.84.42-1.26.65-1.39.69-2.78,1.37-4.2,2l-1.31.59c-1.44.65-2.9,1.27-4.36,1.87l-1.35.54q-2.24.88-4.51,1.7c-.48.18-1,.34-1.42.5-1.54.54-3.1,1-4.68,1.53l-1.46.45c-1.6.48-3.22.93-4.84,1.36l-1.53.38q-2.49.63-5,1.18l-1,.2-.62.13q-2.55.54-5.15,1.06c-.53.12-1.06.23-1.58.32l-5.17,1.06-1.58.32-5.18,1c-.54.09-1.07.2-1.61.31-1.73.34-3.46.66-5.2,1l-1.61.31-5.23,1-1.63.29-5.28.93-1.61.28c-1.77.3-3.54.6-5.33.88l-1.65.27q-2.67.43-5.37.84c-.55.1-1.1.18-1.66.26-1.78.27-3.58.52-5.41.78l-1.67.25h0c-1.82.24-3.65.48-5.49.7-.56.09-1.13.16-1.7.21-1.84.25-3.68.46-5.53.67-.58.08-1.15.13-1.72.2-1.86.2-3.74.41-5.62.59l-1.74.17c-1.9.19-3.79.35-5.7.51l-1.75.15c-1.92.15-3.86.3-5.79.42l-1.8.12c-2,.12-3.92.23-5.88.31l-1.83.1q-3,.13-6,.21l-1.86.06c-2,0-4.07.08-6.11.09H538c-.89,0-1.78,0-2.66,0l-2,0c-2.16-.06-4.3-.12-6.42-.22-.68,0-1.34,0-2-.09q-3.35-.16-6.63-.41c-.69,0-1.36-.09-2.05-.16-2.3-.18-4.58-.38-6.84-.62l-2.15-.23c-2.4-.27-4.77-.57-7.13-.92l-2.21-.31q-3.77-.57-7.44-1.23c-.8-.15-1.58-.29-2.35-.45-2.65-.5-5.26-1.05-7.86-1.65-.84-.19-1.67-.38-2.51-.59q-4.24-1-8.39-2.2l-2.67-.75c-3.11-.94-6.17-1.92-9.2-3-1-.33-2-.69-2.94-1-3.52-1.29-7-2.66-10.36-4.15-1.16-.49-2.31-1-3.45-1.53q-6.35-2.87-12.41-6.21c-.36-.2-.76-.39-1.12-.6,0,0,0,0,0,0a188.38,188.38,0,0,1-41.05-30.76c-.09-.08-.17-.17-.27-.25a3358679592893,3358679592893,0,0,1-.54-.54c-.08-.1-.17-.18-.25-.27a2.29,2.29,0,0,1-.27-.27,3.44,3.44,0,0,1-.27-.27c-.1-.09-.18-.18-.28-.26L384,1100a2.29,2.29,0,0,0-.27-.27l-.25-.27a2.29,2.29,0,0,1-.27-.27c-.1-.08-.18-.18-.27-.26l-.27-.27c-.09-.1-.18-.18-.27-.27a3.31,3.31,0,0,1-.26-.27c-.1-.08-.18-.18-.27-.26l-.27-.27-.27-.27c-.08-.09-.18-.17-.27-.27l-.26-.27-.27-.26-.27-.27L380,1096l-.27-.27a3.38,3.38,0,0,1-.26-.27,3.31,3.31,0,0,1-.27-.26L379,1095c-.09-.09-.17-.18-.27-.27s-.18-.17-.26-.27a1119559864271,1119559864271,0,0,1-.54-.54c-.09-.08-.17-.17-.27-.25a3358679592972.18,3358679592972.18,0,0,0-.54-.54l-.26-.28a3.44,3.44,0,0,1-.27-.27c-.09-.08-.17-.17-.27-.25a2.29,2.29,0,0,0-.27-.27,2.29,2.29,0,0,0-.27-.27l-.25-.27a2.29,2.29,0,0,1-.27-.27l-.27-.26-.27-.27a3.57,3.57,0,0,0-.28-.27l-.27-.27-.25-.26-.27-.27-.27-.27-.27-.27-.26-.27a2.29,2.29,0,0,1-.27-.27c-.1-.08-.18-.18-.27-.26L372,1088l-.27-.27a3.38,3.38,0,0,1-.26-.27,2.29,2.29,0,0,1-.27-.27l-.27-.26-.27-.27-.27-.27c-.08-.09-.18-.17-.26-.27a2.29,2.29,0,0,1-.27-.27c-.09-.08-.17-.17-.27-.25a3.57,3.57,0,0,0-.27-.28l-.27-.27-.26-.27a2.29,2.29,0,0,1-.27-.27c-.09-.08-.17-.17-.27-.25a2.29,2.29,0,0,0-.27-.27l-.27-.27a2.29,2.29,0,0,0-.27-.27l-.25-.26a3.5,3.5,0,0,0-.28-.27,2.29,2.29,0,0,0-.27-.27l-.27-.27-.25-.27a2.29,2.29,0,0,1-.27-.27c-.1-.08-.18-.18-.27-.26l-.27-.27L365,1081l-.26-.27a2.29,2.29,0,0,1-.27-.27c-.1-.08-.18-.18-.27-.26L364,1080l-.27-.27-.26-.27-.27-.27a2.29,2.29,0,0,1-.27-.27c-.1-.08-.18-.18-.27-.26s-.18-.17-.27-.27-.18-.17-.27-.27l-.26-.26-.27-.27-.27-.27L361,1077l-.27-.27a3.38,3.38,0,0,1-.26-.27c-.09-.08-.17-.17-.27-.25a2.29,2.29,0,0,0-.27-.27l-.54-.55a201.84,201.84,0,0,1-36.14-48.51c-25.86-48-40.94-90.45-47.44-133.58-7.82-51.86-1.62-95.26,18.95-132.68a175.23,175.23,0,0,1,36.66-46.48l9.52-8.54.2.33.07-.06.2.33.07-.05.2.32.07-.05.2.32,0,0,.22.32.05-.07.21.33.06-.06.21.33.07-.06.2.33.07-.06.2.33.05-.06.22.33.05-.07.21.33.06-.06.21.33.06-.06.21.33.06-.06.21.33.06-.06.21.33.05-.07.2.32.07-.05.2.32.07-.05.2.33.07-.06.21.33.06-.06.21.33.05-.07.2.32.07,0,.2.32.07,0,.2.32.07-.05.2.32.07-.05.2.32.06-.06.2.32.07,0,.2.32.07,0,.2.32.07,0,.2.32.07-.05.2.32.06-.06.2.32.07-.05.2.32.07,0,.2.32.07,0,.2.32.07,0,.2.32.06-.07.2.33.07-.06.2.33.07-.06.2.33.07-.05.2.32.07,0,.2.32.05-.07.22.33.05-.06.21.33.06-.06.21.33.06-.06.21.33.07-.06.2.33.05-.07.22.33,0-.06.21.33.06-.06.21.33.06-.06.21.33.06-.06.21.33,0-.07.22.32.05-.05.2.32.07-.05.2.32.07-.05.2.33.07-.06.21.33.05-.07.22.32.05,0,.2.32.07,0,.2.32.07-.05.2.32.07-.05.2.32.06,0,.21.31.06,0,.2.32.07,0,.2.32.07,0,.2.32.07,0,.2.32.06-.05.21.31.06-.05.2.32.07-.05.2.32.07,0,.2.32.07,0,.2.32.05,0,.22.31.06-.06.2.33.07-.06.2.33.07-.06.2.33.07,0,.2.32,0,0,.22.32.05-.07.21.33.06-.06.21.33.06-.06.21.33.06-.06.21.33.05-.06.22.33.05-.07.21.33.06-.06.21.33.06-.06.21.33.06-.06.21.33,0-.06.22.33.05-.07.2.32.07-.05.2.32.07-.05.2.32.07,0,.2.33.06-.06.22.33.05-.07.2.32.07,0,.2.32.07-.05.2.32.07-.05.2.32.06-.05.21.32.06-.06.2.32.07,0,.11.16.09.16.07,0,.2.32.07,0,.2.32.06-.05.21.32.06-.07,2.44,3.89,4.38,6.93c1.78,2.8,3.53,5.58,5.29,8.38l.93,1.49c1.08,1.72,2.17,3.43,3.26,5.17,3.53,5.61,7.13,11.26,10.75,16.76l.38.57c1.32,2,2.66,4,4,5.92,6.14,8.94,12.33,17.18,18.67,24.86l.06.07c1.36,1.65,2.73,3.26,4.11,4.86q2,1.71,4.13,3.39l.06,0a208.73,208.73,0,0,0,20.9,14.71c1.59,1,3.19,2,4.83,2.91A228.53,228.53,0,0,0,481.28,847c8.52,3.49,17.2,6.82,25.81,10l3,1.1c3.25,1.21,6.51,2.37,9.73,3.52l3,1c3.21,1.15,6.4,2.26,9.55,3.37l2.06.72c.3.11.59.2.89.32,3.37,1.18,6.69,2.45,10,3.79,1.09.43,2.17.89,3.25,1.35q5.74,2.42,11.38,5.15c1.27.61,2.52,1.23,3.78,1.88,4.61,2.33,9.17,4.81,13.64,7.45,1.64,1,3.27,1.93,4.88,3q6.15,3.79,12.08,8,7.9,5.58,15.36,11.44c.16.14.31.26.47.38a321,321,0,0,1,25.34,22.31l.27.27.27.27.25.27a3.38,3.38,0,0,1,.27.26c.1.09.18.19.27.27l.27.27a3.5,3.5,0,0,1,.28.27,6.48,6.48,0,0,0,.52.53l.27.27.27.27a2.29,2.29,0,0,1,.27.27l.27.27.26.25.27.27.54.54c.08.09.18.18.26.28l.27.25a3.44,3.44,0,0,0,.27.27l.27.27a3.44,3.44,0,0,1,.27.27l.53.53a2.29,2.29,0,0,0,.27.27,3.44,3.44,0,0,0,.27.27c.09.08.17.18.27.27l.26.27.27.26a3.44,3.44,0,0,0,.27.27l.27.27.27.27.25.27c.1.08.19.18.28.26a3.44,3.44,0,0,0,.27.27l.27.27c.09.08.17.17.27.27l.27.27.25.26c.1.09.18.19.27.27l.27.27.27.27.26.25.27.27.27.28.54.54.27.27.26.25.27.27.54.54.27.27.26.26c.09.1.19.19.27.27l.27.27.8.8a3.44,3.44,0,0,0,.27.27,2.29,2.29,0,0,0,.27.27,3.44,3.44,0,0,0,.27.27l.53.53a3.44,3.44,0,0,0,.27.27,3.44,3.44,0,0,0,.27.27l.27.27.25.27a2.29,2.29,0,0,1,.27.27c.1.08.19.18.28.26l.27.27.27.27c.09.08.17.17.27.27l.25.26.27.27c.1.09.18.19.27.27l.27.27a3.44,3.44,0,0,1,.27.27l.26.25.27.27.27.27.54.55.26.25.27.27.27.27.27.27.26.27.28.27c.08.09.18.18.26.26a2.29,2.29,0,0,0,.27.27l.27.27.8.8.27.27a3.44,3.44,0,0,0,.27.27l.8.8a295.87,295.87,0,0,1,26.33,29.36q3,3.9,5.92,7.85,6.66,9.12,12.48,18.68c1,1.58,1.94,3.16,2.87,4.77,0,0,0,0,0,0h0s0,0,0,0h0a0,0,0,0,0,0,0h0s0,0,0,0h0s0,0,0,0h0c1.06,2.11,2.27,4.06,3.44,6.2s2.33,4.34,3.42,6.51c-.59-2.6-1.25-5.21-2-7.84v0C714.67,1023.26,714.4,1022.36,714.11,1021.46Z"/><path d="M745.78,1045l21.43,21.42c-.25.39-.49.78-.73,1.17l-20-19.95C746.28,1046.77,746,1045.89,745.78,1045Z"/><path d="M741.79,1032.9l28.5,28.5-.73,1.19-26.72-26.72Q742.33,1034.37,741.79,1032.9Z"/><path d="M736.08,1019.07l37.22,37.23c-.23.41-.46.8-.7,1.2l-35-35C737.12,1021.38,736.61,1020.22,736.08,1019.07Z"/><path d="M727.54,1002.41l48.74,48.74c-.25.4-.48.81-.71,1.22l-45.65-45.68C729.15,1005.28,728.36,1003.84,727.54,1002.41Z"/><path d="M712.61,979.37l66.55,66.55c-.21.42-.44.82-.66,1.24l-61.31-61.3C715.72,983.7,714.18,981.53,712.61,979.37Z"/><path d="M435.79,694.41,782,1040.63c-.22.43-.43.85-.66,1.26l-347-347C434.83,694.73,435.29,694.56,435.79,694.41Z"/><path d="M442.1,692.61,784.8,1035.3c-.22.42-.44.84-.67,1.26L440.61,693C441.1,692.89,441.6,692.74,442.1,692.61Z"/><path d="M448.52,690.92l339,339c-.2.43-.42.85-.64,1.27L447,691.31Z"/><path d="M455.08,689.35l335.07,335.08c-.2.44-.41.86-.62,1.29l-336-336Z"/><path d="M461.76,687.92l331,331c-.19.43-.39.87-.61,1.31l-331.93-332C460.72,688.15,461.23,688,461.76,687.92Z"/><path d="M468.73,686.77l326.52,326.52c-.21.45-.4.9-.58,1.33L467,687C467.6,686.9,468.17,686.85,468.73,686.77Z"/><path d="M476.16,686.08l321.53,321.53c-.19.45-.37.9-.56,1.34L474.37,686.2Z"/><path d="M484.11,685.9l316,316c-.19.46-.36.92-.55,1.36L482.17,685.89h1.94Z"/><path d="M801.93,193.75,745.65,137.5c.55-.11,1.09-.21,1.65-.27l54.36,54.35C801.74,192.29,801.83,193,801.93,193.75Z"/><path d="M492.61,686.29,802.39,996.07c-.19.44-.37.9-.55,1.36L490.56,686.15Z"/><path d="M802.22,185.94,753,136.73c.62,0,1.24-.06,1.85-.07l48,48C802.68,185.12,802.47,185.52,802.22,185.94Z"/><path d="M803.29,203.25l-63.94-63.94c.45-.19.9-.38,1.37-.54L802.94,201v0C803.05,201.73,803.17,202.49,803.29,203.25Z"/><path d="M501.71,687.28,804.6,990.16c-.16.47-.34.93-.52,1.39L499.52,687C500.25,687.08,501,687.17,501.71,687.28Z"/><path d="M804.62,180.21l-43.35-43.35c.7.06,1.41.12,2.12.2L805,178.65C804.87,179.17,804.76,179.68,804.62,180.21Z"/><path d="M805,172.49,771,138.43c.88.22,1.76.46,2.62.7l30.8,30.8A15.25,15.25,0,0,1,805,172.49Z"/><path d="M805.08,213.14,734.23,142.3c.35-.29.72-.56,1.1-.83l69.29,69.29v0C804.75,211.57,804.91,212.35,805.08,213.14Z"/><path d="M511.39,688.84,806.75,984.2c-.16.47-.32.94-.5,1.4L509.07,688.42C509.84,688.55,510.62,688.69,511.39,688.84Z"/><path d="M807.43,223.62l-77.09-77.09c.25-.38.52-.74.81-1.11l75.66,75.66C807,221.93,807.21,222.77,807.43,223.62Z"/><path d="M521.54,690.86,808.83,978.15c-.16.48-.31,1-.48,1.44L519.11,690.35Z"/><path d="M810.65,235l-82.9-82.89c.15-.49.33-.95.5-1.41l81.53,81.52h0C810.06,233.1,810.35,234,810.65,235Z"/><path d="M532,693.16,810.82,972c-.13.49-.3,1-.46,1.45L529.49,692.61,531,693Z"/><path d="M538.11,691.19,812.74,965.84c-.13.48-.28,1-.44,1.46L538.11,693.11Z"/><path d="M538.11,683.08,814.58,959.55c-.13.5-.28,1-.42,1.5L538.11,685Z"/><path d="M815.34,247.75,726.5,158.93c0-.6.12-1.17.19-1.73l87.38,87.38C814.47,245.65,814.89,246.7,815.34,247.75Z"/><path d="M538.2,675.06,816.34,953.18c-.14.52-.27,1-.41,1.52L538.16,676.92C538.17,676.3,538.2,675.68,538.2,675.06Z"/><path d="M538.43,667.16,818,946.72c-.12.51-.25,1-.38,1.54L538.35,669C538.38,668.38,538.4,667.77,538.43,667.16Z"/><path d="M538.81,659.42,819.57,940.18c-.12.51-.24,1-.37,1.55L538.7,661.21C538.73,660.62,538.77,660,538.81,659.42Z"/><path d="M539.31,651.8,821,933.54c-.11.52-.21,1.05-.33,1.57L539.17,653.58C539.22,653,539.27,652.4,539.31,651.8Z"/><path d="M539.93,644.3,822.42,926.8c-.09.53-.2,1.06-.31,1.6L539.77,646.06C539.82,645.48,539.88,644.88,539.93,644.3Z"/><path d="M823.31,263.86,726.2,166.74c0-.61,0-1.22.08-1.84l94.63,94.63a0,0,0,0,0,0,0s0,0,0,0h0l0,0,0,0h0l0,0h0l0,0A30.78,30.78,0,0,0,823.31,263.86Z"/><path d="M540.65,636.91l283,283c-.09.54-.19,1.08-.28,1.62L540.47,638.64Z"/><path d="M827.37,874.91c0,.64,0,1.29,0,1.94,0,2,0,4.08-.08,6.12,0,.62,0,1.23,0,1.85-.07,2-.16,3.95-.27,5.94,0,.59-.07,1.2-.11,1.8-.12,1.92-.27,3.85-.43,5.78-.06.57-.1,1.15-.16,1.73q-.25,2.8-.59,5.64-.09.85-.21,1.71c-.2,1.81-.45,3.65-.72,5.47q-.1.84-.24,1.68L585.16,675.21l1.67-.25,1-.13,4.48-.62L594,674c1.81-.25,3.62-.51,5.44-.75l1.68-.25,5.44-.75,1.69-.23,5.46-.75c.55-.06,1.12-.15,1.69-.23,5.43-.71,10.88-1.43,16.34-2.09a169.41,169.41,0,0,1,20.73-1.3c25.65,0,49.08,6.25,69.63,18.58a130.43,130.43,0,0,1,22.16,16.75h0c1.54,1.43,3,2.92,4.53,4.44a2.29,2.29,0,0,1,.27.27,1.72,1.72,0,0,1,.27.27c.1.08.18.17.27.25a3.44,3.44,0,0,0,.27.27c.08.1.18.18.26.27s.19.18.27.27l.27.27.27.26a1679339796388.24,1679339796388.24,0,0,0,.54.54c.08.1.18.18.26.27s.17.18.27.26a3.44,3.44,0,0,0,.27.27,2.29,2.29,0,0,0,.27.27c.08.1.18.18.26.27l.27.27a3.44,3.44,0,0,1,.27.27c.09.08.17.18.27.26l.27.27.25.27.28.27.27.27c.09.08.17.18.27.26l.27.27c.08.09.17.17.25.27a2.29,2.29,0,0,1,.27.27,1.72,1.72,0,0,1,.27.27,3.31,3.31,0,0,1,.27.26l.27.27.28.27c.08.09.17.17.25.27a1.72,1.72,0,0,1,.27.27c.1.08.18.17.27.25a3.44,3.44,0,0,0,.27.27c.08.1.18.18.26.28a3.44,3.44,0,0,1,.27.27,1.72,1.72,0,0,1,.27.27c.1.08.18.17.27.25a2.29,2.29,0,0,0,.27.27c.08.1.18.18.26.27s.19.18.27.27l.27.27.27.26a2.29,2.29,0,0,0,.27.27c.08.1.18.18.26.27l.27.27.27.27c.09.08.17.18.27.26a2.29,2.29,0,0,0,.27.27l.27.27c.08.1.18.18.26.27l.27.27c.09.08.17.18.27.26l.27.27.27.27c.08.09.17.17.25.27a3.57,3.57,0,0,1,.28.27l.27.27c.09.08.17.18.27.26s.17.17.25.27a1679339796547.51,1679339796547.51,0,0,1,.54.54,3.31,3.31,0,0,1,.27.26l.27.27a3.31,3.31,0,0,1,.26.27,2.29,2.29,0,0,1,.27.27,2.29,2.29,0,0,1,.27.27c.1.08.18.17.27.25a2.29,2.29,0,0,0,.27.27,3.44,3.44,0,0,0,.27.27c.08.1.18.18.26.28a3.44,3.44,0,0,1,.27.27c.1.08.18.17.27.25a2.29,2.29,0,0,0,.27.27,3.44,3.44,0,0,0,.27.27c.08.1.18.18.26.27l.27.27a3.31,3.31,0,0,0,.27.26,2.29,2.29,0,0,0,.27.27,3.44,3.44,0,0,0,.27.27c.08.1.18.18.26.27l.27.27.27.27c.09.08.17.18.27.26l.27.27.26.27.27.27c.09.08.17.18.27.26a3.44,3.44,0,0,0,.27.27l.27.27c.08.09.17.17.25.27a2.29,2.29,0,0,1,.27.27c.1.08.18.18.27.26s.18.19.28.27l.27.27c.08.09.17.17.25.27a2.29,2.29,0,0,1,.27.27,2.29,2.29,0,0,1,.27.27,3.31,3.31,0,0,1,.27.26c.08.09.18.17.27.27a143.88,143.88,0,0,1,10.6,12.12,160.14,160.14,0,0,1,12.67,18.88c.81,1.4,1.61,2.84,2.4,4.3h0c2.13,3.95,4.15,8,6.07,12.26v0c.5,1.12,1,2.24,1.48,3.39.07.12.12.26.18.39q2.12,5,4,10,.57,1.5,1.11,3c1.1,3.06,2.13,6.16,3.09,9.27.28.92.56,1.84.83,2.76.84,2.84,1.63,5.68,2.34,8.54.23.85.44,1.71.64,2.56q1,4,1.77,8c.17.8.34,1.6.49,2.41.48,2.5.93,5,1.32,7.53.12.74.24,1.5.35,2.26.35,2.38.66,4.76.95,7.16l.24,2.15c.25,2.27.46,4.56.64,6.84.05.69.09,1.38.15,2.06q.23,3.29.36,6.57c0,.66.06,1.32.07,2C827.32,870.7,827.36,872.8,827.37,874.91Z"/><path d="M819.34,460.94,928.15,569.76q-2.25-1.69-4.56-3.32l-2.5-1.84L826.3,469.82C823.92,466.9,821.58,463.94,819.34,460.94Z"/><polygon points="1016.54 779.93 1021.82 785.21 1020.51 785.8 1016.3 781.6 1016.54 779.93"/><polygon points="1017.57 772.84 1027.44 782.71 1026.12 783.3 1017.33 774.51 1017.57 772.84"/><path d="M1018.61,765.75l14.56,14.58-.86.31-.54.19-13.4-13.4Z"/><path d="M1019.67,758.69l18.64,18.65a9.79,9.79,0,0,1-1,.85l-17.85-17.83c0-.1,0-.21,0-.29C1019.53,759.6,1019.6,759.14,1019.67,758.69Z"/><path d="M1020.52,751.43,1042,772.89c-.27.37-.56.73-.82,1.1l-20.82-20.83C1020.41,752.58,1020.47,752,1020.52,751.43Z"/><path d="M1021,743.77l24.54,24.54c-.3.35-.57.7-.84,1.07l-23.78-23.79Z"/><path d="M1021,735.68l28.06,28.06c-.28.35-.56.71-.83,1.08l-27.19-27.19C1021,737,1021,736.33,1021,735.68Z"/><path d="M1020.55,727.1l32.09,32.09c-.28.36-.55.72-.83,1.07l-31.1-31.09C1020.65,728.48,1020.61,727.79,1020.55,727.1Z"/><path d="M1019.44,717.88l36.76,36.76-.84,1.07-35.6-35.6C1019.67,719.36,1019.56,718.62,1019.44,717.88Z"/><path d="M1017.5,707.82,1059.71,750c-.27.36-.55.73-.83,1.08l-40.83-40.83C1017.87,709.45,1017.69,708.63,1017.5,707.82Z"/><path d="M1014.37,696.57l48.79,48.78-.81,1.11-47.09-47.09C1015,698.44,1014.68,697.5,1014.37,696.57Z"/><path d="M1010,684l56.54,56.55-.77,1.12L1011,687C1010.68,686,1010.31,685,1010,684Z"/><path d="M1005.39,671.34l64.34,64.34c-.24.4-.48.79-.74,1.18l-62.48-62.48C1006.13,673.37,1005.77,672.35,1005.39,671.34Z"/><path d="M999.82,657.66l73,73c-.23.41-.48.8-.71,1.21l-70.79-70.78Q1000.59,659.35,999.82,657.66Z"/><path d="M1074.13,522.79,725.63,174.3c.07-.58.11-1.18.16-1.76L838.24,285c2.23,2.87,4.6,5.79,7.06,8.73q5.37,4.57,10.79,9.12c12.15,10.22,24.43,20.38,36.62,30.42q5.35,4.41,10.7,8.78c3.47,2.86,6.92,5.68,10.37,8.51,8,6.6,16.17,13.26,24.32,20q5.49,4.53,11,9.09c12.92,10.7,25.89,21.53,38.64,32.43.15.14.31.26.46.39,2.75,2.37,5.4,4.84,8,7.44.1.08.18.18.27.26l.27.27.27.27a3.31,3.31,0,0,1,.26.27,1.72,1.72,0,0,1,.27.27,3.32,3.32,0,0,1,.27.25l.27.28.27.27c.08.09.18.17.26.27a2.29,2.29,0,0,1,.27.27,3.32,3.32,0,0,1,.27.25c.1.1.18.19.27.27a1119559864207.16,1119559864207.16,0,0,0,.54.54c.08.09.18.18.26.28a2.29,2.29,0,0,1,.27.27l.27.25.27.27a3.44,3.44,0,0,0,.27.27l.26.27.27.26a1679339796572.94,1679339796572.94,0,0,1,.54.54,2.29,2.29,0,0,0,.27.27,3.31,3.31,0,0,0,.26.27c.09.08.17.18.27.26a1119559864206,1119559864206,0,0,0,.54.54l.25.27a3358679592828.42,3358679592828.42,0,0,0,.54.54c.1.08.18.18.28.26l.27.27.27.27c.08.09.17.17.25.27a1.72,1.72,0,0,1,.27.27c.1.08.18.18.27.26s.18.19.27.27l.27.27a2.23,2.23,0,0,1,.26.27,1.72,1.72,0,0,1,.27.27c.1.08.18.17.27.25l.27.28c.08.09.18.17.27.27s.18.17.26.27a2.29,2.29,0,0,1,.27.27l.27.25.27.27a3.44,3.44,0,0,0,.27.27c.08.1.18.18.26.27l.27.26a3358679592828.41,3358679592828.41,0,0,0,.54.54c.08.1.18.18.26.27s.19.18.28.27l.26.27c.09.08.17.18.27.26a3.44,3.44,0,0,0,.27.27,2.29,2.29,0,0,0,.27.27,3.31,3.31,0,0,0,.26.27c.09.08.18.18.27.27s.17.18.27.26a3.44,3.44,0,0,0,.27.27l.27.27.25.27a2.29,2.29,0,0,1,.27.27c.1.08.18.18.27.26l.27.27.28.27c.08.09.17.17.25.27a2.23,2.23,0,0,1,.27.26,3.57,3.57,0,0,1,.27.28c.1.08.18.18.27.26s.18.17.26.27.19.17.28.27a2.23,2.23,0,0,1,.26.27c.1.08.18.17.27.25l.27.27c.08.1.18.18.27.28s.18.17.27.27.18.17.26.27l.27.25.27.27.27.27c.08.1.18.18.26.27l.27.27.27.26a2.29,2.29,0,0,0,.27.27,2.29,2.29,0,0,0,.27.27c.08.1.18.18.26.27a3.44,3.44,0,0,1,.27.27c.09.08.17.18.27.26a3358679593039.58,3358679593039.58,0,0,1,.54.54c.08.1.17.18.25.27a3.57,3.57,0,0,1,.28.27l.27.27c.09.08.17.18.27.26l.27.27c.08.09.17.17.27.27,2.71,2.73,5.35,5.58,7.88,8.5a.44.44,0,0,1,.09.11A298,298,0,0,1,1050.48,481c.51.74,1,1.49,1.53,2.23q1.26,1.84,2.47,3.69,5.12,7.72,9.6,15.81c.77,1.39,1.54,2.78,2.29,4.19q3.24,6.07,6.15,12.36C1073.07,520.44,1073.61,521.62,1074.13,522.79Z"/><path d="M990.18,639.91l85.54,85.54c-.23.42-.44.84-.66,1.24l-82-82C992.07,643,991.13,641.46,990.18,639.91Z"/><path d="M974,615.58l104.46,104.47c-.2.44-.41.87-.62,1.29l-99.06-99.08Q976.38,618.86,974,615.58Z"/><path d="M1079.81,536.59l-355.1-355.1c.08-.55.16-1.12.25-1.67L1078.6,533.46C1079,534.49,1079.41,535.54,1079.81,536.59Z"/><path d="M803.05,436.54l278,277.94c-.19.44-.4.88-.59,1.33L806,441.43C805,439.81,804,438.19,803.05,436.54Z"/><path d="M793.44,418.8l289.91,289.91c-.18.46-.35.93-.53,1.39L795.4,422.68C794.73,421.39,794.07,420.1,793.44,418.8Z"/><path d="M1084.15,549.05,723.43,188.33c.12-.52.23-1.05.34-1.58L1083.21,546.2C1083.54,547.14,1083.85,548.09,1084.15,549.05Z"/><path d="M786.51,403.76l299,299c-.16.45-.32.93-.5,1.4l-297-297C787.51,406,787,404.9,786.51,403.76Z"/><path d="M781.23,390.35l306.25,306.27c-.13.5-.28,1-.44,1.46L782.4,393.43C782,392.41,781.6,391.39,781.23,390.35Z"/><path d="M1087.55,560.57,721.83,194.85c.14-.5.29-1,.42-1.49l364.57,364.56C1087.08,558.8,1087.32,559.68,1087.55,560.57Z"/><path d="M777.08,378.08l312.19,312.19c-.12.51-.26,1-.41,1.51L778,380.9C777.67,380,777.37,379,777.08,378.08Z"/><path d="M1090.24,571.39,719.94,201.08c.16-.48.31-1,.47-1.44L1089.66,568.9C1089.86,569.72,1090.05,570.56,1090.24,571.39Z"/><path d="M773.6,366.49l317.25,317.25-.35,1.57L774.4,369.21C774.13,368.3,773.86,367.39,773.6,366.49Z"/><path d="M770.5,355.28,1092.22,677c-.1.54-.19,1.08-.3,1.61L771.21,357.89C771,357,770.73,356.15,770.5,355.28Z"/><path d="M1092.31,581.57,717.74,207l.54-1.36L1091.87,579.2h0C1092,580,1092.18,580.78,1092.31,581.57Z"/><path d="M767.73,344.4,1093.39,670c-.08.56-.16,1.11-.25,1.67L768.36,346.92C768.15,346.09,768,345.23,767.73,344.4Z"/><path d="M1093.84,591.22,715.26,212.64c.2-.43.42-.86.62-1.3L1093.51,589C1093.64,589.72,1093.74,590.46,1093.84,591.22Z"/><path d="M765.26,333.8l329.09,329.09c-.06.57-.13,1.15-.2,1.7L765.81,336.26C765.62,335.43,765.45,334.61,765.26,333.8Z"/><path d="M1094.93,600.43,712.54,218.05c.23-.42.45-.85.67-1.26l381.49,381.5C1094.79,599,1094.85,599.71,1094.93,600.43Z"/><path d="M692.34,252.76l402.77,402.76c0,.58-.09,1.17-.16,1.75L691.63,254Z"/><path d="M1095.64,609.24l-386-386,.7-1.22,385.22,385.21C1095.56,607.89,1095.61,608.57,1095.64,609.24Z"/><path d="M695.35,247.65,1095.66,648c0,.61-.06,1.21-.1,1.8L694.64,248.85C694.87,248.44,695.12,248,695.35,247.65Z"/><path d="M698.35,242.52,1096,640.19c0,.61,0,1.23-.07,1.85L697.64,243.73C697.87,243.32,698.1,242.93,698.35,242.52Z"/><path d="M1096.07,617.8,706.61,228.34l.7-1.22L1096,615.81C1096,616.48,1096,617.14,1096.07,617.8Z"/><path d="M701.34,237.38l394.87,394.87c0,.63,0,1.26,0,1.9L700.63,238.6C700.86,238.2,701.11,237.79,701.34,237.38Z"/><path d="M1096.23,626.09,703.62,233.46l.7-1.2,391.9,391.9C1096.23,624.8,1096.23,625.44,1096.23,626.09Z"/></g><g id="a23d4a41-d020-4862-85cb-135e5a891bf3" data-name="white bottom"><path d="M338.65,722.2a165,165,0,0,0-34.39,43.64c-19.39,35.27-25.19,76.44-17.73,125.87,6.31,41.85,21,83.18,46.26,130.06,12.49,23.18,28.67,42.76,48.08,58.2,34.59,27.49,77.17,41.08,130.18,41.53,43.95.32,87.2-7.84,124.26-15.57a129.4,129.4,0,0,0,61.58-31.07,111.35,111.35,0,0,0-.81-14.42c-2.28-19-8.53-37.52-19.09-56.75-20.66-37.61-50.56-70.34-88.87-97.27a232.91,232.91,0,0,0-57.25-29.5c-17.29-6-35.76-12.62-53.7-20-28.5-11.69-53.49-28-74.27-48.41-15.46-15.22-29.83-33-43.92-54.37-5.13-7.79-10.18-15.83-15.07-23.62Z" fill="#a71333"/></g><g id="e94e795a-10e1-4300-ba0d-eceaa41e4014" data-name="white top"><path d="M729,1036.91l-.32-1.69a163.18,163.18,0,0,0-6-22.66C714.92,989.78,703,968,686.26,946a329.13,329.13,0,0,0-94.13-84.29A253.38,253.38,0,0,0,542,839.3c-24.4-8.11-50.24-17.5-73.81-31.25s-44.62-32.86-64-58.27c-10.95-14.34-21.63-30.43-33.61-50.63l-.36-.61.62-.33c18-9.56,39-16.76,62.45-21.43,22-4.37,43.47.44,64.26,5.09l5.06,1.13c3.4.75,6.86,1.4,10.52,2.08l4.74.89c0-3.39,0-6.67,0-9.89,0-7.13-.05-13.87,0-20.64.58-41.43,8.13-82,15.81-120,14.13-69.89,35.46-129.67,65.2-182.74,12-21.35,25.42-42.33,38.44-62.61,7.11-11.07,14.47-22.53,21.49-33.91,7.67-12.43,15.15-25.28,22.38-37.71q3.87-6.66,7.76-13.32c11.13-19,16.73-40.26,17.14-65,.14-9.18,3.1-12.66,11.75-13.8,16.82-2.18,32.55,3.36,46.75,16.48,3.47,3.22,3.69,7,.66,11.66a11.9,11.9,0,0,0-1.88,7.29c3.15,27.61,9.58,63.1,31.5,92.66,9.92,13.39,23.33,30.48,39.12,43.95,24,20.52,48.88,40.9,72.92,60.6,24.48,20.08,49.79,40.84,74.26,61.76,13.53,11.57,24.75,26.84,34.85,41.61a244.73,244.73,0,0,1,37.37,87.92h0c4.44,21,5.9,43.76,4.45,69.63-1.66,29.61-8.11,54.25-19.72,75.34-6.49,11.82-15.07,22.72-23.36,33.26-3.45,4.39-7,8.92-10.38,13.45a5.36,5.36,0,0,1-2.72,1.51c-.64.23-1.37.49-2.2.85l-1.12.5.18-1.21c.18-1.26.36-2.39.52-3.44.31-2,.58-3.78.77-5.52a148.9,148.9,0,0,0-8.06-68.22c-1.1-3-2.18-6.07-3.26-9.12-4.43-12.53-9-25.49-15.66-37-13.9-24-28.33-43.67-44.11-60-17-17.61-35.48-36.08-57-51.35-23.1-16.38-42-37.68-60.19-58.27l-1.09-1.23a263.66,263.66,0,0,1-54.72-98A546.48,546.48,0,0,1,739,280.89c-3.8-22.67-3.32-47.11,1.48-74.72a94.72,94.72,0,0,0,1.81-15.56c-.23.44-.47.88-.71,1.32a45.14,45.14,0,0,0-3.66,7.86c-7.58,24-22,44.47-36,64.25q-2.13,3-4.25,6c-6.71,9.57-13.7,19.19-20.46,28.49-15.57,21.42-31.66,43.56-45.46,66.53-37.55,62.46-63.82,133.11-78.1,210a433.38,433.38,0,0,0-6.82,91.85c.11,3.33.44,6.72.76,10,.18,1.81.35,3.62.5,5.43.36,4.47.59,6.65,1.65,7.51s3.28.66,7.76.07c10.61-1.4,21.38-2.92,31.8-4.39,14.31-2,29.12-4.11,43.71-5.9,31.43-3.86,59.52,1.46,83.47,15.83s42.53,36.95,55.45,67.27c18.1,42.47,22.25,88.71,12.34,137.44a405.61,405.61,0,0,1-54.41,135.27Z" fill="#a71333"/></g><g id="e56bd706-8b93-485b-9d24-20db984aedf1" data-name="inner lines"><path d="M789,348.8c.3.88.61,1.75.92,2.63h56.87l-3.17-2.63Z" fill="#ffacb2"/><path d="M822.52,412.89c.74,1,1.5,2,2.25,3H925l-3.57-3Z" fill="#ffacb2"/><path d="M782.52,327.43c.23.85.48,1.69.71,2.53h37.91l-3-2.53Z" fill="#ffacb2"/><path d="M779.69,316.75l.63,2.48h28.35L806,316.75Z" fill="#ffacb2"/><path d="M370.75,1021.78q2.1,3.08,4.32,6h277.8c-1-2-2-4-3-6Z" fill="#ffacb2"/><path d="M785.6,338.11l.78,2.59H833.9l-3.09-2.59Z" fill="#ffacb2"/><path d="M797.42,370.16c.41.92.84,1.83,1.26,2.74h74.13l-3.34-2.74Z" fill="#ffacb2"/><path d="M815,402.21c.64,1,1.29,1.94,2,2.9h95l-3.53-2.9Z" fill="#ffacb2"/><path d="M808.42,391.52c.56,1,1.12,1.91,1.69,2.86H899l-3.47-2.86Z" fill="#ffacb2"/><path d="M802.57,380.84c.48.94,1,1.87,1.46,2.8H885.9l-3.41-2.8Z" fill="#ffacb2"/><path d="M777.11,306.07c.19.8.37,1.61.56,2.42h20l-2.29-2.42Z" fill="#ffacb2"/><path d="M415.28,1064.51q5.42,3.35,11.15,6.22H641.2a98,98,0,0,0,14.46-6.22Z" fill="#ffacb2"/><path d="M400.15,1053.82l.91.75c2.39,1.9,4.85,3.69,7.35,5.43H663.25c-.33-2.06-.76-4.12-1.22-6.18Z" fill="#ffacb2"/><path d="M378.73,1032.46q2.55,3.12,5.23,6.06H657.44q-1.14-3-2.46-6.06Z" fill="#ffacb2"/><path d="M774.76,295.38c.16.79.34,1.58.5,2.37H787.9c-.69-.79-1.36-1.58-2-2.37Z" fill="#ffacb2"/><path d="M436.08,1075.19a161.56,161.56,0,0,0,18.11,6.28H591c11.28-2,22.22-4.12,32.69-6.28Z" fill="#ffacb2"/><path d="M388.35,1043.14q3.13,3.16,6.43,6.12H660.91c-.55-2-1.18-4.07-1.85-6.12Z" fill="#ffacb2"/><path d="M552.2,722.89c-.63,0-1.25,0-1.86,0v2.37l-13.26-2.53H424.48q1.65,2.3,3.32,4.51H705.69c-1.92-1.38-3.88-2.69-5.89-3.9l-1.08-.61H556.67C555.21,722.8,553.73,722.89,552.2,722.89Z" fill="#ffacb2"/><path d="M473.77,1085.87a235.75,235.75,0,0,0,37.51,3.19h2.29a392.76,392.76,0,0,0,48.07-3.19Z" fill="#ffacb2"/><path d="M772.64,284.7c.14.77.3,1.55.45,2.32H779l-1.83-2.32Z" fill="#ffacb2"/><path d="M436.21,737.92H718.06q-2.31-2.38-4.73-4.56H432.53C433.75,734.9,435,736.43,436.21,737.92Z" fill="#ffacb2"/><path d="M684.06,893.59q2.57,2.65,5.07,5.37h62.23c.38-1.75.77-3.5,1.13-5.25a.5.5,0,0,1,0-.12Z" fill="#ffacb2"/><path d="M792.9,359.48c.35.9.73,1.79,1.09,2.69h65.77l-3.26-2.69Z" fill="#ffacb2"/><path d="M1011.71,626.53c.54,1.35,1.08,2.7,1.6,4h11.06c.16-1.33.3-2.67.43-4Z" fill="#ffacb2"/><path d="M1001.56,605.17c.74,1.3,1.47,2.61,2.16,3.92h22.1c0-1.32,0-2.61.06-3.92Z" fill="#ffacb2"/><path d="M995.26,594.49c.78,1.27,1.56,2.57,2.34,3.87h28.3c0-1.3,0-2.6-.06-3.87Z" fill="#ffacb2"/><path d="M981.21,573.12q1.32,1.88,2.63,3.76h40.89c-.13-1.26-.27-2.51-.43-3.76Z" fill="#ffacb2"/><path d="M988.49,583.81c.82,1.25,1.65,2.53,2.47,3.81h34.6c-.07-1.28-.14-2.55-.23-3.81Z" fill="#ffacb2"/><path d="M1015.8,637.22c.5,1.37,1,2.73,1.48,4.08h5.49q.36-2,.69-4.08Z" fill="#ffacb2"/><path d="M1007.06,615.85c.63,1.33,1.24,2.65,1.82,4h16.45c0-.61.09-1.2.12-1.81s.06-1.44.09-2.17Z" fill="#ffacb2"/><path d="M1021.43,647.9h-1.81l1.09,3.07C1021,650,1021.2,648.93,1021.43,647.9Z" fill="#ffacb2"/><path d="M852.82,448.05H963.11c-1-.93-2-1.85-3-2.72l-.47-.39H850C850.9,446,851.86,447,852.82,448.05Z" fill="#ffacb2"/><path d="M973.32,562.44q1.41,1.83,2.81,3.71h47.2c-.2-1.24-.4-2.48-.62-3.71Z" fill="#ffacb2"/><path d="M923,509q1.88,1.71,3.7,3.44h80.48c-.53-1.15-1.07-2.3-1.61-3.44Z" fill="#ffacb2"/><path d="M897.55,487.66q2.19,1.66,4.33,3.34h94c-.67-1.12-1.35-2.23-2-3.34Z" fill="#ffacb2"/><path d="M883.21,477c1.4,1.12,2.83,2.21,4.26,3.28H989L986.76,477Z" fill="#ffacb2"/><path d="M910.89,498.35c1.33,1.12,2.64,2.25,4,3.38h87.08c-.59-1.13-1.18-2.26-1.79-3.38Z" fill="#ffacb2"/><path d="M860,455.62c1,1.06,2.08,2.12,3.12,3.17h110c-.9-1.08-1.81-2.13-2.72-3.17Z" fill="#ffacb2"/><path d="M840.34,434.25c.9,1,1.82,2.05,2.73,3.07h107.6L947,434.25Z" fill="#ffacb2"/><path d="M944.91,530.39l3.47,3.55h67.09c-.39-1.19-.78-2.37-1.19-3.55Z" fill="#ffacb2"/><path d="M831,423.57c.86,1,1.73,2,2.6,3H937.91l-3.61-3Z" fill="#ffacb2"/><path d="M964.72,551.76q1.53,1.8,3,3.65h53.57c-.27-1.22-.54-2.44-.82-3.65Z" fill="#ffacb2"/><path d="M955.24,541.08c1.1,1.18,2.21,2.38,3.3,3.6h60.15c-.33-1.21-.66-2.41-1-3.6Z" fill="#ffacb2"/><path d="M934.23,519.71c1.18,1.17,2.37,2.33,3.54,3.5h73.87c-.45-1.17-.91-2.34-1.39-3.5Z" fill="#ffacb2"/><path d="M870.88,466.3q1.75,1.63,3.53,3.23h107c-.79-1.09-1.59-2.16-2.4-3.23Z" fill="#ffacb2"/><path d="M733.09,957.69l.12.21.08-.21Z" fill="#ffacb2"/><path d="M648.86,861.54q3.23,2.57,6.39,5.21H756.32c.14-1.74.28-3.48.38-5.21Z" fill="#ffacb2"/><path d="M661.65,872.23q3,2.6,5.88,5.26H755.2c.23-1.76.42-3.51.61-5.26Z" fill="#ffacb2"/><path d="M619,840.18q3.9,2.51,7.73,5.1H757c0-1.7-.07-3.41-.16-5.1Z" fill="#ffacb2"/><path d="M634.74,850.86q3.53,2.53,7,5.16h115.2c0-1.73.07-3.44.08-5.16Z" fill="#ffacb2"/><path d="M601.15,829.5q3.83,2.09,7.55,4.29l1.24.75H756.45c-.13-1.68-.28-3.37-.46-5Z" fill="#ffacb2"/><path d="M726.57,947q1.8,2.82,3.51,5.64h5.18c.72-1.88,1.42-3.75,2.11-5.64Z" fill="#ffacb2"/><path d="M693.93,904.27q2.39,2.68,4.72,5.43h50.21c.45-1.81.87-3.62,1.3-5.43Z" fill="#ffacb2"/><path d="M719.39,936.32q2,2.79,3.84,5.58h16c.65-1.85,1.27-3.72,1.89-5.58Z" fill="#ffacb2"/><path d="M711.55,925.64l.54.69c1.23,1.61,2.42,3.22,3.6,4.84h27.08c.58-1.84,1.16-3.68,1.72-5.53Z" fill="#ffacb2"/><path d="M703.06,915q2.24,2.71,4.43,5.47H746c.52-1.82,1-3.65,1.5-5.47Z" fill="#ffacb2"/><path d="M673.33,882.91q2.74,2.63,5.45,5.31h74.73c.31-1.77.61-3.54.88-5.31Z" fill="#ffacb2"/><path d="M463.57,765.4c2,1.64,4,3.21,6.05,4.73H739.69c-.76-1.61-1.54-3.18-2.34-4.73Z" fill="#ffacb2"/><path d="M451.65,754.72q2.46,2.4,5,4.67H734.07c-.93-1.59-1.87-3.15-2.84-4.67Z" fill="#ffacb2"/><path d="M441.47,744c1.4,1.57,2.8,3.12,4.21,4.62H727.06q-1.74-2.38-3.57-4.62Z" fill="#ffacb2"/><path d="M495.6,714.69l-5.14-1.15-7-1.55H425c-2.27.6-4.51,1.22-6.71,1.88l1.79,2.58h84.32C501.51,715.91,498.58,715.34,495.6,714.69Z" fill="#ffacb2"/><path d="M635.83,712c-11.08,1.38-22.28,2.91-33.29,4.46h82.88A90.09,90.09,0,0,0,667.78,712Z" fill="#ffacb2"/><path d="M364,1011.1c1.17,2,2.37,4,3.6,5.95H647.26q-1.68-3-3.47-5.95Z" fill="#ffacb2"/><path d="M478.19,776.09c2.1,1.36,4.22,2.68,6.37,3.93.49.29,1,.56,1.49.85H744.27c-.63-1.6-1.26-3.2-1.93-4.78Z" fill="#ffacb2"/><path d="M551.14,808.13l1.12.38c4.4,1.46,8.66,3,12.84,4.56H753.57c-.32-1.65-.66-3.3-1-4.94Z" fill="#ffacb2"/><path d="M521.35,797.45c4.31,1.7,8.65,3.33,13,4.89H751.18q-.63-2.46-1.32-4.89Z" fill="#ffacb2"/><path d="M497.11,786.77q5.07,2.52,10.27,4.83H748.07q-.78-2.43-1.62-4.83Z" fill="#ffacb2"/><path d="M579.28,818.82c3.7,1.61,7.33,3.26,10.86,5H755.33c-.22-1.67-.46-3.34-.73-5Z" fill="#ffacb2"/><path d="M345.56,791.6c-1.17-1.58-2.34-3.21-3.51-4.83H330c-.78,1.59-1.52,3.21-2.23,4.83Z" fill="#ffacb2"/><path d="M333,780.87h4.85c-.89-1.28-1.77-2.53-2.66-3.83Q334.12,778.93,333,780.87Z" fill="#ffacb2"/><path d="M362.72,813.07c-1.4-1.61-2.78-3.28-4.17-4.94h-36.8q-.71,2.45-1.33,4.94Z" fill="#ffacb2"/><path d="M464.86,887c-3.17-1.3-6.29-2.67-9.39-4.07H318.08c.18,1.32.33,2.63.54,4,.06.45.15.9.22,1.35H468Z" fill="#ffacb2"/><path d="M353.84,802.34q-1.93-2.42-3.84-4.89H325.31c-.62,1.61-1.19,3.24-1.75,4.89Z" fill="#ffacb2"/><path d="M352.74,989.73q1.45,2.91,3,5.85H633.58q-2.12-3-4.33-5.85Z" fill="#ffacb2"/><path d="M372.47,823.81q-2.34-2.46-4.65-5h-48.7c-.34,1.65-.67,3.31-.95,5Z" fill="#ffacb2"/><path d="M358.2,1000.41c1,2,2.06,3.92,3.13,5.91H640.84c-1.27-2-2.56-4-3.89-5.91Z" fill="#ffacb2"/><path d="M342.8,968.37c.83,1.9,1.67,3.82,2.54,5.74H616.25c-1.75-1.93-3.53-3.85-5.34-5.74Z" fill="#ffacb2"/><path d="M600.05,957.69H338.34c.76,1.88,1.54,3.78,2.34,5.68H606C604,961.46,602.07,959.56,600.05,957.69Z" fill="#ffacb2"/><path d="M347.62,979.05c.9,1.92,1.81,3.85,2.75,5.8h275c-1.57-2-3.18-3.89-4.81-5.8Z" fill="#ffacb2"/><path d="M496,899q-7.14-2.61-14.38-5.37H319.72c.31,1.79.65,3.58,1,5.37Z" fill="#ffacb2"/><path d="M549.19,920.43c-3.57-1.93-7.19-3.77-10.85-5.47h-214c.46,1.82,1,3.64,1.46,5.47Z" fill="#ffacb2"/><path d="M594.47,952.64c-2.16-1.9-4.35-3.79-6.59-5.64H334.25c.68,1.88,1.37,3.75,2.1,5.64Z" fill="#ffacb2"/><path d="M526,909.7c-1.92-.74-3.85-1.46-5.79-2.14q-4.62-1.6-9.37-3.29h-189q.58,2.72,1.21,5.43Z" fill="#ffacb2"/><path d="M566.81,931.17q-4.21-2.88-8.54-5.53h-231q.79,2.76,1.66,5.53Z" fill="#ffacb2"/><path d="M581.51,941.9c-2.42-1.89-4.9-3.74-7.41-5.58H330.52c.61,1.85,1.26,3.72,1.91,5.58Z" fill="#ffacb2"/><path d="M395.17,845.28q-3-2.5-5.93-5.1h-73c-.11,1.68-.2,3.38-.26,5.1Z" fill="#ffacb2"/><path d="M383.14,834.54c-1-.95-2-1.9-3-2.86-.73-.72-1.44-1.46-2.16-2.18H317.3c-.22,1.66-.4,3.35-.57,5Z" fill="#ffacb2"/><path d="M409,856c-2.32-1.68-4.59-3.41-6.84-5.16H315.88c0,1.71,0,3.42,0,5.16Z" fill="#ffacb2"/><path d="M425,866.75q-4.11-2.54-8.09-5.21H316.1c.08,1.73.18,3.46.3,5.21Z" fill="#ffacb2"/><path d="M444.18,877.49q-5-2.55-9.85-5.26H316.83c.16,1.73.35,3.49.56,5.26Z" fill="#ffacb2"/></g><g id="b496a5c4-2c43-4ae6-a069-4710b991d765" data-name="inner shadow 2"><path d="M513.58,1090.06h-2.31c-45.69-.38-81.94-11.74-110.83-34.7-16.06-12.77-29.5-29.09-40-48.5C337,963.26,323.38,925.18,317.63,887c-6.39-42.35-1.75-77,14.19-106,.82-1.49,1.68-3,2.56-4.46l.8-1.35.88,1.3C350.35,797.55,365,815.37,380.85,831c23.7,23.31,52.1,41.85,84.39,55.09,18.65,7.64,37.58,14.4,55.27,20.57A201.32,201.32,0,0,1,570,932.15c34.35,24.15,61.07,53.31,79.4,86.68,7.77,14.15,12.62,27.57,14.81,41l.11.64-.55.35a100.41,100.41,0,0,1-34.91,14.29C594.3,1082.36,554,1090.06,513.58,1090.06Zm-2.29-2h2.29c40.24,0,80.41-7.68,114.91-14.88a98.85,98.85,0,0,0,33.67-13.64c-2.2-13-6.95-26-14.49-39.75-18.18-33.09-44.69-62-78.79-86a199.4,199.4,0,0,0-49-25.27c-17.71-6.18-36.68-13-55.37-20.61-32.53-13.34-61.14-32-85-55.51a354.85,354.85,0,0,1-44.15-53.48c-.59,1-1.17,2-1.73,3.05-15.72,28.59-20.29,62.86-14,104.76,5.71,37.93,19.26,75.8,42.63,119.18,10.33,19.17,23.6,35.28,39.44,47.88,28.53,22.68,64.38,33.89,109.61,34.27ZM733.37,960.17l-1-1.77a300.09,300.09,0,0,0-21.05-31.47,360.57,360.57,0,0,0-103.1-92.28,284.29,284.29,0,0,0-56.25-25.19c-22.79-7.58-46.79-16.28-67.88-28.58-20.06-11.69-38-28.11-54.87-50.18-4-5.2-7.81-10.52-11.74-16.27l-.77-1.13,1.31-.39c6.79-2,14-3.81,21.43-5.28a60.91,60.91,0,0,1,12-1.12c12.21,0,25.33,2.94,39.23,6l5.15,1.15c3.89.86,7.75,1.58,11.48,2.27l.13,0,4.53.85L549.34,724v-2.2l1,0c.6,0,1.2,0,1.82,0a71.13,71.13,0,0,0,9.45-.78c10.71-1.41,21.86-3,31.69-4.37l.37-.06c14.09-2,28.67-4,43.14-5.82a126.93,126.93,0,0,1,15.57-1c17.88,0,34,4.23,47.89,12.57,18.07,10.83,32.43,28.54,42.7,52.63,15.55,36.49,19.07,76.47,10.45,118.84l-1-.2,1,.2a370.51,370.51,0,0,1-19.32,64.36ZM419.88,714.44c3.64,5.28,7.21,10.22,10.9,15,16.7,21.87,34.46,38.12,54.28,49.68,20.94,12.2,44.82,20.86,67.51,28.4a286,286,0,0,1,56.64,25.37,362.29,362.29,0,0,1,103.67,92.79A305.23,305.23,0,0,1,733,955.62a369.41,369.41,0,0,0,18.47-62.11h0c8.53-42,5-81.55-10.34-117.66-10.1-23.69-24.19-41.09-41.89-51.7-13.58-8.15-29.35-12.28-46.86-12.28a126.82,126.82,0,0,0-15.32,1c-14.46,1.78-29,3.83-43.11,5.83l-.37.05c-9.84,1.39-21,3-31.71,4.37a72.53,72.53,0,0,1-9.71.8h-.86v2.54l-39.75-7.6-4.52-.85H507c-3.78-.71-7.66-1.43-11.58-2.3l-5.15-1.15c-13.79-3.08-26.81-6-38.8-6a59.32,59.32,0,0,0-11.63,1.08C432.92,711,426.22,712.59,419.88,714.44Zm601-60-1.11-3.12c-.51-1.41-1.63-4.57-1.63-4.57-4.68-13.23-10-28.23-18.07-42.21-15.2-26.29-31.14-47.91-48.73-66.09-18.08-18.68-37.71-38.32-61.43-55.14-20.14-14.29-37.78-34.2-54.83-53.46L834,428.6a232.63,232.63,0,0,1-48.22-86.44,516,516,0,0,1-15.5-65l-.69-4.07,2.48,3.3c9.36,12.47,23.85,30.79,41.53,45.87,24.26,20.72,49.22,41.19,73.36,61l.12.09c24.31,19.95,49.46,40.57,73.68,61.27,10.74,9.19,20.44,22.47,29.33,35.47a213.37,213.37,0,0,1,32.55,76.68c3.86,18.22,5.11,38.29,3.82,61.36a179.21,179.21,0,0,1-4.77,33.13ZM773,280.86a514.59,514.59,0,0,0,14.73,60.71,230.68,230.68,0,0,0,47.81,85.71l1.08,1.22c17,19.18,34.54,39,54.5,53.16,23.86,16.92,43.57,36.63,61.71,55.38,17.7,18.3,33.73,40.05,49,66.48,8.18,14.14,13.52,29.23,18.23,42.53l.49,1.39a181,181,0,0,0,3.93-29.47c1.28-22.89,0-42.79-3.77-60.84a211.47,211.47,0,0,0-32.25-76c-8.81-12.88-18.42-26.05-29-35.08-24.2-20.69-49.34-41.3-73.65-61.24l-.09-.07c-24.17-19.82-49.14-40.3-73.42-61C796,309.83,782.36,293.19,773,280.86Z"/></g><g id="b515da8e-9319-42eb-8c14-7ccfa225a60a" data-name="inner shadow"><path d="M404.67,852.83a263.93,263.93,0,0,0,75.06,46.32c18.66,7.64,37.62,14.4,55.32,20.58a200.56,200.56,0,0,1,49.28,25.4c3.39,2.39,6.69,4.84,9.93,7.32A294.37,294.37,0,0,0,569.46,933a200.56,200.56,0,0,0-49.28-25.4c-17.71-6.17-36.66-12.94-55.32-20.58A267.75,267.75,0,0,1,404.67,852.83Z"/><path d="M376.23,1018.54c-23.43-43.48-37-81.45-42.74-119.5-6.33-41.95-1.78-76.31,13.89-105-4.09-5.43-8.14-11.06-12.15-17-.86,1.46-1.71,2.93-2.54,4.43-15.82,28.8-20.43,63.27-14.07,105.4,5.73,38,19.31,76,42.74,119.5a154.56,154.56,0,0,0,39.7,48.2c2,1.57,4,3.07,6.05,4.54A158.12,158.12,0,0,1,376.23,1018.54Z"/><path d="M471,771.13a219.22,219.22,0,0,1-26.14-28.87c-3.89-5.11-7.77-10.47-11.7-16.22q10.17-3,21.33-5.26a59.9,59.9,0,0,1,11.83-1.1c12.11,0,25.18,2.93,39,6l5.14,1.14c3.93.87,7.8,1.59,11.55,2.29l4.63.87,38.56,7.37V735c.61,0,1.23,0,1.86,0a70.74,70.74,0,0,0,9.58-.79c10.85-1.42,22.13-3,32.07-4.42,14.13-2,28.75-4.06,43.13-5.82a126.82,126.82,0,0,1,15.45-1c17.69,0,33.63,4.18,47.37,12.42.85.52,1.69,1.06,2.53,1.6a88.72,88.72,0,0,0-17.4-13.77c-13.75-8.24-29.69-12.42-47.38-12.42a127.07,127.07,0,0,0-15.45,1c-14.38,1.76-29,3.83-43.12,5.82-10,1.41-21.22,3-32.07,4.43a72.53,72.53,0,0,1-9.58.79c-.63,0-1.25,0-1.86,0v2.37l-38.56-7.37-4.63-.87c-3.75-.7-7.63-1.42-11.55-2.28l-5.14-1.15c-13.84-3.1-26.91-6-39-6a59.9,59.9,0,0,0-11.83,1.1q-11.14,2.22-21.33,5.26c3.93,5.75,7.8,11.11,11.7,16.22C442.86,747,456.38,760.49,471,771.13Z"/><path d="M727,938.49a364.32,364.32,0,0,0-67.3-68,366.84,366.84,0,0,1,52.43,55.84,298.41,298.41,0,0,1,21.12,31.57c.94-2.33,1.84-4.67,2.73-7Q731.67,944.7,727,938.49Z"/><path d="M850.69,441.33l-1.08-1.22a231.56,231.56,0,0,1-48-86.08,514.86,514.86,0,0,1-14-56.6c-6.11-7.09-11.58-14.1-16.36-20.47a511.81,511.81,0,0,0,15.47,64.9,231.56,231.56,0,0,0,48,86.08l1.08,1.22c16.5,18.63,33.55,37.86,52.84,52C875.26,469.05,862.83,455,850.69,441.33Z"/><path d="M1015.8,616.19c-15.24-26.36-31.23-48.05-48.87-66.29-15.86-16.38-32.9-33.5-52.87-48.83,13.79,11.94,26.23,24.5,38,36.66C969.7,556,985.69,577.66,1000.93,604c8.14,14.07,13.46,29.11,18.16,42.38,0,0,1.11,3.15,1.62,4.57a159.23,159.23,0,0,0,3.38-18.21A163.11,163.11,0,0,0,1015.8,616.19Z"/></g></g></g></g></svg>