<svg xmlns="http://www.w3.org/2000/svg" viewBox="0 0 1366 1366"><g id="a1997ce9-2790-4ffe-8070-590a4c4f96bf" data-name="Expanded"><g id="ec490e12-9143-4d59-8de3-4773fcc24e1b" data-name="Expanded(Color) #2"><g id="a294696d-cb49-472a-a87c-1c00bb22fa28" data-name="Web logo"><path d="M419,761.3A131.1,131.1,0,0,0,391.67,796c-15.4,28-20,60.73-14.08,100,5,33.26,16.69,66.1,36.76,103.35a148.25,148.25,0,0,0,38.2,46.24c27.48,21.85,61.32,32.65,103.44,33,34.92.25,69.29-6.23,98.74-12.38a102.89,102.89,0,0,0,48.93-24.68,90,90,0,0,0-.64-11.46c-1.82-15.07-6.78-29.82-15.17-45.1-16.42-29.88-40.18-55.89-70.62-77.29a185.2,185.2,0,0,0-45.49-23.44c-13.74-4.79-28.42-10-42.67-15.86a182,182,0,0,1-59-38.47c-12.29-12.09-23.71-26.22-34.9-43.2-4.08-6.19-8.1-12.58-12-18.76Z" fill="#a71333"/><path d="M729.13,1011.37l-.25-1.34a130.05,130.05,0,0,0-4.77-18c-6.13-18.1-15.58-35.41-28.89-52.91a261.59,261.59,0,0,0-74.81-67,201.4,201.4,0,0,0-39.8-17.78c-19.39-6.45-39.92-13.91-58.65-24.83s-35.46-26.12-50.88-46.3A409.06,409.06,0,0,1,444.37,743l-.29-.48.5-.26c14.27-7.6,31-13.32,49.62-17,17.47-3.47,34.55.35,51.06,4l4,.89c2.69.6,5.44,1.11,8.35,1.65l3.77.71c0-2.69,0-5.3,0-7.86,0-5.67,0-11,0-16.4.46-32.92,6.46-65.17,12.56-95.38,11.23-55.54,28.17-103,51.81-145.21,9.5-17,20.2-33.63,30.55-49.75,5.65-8.8,11.49-17.9,17.07-26.94,6.09-9.88,12-20.09,17.78-30q3.07-5.29,6.17-10.58c8.84-15.09,13.29-32,13.61-51.68.12-7.3,2.48-10.06,9.35-11,13.36-1.73,25.86,2.67,37.14,13.1,2.76,2.55,2.93,5.58.52,9.26a9.55,9.55,0,0,0-1.49,5.79c2.5,21.94,7.61,50.14,25,73.63,7.88,10.64,18.53,24.22,31.08,34.93,19.1,16.3,38.84,32.49,57.94,48.15,19.45,15.95,39.57,32.45,59,49.07,10.75,9.2,19.66,21.33,27.69,33.07a194.24,194.24,0,0,1,29.69,69.86h0c3.53,16.67,4.69,34.77,3.54,55.33-1.32,23.52-6.45,43.11-15.67,59.86-5.16,9.4-12,18.06-18.56,26.43-2.74,3.49-5.58,7.09-8.25,10.69a4.29,4.29,0,0,1-2.16,1.2c-.51.18-1.09.39-1.75.68l-.89.39.14-1c.15-1,.29-1.9.42-2.73.24-1.62.46-3,.61-4.39a118.44,118.44,0,0,0-6.4-54.21c-.88-2.4-1.74-4.82-2.6-7.25-3.52-10-7.16-20.25-12.44-29.37-11-19.1-22.51-34.69-35-47.66-13.54-14-28.19-28.66-45.3-40.8-18.35-13-33.34-29.94-47.83-46.3l-.86-1a209.55,209.55,0,0,1-43.49-77.9,434.37,434.37,0,0,1-13.27-56c-3-18-2.64-37.43,1.17-59.37a75.64,75.64,0,0,0,1.45-12.36l-.57,1.05a35.67,35.67,0,0,0-2.91,6.24c-6,19.08-17.5,35.33-28.61,51.05L704.29,402c-5.33,7.6-10.89,15.25-16.26,22.64-12.37,17-25.15,34.61-36.12,52.86-29.84,49.64-50.72,105.78-62.06,166.86a344.47,344.47,0,0,0-5.42,73c.08,2.65.35,5.35.6,8,.14,1.44.28,2.88.4,4.32.29,3.54.47,5.28,1.31,6s2.61.53,6.17.06c8.43-1.11,17-2.32,25.27-3.49,11.37-1.6,23.13-3.26,34.73-4.69,25-3.07,47.29,1.16,66.32,12.58s33.8,29.36,44.06,53.45C777.68,827.26,781,864,773.1,902.72a322.06,322.06,0,0,1-43.24,107.49Z" fill="#a71333"/></g></g></g></svg>