<svg xmlns="http://www.w3.org/2000/svg" viewBox="0 0 1366 1366"><g id="b51be9bf-d5bb-4692-89bb-7d9d9eb4cf9a" data-name="Expanded"><g id="b2c39892-2a84-45b5-9ca2-6da4d9ba5daf" data-name="Expanded(Color) #2"><g id="a11e205b-f344-4ed6-8bd4-39c711b97920" data-name="Web logo"><path d="M736.55,737.71a131.21,131.21,0,0,0-27.33,34.67c-15.4,28-20,60.74-14.08,100,5,33.25,16.69,66.09,36.75,103.34A148.57,148.57,0,0,0,770.1,1022c27.48,21.85,61.32,32.64,103.44,33,34.92.26,69.29-6.23,98.74-12.37a102.9,102.9,0,0,0,48.93-24.69,89.79,89.79,0,0,0-.64-11.45c-1.82-15.07-6.78-29.82-15.17-45.1-16.42-29.89-40.18-55.89-70.62-77.29a184.85,184.85,0,0,0-45.49-23.44c-13.74-4.79-28.42-10-42.67-15.87a182.09,182.09,0,0,1-59-38.46c-12.29-12.09-23.71-26.22-34.9-43.2-4.08-6.19-8.1-12.59-12-18.77Z" fill="#a71333"/><path d="M1046.68,987.78l-.25-1.35a130.8,130.8,0,0,0-4.77-18c-6.13-18.09-15.58-35.4-28.89-52.9a261.59,261.59,0,0,0-74.81-67,201.67,201.67,0,0,0-39.8-17.79c-19.39-6.44-39.92-13.91-58.65-24.83s-35.46-26.11-50.88-46.3a408.81,408.81,0,0,1-26.71-40.23l-.29-.48.5-.27c14.27-7.59,31-13.32,49.62-17,17.47-3.48,34.55.35,51.06,4l4,.9c2.69.59,5.44,1.11,8.35,1.65l3.77.71c0-2.69,0-5.3,0-7.86,0-5.67,0-11,0-16.4.46-32.92,6.45-65.17,12.56-95.38,11.23-55.54,28.17-103,51.8-145.21,9.51-17,20.21-33.63,30.56-49.75,5.65-8.8,11.49-17.9,17.07-26.95,6.09-9.87,12-20.09,17.78-30q3.07-5.3,6.17-10.58c8.84-15.09,13.29-32,13.61-51.68.12-7.3,2.47-10.07,9.34-11,13.37-1.74,25.87,2.67,37.15,13.09,2.76,2.56,2.93,5.59.52,9.27a9.55,9.55,0,0,0-1.49,5.79c2.5,21.94,7.61,50.14,25,73.63,7.88,10.64,18.53,24.22,31.08,34.92,19.1,16.31,38.84,32.5,57.94,48.16,19.45,15.95,39.57,32.44,59,49.07,10.75,9.19,19.66,21.32,27.69,33.06A194.36,194.36,0,0,1,1304.49,601h0c3.53,16.67,4.69,34.77,3.54,55.33-1.32,23.52-6.45,43.1-15.67,59.86-5.16,9.39-12,18-18.56,26.43-2.74,3.48-5.58,7.08-8.25,10.68a4.3,4.3,0,0,1-2.16,1.21c-.51.18-1.09.38-1.75.67l-.89.4.14-1c.15-1,.29-1.89.42-2.73.24-1.61.46-3,.61-4.38a118.41,118.41,0,0,0-6.4-54.21c-.88-2.41-1.74-4.83-2.6-7.25-3.52-10-7.16-20.26-12.44-29.37-11-19.11-22.51-34.7-35-47.66-13.54-14-28.19-28.67-45.3-40.8-18.35-13-33.34-29.94-47.83-46.3l-.86-1A209.51,209.51,0,0,1,1068,443.08a434.76,434.76,0,0,1-13.27-56c-3-18-2.64-37.44,1.17-59.38a74.45,74.45,0,0,0,1.44-12.35l-.56,1a35.76,35.76,0,0,0-2.91,6.25c-6,19.08-17.5,35.33-28.61,51-1.12,1.59-2.25,3.18-3.37,4.78-5.33,7.6-10.89,15.24-16.26,22.64-12.37,17-25.16,34.6-36.12,52.86-29.84,49.63-50.72,105.77-62.06,166.86a344.42,344.42,0,0,0-5.42,73c.08,2.65.35,5.35.6,8,.14,1.43.28,2.87.4,4.31.29,3.55.47,5.28,1.31,6s2.61.52,6.17,0c8.43-1.11,17-2.31,25.27-3.48,11.37-1.61,23.13-3.27,34.73-4.69,25-3.07,47.29,1.16,66.32,12.57s33.79,29.37,44.06,53.46c14.39,33.74,17.68,70.49,9.81,109.21a322.15,322.15,0,0,1-43.24,107.49Z" fill="#a71333"/><path d="M89.26,533.78q-21.14-22.32-21.14-63.45,0-27,9.28-46.4t26.08-29.38q16.8-10,38.89-10,13.4,0,27,7.75a54,54,0,0,1,10.34,7.52,43.18,43.18,0,0,1,8.23-9.63c2.82-2,4.38-3.14,4.7-3.29h5.87v44.64h-9.4A69.28,69.28,0,0,0,180,411.12a51.8,51.8,0,0,0-14-14.81,32.51,32.51,0,0,0-19.16-5.87q-16.2,0-26.9,18.8t-10.69,61.09q0,43,11.63,61.45t31.84,18.45a39.15,39.15,0,0,0,21-6.23A48.88,48.88,0,0,0,190,527.43a41.68,41.68,0,0,0,6.23-21.85h5.87a46.86,46.86,0,0,1-7.16,25,52.89,52.89,0,0,1-19.51,18.56A54.91,54.91,0,0,1,148,556.1Q110.41,556.1,89.26,533.78Z" fill="#a71333"/><path d="M219.68,549.05l14.1-3.52V395.14l-14.1-3.52v-3.53h30.54q21.15,0,21.15,21.15v37.6a37.06,37.06,0,0,1,30.55-15.28,50,50,0,0,1,23.62,5.52,43.36,43.36,0,0,1,16.33,14.46,33.67,33.67,0,0,1,5.87,18.79v75.2l14.1,3.52v3.53H331.29q-21.15,0-21.15-21.15v-61.1q0-14.81-5.28-22.67t-12.34-7.87q-8.92,0-16,9.4a38.24,38.24,0,0,0-5.17,9.39v86.95l14.1,3.52v3.53H219.68Z" fill="#a71333"/><path d="M392.62,539.53q-16.68-16.56-16.68-45.7,0-19,7.28-33.13a51.65,51.65,0,0,1,20.33-21.62q13-7.51,30-7.52t29.72,6.35a48.56,48.56,0,0,1,19.74,17,42.53,42.53,0,0,1,6.93,23.62,38.19,38.19,0,0,1-1.17,10.1l-1.18,4q-10.11,2.11-21.85,3.52a351.87,351.87,0,0,1-49.82,3.53q0,27.26,7.52,38.88t20.68,11.64a34.67,34.67,0,0,0,17-4.35,34,34,0,0,0,12.45-11.51,26.93,26.93,0,0,0,4.58-14.69H484a31.67,31.67,0,0,1-5.64,17.86,39.84,39.84,0,0,1-15.75,13.51,51.3,51.3,0,0,1-23.26,5.05Q409.3,556.1,392.62,539.53Zm47.7-46.87a57.75,57.75,0,0,0,8.46-1.18c.15-.78.55-2.5,1.18-5.17a63.57,63.57,0,0,0,1.17-12.45q0-19.5-5.17-28.55t-12.45-9.05q-17.62,0-17.63,57.57A205.59,205.59,0,0,0,440.32,492.66Z" fill="#a71333"/><path d="M507.52,549.05l14.1-3.52V442.14l-14.1-3.53v-3.52h21.15q13.86,0,21.86,8.93a31.4,31.4,0,0,1,5.17,8.69,44.42,44.42,0,0,1,8.69-9.4,41.09,41.09,0,0,1,26.32-9.4q12.45,0,18.68,5.76t6.22,16.56q0,8-4.81,12.81T598,473.86a47,47,0,0,1-6.58-.47l-2.82-.71V439.79q-12,0-21.85,9.4a49.12,49.12,0,0,0-7.52,9.39v86.95l14.1,3.52v3.53h-65.8Z" fill="#a71333"/><path d="M626.19,549.05l14.1-3.52V442.14l-14.1-3.53v-3.52h21.14q13.88,0,21.86,8.93a31.4,31.4,0,0,1,5.17,8.69,44.68,44.68,0,0,1,8.69-9.4,41.09,41.09,0,0,1,26.32-9.4q12.45,0,18.68,5.76t6.23,16.56q0,8-4.82,12.81t-12.81,4.82a47.08,47.08,0,0,1-6.58-.47l-2.82-.71V439.79q-12,0-21.85,9.4a49.51,49.51,0,0,0-7.52,9.39v86.95l14.1,3.52v3.53H626.19Z" fill="#a71333"/><path d="M756.59,597.46q-5.87-5.64-5.87-15.51,0-8.94,4.82-13.87t12.8-4.93a20.72,20.72,0,0,1,3.76.35,16.33,16.33,0,0,0,2.59.35l3,.48v31.72q6.82-1.18,12-7.52t11.51-21.86l4.7-11.74L744.85,442.14l-11.75-3.53v-3.52h29.37q12.21,0,19.39,5.05t12.33,14.92l29.37,54.28,24.68-63.68-17.63-7.05v-3.52h43.47v3.52l-18.79,7.05-47,121q-7.51,19.27-16,27.85T773,603.1Q762.47,603.1,756.59,597.46Z" fill="#a71333"/><path d="M69.29,787.44l14.1-3.53V633.52L69.29,630v-3.52h63.45q35.72,0,52.51,11.39t16.8,29.73q0,12.69-7.28,20.44a44,44,0,0,1-18.56,11.51A81.16,81.16,0,0,1,150.36,704v1.17q17.14.7,29.84,5.17a51.38,51.38,0,0,1,21.5,13.16q8.58,8.94,8.58,22.79,0,20.93-17.15,32.78T137.44,791H69.29Zm63.45-85.77a26,26,0,0,0,14.45-4.35A31.77,31.77,0,0,0,158,685.1a37.21,37.21,0,0,0,4.11-17.5A39.53,39.53,0,0,0,158,649.27a32.54,32.54,0,0,0-10.81-12.46,25.61,25.61,0,0,0-14.45-4.46H122.16v69.32Zm4.7,83.42q14.56,0,23.73-10.34t9.16-28.44q0-18.09-9.16-28.43t-23.73-10.34H122.16v77.55Z" fill="#a71333"/><path d="M243.41,777.92q-16.68-16.56-16.68-45.7,0-19,7.28-33.14a51.62,51.62,0,0,1,20.33-21.61q13-7.53,30-7.52T314,676.29a48.5,48.5,0,0,1,19.74,17,42.52,42.52,0,0,1,6.93,23.61,38.27,38.27,0,0,1-1.17,10.11l-1.18,4q-10.11,2.12-21.85,3.53a351.87,351.87,0,0,1-49.82,3.52q0,27.25,7.52,38.89t20.68,11.63a34.57,34.57,0,0,0,17-4.35,33.87,33.87,0,0,0,12.45-11.51,26.91,26.91,0,0,0,4.58-14.69h5.88a31.67,31.67,0,0,1-5.64,17.86,39.76,39.76,0,0,1-15.75,13.51,51.3,51.3,0,0,1-23.26,5.06Q260.1,794.49,243.41,777.92ZM291.11,731a57.67,57.67,0,0,0,8.46-1.17c.15-.79.55-2.51,1.18-5.17a63.74,63.74,0,0,0,1.17-12.46q0-19.5-5.17-28.55t-12.45-9q-17.62,0-17.63,57.57A203.17,203.17,0,0,0,291.11,731Z" fill="#a71333"/><path d="M369.59,785.56q-11.26-8.94-11.27-22.8a43.82,43.82,0,0,1,4-18.09,33.17,33.17,0,0,1,4.23-7.75q9.63-2.35,20.91-4.23a390.15,390.15,0,0,1,44.88-5.17v-7q0-26.09-6.34-36t-19.5-9.87a27,27,0,0,0-8.46,1.17L394.74,677v35.24l-3.06.71a53.28,53.28,0,0,1-6.34.47q-8,0-12.81-4.82t-4.82-12.81q0-10.8,10.93-18.32T411.19,670q18.31,0,31.6,6.46T463,694.27a49.42,49.42,0,0,1,6.93,26.2v63.44l14.1,3.53V791H462.88q-14.1,0-21.85-8.69a24.73,24.73,0,0,1-5.17-8.93,52.76,52.76,0,0,1-7.76,10.57q-10.58,10.58-26.31,10.58Q380.86,794.49,369.59,785.56Zm57.34-8.7a60.41,60.41,0,0,0,5.4-9.4V733.39a173.47,173.47,0,0,0-20.67,1.18c-4.86.62-8.15,1-9.87,1.17a45.27,45.27,0,0,0-2.35,7,68.94,68.94,0,0,0-2.35,17.62q0,13.17,4,19.51t10.11,6.34Q419.88,786.26,426.93,776.86Z" fill="#a71333"/><path d="M498.13,787.44l14.1-3.53V680.52L498.13,677v-3.53h21.14q13.88,0,21.86,8.93a31.4,31.4,0,0,1,5.17,8.69,44.9,44.9,0,0,1,7.75-10.57q10.58-10.57,26.32-10.57A49.79,49.79,0,0,1,604,675.47a43.29,43.29,0,0,1,16.34,14.45,33.73,33.73,0,0,1,5.87,18.8v75.19l14.1,3.53V791H609.74q-21.15,0-21.15-21.15V708.72q0-14.81-5.28-22.68T571,678.17q-8.94,0-16,9.4a38.49,38.49,0,0,0-5.17,9.4v86.94l14.1,3.53V791H498.13Z" fill="#a71333"/><path d="M89.26,1010.55Q68.13,988.23,68.12,947.1q0-27,9.28-46.41t26.08-29.37q16.8-10,38.89-10,13.4,0,27,7.76a54,54,0,0,1,10.34,7.52A43.26,43.26,0,0,1,188,867c2.82-2,4.38-3.13,4.7-3.29h5.87v44.65h-9.4A69.28,69.28,0,0,0,180,887.89a51.8,51.8,0,0,0-14-14.81,32.51,32.51,0,0,0-19.16-5.87q-16.2,0-26.9,18.8T109.24,947.1q0,43,11.63,61.45T152.71,1027a39.15,39.15,0,0,0,21-6.23A48.88,48.88,0,0,0,190,1004.2a41.68,41.68,0,0,0,6.23-21.85h5.87a46.8,46.8,0,0,1-7.16,25,52.84,52.84,0,0,1-19.51,18.57,54.91,54.91,0,0,1-27.37,6.93Q110.41,1032.87,89.26,1010.55Z" fill="#a71333"/><path d="M233.31,1023.94Q222,1015,222,1001.15a44,44,0,0,1,4-18.1,33.91,33.91,0,0,1,4.23-7.75q9.63-2.34,20.92-4.23a391.89,391.89,0,0,1,44.88-5.17v-7q0-26.08-6.35-36T270.2,913a26.69,26.69,0,0,0-8.46,1.18l-3.29,1.17v35.25l-3.06.7a51.12,51.12,0,0,1-6.34.47q-8,0-12.81-4.82t-4.81-12.8q0-10.81,10.92-18.33t32.55-7.52q18.33,0,31.6,6.46t20.21,17.86a49.42,49.42,0,0,1,6.93,26.2v63.44l14.1,3.53v3.52H326.59q-14.1,0-21.85-8.69a24.64,24.64,0,0,1-5.17-8.93,52.44,52.44,0,0,1-7.75,10.57q-10.57,10.57-26.32,10.58Q244.58,1032.87,233.31,1023.94Zm57.33-8.69a60.84,60.84,0,0,0,5.41-9.4V971.77A175.64,175.64,0,0,0,275.37,973q-7.29.94-9.87,1.18a44.74,44.74,0,0,0-2.35,7,69,69,0,0,0-2.35,17.63q0,13.16,4,19.5c2.67,4.23,6,6.35,10.11,6.35Q283.59,1024.65,290.64,1015.25Z" fill="#a71333"/><path d="M360.66,1025.82l14.1-3.53V922.43H358.31v-5.88h16.45V904.81a42.21,42.21,0,0,1,6-22.33A41.35,41.35,0,0,1,397.91,867q11.16-5.64,26.2-5.64,12.21,0,21,3.65t13.28,9.63a20.79,20.79,0,0,1,4.46,12.57q0,8-4.82,12.81t-12.8,4.82a46.86,46.86,0,0,1-6.58-.47l-2.82-.71V867.21l-2.12-.47c-.63-.16-1.33-.31-2.11-.47a15.21,15.21,0,0,0-2.82-.24q-8,0-12.22,8.35t-4.23,30.43v11.74H450v5.88h-37.6v99.86l14.1,3.53v3.52h-65.8Z" fill="#a71333"/><path d="M473.69,1016.3Q457,999.74,457,970.6q0-19,7.29-33.13a51.69,51.69,0,0,1,20.32-21.62q13-7.51,30-7.52t29.73,6.34a48.5,48.5,0,0,1,19.74,17A42.53,42.53,0,0,1,571,955.33a37.8,37.8,0,0,1-1.18,10.1l-1.17,4q-10.11,2.12-21.85,3.53A351.87,351.87,0,0,1,497,976.47q0,27.27,7.52,38.89T525.15,1027a34.64,34.64,0,0,0,17-4.35,34,34,0,0,0,12.46-11.52,27,27,0,0,0,4.58-14.68h5.87a31.76,31.76,0,0,1-5.63,17.86,39.84,39.84,0,0,1-15.75,13.51,51.46,51.46,0,0,1-23.26,5Q490.36,1032.87,473.69,1016.3Zm47.7-46.88a56.35,56.35,0,0,0,8.46-1.17c.15-.78.55-2.5,1.17-5.17a63.63,63.63,0,0,0,1.18-12.45q0-19.5-5.17-28.55T514.57,913Q497,913,497,970.6A203.29,203.29,0,0,0,521.39,969.42Zm-14.57-69.31,9.4-35.25h30.55L515,900.11Z" fill="#a71333"/></g></g></g></svg>