<svg xmlns="http://www.w3.org/2000/svg" viewBox="0 0 1264.34 791.19"><g id="fa3314cd-30a3-418e-8cd7-a8bc4d909896" data-name="Expanded"><g id="ae36e4c1-c826-4e63-a80e-586f746ccd12" data-name="Expanded(Color) #2"><g id="a4dd05d1-8a3b-41eb-91e0-985d6875c3fd" data-name="Web logo"><path d="M692.43,473.9a130.81,130.81,0,0,0-27.32,34.67c-15.41,28-20,60.74-14.09,100,5,33.26,16.69,66.1,36.76,103.35A148.54,148.54,0,0,0,726,758.18c27.49,21.84,61.32,32.64,103.44,33,34.92.26,69.29-6.23,98.74-12.38a102.8,102.8,0,0,0,48.93-24.68,88.24,88.24,0,0,0-.64-11.46c-1.81-15.07-6.78-29.82-15.17-45.1-16.42-29.88-40.18-55.88-70.62-77.28a184.51,184.51,0,0,0-45.49-23.44c-13.74-4.79-28.42-10-42.67-15.87a182.06,182.06,0,0,1-59-38.47c-12.29-12.09-23.7-26.22-34.9-43.2-4.08-6.19-8.09-12.58-12-18.76C695.22,478.33,693.83,476.11,692.43,473.9Z" fill="#a71333"/><path d="M1002.57,724l-.26-1.35a130.8,130.8,0,0,0-4.77-18c-6.12-18.1-15.58-35.4-28.89-52.91a261.51,261.51,0,0,0-74.8-67A200.93,200.93,0,0,0,854,566.94c-19.39-6.44-39.92-13.91-58.65-24.83s-35.46-26.11-50.88-46.3a411.82,411.82,0,0,1-26.71-40.23l-.28-.49.49-.26c14.27-7.59,31-13.32,49.62-17,17.47-3.47,34.55.35,51.06,4.05l4,.9c2.69.59,5.44,1.1,8.36,1.65l3.76.7c0-2.69,0-5.3,0-7.85,0-5.67,0-11,0-16.41.46-32.91,6.46-65.16,12.56-95.38,11.23-55.53,28.18-103,51.81-145.21,9.5-17,20.2-33.63,30.55-49.74,5.65-8.8,11.49-17.91,17.07-26.95,6.1-9.88,12-20.09,17.78-30L970.79,63c8.84-15.08,13.3-32,13.62-51.68.11-7.29,2.47-10.06,9.34-11,13.36-1.74,25.86,2.67,37.14,13.09,2.76,2.56,2.94,5.59.53,9.26a9.51,9.51,0,0,0-1.5,5.79c2.51,22,7.62,50.15,25,73.64,7.88,10.63,18.53,24.21,31.08,34.92,19.1,16.3,38.84,32.5,57.94,48.15,19.45,16,39.57,32.45,59,49.08,10.75,9.19,19.67,21.32,27.7,33.06a194.66,194.66,0,0,1,29.69,69.86h0c3.52,16.68,4.68,34.77,3.53,55.33-1.32,23.53-6.44,43.11-15.66,59.87-5.17,9.39-12,18.05-18.57,26.43-2.74,3.48-5.57,7.08-8.25,10.68a4.18,4.18,0,0,1-2.16,1.2c-.51.18-1.09.39-1.74.68l-.9.4.15-1c.14-1,.28-1.9.41-2.73.25-1.61.46-3,.62-4.39a118.58,118.58,0,0,0-6.41-54.21c-.88-2.4-1.73-4.82-2.59-7.24-3.53-10-7.17-20.26-12.44-29.37-11-19.11-22.52-34.7-35.06-47.66-13.54-14-28.19-28.67-45.3-40.8-18.35-13-33.34-29.94-47.83-46.31l-.86-1a209.7,209.7,0,0,1-43.48-77.89,433.14,433.14,0,0,1-13.28-56c-3-18-2.64-37.44,1.18-59.38a76.63,76.63,0,0,0,1.44-12.36l-.57,1a35.76,35.76,0,0,0-2.91,6.25c-6,19.07-17.5,35.33-28.61,51-1.12,1.6-2.25,3.19-3.37,4.78-5.33,7.6-10.89,15.25-16.26,22.64-12.37,17-25.15,34.61-36.12,52.87C895.5,239.75,874.62,295.89,863.28,357a344.56,344.56,0,0,0-5.42,73c.09,2.64.35,5.34.61,8,.14,1.44.28,2.88.39,4.32.29,3.55.47,5.28,1.32,6s2.6.52,6.16.05c8.43-1.11,17-2.32,25.27-3.48,11.37-1.61,23.13-3.27,34.73-4.69,25-3.07,47.3,1.16,66.32,12.57s33.8,29.36,44.07,53.45c14.38,33.75,17.68,70.49,9.8,109.21a322.09,322.09,0,0,1-43.23,107.5Z" fill="#a71333"/><path d="M21.15,270Q0,247.64,0,206.52q0-27,9.28-46.41t26.08-29.37q16.8-10,38.89-10,13.4,0,27,7.76A54.3,54.3,0,0,1,111.62,136a43.24,43.24,0,0,1,8.22-9.64c2.82-2,4.38-3.13,4.7-3.29h5.87v44.65H121a69,69,0,0,0-9.16-20.44,51.54,51.54,0,0,0-14-14.81,32.48,32.48,0,0,0-19.15-5.87q-16.22,0-26.91,18.8T41.12,206.52q0,43,11.63,61.45t31.84,18.44a39.14,39.14,0,0,0,21-6.22,49,49,0,0,0,16.22-16.57,41.67,41.67,0,0,0,6.22-21.85h5.88a46.82,46.82,0,0,1-7.17,25,52.89,52.89,0,0,1-19.5,18.57,55,55,0,0,1-27.38,6.93Q42.3,292.29,21.15,270Z" fill="#a71333"/><path d="M151.56,285.24l14.1-3.53V131.33l-14.1-3.53v-3.52h30.55q21.15,0,21.15,21.15V183a37,37,0,0,1,30.54-15.27,49.83,49.83,0,0,1,23.62,5.52,43.26,43.26,0,0,1,16.33,14.45,33.73,33.73,0,0,1,5.87,18.8v75.19l14.1,3.53v3.52H263.17q-21.13,0-21.14-21.14v-61.1q0-14.81-5.29-22.67T224.4,176q-8.93,0-16,9.4a38.81,38.81,0,0,0-5.16,9.4v86.94l14.09,3.53v3.52H151.56Z" fill="#a71333"/><path d="M324.5,275.72q-16.68-16.56-16.68-45.7,0-19,7.28-33.13a51.72,51.72,0,0,1,20.33-21.62q13-7.52,30-7.52t29.72,6.34a48.5,48.5,0,0,1,19.74,17,42.53,42.53,0,0,1,6.93,23.62,38.24,38.24,0,0,1-1.17,10.1l-1.18,4q-10.1,2.11-21.85,3.53a351.73,351.73,0,0,1-49.81,3.52q0,27.27,7.52,38.89T376,286.41a34.66,34.66,0,0,0,17-4.34,33.9,33.9,0,0,0,12.45-11.52A26.89,26.89,0,0,0,410,255.87h5.87a31.69,31.69,0,0,1-5.64,17.86,40,40,0,0,1-15.74,13.51,51.47,51.47,0,0,1-23.27,5.05Q341.18,292.29,324.5,275.72Zm47.7-46.88a56.17,56.17,0,0,0,8.46-1.17q.24-1.17,1.18-5.17A63.64,63.64,0,0,0,383,210.05q0-19.52-5.17-28.55t-12.45-9.05q-17.62,0-17.62,57.57A203,203,0,0,0,372.2,228.84Z" fill="#a71333"/><path d="M439.41,285.24l14.1-3.53V178.32l-14.1-3.52v-3.53h21.14q13.88,0,21.86,8.93a31.32,31.32,0,0,1,5.17,8.7,44.44,44.44,0,0,1,8.69-9.4,41.05,41.05,0,0,1,26.32-9.4q12.45,0,18.68,5.76t6.23,16.56q0,8-4.82,12.81t-12.81,4.82a47.08,47.08,0,0,1-6.58-.47l-2.82-.71V176q-12,0-21.85,9.4a49.87,49.87,0,0,0-7.52,9.4v86.94l14.1,3.53v3.52H439.41Z" fill="#a71333"/><path d="M558.07,285.24l14.1-3.53V178.32l-14.1-3.52v-3.53h21.15q13.86,0,21.85,8.93a31.32,31.32,0,0,1,5.17,8.7,44.7,44.7,0,0,1,8.69-9.4,41.07,41.07,0,0,1,26.32-9.4q12.45,0,18.68,5.76t6.23,16.56q0,8-4.82,12.81t-12.8,4.82a46.86,46.86,0,0,1-6.58-.47l-2.82-.71V176q-12,0-21.86,9.4a49.87,49.87,0,0,0-7.52,9.4v86.94l14.1,3.53v3.52H558.07Z" fill="#a71333"/><path d="M688.48,333.64q-5.88-5.64-5.88-15.5,0-8.94,4.82-13.87t12.81-4.93a20.88,20.88,0,0,1,3.76.35,16.11,16.11,0,0,0,2.58.35l3.06.47v31.72q6.81-1.17,12-7.51t11.51-21.86l4.7-11.75L676.73,178.32,665,174.8v-3.53h29.37q12.23,0,19.39,5.06t12.33,14.92l29.38,54.28,24.67-63.68-17.62-7v-3.53H806v3.53l-18.8,7-47,121q-7.51,19.27-16,27.85t-19.26,8.57Q694.36,339.28,688.48,333.64Z" fill="#a71333"/><path d="M1.17,523.62l14.1-3.52V369.71l-14.1-3.52v-3.53H64.62q35.72,0,52.52,11.4t16.8,29.72q0,12.69-7.29,20.45a43.9,43.9,0,0,1-18.56,11.51,81.44,81.44,0,0,1-25.85,4.47v1.17q17.16.71,29.84,5.17a51.32,51.32,0,0,1,21.5,13.16q8.58,8.94,8.58,22.79,0,20.92-17.15,32.78T69.32,527.15H1.17Zm63.45-85.76a26,26,0,0,0,14.45-4.35,31.61,31.61,0,0,0,10.81-12.22A37.25,37.25,0,0,0,94,403.78a39.46,39.46,0,0,0-4.11-18.32A32.37,32.37,0,0,0,79.07,373a25.59,25.59,0,0,0-14.45-4.46H54v69.32Zm4.7,83.41q14.57,0,23.73-10.34t9.17-28.43q0-18.09-9.17-28.43T69.32,443.73H54v77.54Z" fill="#a71333"/><path d="M175.29,514.11q-16.68-16.58-16.68-45.71,0-19,7.28-33.13a51.77,51.77,0,0,1,20.33-21.62q13-7.51,30-7.52t29.72,6.35a48.56,48.56,0,0,1,19.74,17,42.56,42.56,0,0,1,6.93,23.62,38.19,38.19,0,0,1-1.17,10.1l-1.18,4q-10.1,2.11-21.85,3.52a351.73,351.73,0,0,1-49.81,3.53q0,27.25,7.52,38.89t20.67,11.63a34.67,34.67,0,0,0,17-4.35,33.88,33.88,0,0,0,12.45-11.51,26.92,26.92,0,0,0,4.59-14.69h5.87a31.67,31.67,0,0,1-5.64,17.86,39.88,39.88,0,0,1-15.74,13.51,51.34,51.34,0,0,1-23.27,5Q192,530.67,175.29,514.11ZM223,467.23a57.56,57.56,0,0,0,8.46-1.18q.24-1.17,1.18-5.17a63.57,63.57,0,0,0,1.17-12.45q0-19.5-5.17-28.55t-12.45-9.05q-17.62,0-17.62,57.57A205.41,205.41,0,0,0,223,467.23Z" fill="#a71333"/><path d="M301.48,521.74Q290.2,512.81,290.2,499a43.94,43.94,0,0,1,4-18.09,34,34,0,0,1,4.23-7.76q9.63-2.34,20.92-4.23a391.89,391.89,0,0,1,44.88-5.17v-7.05q0-26.07-6.35-35.95t-19.5-9.87a27,27,0,0,0-8.46,1.18l-3.29,1.17v35.25l-3.05.7a51.66,51.66,0,0,1-6.35.48q-8,0-12.81-4.82T299.6,432q0-10.8,10.92-18.33t32.55-7.52q18.33,0,31.6,6.47t20.21,17.86a49.38,49.38,0,0,1,6.93,26.19V520.1l14.1,3.52v3.53H394.76q-14.1,0-21.85-8.7a24.68,24.68,0,0,1-5.17-8.92A52.72,52.72,0,0,1,360,520.1q-10.58,10.57-26.32,10.57Q312.75,530.67,301.48,521.74Zm57.33-8.69a60.36,60.36,0,0,0,5.41-9.4V469.58a175.69,175.69,0,0,0-20.68,1.17q-7.29.94-9.87,1.18a44.55,44.55,0,0,0-2.35,7.05A68.89,68.89,0,0,0,329,496.6q0,13.17,4,19.5c2.67,4.23,6,6.35,10.11,6.35Q351.76,522.45,358.81,513.05Z" fill="#a71333"/><path d="M430,523.62l14.1-3.52V416.71L430,413.18v-3.52h21.15q13.86,0,21.85,8.93a31.4,31.4,0,0,1,5.17,8.69,45.18,45.18,0,0,1,7.75-10.57q10.57-10.57,26.32-10.58a49.83,49.83,0,0,1,23.62,5.53,43.26,43.26,0,0,1,16.33,14.45,33.7,33.7,0,0,1,5.87,18.8V520.1l14.1,3.52v3.53H541.62q-21.14,0-21.14-21.15V444.91q0-14.81-5.29-22.68t-12.34-7.87q-8.93,0-16,9.4a38.44,38.44,0,0,0-5.16,9.4V520.1l14.09,3.52v3.53H430Z" fill="#a71333"/><path d="M21.15,746.73Q0,724.41,0,683.29q0-27,9.28-46.41t26.08-29.37q16.8-10,38.89-10,13.4,0,27,7.76a53.87,53.87,0,0,1,10.34,7.52,43,43,0,0,1,8.22-9.64c2.82-2,4.38-3.13,4.7-3.29h5.87v44.65H121a68.91,68.91,0,0,0-9.16-20.44,51.54,51.54,0,0,0-14-14.81,32.48,32.48,0,0,0-19.15-5.87q-16.22,0-26.91,18.8T41.12,683.29q0,43,11.63,61.45t31.84,18.44a39.14,39.14,0,0,0,21-6.22,49.09,49.09,0,0,0,16.22-16.57,41.69,41.69,0,0,0,6.22-21.85h5.88a46.82,46.82,0,0,1-7.17,25,52.89,52.89,0,0,1-19.5,18.57,55.05,55.05,0,0,1-27.38,6.93Q42.3,769.06,21.15,746.73Z" fill="#a71333"/><path d="M165.19,760.13q-11.28-8.93-11.28-22.8a44,44,0,0,1,4-18.09,33.91,33.91,0,0,1,4.23-7.75q9.65-2.36,20.92-4.23a392.14,392.14,0,0,1,44.88-5.17V695q0-26.09-6.35-35.95t-19.5-9.87a27,27,0,0,0-8.46,1.17l-3.29,1.18v35.24l-3.05.71a53.43,53.43,0,0,1-6.35.47c-5.32,0-9.6-1.61-12.8-4.82s-4.82-7.48-4.82-12.8q0-10.82,10.93-18.33t32.54-7.52q18.33,0,31.6,6.46t20.21,17.86a49.43,49.43,0,0,1,6.94,26.2v63.44L279.62,762v3.52H258.48q-14.1,0-21.86-8.69a25,25,0,0,1-5.17-8.93,52.44,52.44,0,0,1-7.75,10.57q-10.57,10.57-26.32,10.58Q176.47,769.06,165.19,760.13Zm57.33-8.7a59.57,59.57,0,0,0,5.41-9.4V708a175.64,175.64,0,0,0-20.68,1.18c-4.86.62-8.15,1-9.87,1.17a46.36,46.36,0,0,0-2.35,7.05A69,69,0,0,0,192.68,735q0,13.15,4,19.5t10.1,6.34Q215.46,760.83,222.52,751.43Z" fill="#a71333"/><path d="M292.55,762l14.1-3.53V658.62H290.2v-5.88h16.45V641a42.1,42.1,0,0,1,6-22.32,41.26,41.26,0,0,1,17.15-15.51q11.16-5.64,26.2-5.64,12.21,0,21,3.64t13.28,9.64a20.77,20.77,0,0,1,4.46,12.57q0,8-4.81,12.81T377.14,641a45.4,45.4,0,0,1-6.58-.47l-2.82-.7V603.4l-2.12-.47c-.62-.16-1.33-.32-2.11-.47a14.4,14.4,0,0,0-2.82-.24q-8,0-12.22,8.34T344.24,641v11.75h37.6v5.88h-37.6v99.86l14.1,3.53v3.52H292.55Z" fill="#a71333"/><path d="M405.57,752.49q-16.68-16.56-16.68-45.7,0-19,7.28-33.13A51.65,51.65,0,0,1,416.5,652q13-7.51,30-7.52t29.72,6.34a48.5,48.5,0,0,1,19.74,17,42.52,42.52,0,0,1,6.93,23.61,38.27,38.27,0,0,1-1.17,10.11l-1.18,4q-10.1,2.11-21.85,3.53a351.87,351.87,0,0,1-49.82,3.52q0,27.27,7.52,38.89T457,763.18a34.57,34.57,0,0,0,17-4.35,33.87,33.87,0,0,0,12.45-11.51,26.91,26.91,0,0,0,4.58-14.69H497a31.67,31.67,0,0,1-5.64,17.86A39.76,39.76,0,0,1,475.59,764a51.3,51.3,0,0,1-23.26,5.06Q422.26,769.06,405.57,752.49Zm47.7-46.88a56.35,56.35,0,0,0,8.46-1.17c.15-.78.55-2.51,1.18-5.17a63.74,63.74,0,0,0,1.17-12.46q0-19.5-5.17-28.55t-12.45-9q-17.62,0-17.63,57.57A203.17,203.17,0,0,0,453.27,705.61ZM438.7,636.29l9.4-35.24h30.55l-31.72,35.24Z" fill="#a71333"/></g></g></g></svg>