<svg xmlns="http://www.w3.org/2000/svg" viewBox="0 0 615.82 791.19"><g id="abec8af2-cc3b-49a7-900b-0ea86584e61b" data-name="Expanded"><g id="adb0300e-4a61-44c3-a00a-a8354873e6e9" data-name="Expanded(Color) #2"><path d="M43.91,473.9a130.64,130.64,0,0,0-27.33,34.67c-15.4,28-20,60.74-14.09,100,5,33.26,16.7,66.1,36.76,103.35a148.57,148.57,0,0,0,38.21,46.25c27.48,21.84,61.32,32.64,103.44,33,34.92.26,69.29-6.23,98.74-12.38a102.89,102.89,0,0,0,48.93-24.68,88.29,88.29,0,0,0-.65-11.46c-1.81-15.07-6.77-29.82-15.17-45.1-16.41-29.88-40.17-55.88-70.61-77.28a184.69,184.69,0,0,0-45.49-23.44c-13.74-4.79-28.42-10-42.67-15.87A182,182,0,0,1,95,542.5c-12.29-12.09-23.71-26.22-34.91-43.2-4.07-6.19-8.09-12.58-12-18.76C46.7,478.33,45.31,476.11,43.91,473.9Z" fill="#a71333"/><path d="M354,724l-.25-1.35a130.8,130.8,0,0,0-4.77-18c-6.13-18.1-15.58-35.4-28.9-52.91a261.51,261.51,0,0,0-74.8-67,201.09,201.09,0,0,0-39.8-17.79c-19.4-6.44-39.92-13.91-58.66-24.83S111.41,516,96,495.81a410,410,0,0,1-26.71-40.23l-.29-.49.5-.26c14.27-7.59,31-13.32,49.62-17,17.46-3.47,34.54.35,51.06,4.05l4,.9c2.69.59,5.44,1.1,8.35,1.65l3.77.7c0-2.69,0-5.3,0-7.85,0-5.67,0-11,0-16.41.46-32.91,6.45-65.16,12.56-95.38,11.22-55.53,28.17-103,51.8-145.21,9.51-17,20.21-33.63,30.55-49.74,5.65-8.8,11.5-17.91,17.08-26.95,6.09-9.88,12-20.09,17.78-30q3.07-5.3,6.17-10.59c8.84-15.08,13.29-32,13.61-51.68C336,4,338.35,1.27,345.22.37,358.59-1.37,371.09,3,382.37,13.46c2.76,2.56,2.93,5.59.52,9.26a9.5,9.5,0,0,0-1.49,5.79c2.5,22,7.61,50.15,25,73.64,7.89,10.63,18.54,24.21,31.09,34.92,19.09,16.3,38.84,32.5,57.94,48.15,19.45,16,39.56,32.45,59,49.08,10.75,9.19,19.66,21.32,27.69,33.06a194.31,194.31,0,0,1,29.69,69.86h0c3.53,16.68,4.69,34.77,3.54,55.33-1.32,23.53-6.45,43.11-15.67,59.87-5.16,9.39-12,18.05-18.56,26.43-2.74,3.48-5.58,7.08-8.25,10.68a4.22,4.22,0,0,1-2.16,1.2c-.51.18-1.1.39-1.75.68l-.89.4.14-1c.15-1,.29-1.9.41-2.73.25-1.61.47-3,.62-4.39a118.44,118.44,0,0,0-6.4-54.21c-.88-2.4-1.74-4.82-2.6-7.24-3.52-10-7.17-20.26-12.44-29.37-11.05-19.11-22.51-34.7-35.05-47.66-13.54-14-28.2-28.67-45.3-40.8-18.36-13-33.34-29.94-47.83-46.31l-.87-1a209.7,209.7,0,0,1-43.48-77.89,434.76,434.76,0,0,1-13.27-56c-3-18-2.64-37.44,1.17-59.38a74.45,74.45,0,0,0,1.44-12.36c-.18.35-.37.7-.56,1a35.76,35.76,0,0,0-2.91,6.25c-6,19.07-17.51,35.33-28.61,51l-3.37,4.78c-5.34,7.6-10.89,15.25-16.27,22.64-12.36,17-25.15,34.61-36.12,52.87C247,239.75,226.1,295.89,214.75,357a344.57,344.57,0,0,0-5.41,73c.08,2.64.35,5.34.6,8,.14,1.44.28,2.88.4,4.32.29,3.55.46,5.28,1.31,6s2.61.52,6.17.05c8.43-1.11,17-2.32,25.26-3.48,11.38-1.61,23.14-3.27,34.73-4.69,25-3.07,47.3,1.16,66.33,12.57S377.93,482,388.2,506.1c14.38,33.75,17.68,70.49,9.81,109.21a322.11,322.11,0,0,1-43.24,107.5Z" fill="#a71333"/></g></g></svg>