<svg id="e524725d-b690-4eb1-9a37-87b91e85bea5" data-name="svg" xmlns="http://www.w3.org/2000/svg" viewBox="0 0 971.63 531.16"><path id="e13c9c1d-b5af-44a3-aaa2-a1118e2f59b4" data-name="MA" d="M945.7,131.73l-.29-.19v.29l.29-.1Zm-2.91-2.62.68-.29v-.39l-.68.68Zm12-7.57-.09-1.36-.2-.78Zm-42.41-10-.68.29-5.53,1.65-2,.68-2.23.68-.77.29v.29l.29,5,.29,4.66.29,4.27.48.29,1.75-.48,7.86-2.33.2.48,14-5.34.09.2,1.26-.49,4.47-1.75,4.27,5.15h0l.58-.49.29-1.45-.09,2.33h1l.29,1.16.87,1.65h0L944,122.8l3.79,1.26.87-1.94,6.21-3.3-2.62-5.14.68,3.3-3.2,2.42-3.59.29L938.91,112l-3.21-4.86,3.21-3.39-3.3-.2-1.36-3.2-.1-.2-5.53,6-12.23,4.08-4,1.26Z" fill="none" stroke="#a71333" stroke-linejoin="round" fill-rule="evenodd"/><path id="b0c871fd-6482-44ae-ae74-401f6206c97a" data-name="MN" d="M547.94,52.53l1.94,6.89L554,84.27l1.95,9.9.58,8.73,2.23,5.24.49,4.47.38,1.45-.09.3-3.89,6.4,2.53,4.27L563,159.2l.2,4.46,4.85-.29,19.12-1.07,47.75-4,4.76-.48v-.49l-1.36-7.47-5.92-3L627.72,142l-7.37-4.47-2.33-.19-3.6-2.72,1-13.39-3.4-3.11,1.16-5.44,6.21-5.62-1.06-11.65,2.23-2.53h0l7.57-8,8.64-11.06,3.3-2.33,5.82-2.81L652,64.17l-4.08.78-2.43-1.84-9.31,1.26-1.46-1.75L626.36,66l-6.69-2.82L617.82,61l-5.34.39-3.59-1.85,1.17-1.35-4.57-1.46h-4.07l-6.51,2.81-1.26-1.94-10.29-1.45-3.49-8.74-.39-2.62L575,43.5,575.4,51l-11.84.88-14.65.58-1,.1Z" fill="none" stroke="#a71333" stroke-linejoin="round" fill-rule="evenodd"/><path id="a6d322e4-0b13-42a1-99b1-af28e0d4cb22" data-name="MT" d="M455.05,51.65l-32.13-2.13-23.39-2.24-23.3-2.71-14.46-1.94L338.67,39l-11.55-1.94-25.82-5-2.72-.58-4.17,19.8L296.25,55l1.46,5.54-.88.77,1.85,5.05,2.52,2.13,7.18,12,.68,2,2.92-.2-3.4,15.92-1.36.39L305.38,104l9.6.68.78,4.46,5.44,13.3,1,.78L326,131l1-.77,8.06-.1,10.19,1.07,2.52-3.3,3,5.43.59.29.09-.58,1.36-9.51,33.2,4.08,26.5,2.52,14,1.16,24.95,1.46,1.26.1h.29l.1-1.36.29-6.7.39-8.83.1-2.23.19-3.89,1.55-30.47,1.26-23.69.1-3.88-1.84-.1Z" fill="none" stroke="#a71333" stroke-linejoin="round" fill-rule="evenodd"/><path id="b3bf1cdf-974c-42f6-bd11-982d74283e25" data-name="ND" d="M545.9,52.53l-29.32.58L496.1,53l-17.56-.39L458,51.85l-1.07-.1-.1,3.88-1.26,23.69L454,109.79l-.2,3.89,3.79.19L500.38,115l39.5-.29,16.4-.48,3.3-.2-.38-1.45-.49-4.47-2.23-5.24-.58-8.73L554,84.27l-4.07-24.85-1.94-6.89Z" fill="none" stroke="#a71333" stroke-linejoin="round" fill-rule="evenodd"/><path id="bb0d6af0-9ba8-4b00-a19c-d92229f612b2" data-name="HI" d="M405.74,493.68l-3-2.23-2.62.67.58,5.44L397.1,502l3.11,7.08.87,7.28,3.59,2.33,2.23-3.59,4-2.91,4.86-1.26,5.33-4.57-5.24-4.46-.09-2.72-10-5.53Zm-17.67-7.86-1.45-1.27-1.36,1.85,2.81-.58Zm-7.28-4.18.39-3.59-1.84-.29,1.45,3.88Zm6.12-5.92-1.65.78,1.16,3.69,2.53.19.77,3.2,2.72,1.17,6-2.82-5.63-4.66-5.92-1.55Zm-12.43-4-.87,2.62,4.17-.09,3.89,1-2-3.21-5.15-.29Zm-12.23-7.67L360,461.94l-4.27,3.3,2.72,5.05,1.94-2,5.53,1.16-.48-2.33-3.21-3Zm-43.48-4.27.58-1.36,1.65-.87-2.23,2.23ZM334.2,451l-6.79,2.52-.68,1.85,2.72,1.94,3.78,1,2.72-5.34L334.2,451Zm-47.07-17.86V433h-.2ZM235.68,420.4v.19h.1Zm-27-4.47.1.1h0ZM207.63,414Zm-.87-1h-.19v.1Zm.68,0h0Zm-.1-.1h0v0Zm-30.48-25-.09-.29v.09l.09.2Zm-66.48-21.26-.3.29.2.1.1-.39ZM40,317.61Zm2.43.09h0Zm-.48-.09ZM.5,299.45l.29-.09v-.2l-.29.29Z" fill="none" stroke="#a71333" stroke-linejoin="round" fill-rule="evenodd"/><path id="fd64d476-3256-476d-93d1-1e27eba0ff01" data-name="ID" d="M298.48,31.56l-8.63-1.75L287,29.13l-1.26-.29L274.51,79.51l.48,4.17-.38,4.37.19,1v.1l.1,1.84,3.3,3.59-4.76,11.94-10.09,13.2-.29,2.43,2.62,6.21-9.22,38.25-.39,2,2.72.59,27.46,5.43,11,2,2.82.48,2.71.49,14,2.23,25,3.79,2.82.39.39-3.21.87-6.31,3.3-25.23,1.75-12.52.39-3.21-.59-.29-3-5.43-2.52,3.3L335,130.08l-8.06.1-1,.77-3.78-7.76-1-.78-5.44-13.3-.78-4.46-9.6-.68,1.84-5.34,1.36-.39L312,82.32l-2.92.2-.68-2-7.18-12-2.52-2.13-1.85-5.05.88-.77L296.25,55l-1.84-3.59,4.17-19.8Z" fill="none" stroke="#a71333" stroke-linejoin="round" fill-rule="evenodd"/><path id="bfd462b0-83c3-4d7e-b7bd-e99d434c27c3" data-name="WA" d="M181.52,55.73l.1-1.65-.19.1.09,1.55ZM202.2,46.9l.58-1-.68-.1.1,1.07Zm-1.85-1.75.59-1.94-.59-.2Zm7.09-2.82-.1-1.94-1.65,2.53,1.75-.59Zm.19-4.07.29-1.94-.19-.49-.1,2.43Zm.29-9.51-.09-1.07-.39-.1.48,1.17ZM211,22.34l-.87-.1L208.41,25Zm-2.43-2.62.49-.39.1-.29-.59.68Zm-.48.29-.29-1.94L207,19.72l1.17.29Zm-.49-2.72-.87-.39.68,1,.19-.58Zm2.91,1.65V17.68l-.29.49Zm.88-1.26-.39-.29h-.1l.49.29Zm-5.53-2.14-.49-.38-.19-.1Zm3.59-.38-2.62.68.68.19Zm-2.14-.2-.48-.58-.1.1.58.48Zm2-1.16H209l.49.19-.1-.19Zm-19,49.79,3.49,3.79-.58,7.28L194,76.5l5.24,2.82,14.75,1.35.58,1.75,7,.1,6.6.87,10.78-1.16,5.34.87,1.45-.68L273,88.63l1.84.39-.19-1,.38-4.37-.48-4.17,11.26-50.67-1.55-.29L261.5,23.21l-19.8-5L219.28,12l-6.7-1.65,1.56,8.45-1.46,2.72-2.62-1.36,2.52,11.74-2.71,3.88-1.27,3.6V43l-5.72,4-2.43-1.55-2.33,1.17,4.27-5.54-1.07,3.79,2.43-2.62,1.94.39-.58-4.86,1.26.2L209,32.14l-.87-.87-3.4,4.37-2.23.09L204.92,33l2.71-.68-1-5-2.72-.68-1.35-2.33-1.65.87L192,21.37l-7.87-6.12L182,21.17l-.2,2.53,1.65,4.46L182.4,42.63l-.78,2.23,4.37.39-4.37,3.1L184,49.52l-1.84,6.21-.88-4.85-1.65,5.63,2.23,2.71,2.43-.19,2.91,1.75,1.46,2.81Z" fill="none" stroke="#a71333" stroke-linejoin="round" fill-rule="evenodd"/><path id="faee8eaa-b76f-4abf-bd50-73e9da679711" data-name="AZ" d="M361.57,288.58l-32.71-4.07L311.3,282l-25.05-4-2.52-.38v.19l-4.27,18.83-2.23-.1-3.4-3-4.27,3.59-.1,15.44-1.55,3.3v.39l-.2,2.42,3.4,9.13,3,4.07-5.43,3.21-2.14,4-3.49,8.54-1.75.39-.1,7.08,3,2.23-1.55,4.27-3.5.2h0l-2,3.78,7,4.37,13.2,7.38,40.77,21.64,34.56,4.27H353l2.72-28.63.68-7.08,7.28-75.13.39-3.5-2.53-.29Z" fill="none" stroke="#a71333" stroke-linejoin="round" fill-rule="evenodd"/><path id="a7feec96-3922-48e1-a4b2-189dc6e5c25c" data-name="CA" d="M195.4,342.45l.39,2.14V345l-.39-2.53Zm-14.27-8.34.68,1.45.39-.1-1.07-1.35Zm17-.3.29,2.53,1.75,1.26ZM186.38,320l-1.07-.29.87.39.2-.1Zm-10.78-2.91L173,318.67l.68.68Zm-5-1.84-.19.77.87.2-.68-1Zm8.55,1.94,4.27,2.42.77-.68ZM146,231.7l-.1.1.1-.1Zm10.38.49-.09-.29v.39l.09-.1Zm56-73.67-3.79-1-41.54-11.46-15.43-4.65v.38l-.88,9.61-4.07,11.36-6.8,8.44-.19,4.27,3.3,5.93,1.65,7.76-2.33,6.31.39,6.31-1.17,2.62,4,8.64,2.53,3.3-.2,9.41,6,5.73,3.49-5.82,3.79,3,1.46-1.36-5.25,1-.09,4.95,1.06,6.21-2.91-2.82-1.65-3.78-.48,5.24,1.36,10.39,5.43,6.69-3.59,4.66.58,5.92,3.89,6,6.79,18.64,2.14,1.16-.68,12.91,1.06,1.55,14.56,5.25,4.47,4.75,1.55,3.11,4.27,2.42,4.66.88,1.94,5.34,3.88,1.84,5.83,6.89,5.43,9-.38,8.35,3,4,39.7,3.88h0l3.5-.2,1.55-4.27-3-2.23.1-7.08,1.75-.39,3.49-8.54,2.14-4,5.43-3.21-3-4.07-3.4-9.13.2-2.42v-.1l-2.52-3.4-7.77-10.38-15-21.16-21-30.09-11.84-16.41-11.46-16.5,13.21-56,.87-3.69Z" fill="none" stroke="#a71333" stroke-linejoin="round" fill-rule="evenodd"/><path id="e0b1de3e-8e9e-4f34-8f58-bbbe8387ca3b" data-name="CO" d="M479,234.23l.39-19-4.66-.19-23.68-.87-2.33-.1-1.94-.1L418,212.1l-19.22-1.56-24-2.32-2.33-.3-.3,2.53L366.91,261l-1.84,17.66-.78,7.67-.19,2.52,3,.3L416,293.44l21.55,1.36,21.45,1,3.1.09,1.94.1,4.08.1,1.94.09,6.12.2h1.55v-1.94l1.07-51.35.09-5.73v-1.84l.1-1.26Z" fill="none" stroke="#a71333" stroke-linejoin="round" fill-rule="evenodd"/><path id="a9bd0261-c663-479f-81ee-febca750b79e" data-name="NV" d="M284.22,274.51l10.09-62.8,5.14-31.45.59-3.11-2.82-.48-11-2-27.46-5.43-2.72-.59-2.72-.58-13.69-3-24.55-5.82-2.72-.68-.87,3.69-13.21,56,11.46,16.5,11.84,16.41,21,30.09,15,21.16,7.77,10.38,2.52,3.4v-.29l1.55-3.3.1-15.44,4.27-3.59,3.4,3,2.23.1,4.27-18.83v-.19l.49-3.11Z" fill="none" stroke="#a71333" stroke-linejoin="round" fill-rule="evenodd"/><path id="bb3bd5f3-3994-484d-8adc-dbde2a8224b6" data-name="NM" d="M461.84,303.43l.1-2.52.1-2.52.09-2.53-3.1-.09-21.45-1L416,293.44l-48.92-4.27-3-.3-.39,3.5-7.28,75.13-.68,7.08L353,403.21l.39.1,13.4,1.26,1.26-6.79,2.42-1.94,27.18,2.42h.2l-2.43-4.75,12.33.87,30.77,1.75,19.21.87,3.3-91,.68.09.1-2.62Z" fill="none" stroke="#a71333" stroke-linejoin="round" fill-rule="evenodd"/><path id="a7fced9a-f5d9-4f1b-a3e1-0f89b66a9771" data-name="OR" d="M151.63,141.44l15.43,4.65,41.54,11.46,3.79,1,2.72.68L239.66,165l13.69,3,2.72.58.39-2,9.22-38.25-2.62-6.21.29-2.43,10.09-13.2,4.76-11.94L274.9,91l-.1-1.84V89L273,88.63l-27.28-6.21-1.45.68-5.34-.87-10.78,1.16-6.6-.87-7-.1-.58-1.75-14.75-1.35L194,76.5l-.68-1.84.58-7.28-3.49-3.79-.3.1-.68.48-4.85-2.52-2.91.87-1.94-1-2,8.35-1.36,2.33-6,14.66-1.74,8-1.07.1-5.63,13.39L158,114.16l-1.36,1-3.49,6.8-.68,7.18-2.13,6.4,1.26,5.83v.1Zm35.52-79.69-.29-.88-.1.68.39.2Z" fill="none" stroke="#a71333" stroke-linejoin="round" fill-rule="evenodd"/><path id="ac8267e3-5421-49a4-b9c5-ab998dc67d05" data-name="UT" d="M341.77,183.66l-25-3.79-14-2.23-2.71-.49-.59,3.11-5.14,31.45-10.09,62.8-.49,3.11,2.52.38,25.05,4,17.56,2.53,32.71,4.07,2.53.29.19-2.52.78-7.67L366.91,261l5.24-50.57.3-2.53-1.95-.19-24.75-3-3.78-.48,2.42-18.93.2-1.26-2.82-.39Z" fill="none" stroke="#a71333" stroke-linejoin="round" fill-rule="evenodd"/><path id="a6c8a07a-4667-44b8-9201-d066f549f621" data-name="WY" d="M450.78,170.85l.77-15.15,1-20.38.1-2.52-1.26-.1-24.95-1.46-14-1.16-26.5-2.52-33.2-4.08L351.38,133l-.09.58-.39,3.21-1.75,12.52-3.3,25.23-.87,6.31-.39,3.21-.2,1.26L342,204.24l3.78.48,24.75,3,1.95.19,2.33.3,24,2.32L418,212.1l28.83,1.84,1.94.1.09-2.52.49-10.2.87-17.76.39-7.57.1-2.52.1-2.62Z" fill="none" stroke="#a71333" stroke-linejoin="round" fill-rule="evenodd"/><path id="f2922634-115d-4b69-a90c-0012d603377a" data-name="AR" d="M679.84,306.73l-10.48,1.56,4.27-6.8-1.84-3.78-37,3.59-31.26,2.52-4.56.29.58,2.72,3.79,19.61.1,4.37,1.06,26.4.1,4.36.29.1,1.46,1.55,5.82-.19.58,8.54L613,374l3-.29,9.22-.68,36.59-3.4h.2l-.1-2.13,1-.68-1.75-3.3L664.8,348l-1.46-1.75,5.54-6.12-.39-5.24,4.08-6.79V328l-.2-.19,3.5-3.21-1-3.88,2.72-4.27-.58-4,2.91-5.63v-.1Z" fill="none" stroke="#a71333" stroke-linejoin="round" fill-rule="evenodd"/><path id="f75e166b-c30a-4ce8-966c-c10d00a0c996" data-name="IA" d="M650.92,176.38l-5.34-2.82-2.91-4-1-5.72.78-2.62-2.82-3.4h0l-4.76.48-47.75,4L568,163.37l-4.86.29-2,.1,1.65,10.77-1.36,5.15,2.13,3.2v.68l.68.1,3.11,9.12,3,4.76.19,5.43,3.3,4.57-.58,1.94,3,12.23V222h0l19.9-.58,21.25-1.85L638.3,217l4.76,4.17.19.2.88-.39-.68-3.79,3.59-2.23,1.45-9.9-1.45-.68.87-5,4.37-.88,4.85-3.49,2.14-6.12.09-3.1L655.48,182l-1.16-2.33-3.69-2.33.19-.49.1-.48Z" fill="none" stroke="#a71333" stroke-linejoin="round" fill-rule="evenodd"/><path id="ecb6ac05-29b4-4519-9975-81fae9de80b1" data-name="KS" d="M598.31,291.4l-2.42-41.06-4.37-2.52-.39-1.94-3.5-3.11,3.4-4.17-1.36-2.43-2.52.1-2.33-1.65-1-.78-3.3.19-35.82,1.36-16.4.39H495.72l-13.11-.19-3.69-.1v1.84l-.09,5.73-1.07,51.35v1.94l4.17.1,22.52.29,52.71-.78,37.56-1.75,3.69-.29-.1-2.52Z" fill="none" stroke="#a71333" stroke-linejoin="round" fill-rule="evenodd"/><path id="ad5f3259-886f-461f-8711-6e521eb8a798" data-name="MO" d="M643.06,221.12,638.3,217l-20.87,2.62-21.25,1.85-19.9.58h0l-.1.58,2.43,4.66,2.23,1.55,2.62,4.66.39.39,1,.78,2.33,1.65,2.52-.1L591,238.6l-3.4,4.17,3.5,3.11.39,1.94,4.37,2.52,2.42,41.06.1,2.52.19,2.53.1,2.52.19,2.62.1,2.52,4.56-.29,31.26-2.52,37-3.59,1.84,3.78-4.27,6.8,10.48-1.56h.1V306l.2-4.47,1.94-2.42-.58-2.72-.1-.1-.1-.1.39-1.26.58.2.29.77-.09.29V297l.38.09.78-1v-.09l.1-.29,2.52-1.56.39-.19.87-8-.19-.39-.29-.1-6.89-5.63,1.06-2-1.94-5.54-3.49-2.71-6.6-2.92L665,263.35l.49-7,1.26-6.5-7,.38L657.62,248l-1-4.46-11.07-9.32-3.1-8.64.77-4.27h0l-.19-.2Z" fill="none" stroke="#a71333" stroke-linejoin="round" fill-rule="evenodd"/><path id="be2e45c8-007f-4776-a658-408f0cab38b8" data-name="NE" d="M561.72,183.37l-3-3-10.58-3.11-3.4-.1-5.14,1.46-6.12-3.88-19.12.19-27.85-.29-32.91-1.07-2.91-.09-.1,2.52-.39,7.57-.87,17.76-.49,10.2-.09,2.52,2.33.1,23.68.87,4.66.19-.39,19-.1,1.26,3.69.1,13.11.19h32.61l16.4-.39L580.55,234l3.3-.19-.39-.39-2.62-4.66-2.23-1.55-2.43-4.66.1-.58v-.29l-3-12.23.58-1.94-3.3-4.57-.19-5.43-3-4.76-3.11-9.12-.68-.1-1.84-.19Z" fill="none" stroke="#a71333" stroke-linejoin="round" fill-rule="evenodd"/><path id="e5cf620f-c322-4487-bc38-9ffc5152db42" data-name="OK" d="M598.89,301.59,598.7,299l-.1-2.52-.19-2.53-3.69.29L557.16,296l-52.71.78-22.52-.29-4.17-.1h-1.55l-6.12-.2-1.94-.09-4.08-.1-1.94-.1-.09,2.53-.1,2.52-.1,2.52-.1,2.62h.59l23.49.59,24.84.29.29,33.19L512.7,346l3.88,3.69,4.18.19.87-1.75,5.73,5.24,7.47.78,1.36,1.55,2.72-1.26,6.79,3.21v1.84l2.53-.1,2.62-2.23,4.85,3.11,4.56,1.65,3.11-4.27,9.9,4.65,3.69-3,3-1.17,2.42.58,9.13-2.62,4.85,2,4.37,2.82,3.78.67h.1l-.1-4.36-1.06-26.4-.1-4.37-3.79-19.61-.58-2.72-.1-2.52Z" fill="none" stroke="#a71333" stroke-linejoin="round" fill-rule="evenodd"/><path id="b83ca584-b14c-43a0-b781-7de5c7fa718a" data-name="SD" d="M556.28,114.26l-16.4.48-39.5.29-42.81-1.16-3.79-.19-.09,2.23-.39,8.83-.29,6.7-.1,1.36h-.29l-.1,2.52-1,20.38-.77,15.15-.1,2.62,2.91.09,32.9,1.07,27.86.29,19.12-.19,6.12,3.88,5.14-1.46,3.4.1,10.58,3.11,3,3,1.84.19v-.68l-2.13-3.2,1.36-5.15-1.65-10.77,2-.1L563,159.2,558.13,125l-2.53-4.27,3.89-6.4.09-.3-3.3.2Z" fill="none" stroke="#a71333" stroke-linejoin="round" fill-rule="evenodd"/><path id="a71f2d9e-b00e-4347-8bec-928d8c1c65c8" data-name="LA" d="M678.39,448l-1.26.29-.59.58,1.85-.87Zm4.08,0-.68-.29-.2.29Zm2.33-.78h-.68l-.39.49Zm-1.17-.67-.19-.3-.1.3Zm7.77-5.15-.3.19h.49l-.19-.19ZM705,435.63l.59-.77-.68.87.09-.1Zm1.95-2.52-.2.1v.09l.2-.19ZM657,441.65l1.45-1.84-4-1.07-1.75,1.46,4.28,1.45Zm40.28-8.44-.39-.39-.1.19.49.2Zm1.06-1.75-1-.29.29,1Zm8-1.65v0Zm1.94-1.26-.09-.1.09.2v-.1Zm-.77-.2-.2-.09-.09.29.29-.2Zm-6.8-.29.88-.29v-.29l-.88.58Zm.49-.48.48-.49-.09-.09-.39.58ZM697.8,424l-.19.19h.09l.1-.19ZM662,369.63h-.2L625.2,373l-9.22.68-3,.29.1,2.33L615,395.06l3.2,4.47.1,2.62,3.1,5.43,2.53,8-.88,4.47-.68,11.06-1.45,3.59h.19l.29,2.53-1.65,2.33,12-1.36,9.41,2.62,6.7.87,3.4-2.42-1.85-2.43,6.22-1.94-.2,2.13,3.21-.77,2.62,4.07,2.23-.77,5.82,4-3.59,1.26,8.25,2.42h3.11L679,445l4-2.13,2.82,4.07,1.94-3.69-.59-5.82,5.25,2,.58,1.75,6.21.77,3.11,2.53-.39,2,4.37-4.08-1.65-2.14-7.28-1.84-2.72-1.55-.1-2.92,3,.39,2.33-4.75-3-4.18-1.65,4-3.78-.68,2.62-4.27-1.75-.48L688,427l-6.12.38L680.14,426l2.81-4.95,3.3-.09,5.63,1.84,4.08.39h0l-2.23-2.81-4.28-8.35,1.17-4.66-33.49,3.69,1.26-1.26-1.35-3.5,2-3,1.17-7.57,7.38-12.62-3.6-4.36.2-3.21L662,370.31v-.68Z" fill="none" stroke="#a71333" stroke-linejoin="round" fill-rule="evenodd"/><path id="b8ad5011-865c-4097-b0d9-fddee9eccf79" data-name="TX" d="M563.37,515.61l-4.66-17.56v3.3Zm-1.07-30.86L559,491l-.39,2,3.69-8.25Zm2.62-4.56,3.11-4.08-2.23,1.36Zm11-9.9-7.28,3.78,2-.39Zm1-1.36,2-1.65-.78.19ZM461.74,306.05l-.68-.09-3.3,91-19.21-.87-30.77-1.75-12.33-.87,2.43,4.75.09.1,10.49,10.48,6,7.09,8,5.92,5.63,10.29,2.14,10.77,4.56,3,3.59,4,5.15,1.85L451,456.5l3.4,1.26,4.66-4.65,1.45-4.95,2.43-4.76,7.57-3,2.91,1.46,8.45.68,7.66,4.75,5.25,1L493.29,451l3,1.94,2.81,3.4.59,3.59,1.84,2.43,4.27,10.29,4.27,3.59,3.3,5.43,4.18,4.27,1.84.59L521,497.56l4.56,2.52.2,3.5,1.16-.29,8,9.7,4,.88,5.05,3h7.76l5.63,3.1,6.7-1.45-3-2.82-2.72-8.15-1.06-7.09-1.56-2.33.68-4.75-2-.2-2.72-4.46,3.1,3.3,3.59-1.26,1.95-5.15-3.89-5.24,5.83.68,2.72-4.17-.39-1.46,2.42-3.2-.58,2.81,2.72-2.13-1.07-3.79,3.5,1.84,4.46-2.52-4.37-4.56,2.72,1.07,5,.29,6.6-1.46,7.37-4.95,4.47-3.69.68-2.71,2.72-2.82L599.67,445,600,442l4.86-2.14-.39,5.15h2.91l-3.2,2.72,12.91-6.8,2.13-.09,1.36-6.22h.39l1.45-3.59.68-11.06.88-4.47-2.53-8-3.1-5.43-.1-2.62-3.2-4.47-1.94-18.73L613,374l-.2-2.43-.58-8.54-5.82.19-1.46-1.55-.29-.1h-.1l-3.78-.67-4.37-2.82-4.85-2-9.13,2.62-2.42-.58-3,1.17-3.69,3-9.9-4.65-3.11,4.27-4.56-1.65-4.85-3.11-2.62,2.23-2.53.1V357.6l-6.79-3.21-2.72,1.26-1.36-1.55-7.47-.78-5.73-5.24-.87,1.75-4.18-.19L512.7,346,511,340.12l-.29-33.19-24.84-.29-23.49-.59Z" fill="none" stroke="#a71333" stroke-linejoin="round" fill-rule="evenodd"/><path id="b7864593-d5ff-45b7-ab65-bdc8051b9dd1" data-name="CT" d="M926.39,122l-14,5.34-.2-.48-7.86,2.33-1.75.48.2,1,3.69,14.27,1.16,1.46-2.52,3.1,1.75,1.65h0l5.63-5.43,3-4.18.59,1.17,14.17-6.31.29-.29-.1-2.33-.58-2-3-8.45-.39-1.06-.09-.2Z" fill="none" stroke="#a71333" stroke-linejoin="round" fill-rule="evenodd"/><path id="eb41c7dd-e819-4e59-8e3b-4e93ff095931" data-name="NH" d="M913.28,54.66,912,56.21l-1.46-.29-.77,6.41v.1l2.33,8.73-.2,1.75-4.17,5.53,1.07,5V89.8L908,95.62l4.37,15.92h0l4-1.26,12.23-4.08,5.53-6h0V98.63l.29-2.52-.68.29-.1-.58-6.11-7.48-.19-.68-14.08-33Z" fill="none" stroke="#a71333" stroke-linejoin="round" fill-rule="evenodd"/><path id="ac82a229-da1e-40b1-9551-c3e05855f0c7" data-name="RI" d="M935.9,130.76l-.1-2-.29.78.39,1.26Zm1.94-1.55-1.26-2.43-.1,2.52,1.36-.09Zm-.58-3,.68,1.74.87,1.56.58-1.17-.87-1.65-.29-1.16h-1Zm-10.78-4,.39,1.06,3,8.45.58,2,.1,2.33.19-.29,4.66-3.69-.87-6.6,1.94-.39h0L932.21,120l-4.47,1.75-1.26.49Z" fill="none" stroke="#a71333" stroke-linejoin="round" fill-rule="evenodd"/><path id="b3ba83bc-2c4c-479c-8707-d63abb4fffc9" data-name="VT" d="M912.41,111.54,908,95.62l.78-5.82V83.49l-1.07-5,4.17-5.53.2-1.75-2.33-8.73-1.26.48-5.34,1.94-5.24,2-12,4.37-.68.19,4.37,10.19,1.45,9.61,5.15,8.06,4.85,15.92.2-.1.77-.29,2.23-.68,2-.68,5.53-1.65.68-.29Z" fill="none" stroke="#a71333" stroke-linejoin="round" fill-rule="evenodd"/><path id="b47550fd-46c2-42eb-a3c2-6e3854a78a28" data-name="AL" d="M707.7,323.53l.39.77,1.36.88L710,365l.2,21.84,4.95,29.9.38-.1,4.37.87,1.17-8.64L723,413.7l3.3,3,6.31-3.69-.68-.58.19.09-4.37-10,41.94-6.8,2.81-.48v-.1l-2.62-5-.19-7.09-2.14-3.88,1.07-7.57,1.74-1.94-7.18-12.81-13-39.61-.1-.19-2.91.49-15.53,2.52-7.77,1-16.31,2.23.1.2Z" fill="none" stroke="#a71333" stroke-linejoin="round" fill-rule="evenodd"/><path id="b069150d-4e45-4c0d-8b25-e38c95a2180e" data-name="FL" d="M844.08,514h-.2l.1.1.1-.1Zm-.88-.09V514h.1Zm.2-.1v0Zm-13.2,1.46h0v0Zm-.2.09v0Zm.1-.09Zm-1,.09H829v.1Zm27.56-6.11h-.09l.09.19Zm2.62-.68v-.2l-.19.3.19-.1Zm-1-.2L858,508l-.1.09.48.29Zm-.29.78-1.16-1.46.68,1.27.48.19Zm9.22-5.73v.39l.2-.19Zm1.36-1,.29-.48-.38.39.09.09Zm.29-1h-.09v.1Zm-1.74-.29-.1-.1.1.1Zm.87-1.45-.1-.1v.19l.1-.09Zm-2.62-.1-.1-.1.1.1Zm3.3-2.23-.19.09.29.1-.1-.19Zm.39,0-.2-.2.1.29.1-.09Zm-.68-.2-.1-.1v.2l.1-.1Zm3.59-.68v-.09l-.19.38.19-.29Zm-4.08.39h-.19l.19.1Zm2-1.16h-.29l-.1.09.39-.09Zm.78-.49Zm-8.16.39v-.2l-.09.2Zm.88-.29h-.29l.29.58Zm-2.33.09v-.58l-.49.1Zm-1.36-1,.49.49v-.19l-.49-.3Zm14.27.59-1.75.77.58.1Zm-13.59-.88h-.58v.2Zm15.34-4.85.09-.49.1-1.26-.19,1.75Zm.09-5.44-.39-1-.19.39Zm-22.42,2.43-.19.29.48.1-.29-.39Zm-1.84-.87-.88.29.68.1.2-.39Zm-1.94.19v-.29l-.1.1.1.19Zm-2-.1-.59.39.78.39-.19-.78Zm2.71.1-.09-.29-.49-.1.58.39Zm-12.71-9.51-.58.29,1.16.39-.58-.68ZM835.34,473l-.78-1.16.29.87.49.29Zm3,1.94-1.36-3.1-1-.29Zm-3.88-3.88-.29-.77-.2-.49.49,1.26Zm-8.06-10.77L824.66,459l.68.68Zm43.68-6.51L863,441.94h-.38l7.47,11.84Zm-49-18.92-.29-.1.29.19v-.09Zm-.58-.68-.1.1.1.09v-.19Zm-.68-1v-.1l-.1.1Zm.39-.39.29.19v-.19Zm.58-.39-.39.1h.1l.29-.1Zm-.68-.1-.29-.29.1.1.19.19Zm-.68-1.06h-.19l.29.09-.1-.09Zm.68-1.17h-.39l-.09.1.48-.1Zm.39.2-.49-.49.2.1.29.39Zm-3.69-4.18-.19-.1v.1Zm-4.17,0-.29-.39.09.49.2-.1Zm-35.33-3.2,2.91-2.23-3.2,2.13.29.1Zm5.82-4.66.29-.29-1.16.48.87-.19Zm-36.88-6.5-10.58,3.39,5.82-1.65Zm26.3-16.5-2.81.48-41.94,6.8,4.37,10,.29.1-1.06,4,3.1-1.36,3.4-3,5.82-.19,6.7-2.43,4.56.68L753.9,412l8.35,2.82,7.18,3.49,1.65,3.88,5.34-1.16L789,410.69l4.66.19,19,14.37,3.89-.78,4.07,5.44.78,8.64L820.2,444l.58,2.72,3.4,6.79-1.55-5.34,4.36-.09.39,3.88-2.33,6L833.11,469l3,.1-2.53-3.4,3.11.39,1.84-1.16-.77,6.21,4.17,3.3,2.82,7.57,3.78,2.33,4.85,1.26,6.7,8.54,3.5,1.85-4.66.29,2.13,2.42,7.67-2.52,3.79-2.13L876,481.84l-1.75-19-.39-1.94-9.31-15.53-8-11.26-4.47-9.22,3.79,3.2.77-.58,1.65,8.06,4.27,6.11-4.17-8.15.2-3.88-12.53-15.24-3-4.76-4-8.06-2.72-6.79-2.14-2.43-.48-3.1-.1-.1-6.7-.39-2.62,2-1.45,7.47-1.36-3.49-45.82,5.73-3.3-5.15.1-.09Z" fill="none" stroke="#a71333" stroke-linejoin="round" fill-rule="evenodd"/><path id="a82a6ccc-37c7-42ef-9b64-e49bbcbb0909" data-name="GA" d="M835.24,374.78l-.09-2.92-.68,2.53.77.39Zm1.07-4.47-.39-2.23-.29,1.36Zm-45.42-61.15-1.27.29-3.69.78L772.35,313l-1.27.29-1.35.2L762.15,315l-2,.39-8.25,1.56-1.75.19.1.19,13,39.61,7.18,12.81-1.74,1.94-1.07,7.57,2.14,3.88.19,7.09,2.62,5v.1l-.1.09,3.3,5.15,45.82-5.73,1.36,3.49,1.45-7.47,2.62-2,6.7.39h0l-.58-10.48,1.26-2.23-.68-4.18,1.36-4,2-2.23-1.46-1.36,3.4-4.17h-.1l-5.82-5.44-8-11.35-4.37-2L802.05,326l-4.56-5.82-8.84-3.69-.48-1.94,2.71-5.34h0Z" fill="none" stroke="#a71333" stroke-linejoin="round" fill-rule="evenodd"/><path id="afd2022d-db2a-4f00-b070-be4d2bc43956" data-name="MS" d="M706.15,421.46l-.49.1v.1l.49-.2Zm9-1.16h-1.36l1.26.1.1-.1Zm-11.26,1-.39.39.1.09.29-.48Zm9.12-.78h-3.69l3.5.1ZM672.57,328v.1l-4.08,6.79.39,5.24-5.54,6.12L664.8,348l-3.69,15.53,1.75,3.3-1,.68.1,2.13v.68l2.23,5.24-.2,3.21,3.59,4.36-7.37,12.62-1.17,7.57-2,3,1.35,3.5-1.26,1.26,33.49-3.69-1.17,4.66,4.27,8.35,2.24,2.81v-.1l3.59-4.07,7.57-1.65,7,.77,1.07-1.36v-.09l-4.95-29.9L710,365l-.58-39.79-1.36-.88-.39-.77h-.19l-4.86.68-8.54,1.16L674.7,327.8l-2.13.19Z" fill="none" stroke="#a71333" stroke-linejoin="round" fill-rule="evenodd"/><path id="a034107c-23f1-4c0e-9583-1e783e276c99" data-name="SC" d="M790.89,309.16h0l-2.72,5.34.48,1.94,8.84,3.69,4.56,5.82,18.73,15.73,4.37,2,8,11.35,5.82,5.44h0l1-4.47-1.55-4.27,4.17,3.11,2.33-1.85-4-3.3,4.86-.29,7.57-6.4-.88-1.65,4.66-3.6-.48-1.74,3.39-2.14.2-5,5.34-9.9,3.59-4.56.39-.19-21.65-13.69-8.06,1.55-11-.39L823.4,299l-32.22,10.19h-.29Z" fill="none" stroke="#a71333" stroke-linejoin="round" fill-rule="evenodd"/><path id="aaecd011-1a11-4d1f-8151-9b3dc2e34856" data-name="IL" d="M650.82,176.86l-.19.49,3.69,2.33,1.16,2.33,3.88,3.69-.09,3.1-2.14,6.12-4.85,3.49-4.37.88-.87,5,1.45.68-1.45,9.9-3.59,2.23.68,3.79-.88.39h0l-.77,4.27,3.1,8.64,11.07,9.32,1,4.46,2.13,2.23,7-.38-1.26,6.5-.49,7,4.18,3.39,6.6,2.92,3.49,2.71,1.94,5.54-1.06,2,6.89,5.63.29.1-.58-.58,1.94-4.56,7.47,2,1.85-2.14-1.46-4.27,6.11-3.59L701,270.24l1.46-3.3v-.29l-.39-.1.1-8.64,2.13-1.55,3.69-8.64-.77-3.79-2.43-4.56,1.36-5.14-6.8-47.85-1-1.07-2.52-5.73-2-2.13-.87-5.63v-.2l-13.11,1.85-7.86,1-21.16,2.42Z" fill="none" stroke="#a71333" stroke-linejoin="round" fill-rule="evenodd"/><path id="a8deabdd-54e2-40e9-84b3-887ecf9fc7f9" data-name="IN" d="M739.73,178.9l-14.85,2.62-3.4.68-12,1.94-2.52,2-3.79,1.75-1.46-.1-1.74-.87-.59-.58,6.8,47.85-1.36,5.14,2.43,4.56.77,3.79-3.69,8.64-2.13,1.55-.1,8.64.39.1.39-.1,1.45-2.72h3.6l4.36-1.45,5.44,2,.58-2.23,3.11-2.33,4.66.68,2.52-4.95,6.89.58-.1-2.81,6.12-8.06-1-3.69,4.27-.09,5.24-4.18-1.26-4.75.19-.2-.19-1.65-5.82-34.36-2.63-14.65-.29-1.56-.29-1.26Z" fill="none" stroke="#a71333" stroke-linejoin="round" fill-rule="evenodd"/><path id="bb239115-fac1-4461-8a28-b898950ea6ab" data-name="KY" d="M682.56,295.86l-.29-.77-.58-.2-.39,1.26.1.1,1.07-.1.09-.29ZM749,232.38l-.19.2,1.26,4.75-5.24,4.18-4.27.09,1,3.69-6.12,8.06.1,2.81-6.89-.58-2.52,4.95-4.66-.68-3.11,2.33-.58,2.23-5.44-2-4.36,1.45h-3.6l-1.45,2.72-.39.1v.29l-1.46,3.3,1.65,2.33-6.11,3.59,1.46,4.27-1.85,2.14-7.47-2-1.94,4.56.58.58.19.39-.87,8-.39.19-2.52,1.56-.1.29,2.82-.39,19.6-2.62-1-3.88,3.3-.1,39.51-5.24,27.76-4.66.38-.29.68-.78,7.28-3.88,5.63-7.38.78-2.52,3.69-2.91,4.66-5.93.68-1-.29-.09h-2.43l-3.11-1.75-5.53-6.7-1.94-6.79V239l-.2-.19-4.07-2.33L780,233.35l-3.68,3.6-2.33.58-2.92-1.17-2.52,1.94L763.32,236l-1.36.58-5-4.27L754.49,231l-4.76.59-.78.77Z" fill="none" stroke="#a71333" stroke-linejoin="round" fill-rule="evenodd"/><path id="f3b50ea4-0f91-4635-aad3-c88ef603bc70" data-name="NC" d="M879.6,310.91,878.53,312l.2.19.87-1.26Zm.78-5.63-.49.77.2.78.29-1.55Zm5.82-9-1.45,1-.78,1.17,2.23-2.14Zm12.52-6.11-.58-.39-1.26-.1,1.84.49Zm-2.62-.59h-.87l-1.46.78Zm3,1.07,2.82-7L900,286.55l-.87,4.07Zm4.17-9.22,1.27-1.84h-.68Zm8.16-7.57-2.14-10.77,1.85,5.63.29,5.14ZM899.6,249.27l-.2.1-.29.1h.1l5.34,9,4.17,4.18-9.12-13.4Zm-1.75.59-.78.19h0l.2.1h1.65l-.2-.59h0l-.29.1h-.29v.2L898,250l-.1-.09ZM808.07,272l-.49,1.45.1,4.18-1.07-.1-2.52,5.14-2.82.29L796,288.1l-2.33-.88-3,4.47-8,7.18-3.88,1-4.08,3.79-.19,2.52L771,308.09l.09,4.27v1l1.27-.29,13.59-2.81,3.68-.78,1.27-.29h.29L823.4,299l5.44,2.81,11,.39,8.05-1.55,21.65,13.69.38-.3,10-4.07.1-5.34,3.59-6.5,3.88-3.69,8.06-5.34,1.07-1.94,2.13,1,1-6.41-1.16,2.23-4.08,1.36-3.88.1,4.76-3.49-1.46-1.56,1.65-3.49-9.12-1.46-.39-.48,7.76-1.46,2.53,1.26,3.2-.29,2.62-1.94,1.94-3.78,1.75-.49-.29-5.34-2.24-2.13-2.23,2,.49,5.15-1.65-6.31-1.26-.29-9.61,4,4.27-4.18.19-1.65L898,258.4l1.26-3.3,3,1.74L899,252.09l-2.23-1.94h0L858,261.21l-24.75,6.31-25.05,4.66-.09-.19Z" fill="none" stroke="#a71333" stroke-linejoin="round" fill-rule="evenodd"/><path id="f2b37ffe-879b-4e03-8166-d65ab3e5ebf3" data-name="OH" d="M807.58,185.31l-2.43-10.48-.48-2.14L802,160.75,798.46,163,791,168.71l-4.85,5.92-3.79.58-7,4-3.88-2.33-11.74-1.36h0l-6.21,1.56-6.12,1.45L741,179.87l-1,.29.3,1.56,2.62,14.65,5.82,34.36.19,1.65.78-.77,4.76-.59,2.52,1.27,5,4.27,1.36-.58,5.24,2.32,2.52-1.94,2.92,1.17,2.33-.58,3.68-3.6,1.85,3.11,4.07,2.33.2.19h0l4.17-2,1.46-3.21-1.17-3.3,3.3-5,2.43-.39-.29-4.27,4-5.44.68.78,3.59-2.72,3.11-4.66.48-21.26.2-.09-.49-2Z" fill="none" stroke="#a71333" stroke-linejoin="round" fill-rule="evenodd"/><path id="af8c1b30-f330-4d68-b0a2-e45cf216102c" data-name="TN" d="M775.65,279.17l-27.76,4.66-39.51,5.24-3.3.1,1,3.88-19.6,2.62-2.82.39v.09l-.78,1-.38-.1v-.88l-1.07.1.09.1.59,2.72-1.94,2.42-.2,4.47v.87L677,312.46l.58,4-2.72,4.27,1,3.88-3.5,3.21.2.19,2.13-.19,19.41-2.43,8.54-1.16,4.86-.68h.19l-.1-.2,16.31-2.23,7.77-1,15.53-2.52,2.91-.49,1.75-.19,8.25-1.56,2-.39,7.58-1.45,1.35-.2v-1l-.09-4.27,3.59-1.94.19-2.52,4.08-3.79,3.88-1,8-7.18,3-4.47,2.33.88,5.24-5.15,2.82-.29,2.52-5.14,1.07.1-.1-4.18.49-1.45-1.56.29L801,273.83l-6.6,1.36-16.6,3.4-1.75.29-.38.29Z" fill="none" stroke="#a71333" stroke-linejoin="round" fill-rule="evenodd"/><path id="e85ebdb5-f552-4e60-8d8e-6b854ae33133" data-name="VA" d="M898.14,249.66h.29l.29-.1h0l-.19-.48-.39.58Zm-3.3-10.87v.49l.48-.3Zm1.75-3.4-.1-.77h0Zm-.59,1.17-.19,1.26-.29.48.48-1.74Zm.88-2.53.1-.58-.2.58Zm.58-2.62.29-.68-.48,1.75Zm.1-1.45.39-2.14-.49.49.1,1.65Zm1.74-9.61.2-.88-.1.2-.1.68Zm-.38-2.23-1.27.48-1.94.87-.68.88.29.1L893,234.91l.87,2.33,1.36-6,2.52-7.86,1.17-5.15v-.09Zm1.94-.78-.29.1-.1.38-.49,3,.39-1.06.49-2.43ZM799.43,254.51l-.68,1-4.66,5.93-3.69,2.91-.78,2.52L784,274.22l-7.28,3.88-.68.78,1.75-.29,16.6-3.4,6.6-1.36,5.53-1.55,1.56-.29.09.19,25-4.66L858,261.21l38.82-11.06h0l-.29-.49-.1-.29.68.68h0l.78-.19-.1-.1-.68-3.3.49.09,1.55,2.92h0l.29-.1.2-.1-.39-.77-4-6.12-5,.87-2.23,1.85-2.14-1.94-7.28-2.43-5-.19,9.81-.88,5.43,3.69,1.55-2.42L886,235.39l3.1.2-1.65-4.47-3.88.2-9.22-7.48h-1.17l13,6.41-.87-4.47.87-1.45-6.6-2.53-5.73-.38-2.81-2.53-2.33,1.46-.87-6.7,1,.19-.2-5.43-.19-.2-.2.1-.19-.1-.49-.38-.29-.29-3.1-1.36L861,203.85l-4.46-1.17-.29-.09v.09l-.58,4.08-9-3.88.19,5.63-4.95,9.41-3,3.3L836.89,227l-5.92-2-2.91,13.2-2.33,4.47-.39,5.82-1.74,2.81-6.51,1.95-5.34,4.17-2.52.39-2.43,2.13-6.11-2.23-1.07-3-.19-.1Z" fill="none" stroke="#a71333" stroke-linejoin="round" fill-rule="evenodd"/><path id="fa3a7894-6d5a-4a76-a784-04572455e508" data-name="WI" d="M695.18,113.48l-2.43,3-1.45,4.37.68,2.42ZM639.47,90.67l1.45-2-1.07,1Zm2.23-3.2-.49-.58-1.06.68,1.55-.1ZM620.54,92.9l-2.23,2.53,1.06,11.65-6.21,5.62L612,118.14l3.39,3.11-1,13.39,3.6,2.72,2.33.19,7.37,4.47,4.66,4.85,5.92,3,1.36,7.47v.49h0l2.82,3.4-.78,2.62,1,5.72,2.91,4,5.34,2.82-.1.48h0L672,174.44l7.86-1L693,171.62l-.39-1.45V165.6l-2.62-4.85-.68-6.11,1.26-6.8-.68-5.24,2.33-6.5L691.3,135l.19-6,1.26-4.56-1.45-1.55-2.82,1-1.55,4.07-3.69,2.14,1.17-5.15,3.3-4.36.19-1.94.1-.1-4.66-4.66v-6.6L678.1,103l-7.19-.49-7.37-1.94-15.92-4.85L644.51,94l-.29.29-5-.68-1.65,1,.68-7.08-8,4.08-9.7,1.55-.1-.2Zm19-5.14-.19-.68-.68.29Zm-3.49-.68.29-.58-.19-.2-.1.78Zm7.08-1.65-.29-1.36-.29,1.65Z" fill="none" stroke="#a71333" stroke-linejoin="round" fill-rule="evenodd"/><path id="b08f8782-c146-4b6e-a7e1-42cbac2877a4" data-name="WV" d="M826.12,202.39l-13.78,3.4-4.27-18.44h0l-.2.09-.48,21.26-3.11,4.66-3.59,2.72-.68-.78-4,5.44.29,4.27-2.43.39-3.3,5,1.17,3.3L790.3,237l-4.17,2h0v.2l1.94,6.79,5.53,6.7,3.11,1.75h2.43l.29.09.19.1,1.07,3,6.11,2.23,2.43-2.13,2.52-.39,5.34-4.17,6.51-1.95,1.74-2.81.39-5.82,2.33-4.47,2.91-13.2,5.92,2,1.94-5.73,3-3.3,4.95-9.41-.19-5.63,9,3.88.58-4.08v-.09h0l-2.82-4.86-5.82-.68-3.4,2.62v1.94l-2.91.68-4.27,3-2.23.49-4.47,6.31-2.23-10.19-1.94.48Z" fill="none" stroke="#a71333" stroke-linejoin="round" fill-rule="evenodd"/><path id="f33ccd97-6c1c-47ba-a5ab-0240be228c06" data-name="DE" d="M883.19,186.38l.39,1.45,8.06,23,9.22-2.72-.1-.2H901l.3.1h0l.19-.1-.19-.38-2.33-6.22-11.36-10.77.49-7.47h-2.33L884,184.43l-.78,1.95Z" fill="none" stroke="#a71333" stroke-linejoin="round" fill-rule="evenodd"/><path id="b9daf5d2-6cc8-484f-b50b-5701733e46de" data-name="DC" d="M867.56,207.83l.49.39.19.09.2-.09.19.09.68.39.2.29v.68l.19.39,1.26-2.33L869.6,207l-1.65.1-.39.78Z" fill="none" stroke="#a71333" stroke-linejoin="round" fill-rule="evenodd"/><path id="ef304294-e581-4eaa-a9b4-0e3a9fef7220" data-name="MD" d="M901,217l.68-5.24-.58,3.88-.39,1.65-.09.2.29-.1L901,217Zm.49-9-.19.1.19.58v-.68Zm-73.38-6,2.23,10.19,4.47-6.31,2.23-.49,4.27-3,2.91-.68v-1.94l3.4-2.62,5.82.68,2.82,4.86h0l.29.09,4.46,1.17,3.21,2.33,3.1,1.36.29.29.39-.78,1.65-.1,1.36.78-1.26,2.33v.1l-1.84,5.63,6,3.88,6,.29,4,1.84-1.65-4.66-5.14-1.74-1.26-4,3.2,4.27,2.62.39-2.33-2.33-1.84-6.89.48-4-2-4.37,2.14-1.75,1.55-5.63-.58,8.35,1.65,2.81,1.55-3.3.87,5.44-1.65,4,4.76,1.75-4.08,1.36,2.14,4,3.49,1.17,2-3.4-.2,4.76,3.3-.1,2.14,2.43H895l.68-.88,1.94-.87,1.27-.48-.1-.2,2.52-7.47v-.29l-.48-1.94v-.1l-9.22,2.72-8.06-23-.39-1.45-1.65.48L874.65,189,836.7,199.58l-6.89,1.84-1.75.49Z" fill="none" stroke="#a71333" stroke-linejoin="round" fill-rule="evenodd"/><path id="e0e5674d-b7a7-4cba-a4c6-27d3968b33e1" data-name="NJ" d="M906.2,186l-.49-1.17V186Zm1-3.59.29-2.92-.58,2.53.29.39Zm-4-29.8L893,150.07l-1.75-.48-1.65-.39h0l-4.08,9,1.75,2.13-.1,6.51,1.85.29,3.78,9.9-.19.29-4.76,7,.49,5.34,11.45,3.88.1,4.46,2.62-3.68.39-5.34,2.71-1.85-1.06-4,2-4.75V168l-.68-3.4-4.56.1,1.17-4.66.68-7.47Z" fill="none" stroke="#a71333" stroke-linejoin="round" fill-rule="evenodd"/><path id="e51622de-7a4b-42a8-9858-414e3da6d0ab" data-name="NY" d="M902.9,160.46l-1.46,2-.39.58Zm13.39-4.76,4.85-4.27v-.19l-4.85,4.46Zm-12.71,3v-3.3l-.3,1.75Zm22.51-15.53-1.16-.29-.19.88Zm2.62-1.74-.09,1,.19-.59-.1-.38Zm-2.71.09-6.51,6-10,4.27-2.62,2.23-.2,2.14L904,158.42l.39,2.91,4.18-1.65,6.11-5,6.79-3.59,10.29-9.7L924.44,147l-2.33,1,3.89-6.41Zm3-4.07.38-.59-1.16,1.36Zm-109.1-3.6-1.56-.19,1.17,1.55.39-1.36Zm32.22-29.7.2-1.06-.78,1,.58.09Zm.49-7-.39.2-.49,1.07.88-1.27Zm-41.06,55.14.68,2.91,5.14,1.26,29.51-8.06,29.7-8.93,5.44,4.18,1.07,2.42,6.3,2.72.2.39,1.65.39,1.75.48,10.19,2.53-.2-.49.88,4,1.94-.48,1.07-4.37v-.1l-1.75-1.65,2.52-3.1-1.16-1.46-3.69-14.27-.2-1-.48-.29-.29-4.27-.29-4.66-.29-5v-.29l-.2.1L896.2,99.31l-5.15-8.06-1.45-9.61-4.37-10.19-.58.29-20.29,6.8-4.07,4.37-4.57,8.73.2,1.94-6,9.13,3.69,1.26,1.07,6.89-4.28,5.63-12.81,7.77-2.42-1-9.52,1.36L816.8,130l.49,2.82,3.1,2.71-1.74,8.55-7,8.15-.1.1Z" fill="none" stroke="#a71333" stroke-linejoin="round" fill-rule="evenodd"/><path id="a77551ce-9851-4343-ac31-f24ef0e54d43" data-name="PA" d="M889.4,148.81l-6.3-2.72L882,143.67l-5.44-4.18-29.7,8.93-29.51,8.06-5.14-1.26-.68-2.91-1.65,1.26-2.62,1.84-4.76,4.86-.58.48,2.72,11.94.48,2.14,2.43,10.48.49,2h0l4.27,18.44,13.78-3.4,1.94-.48,1.75-.49,6.89-1.84L874.65,189l6.89-2.14,1.65-.48h0l.78-1.95,1.75-1.35h2.33l.29-.88,3.78-4.27.39-.68.29-.19-3.78-9.9-1.85-.29.1-6.51-1.75-2.13,4.08-9h0l-.2-.39Z" fill="none" stroke="#a71333" stroke-linejoin="round" fill-rule="evenodd"/><path id="fd3e1299-1163-4bfc-8788-7b76fb4e0e39" data-name="ME" d="M936.19,97.08h-.1l.2.09-.1-.09Zm7.18-20.68-.78-1.16v.58ZM942,75.34v-1l-.09-.59Zm3.5-4.08-.2-.1.1.29.1-.19Zm9.7-4.85L955,65l-.39.68Zm-2.42.58.09-1.07-1.16.19,1.07.88Zm3.59-3.2H956V64Zm-4.86,1.45-.87-.19-.1.87,1-.68Zm5-3,.88.68-.29-.77Zm-2.62.1L953,64l1.17-.58-.3-1.07Zm-4.17.1-.39.58.29.87.1-1.45Zm5.73-3.21-.1-.77-.29.48.39.29Zm-.49.39-.87-.78v.68Zm-5.43,2.23-.2-1.06-.39.87Zm9.22-3.39-1.46,2.13-.1-1.55Zm7.08-6.51-.68-1-.38.2Zm2.62-4.36-.58-.3-.1.3ZM969.68,40h-.88l1,.3-.09-.3Zm1.45,1-.29-1.75-.78-.1Zm-1.55-1.56-.2-1.84-.68,1.26.88.58Zm-56.3,15.24,14.08,33,.19.68,6.11,7.48v-.1l1-.29.19-5.53,1.55-2,1-5.14-.87-.87,1.65-5,5.63-2.62,3.69-4.47L948.81,62l5.92-.39-.78-4,7.38-2.81.48-4.37,1.75.39,4.85-4,2.14-5.15-4.95-5-5.24-1.07-1.94-4V29.42l-3.21,1-3.59-1.27v-4l-9.7-21L934.83.5,927,7.1l-2.14-.39L923,3.31l-2.53,1-3.59,17.86L918.14,28l1.06,11.84-2.81,9.12,1.94,1.46L916,54.86l-2.52-.39-.2.19Z" fill="none" stroke="#a71333" stroke-linejoin="round" fill-rule="evenodd"/><path id="b9c2709d-a7b6-432b-8c18-d643f0daee3b" data-name="MI" d="M709.35,116.88l-.48-.78-.1,1Zm1.56-1.75-1.17-1.55-.19.68Zm1-7-1-.87v.19Zm-2.43,76,12-1.94,3.4-.68,14.85-2.62.29,1.26,1-.29,6.41-1.36,6.12-1.45,6.21-1.56-.1-.29,3.2-6.31-.29-5.24,3.59-9,2.82,1.65,1.07-2-.29-7.77-2.63-4.85-3.88-10.29-3.4-3.78-1.74-.49-6.31,4.37.68.87-3.3,6.21-3.21-.58-1-6.5,1.36-.49,2.82-6.5.29-11.45-4.37-9.71-9.71-1.65-1-1.46-9-2.62-4.08,5,.39,4.37-3.11,3.88.68,6-3,2.13v-7.57l-2.71,5.73-3.21,5-2.13,1.65,1.06,5.34-1.35,5.53.77,6.89-1,3.4,7,13.39.87,5.15-.87,9.51L710,183.76l-.58.38Zm20.77-87.45-2.52.19,1.55,1.17,1-1.36Zm-14.75,2.52h-.78l.87.39Zm17-12.32-1-1.56-.39.1,1.36,1.46ZM644.51,94l3.11,1.75,15.92,4.85,7.37,1.94,7.19.49,5.24,4.27v6.6l4.66,4.66v-.1l3.78-11,4.57-3.2,3.49-3.88.58,3.49L704,98.34l8.64-3.3.68-1.36,8.74,1.07,3.39,1.75,1.65-4.28,1.56,1,6.79-1.07-1.65-2.72-3-1.75.59-6.31-5.93,3.3L720,84l-1.75-4.17.58-1.36-7.37,3.5-4.76.29-8.54,5.24-1,1.94L692,88.15l-3.3,1.45-6.6-5.72-14.66-4.47-.29-1.74-9.42,9-5.33,1.36-7.57,5.73-.3.19Zm34.36-22-11.35,5.63,3.78,3.69,1.46-3.69,3.88-4.76,2.23-.87Zm-12.71-13.3L658.39,64,658,66.6l6.11-4.46Z" fill="none" stroke="#a71333" stroke-linejoin="round" fill-rule="evenodd"/><path id="f389bd14-73a3-4684-bfac-aaa4a9ac1db5" data-name="AK" d="M90.67,521.63l-.48.2.38.09.1-.29Zm3.59.58h0v0Zm-1.74-1.65v.3l.19-.1-.19-.2Zm-.88-.48V520h0Zm1.85,1v-.19l-.1.09.1.1Zm-.2-.19v-.1H93.1ZM17.58,457.08l-.09.68.19,1.95Zm-.48-2.62.09.88.1-.29Zm76.19,65.23.1-.58-.39.19.29.39Zm11.07,4.76-.1-.1.19.39-.09-.29Zm-7.19-3.4-1.06-1v2.33Zm2.43,2.13-.1-.67-1.65-.1,1.75.77Zm5.83,1.36-.1.2h.19l-.09-.2Zm.38.1h-.19l.39.1ZM107,525h0ZM21.27,459.22l.39.1.29-.1Zm83.57,64.45-.77-.1.29.29.48-.19ZM16,451.65l-1.36-.58-.1.29,1.46.29Zm91.24,72.21-.19-.09v.09Zm5.92,1.17-3.79.29-.87.39Zm-104-88.62H8.07l.2.29Zm115.79,93.08v-.38h-.19Zm5,.1.2-.19-.2-.2Zm3.79,1.07.19-.1h-.1l-.09.1Zm-3.11-1.75-.1-.39h-.19l.29.39Zm6.5,1.46-.09.09h.09ZM9.72,431.46l-1.45.19,1.84,1.65-.39-1.84ZM132,528.91l.19-.58h-.09l-.1.58Zm16.4-1.45.1-.2-.19-.1.09.3Zm-2.42-.88-3.4,3,2.43-.19,2.81-2.24-1.84-.58Zm6.11,1.07-.68-.19.49.38.19-.19Zm1.36.1-1.07-.29-.19.09Zm-3.69-1.36h-1.06l1.84.48Zm4.47,1-.1-.2-.39.1.49.1Zm-2.91-1.17L151,526v1.07Zm12.42,2.43-.1-.1h-.19l.29.1Zm.19-.1v-.09l-.19-.1.19.19Zm-1.65-.58.2.39v-.1l-.2-.29Zm.88,0-.88-.29,1.07.78Zm1.26-1h0v0ZM176,528.43l-.19-.39h-.1l.29.39Zm104.44-6.51-.19-.19.09.19Zm-117.64,3v-.09l-.1.09Zm120.45-4.75.3.38h.19Zm-106.09,7.28-.09.09v.29l.09-.38Zm-12-1.75.19-.78h-.09l-.1.78Zm123.75-7.77-.87.49.78.39.09-.88Zm-122,7.28-.1-.19.1.19Zm-7.28-2.13-2.43.48L155,526.39l4.57-3.3ZM177,526.78l-.58.48.58-.1v-.38Zm111.91-9.32-.19-.39-.1.19.29.2Zm-121.23,6.79-.68-.09.68.68v-.59Zm114.83-5.53-.2.19.2.68ZM169.2,524.16l-.3.09.39.29-.09-.38Zm7.18,2h-.29l-.2-.19Zm-8-2-.49-.3.2.3Zm6.5,1.06-.87.29-.58,1.56,1.45-1.85Zm105.41-6.79v.68l.39-.49-.39-.19Zm-116.86,3.69.78-.2h-.1l-.68.2Zm-1-.59-.2-.19v.1l.2.1Zm117.83-3.78-.19-.1-.1.29.29-.19Zm-106.48,5.82-.19-.09-.19.29.38-.2Zm105.51-5.63.1-.48-.19-.1.09.58Zm-.77-.48-.3.39.49.09-.19-.48Zm-100.66,4.75-.19-.19h-.1l.29.19Zm100.36-6.5.78.29.29-.39-1.07.1Zm1.17-.68-.29.2.48.29Zm-2.23.58-.2-.38-.19.19.39.19Zm9.7-3.59-1.26,3.59,1.26-.77Zm-115,7.48h0Zm106.48-6.12-.87.88.19,1,.68-1.85ZM188,521.15v-.39l-.1.19Zm89.29-8.74,2.82,4.27,6.31,4-1.46-3.4-6-5.14-1.65.29Zm-93.18,7.18-.09-.29-.2.1.29.19Zm96.48-8.83-.38,1.46.68-.49-.3-1Zm2,0-.09,1,.87.29-.78-1.26Zm-95.41,7.57-.49-.1-.48.2,1-.1Zm10,.78-.39.68.19-.58.2-.1Zm1.45.1-.87.09.48.59.39-.68Zm-58.82-12.43,1,.49-.19-.2-.78-.29Zm38.54,9.61.09-.1-.09.1Zm.29-.1h.1v-.09Zm100.36-7.47.49,1.84,1-.58-1.46-1.26Zm-97.74,6.41.1-.1h0Zm93.57-5.63.48,4.46,1-1Zm.48-1.46,2.24,3.11-.3-2Zm-6.89.78-.58,1.84.78-1.26-.2-.58Zm-77.65,4.75-.1-.09.1.09Zm9.22.2-.19-.29.19.38v-.09Zm68.63-6.41,3.88,6.41L272,509.5l-3.3-2Zm-63.19,3.4-.29.29.48.19-.19-.48Zm-1.26.19.09-.29h-.39l.3.29Zm-1,0-2.52,1.65-3.1,4.08,1.55,1.65,7.18-5.34Zm61.25-6.31-.68-.38v.58l.68-.2Zm-61.83,5.15.1.39.68.38-.78-.77Zm63.68-7-1.95,1,1.85.58.1-1.55Zm-1.27,0-.19-.2-.1.2Zm5.93-1.55-.78-.3-.2.59Zm-4.18.68-.68-.1v.19l.68-.09Zm2.14-.78,4,5.82-1.07-5.34-2.91-.48Zm-64.06,6.31-2.33,1.75,1.06,1.16,3.11-2.33-1.84-.58Zm-26.41-3.69-.09-.1v.1Zm-1.06-.49-.1-.48v.19Zm29.79,1.27-.19.09v.1l.19-.19Zm-1-.2h-.09l-.2.29.29-.29Zm2.33-.77-.29-.2v.1l.29.1Zm.78-.1-.29-.2v.1l.29.1Zm-1.26-.29h-.39v.09Zm19.31-1.94.1-.3-.19.2.09.1Zm5.92-3.11,1.17-1.46-.39.3Zm-11.84-.19.39-.3.1-.38-.49.68Zm0-1.07-.39.29.68-.19Zm-15.92,0-.09-.39h-.1l.19.39Zm15.53-.1-.38.39-.2.39Zm10.68-1.16h0Zm.49,0-.2-.1v.1Zm-1.17-.1.1.1v-.1Zm-8,.58.39-.39-.48.39Zm5.92-1.16Zm-4.75.29L222,499.11l3-3.49Zm-3,.48-.29-.38-.1.19.39.19Zm7.38-.87-.2-.1.1.1Zm2.52.19v-.68l-.19.3ZM160,487.66l-4.65-.19,3.2,3.39Zm66.3,6.89.19.68.49-.78-.68.1Zm-3.88-.1-.29,2.14.48-1.36Zm-84.25-16.11.09-.39h0Zm83.28,14.76.09.29.2-.1-.29-.19Zm-.49.38-.19-.58-.29.2Zm4.56-1.16v-.39l-.29.2.29.19Zm-4.37-.58v1l.3-.68Zm-7.37-1.17v-.29h0Zm-50.67-12,.2-.59-.1.1-.1.49Zm.29-1-.1-.1-.09.1Zm4.27-2.33v-.1h0Zm0-.39-.09-.2h0Zm1.75-2.53Zm.58.2-.39-.2v.1l.39.1Zm-.58-.39v-.19l-.19.19Zm-15.53-4.56-.19-.49-.1-.29.29.78Zm1.46-1.75h.09l.1.1-.19-.1Zm-2.62-.48-.78-1,.58.78.2.2Zm-1.56-1.56H151l.29.1-.1-.1Zm.2-1.07Zm-.2-.09h0l.2.09Zm25.72,7.67-1.06.09.58.29.48-.38Zm-26.79-9.42-.77,2.91,2.42.39,3.21,3.3,1.94-.87Zm17,1.17v0Zm-4.85-10.29-.2-.1.1.1Zm2.81,1,.29-.1h-.09l-.2.1Zm1.94-.59h.29l.88-.38-1.17.38Zm3.5-1.06.19-.2-.29.2Zm.48-.1.59-.29-.49.1-.1.19Zm1.46-.58-.49.09v.1l.49-.19Zm.58-.1Zm61.73-17.47-.38-.29-.68-.29,1.06.58Zm-50.86-2.14.88-1.16-.49.39-.39.77Zm1.17-1.35.39-.59-.2.2-.19.39Zm.58-.78.68-.58-.39.19-.29.39Zm30.57.19.49.49H217Zm-15.62-6.4-4,3.3-2.43-.68-5.63,3.2-1.07-.68-6.4,7.18-6.51,1.46.59,3.49,2.91,4,5.43,5.24-.87,2,4.08,1.75-2.14.39-2.62-2,1.36,3-1.75,1.07L176,450l-4.37.78-7.47,2.81,3.4,3.79-.49,2.33,2.23,2.71,7.38,2.92,5.34-2.72.87,2-1.45,6.11H177l-5.24,2.33-.29-1.65-2.72,1.07-1.26,2.81-4.47,3.4v4.95l1.75.78-1.36,4.17,5.83,5.05,3.68-1.56-.77,6.22,1.07,1.36,4.46,1,1.65,1.84,3.88.29,1.85,1.94,4-1.16-1.85,2.52-1.45,5.15-11.85,7.66-1.55,1.56-2.23-.88-3.59.88-5.15,3.39,8.06-2.32,1.16,1.74,10.39-3.4.29,1.36,4.08-4.07,8.54-5.92.68.38,7.47-5.92-1.94-2.33,2.53-4.17,6.6-7.86,5-1,1.56,1.07-6.12,1.74L208,499.7l.2,3.49,2.13-.19,10.29-6.22.78-2.33-.88-3.59,3.11.78,2.23-1.46,6.41,3.89-.49,1.06L246.36,497l3.4-1.07,1,1.46,12.62,6,2.13-1.26.2-7.28,1.65,3.3,8.15,5.92.68,2.43,7.08,4,1.85,5.14,1.75-4,3.59,7,2.42-4-1.94-4.95-7.47-.77L272,498l-6.22-4.56L261,498.05H258.2l-6.5-4.28-6.41-.29-9.12-57.55-1.55-2.72L230.93,431,225.4,432l-4.28-.87L215.69,429l-5.73.39-1.45-2.72-4.57-.68-.77-1.65-2,2.33-.58-4.36Z" fill="none" stroke="#a71333" stroke-linejoin="round" fill-rule="evenodd"/><path d="M732.44,151.05A18.45,18.45,0,0,0,714,169.52c0,14.35,18.44,26.65,18.44,26.65s18.47-12.3,18.47-26.65A18.46,18.46,0,0,0,732.44,151.05Zm0,24.61a6.15,6.15,0,1,1,6.16-6.14A6.15,6.15,0,0,1,732.44,175.66Z" fill="#a71d35" stroke="#a71d35" stroke-miterlimit="10"/></svg>